<svg class="main-svg" xmlns="http://www.w3.org/2000/svg" xmlns:xlink="http://www.w3.org/1999/xlink" width="700" height="450" style="" viewBox="0 0 700 450"><rect x="0" y="0" width="700" height="450" style="fill: rgb(255, 255, 255); fill-opacity: 1;"/><defs id="defs-d4cfc0"><g class="clips"><clipPath id="clipd4cfc0xyplot" class="plotclip"><rect width="528" height="330"/></clipPath><clipPath class="axesclip" id="clipd4cfc0x"><rect x="60" y="0" width="528" height="450"/></clipPath><clipPath class="axesclip" id="clipd4cfc0y"><rect x="0" y="60" width="700" height="330"/></clipPath><clipPath class="axesclip" id="clipd4cfc0xy"><rect x="60" y="60" width="528" height="330"/></clipPath></g><g class="gradients"/></defs><g class="bglayer"/><g class="layer-below"><g class="imagelayer"/><g class="shapelayer"/></g><g class="cartesianlayer"><g class="subplot xy"><g class="layer-subplot"><g class="shapelayer"/><g class="imagelayer"/></g><g class="gridlayer"><g class="x"><path class="xgrid crisp" transform="translate(189.25,0)" d="M0,60v330" style="stroke: rgb(238, 238, 238); stroke-opacity: 1; stroke-width: 1px;"/><path class="xgrid crisp" transform="translate(321.29,0)" d="M0,60v330" style="stroke: rgb(238, 238, 238); stroke-opacity: 1; stroke-width: 1px;"/><path class="xgrid crisp" transform="translate(453.32,0)" d="M0,60v330" style="stroke: rgb(238, 238, 238); stroke-opacity: 1; stroke-width: 1px;"/><path class="xgrid crisp" transform="translate(585.36,0)" d="M0,60v330" style="stroke: rgb(238, 238, 238); stroke-opacity: 1; stroke-width: 1px;"/></g><g class="y"><path class="ygrid crisp" transform="translate(0,309.43)" d="M60,0h528" style="stroke: rgb(238, 238, 238); stroke-opacity: 1; stroke-width: 1px;"/><path class="ygrid crisp" transform="translate(0,245.36)" d="M60,0h528" style="stroke: rgb(238, 238, 238); stroke-opacity: 1; stroke-width: 1px;"/><path class="ygrid crisp" transform="translate(0,181.29000000000002)" d="M60,0h528" style="stroke: rgb(238, 238, 238); stroke-opacity: 1; stroke-width: 1px;"/><path class="ygrid crisp" transform="translate(0,117.22)" d="M60,0h528" style="stroke: rgb(238, 238, 238); stroke-opacity: 1; stroke-width: 1px;"/></g></g><g class="zerolinelayer"><path class="yzl zl crisp" transform="translate(0,373.5)" d="M60,0h528" style="stroke: rgb(68, 68, 68); stroke-opacity: 1; stroke-width: 1px;"/></g><path class="xlines-below"/><path class="ylines-below"/><g class="overlines-below"/><g class="xaxislayer-below"/><g class="yaxislayer-below"/><g class="overaxes-below"/><g class="plot" transform="translate(60, 60)" clip-path="url(#clipd4cfc0xyplot)"><g class="scatterlayer mlayer"><g class="trace scatter traceffc29c" style="stroke-miterlimit: 2; opacity: 1;"><g class="fills"/><g class="errorbars"/><g class="lines"><path class="js-line" d="M0,293.56L0.14,290.32L0.28,298.76L0.42,295.1L0.56,298.16L1.55,283.14L1.69,282.64L1.83,283.28L1.97,281.86L2.11,282.19L2.25,281.64L2.39,281.82L2.53,284.81L3.52,281.58L3.66,282.71L3.8,282.2L3.94,297.92L4.22,281.87L4.79,286.11L4.93,284.43L5.07,285.69L5.35,283.92L5.49,292.62L5.63,292.28L5.77,303.18L6.62,283.73L6.76,285.43L7.04,286.08L7.74,282.73L7.88,283.81L8.02,281.77L8.45,284.36L8.73,282.25L8.87,282.06L9.29,282.47L9.43,281.58L9.57,289.89L9.71,312.19L10.14,282.99L10.28,283.86L10.42,287.72L10.98,289.59L11.26,282.57L11.4,290.61L11.54,296.28L11.68,282.59L12.11,292.32L12.25,286.78L12.39,299.01L12.53,283.49L12.95,283.6L13.09,285.26L13.37,285.53L13.51,281.75L13.65,283.88L13.8,289.07L14.22,281.61L14.5,291.16L14.64,285.81L15.49,281.54L15.63,281.61L15.77,283.68L15.91,290.94L16.33,282.07L16.47,282.09L16.61,282.97L17.03,282.6L17.17,283.1L17.31,281.54L17.88,282.77L18.02,281.47L18.16,281.47L19.43,281.57L19.57,282.55L19.99,281.6L20.41,281.99L20.55,281.67L20.83,282.51L20.97,281.71L21.11,299.01L21.4,281.48L21.68,281.48L21.82,281.49L22.1,281.57L22.24,282.74L23.09,281.48L23.23,281.48L23.93,282.04L24.07,282.37L24.21,282.45L24.35,282.15L24.49,284.73L25.48,281.49L25.62,281.49L26.04,282.36L26.18,289.49L27.03,281.47L27.17,281.47L28.86,281.74L29,282.53L29.98,282.08L30.12,282.09L32.09,281.74L32.23,281.74L34.07,281.64L34.21,281.59L58.28,281.47L58.42,281.47L64.19,281.49L64.33,296.45L64.47,297.04L64.61,294.1L64.89,298.34L65.03,297.32L65.17,282.51L65.31,293.18L65.88,281.63L66.02,288.12L66.44,281.79L67,282.35L67.14,282.25L67.99,281.87L68.13,282.08L69.54,282.03L69.68,282.02L74.89,281.46L75.03,281.46L98.39,281.47L98.53,303.24L98.67,303.77L98.82,302.2L98.96,302.68L99.1,302.11L99.24,302.48L99.38,296.67L99.8,300.92L99.94,293.69L100.08,299.03L100.22,286.55L100.36,287.21L100.5,283.75L100.65,282.87L100.79,285.04L100.93,283.74L101.07,294.08L101.21,281.58L101.63,282.46L101.77,300.7L102.48,281.99L102.62,282.85L102.76,282.01L102.9,285.49L103.46,282.54L103.6,283.39L104.59,282.02L104.73,282.48L105.29,282.83L105.43,282.05L105.57,282.89L106.13,281.62L106.28,282.66L106.42,282.75L106.98,281.8L107.12,282.63L107.68,282.73L107.82,282.07L108.53,282.19L108.67,299.4L109.23,282.14L109.51,282.31L109.65,282.23L109.8,282.5L110.22,281.72L110.36,281.68L111.2,282.19L111.34,281.81L111.48,281.75L113.17,281.57L113.31,282.42L113.6,281.68L113.74,282.24L113.88,299.13L114.72,281.49L114.86,282.19L115.14,282.18L115.29,286.24L115.57,298.25L115.85,282.02L116.13,282.97L116.27,282.65L116.69,298.62L116.97,283.02L117.11,283.01L117.26,283.71L117.54,282.38L117.68,300.69L118.38,282.21L118.52,282.37L118.66,282.45L119.93,281.66L120.07,282.09L120.49,281.54L120.63,283.06L120.77,284.94L121.48,281.48L121.62,281.51L121.76,282.31L123.31,281.79L123.45,282.09L126.12,281.55L126.26,281.55L132.32,281.49L132.46,281.49L152.31,281.59L152.45,306.65L153.15,281.48L153.29,281.51L153.43,281.74L153.85,281.48L154.28,282.52L154.42,282.05L155.54,281.76L155.68,281.78L157.09,281.61L157.23,281.55L158.22,281.48L158.36,293.62L158.5,282.05L158.78,307.39L159.06,287.17L159.2,301L159.62,303.99L160.05,282.44L160.19,281.48L161.17,282.34L161.31,282.25L161.45,282.2L162.44,281.72L162.58,281.69L163.57,281.47L163.71,281.47L176.52,281.48L176.66,281.47L184.68,281.47L184.82,301.64L185.52,281.93L185.81,282.43L185.95,282.68L187.07,281.57L187.21,281.72L187.35,281.57L189.33,281.58L189.47,281.53L224.09,281.47L224.24,303.06L224.37,305.07L224.8,302.79L224.94,304.37L225.08,303.95L225.22,302.54L225.36,282.3L225.5,283.52L225.92,282.18L226.06,282.39L226.21,282.47L227.33,281.82L227.47,281.78L234.37,281.52L234.51,281.54L237.33,281.69L237.47,285.02L237.61,281.49L238.31,281.58L238.45,281.6L241.55,281.51L241.69,296.66L241.97,288.6L242.11,304.58L242.39,295.43L242.53,283.27L242.68,283.79L242.96,283.45L243.1,291.26L243.24,281.63L243.94,281.7L244.08,282.25L244.22,297.1L244.36,281.48L244.93,294.39L245.07,295.24L245.49,281.87L245.91,282.04L246.05,282.37L246.33,283.45L246.47,281.73L246.62,282.59L246.76,284.59L247.32,286.39L247.6,281.86L247.74,281.54L247.88,282.78L248.59,282.49L248.73,282.27L249.01,281.52L249.15,282.49L249.29,283.31L249.85,281.88L249.99,284.73L250.56,282.09L250.84,283.49L250.98,282.88L251.82,281.47L251.96,281.48L252.25,282.03L252.67,281.46L252.81,281.47L261.68,281.97L261.82,282.46L262.1,289.06L262.52,281.74L262.66,282.35L262.8,286.68L263.09,282.02L263.37,282.08L263.51,281.89L264.21,283.48L264.35,281.97L264.49,282.19L264.63,282.53L264.77,281.53L265.06,282.16L265.2,281.76L265.62,281.57L265.76,282.04L265.9,306.42L266.32,281.53L266.74,282.18L266.89,300.37L267.73,281.47L267.87,281.47L270.55,282.12L270.69,290.81L270.83,292.35L270.97,282.18L271.11,283.02L271.25,313.5L271.67,282.07L272.09,282.75L272.23,282.64L273.64,281.59L273.78,281.74L274.63,282.89L274.77,282.62L274.91,282.13L275.19,281.52L275.61,282.77L275.75,282.11L276.18,281.77L276.74,282.38L276.88,282.31L278.15,281.77L278.29,281.67L278.99,282.1L279.13,281.48L279.27,281.58L279.41,282.74L279.84,283.04L280.4,281.47L280.54,281.47L281.95,281.65L282.09,284.27L282.23,307.74L282.65,282.02L282.79,282.72L282.93,282.24L283.92,281.66L284.06,281.88L285.32,281.61L285.47,282.77L286.45,281.77L286.59,282.86L287.44,281.5L287.58,281.81L288.28,281.6L288.42,284.14L289.27,281.47L289.41,281.47L318.69,281.56L318.83,300.02L319.11,304.46L319.39,296.91L319.53,287.01L319.67,292.56L319.95,282.86L320.09,283.18L320.23,284.23L320.52,283.28L320.66,298.22L321.08,282.32L321.5,283.33L321.64,281.48L321.92,283.1L322.63,282.94L322.77,281.76L323.75,281.9L323.89,281.47L327.55,282.04L327.69,282.3L327.84,282.73L327.98,281.66L328.26,282L328.4,311.99L329.24,281.6L329.38,281.68L330.79,281.68L330.93,282.36L333.32,281.81L333.47,281.5L334.31,282.04L334.45,281.87L334.59,281.81L334.73,283.71L335.02,281.47L335.58,281.93L335.72,281.48L336.99,282L337.13,281.47L337.27,281.47L339.94,281.64L340.08,313.5L341.07,281.83L341.21,282.23L341.35,282.81L341.49,281.59L341.77,281.94L341.91,281.93L342.48,281.64L342.62,282.16L342.76,282.21L343.18,281.97L343.32,282.97L343.6,282.02L343.74,289.28L344.02,282.49L344.16,281.95L344.45,282.22L344.59,308.89L345.01,281.47L345.43,281.79L345.57,281.66L346.27,281.58L346.42,282.11L346.56,282.08L348.39,281.53L348.53,281.52L349.51,281.55L349.65,281.51L355.85,281.61L355.99,281.87L356.27,281.69L356.41,302.42L356.55,281.48L357.25,281.98L357.4,282.05L358.38,282.54L358.52,282.13L358.66,282.2L358.8,281.55L358.94,282.54L359.08,282.1L359.22,285.2L360.07,281.47L360.21,281.68L361.06,282.27L361.2,281.55L363.87,281.46L364.01,281.47L369.92,281.55L370.06,313.5L371.05,281.47L371.19,281.47L371.89,281.9L372.04,313.43L372.18,281.89L372.88,282L373.02,281.46L384.14,282.04L384.28,313.45L384.99,281.51L385.13,281.84L385.27,281.91L386.11,281.59L386.25,281.62L386.96,281.51L387.1,282.86L387.94,281.47L388.08,281.47L394.98,281.78L395.12,282.18L396.1,281.55L396.25,281.54L397.37,281.49L397.51,281.47L403.57,281.64L403.71,283.9L404.55,281.47L404.69,281.89L405.4,281.66L405.54,281.73L405.68,281.8L405.82,282.13L406.24,281.48L406.38,281.52L407.23,281.77L407.37,281.62L407.51,281.65L409.48,281.83L409.62,281.66L410.46,281.74L410.6,281.79L411.59,281.76L411.73,313.29L412.15,281.47L412.57,281.55L412.71,281.71L413.56,281.7L413.7,281.98L414.54,281.59L414.69,281.99L414.97,282.48L415.39,281.89L415.53,281.71L416.52,281.83L416.66,281.56L419.75,281.52L419.89,281.53L443.26,281.46L443.4,281.46L483.8,281.98L483.94,282.52L484.08,281.67L484.36,282.88L484.64,282.12L484.79,282.55L485.07,281.51L485.63,281.62L485.77,281.57L487.32,281.58L487.46,282.45L487.74,281.46L488.31,281.71L488.44,281.56L493.23,281.65L493.37,281.52L496.47,281.53L496.61,281.55L501.26,281.55L501.4,281.68L502.52,281.53L502.66,281.56L514.49,281.46L514.63,281.46L516.18,281.97L516.32,282.22L517.3,281.63L517.44,281.63L520.26,281.57L520.4,281.52L527.58,281.64L527.72,281.52L528,281.58" style="vector-effect: non-scaling-stroke; fill: none; stroke: rgb(31, 119, 180); stroke-opacity: 1; stroke-width: 2px; opacity: 1;"/></g><g class="points"/><g class="text"/></g><g class="trace scatter traceb97a1f" style="stroke-miterlimit: 2; opacity: 1;"><g class="fills"/><g class="errorbars"/><g class="lines"><path class="js-line" d="M0,313.5L528,313.5" style="vector-effect: non-scaling-stroke; fill: none; stroke: rgb(255, 127, 14); stroke-opacity: 1; stroke-width: 2px; opacity: 1;"/></g><g class="points"/><g class="text"/></g><g class="trace scatter trace2a57f8" style="stroke-miterlimit: 2; opacity: 1;"><g class="fills"/><g class="errorbars"/><g class="lines"><path class="js-line" d="M0,306.46L0.14,307.14L0.28,303.5L1.13,313.45L1.27,312.95L1.41,310.6L2.11,313.49L2.25,313.46L2.39,313.49L3.8,313.49L3.94,306.07L4.36,313.49L4.51,308.39L4.65,300.9L4.79,313.49L5.07,297.92L5.35,312.34L5.49,291.25L6.33,313.34L6.48,313.05L6.62,313.43L7.74,313.45L7.88,312.77L8.73,313.49L8.87,313.47L9.43,313.48L9.57,289.84L10.42,313.49L10.56,313.49L11.4,311.19L11.54,297.77L11.68,313.23L12.11,289.9L12.25,312.64L12.39,307.54L13.23,313.49L13.37,313.19L13.51,313.5L13.65,313.32L13.8,311.57L14.22,313.49L14.64,312.94L14.78,313.32L14.92,313.46L15.06,294.75L15.63,313.5L15.91,306.9L16.05,313.5L20.83,313.5L20.97,312.28L21.82,313.5L21.96,313.5L64.19,313.5L64.33,303.75L64.75,310.5L64.89,306.02L65.03,293.92L65.17,312.97L65.88,312.12L66.02,300.79L66.86,313.5L67,313.49L88.26,313.5L88.4,313.5L98.39,313.5L98.53,299.77L99.38,304.94L99.52,304.7L100.08,302.74L100.5,313.41L100.65,313.45L100.79,313.31L100.93,313.48L101.07,304.21L101.49,313.49L101.91,313.44L102.05,313.48L102.76,313.5L102.9,310.75L103.74,313.49L103.88,313.49L106.28,313.49L106.42,309.68L107.26,313.49L107.4,313.49L108.53,313.5L108.67,309.36L109.51,313.49L109.65,313.49L113.74,313.5L113.88,288.91L114.72,313.5L114.86,313.5L115.14,313.49L115.29,310.4L115.57,302.47L116.13,313.5L116.27,313.49L116.69,299.65L116.83,300.02L116.97,313.48L117.54,313.5L117.68,302.81L118.52,313.49L118.66,313.5L120.07,313.49L120.21,312.54L121.06,313.49L121.2,313.49L142.45,313.5L142.59,313.5L152.31,313.5L152.45,309.29L153.29,313.5L153.43,313.5L158.22,313.5L158.36,307.04L158.5,313.17L158.64,288.24L158.92,309.57L159.06,283.8L159.91,313.47L160.05,313.48L170.75,313.5L170.89,313.5L184.68,313.5L184.82,302.13L185.67,313.47L185.81,313.49L206.5,313.5L206.64,313.5L224.09,313.5L224.24,308.13L224.52,301.35L224.94,304.53L225.08,306.41L225.22,303.5L225.36,313.44L225.5,313.44L227.47,313.5L227.61,313.5L238.87,313.5L239.01,281.46L241.41,281.47L241.55,286.18L242.25,311.27L242.39,295.37L242.81,313.44L243.24,313.42L243.38,313.49L244.22,312.29L244.36,313.49L244.79,313.49L244.93,301.95L245.63,313.5L245.77,313.35L245.91,313.5L246.62,313.49L246.76,311.02L247.46,313.5L247.6,313.49L247.74,313.5L248.02,312.9L248.59,313.41L248.73,313.5L249.01,312.56L249.43,313.14L249.57,313.49L261.82,313.44L261.96,298.77L262.38,313.49L262.94,313.36L263.09,313.5L266.74,313.5L266.89,311.65L267.73,313.5L267.87,313.5L270.55,313.5L270.69,312.57L270.97,313.5L271.53,298.31L271.67,313.48L271.81,308.57L272.37,313.5L272.52,313.5L274.49,313.24L274.63,312.48L275.33,313.49L275.47,313.46L275.61,313.48L282.09,313.23L282.23,308.08L283.07,313.5L283.21,313.5L287.58,313.5L287.72,306.56L288.56,313.5L288.7,313.5L318.69,313.5L318.83,299.52L319.81,313.44L319.95,313.27L320.09,313.11L320.52,313.49L320.66,312.06L321.36,313.5L321.5,313.37L321.64,313.42L322.49,313.5L322.63,312.86L323.47,313.5L323.61,313.49L328.26,313.45L328.4,309.66L329.24,313.5L329.38,313.5L339.94,313.5L340.08,291.26L340.93,313.5L341.07,313.5L343.6,313.45L343.74,311.23L344.45,313.5L344.59,311.65L345.43,313.5L345.57,313.5L356.27,313.5L356.41,308.22L357.25,313.5L357.4,313.5L384.14,313.46L384.28,308.22L384.99,313.5L385.13,313.48L385.27,313.5L515.75,313.5L515.89,304.03L516.74,313.5L516.88,313.5L528,313.5" style="vector-effect: non-scaling-stroke; fill: none; stroke: rgb(44, 160, 44); stroke-opacity: 1; stroke-width: 2px; opacity: 1;"/></g><g class="points"/><g class="text"/></g><g class="trace scatter tracea75362" style="stroke-miterlimit: 2; opacity: 1;"><g class="fills"/><g class="errorbars"/><g class="lines"><path class="js-line" d="M0,306.8L0.28,306.88L0.42,304.88L0.56,310.55L1.27,313.39L1.41,309.84L2.25,313.5L2.39,313.5L2.53,312.77L3.24,313.03L3.38,313.5L3.8,313.49L3.94,306.56L4.22,313.5L4.51,303.87L4.79,313.16L4.93,313.06L5.35,313.39L5.63,308.41L5.77,309.36L5.91,313.3L6.05,313.4L6.19,312.11L6.33,313.16L6.48,295.88L6.9,313.39L7.32,313.37L7.46,313.23L7.74,312.67L7.88,313.49L8.02,313.5L8.16,313.5L9.57,313.5L9.71,283.95L10.14,313.37L10.56,313.27L10.7,310.93L10.84,306.35L10.98,312.63L11.26,312.28L11.4,312.78L11.54,312.58L11.68,303.14L12.11,313.5L12.53,313.42L12.67,313.41L13.23,312.25L13.37,313.3L14.36,313.44L14.5,313.28L14.64,312.99L14.78,313.44L15.2,313.3L15.34,309.14L16.05,313.5L16.19,312.59L16.33,313.49L17.74,313.47L17.88,313.47L20.97,313.49L21.11,286.48L21.96,313.5L22.1,313.5L24.35,313.49L24.49,303.88L25.34,313.5L25.48,313.5L26.04,313.23L26.18,290.75L27.03,313.5L27.17,313.5L64.19,313.5L64.33,297.05L65.17,313.44L65.31,313.38L65.46,311.98L65.6,313.33L65.74,302.49L66.44,313.5L66.58,313.48L66.72,313.47L88.54,313.5L88.68,313.5L98.39,313.5L98.53,304L99.24,307.16L99.38,305.32L99.8,301.56L100.22,312.82L100.36,300.74L101.07,313.5L101.21,310.36L101.35,313.48L101.63,313.46L101.77,310.84L102.05,313.47L102.34,313.44L102.48,309.43L102.76,313.49L102.9,307.67L103.32,313.41L103.46,313.48L108.53,313.49L108.67,296.17L109.51,313.48L109.65,313.49L113.45,313.49L113.6,313.5L113.88,312.4L114.02,305.09L114.72,313.5L114.86,313.48L115,313.49L115.29,311.24L115.43,313.49L115.57,302.62L116.27,313.47L116.41,313.46L116.55,304.51L117.4,313.48L117.54,313.15L117.68,307.01L118.24,313.49L118.38,313.49L125.28,313.49L125.42,313.5L152.31,313.5L152.45,293.96L153.29,313.5L153.43,313.5L158.22,313.15L158.36,306.58L158.5,313.48L158.92,300.1L159.2,312.68L159.34,313.44L159.48,308.68L160.05,313.47L160.19,313.5L181.02,313.5L181.16,313.5L184.68,313.5L184.82,307.5L184.96,300.36L185.24,313.46L185.38,304.78L185.52,313.46L185.67,312.71L186.23,313.44L186.37,313.48L207.91,313.5L208.05,313.5L224.09,313.47L224.24,300.07L224.52,308.41L224.94,304.99L225.08,303.32L225.92,313.49L226.06,313.48L226.21,313.48L241.41,313.5L241.55,311.62L241.97,313.25L242.25,308.82L242.39,313.48L242.53,312.92L242.96,313.43L243.1,302.23L243.94,313.5L244.08,313.32L244.79,313.5L244.93,313.03L245.07,299.89L245.49,313.5L245.63,313.46L245.77,313.49L246.62,313.47L246.76,305.97L247.6,313.5L247.74,313.5L248.02,312.27L248.45,313.5L248.59,313.49L250.98,313.47L251.12,309.59L251.96,313.5L252.11,313.48L261.82,313.49L261.96,302.62L262.66,313.48L262.8,306.96L263.51,313.5L263.65,313.49L263.79,313.49L265.76,313.49L265.9,285.16L266.6,313.5L266.74,313.49L266.89,313.5L270.69,313.02L270.83,306.94L270.97,313.46L271.11,313.34L271.25,281.66L271.39,313.5L272.09,313.45L272.23,313.46L278.85,313.5L278.99,313.01L279.84,313.48L279.98,313.48L282.09,313.49L282.23,291.29L283.07,313.5L283.21,313.5L318.69,313.5L318.83,295.32L319.67,313.42L319.81,312.7L319.95,307.93L320.52,313.45L320.8,313.43L320.94,313.43L321.08,309.21L321.64,313.5L321.78,313.49L323.05,313.49L323.19,313.5L340.08,313.5L340.22,303.02L341.07,313.5L341.21,313.49L343.6,313.45L343.74,303.34L344.59,313.5L344.73,313.5L356.27,313.5L356.41,295.55L356.83,313.5L357.25,313.47L357.4,313.49L369.92,313.5L370.06,281.47L371.05,313.5L371.19,313.5L371.89,313.48L372.04,281.77L373.02,313.5L373.16,313.5L387.38,313.5L387.52,299.57L388.36,313.5L388.5,313.5L411.59,313.5L411.73,281.95L412.57,313.5L412.71,313.5L528,313.5" style="vector-effect: non-scaling-stroke; fill: none; stroke: rgb(214, 39, 40); stroke-opacity: 1; stroke-width: 2px; opacity: 1;"/></g><g class="points"/><g class="text"/></g><g class="trace scatter tracec87db7" style="stroke-miterlimit: 2; opacity: 1;"><g class="fills"/><g class="errorbars"/><g class="lines"><path class="js-line" d="M0,310.47L0.85,313.43L0.99,313.46L2.67,313.45L2.82,313.46L9.57,313.48L9.71,313.49L528,313.47" style="vector-effect: non-scaling-stroke; fill: none; stroke: rgb(148, 103, 189); stroke-opacity: 1; stroke-width: 2px; opacity: 1;"/></g><g class="points"/><g class="text"/></g><g class="trace scatter trace966c79" style="stroke-miterlimit: 2; opacity: 1;"><g class="fills"/><g class="errorbars"/><g class="lines"><path class="js-line" d="M0,16.5L0.85,311.55L0.99,310.76L1.27,309.65L1.41,311.14L1.55,312.9L1.69,312.14L1.83,306.66L2.53,312.63L2.67,312.57L2.82,310.01L3.66,313.05L3.8,313.01L3.94,312.9L4.08,309.93L4.36,313.03L4.65,309.82L4.79,312.09L4.93,310.64L5.63,312.83L5.77,312.34L5.91,312.55L6.05,311.38L6.62,312.73L6.76,312.94L6.9,312.12L7.18,312.75L7.32,299.99L7.74,313.04L8.16,312.88L8.31,312.65L9.29,313.29L9.43,312.5L9.71,313.13L9.85,312.76L10,311.78L10.28,311.44L10.42,312.01L10.56,309.94L10.98,312.54L11.12,303.22L11.4,312.88L11.97,312.75L12.11,312.59L12.39,312.46L12.53,313.2L12.81,312.86L12.95,311.84L13.51,313.2L13.8,313.05L13.94,313.12L14.92,311.93L15.06,313.13L15.77,312.19L16.05,312.88L16.19,313.23L17.17,311L17.31,312.95L18.02,313.02L18.16,313.23L18.3,313.25L18.44,312.83L19,313.26L19.14,313.32L19.99,313.08L20.13,313.26L20.97,312.36L21.26,312.74L21.4,313.19L22.24,313.28L22.38,307.97L23.23,313.3L23.37,312.84L23.79,313.33L23.93,312L24.77,313.23L24.92,312.89L25.9,313.32L26.04,313.22L26.46,312.04L26.89,312.91L27.03,313.1L28.58,313.27L28.72,312.98L29.28,313.38L29.56,313.23L29.7,313.17L30.41,312.98L30.55,313.23L30.69,313.3L31.39,312.84L31.53,313.15L32.66,313.31L32.8,313.06L33.5,313.33L33.64,313.07L33.78,313.02L34.63,313.09L34.77,313.23L39.98,313.28L40.12,312.55L41.1,313.29L41.24,313.24L42.23,313.33L42.37,313.36L43.5,313.33L43.64,313.42L43.78,312.82L44.34,313.29L44.48,313.2L45.89,313.41L46.03,313.15L46.87,313.35L47.02,313.35L53.63,313.43L53.77,312.63L54.62,313.37L54.76,313.38L55.6,313.33L55.74,313.37L57.99,313.35L58.13,313.04L58.98,313.44L59.12,313.18L59.26,313.26L60.53,313.2L60.67,313.39L62.22,313.44L62.36,313.43L63.34,312.24L63.48,313.33L64.19,313.43L64.33,312.44L64.47,282.67L64.89,312.84L65.03,312.47L65.17,312.61L66.3,313.07L66.44,313.18L67.85,313.3L67.99,313.2L68.97,313.27L69.11,313.33L70.24,313.2L70.38,313.27L71.09,313.14L71.23,313.22L73.2,313.41L73.34,313.36L76.29,313.34L76.44,313.4L80.09,313.43L80.23,313.29L81.5,313.41L81.64,313.46L83.61,313.36L83.75,313.4L83.9,313.08L84.46,313.43L84.6,313.4L86.29,313.43L86.43,313.45L87.41,313.43L87.55,313.42L89.95,313.34L90.09,313.43L90.93,313.38L91.07,313.4L92.06,313.45L92.2,313.42L95.16,313.45L95.3,313.46L96.14,313.44L96.28,313.45L98.39,313.33L98.53,312.43L98.67,309.67L98.96,313.18L99.24,313.04L99.38,312.71L100.5,313.22L100.65,312.91L100.79,307.2L101.21,313.18L101.35,312L101.49,312.96L102.34,313.24L102.48,313.12L103.74,312.56L103.88,312.94L104.02,313.31L104.87,313.21L105.01,313.34L106.13,312.88L106.28,313.28L106.42,313.26L106.98,313.28L107.12,312.79L108.11,313.26L108.25,313.25L109.51,313.36L109.65,312.77L110.36,313.33L110.5,313.14L110.64,313.35L112.05,313.32L112.19,313.36L113.88,313.2L114.02,312.19L114.86,313.37L115,313.24L116.13,313.24L116.27,313.2L118.94,313.26L119.08,311.66L119.93,313.31L120.07,313.27L120.92,310.81L121.06,312.86L121.2,312.4L121.48,313.18L121.76,313.06L121.9,313.24L122.04,312.82L122.6,313.03L122.75,313.34L123.59,313.29L123.73,313.34L124.43,312.83L124.57,313.14L124.72,313.33L125,312.67L125.56,313.19L125.7,313.31L130.91,313.4L131.05,313.31L132.46,313.4L132.6,313.36L133.58,313.41L133.72,313.11L134.57,313.39L134.71,313.35L136.12,313.44L136.26,313.45L139.92,313.42L140.06,313.45L140.9,313.22L141.04,313.42L142.17,313.4L142.31,313.37L143.16,313.46L143.3,312.98L144.56,313.47L144.7,313.46L150.19,313.43L150.34,311.23L151.04,313.44L151.18,313.37L151.32,313.44L152.87,312.85L153.01,298.85L153.43,313.38L153.85,312.74L153.99,313.34L154.28,312.6L154.42,313.32L154.56,313.34L156.39,313.24L156.53,313.29L158.22,313.44L158.36,312.64L158.5,312.46L158.64,313.16L158.92,313.14L159.06,313.16L159.48,312.57L159.91,313.2L160.05,313.23L160.19,312.84L160.33,313.37L160.75,313.3L160.89,313.39L162.16,312.92L162.3,313.32L163.43,313.4L163.57,313.39L184.68,313.43L184.82,312.49L184.96,309.81L185.38,313.21L185.52,313.02L185.67,313.1L186.51,313.26L186.65,313.08L186.93,312.59L188.48,313.42L188.62,313.34L190.17,313.39L190.31,313.15L191.01,313.35L191.16,313.21L191.3,313.34L192.42,313.43L192.56,313.43L196.65,313.44L196.79,313.47L198.62,313.41L198.76,313.45L203.26,313.36L203.4,313.46L206.5,313.45L206.64,313.46L211.99,313.39L212.13,313.46L220.01,313.46L220.15,313.2L221.14,313.43L221.28,313.38L222.97,313.41L223.11,313.44L226.06,312.86L226.21,312.16L227.05,313.26L227.19,313.37L229.3,313.4L229.44,313.42L234.37,313.4L234.51,313.34L236.62,313.35L236.76,313.37L237.47,313.44L237.61,311.68L238.45,313.32L238.59,313.26L240.28,313.37L240.42,313.2L241.41,313.45L241.55,313.37L242.25,312.87L242.39,313.29L244.22,313.36L244.36,313.41L252.53,313.27L252.67,313.38L259,313.39L259.14,313.45L261.82,313.28L261.96,312.71L262.66,313.32L262.8,312.38L263.37,313.36L263.65,313.2L263.79,313.09L264.63,313.28L264.77,313.21L270.55,313.34L270.69,312.98L271.39,313.31L271.53,313.15L271.67,313.15L272.66,313.31L272.8,313.23L274.35,313.37L274.49,313.17L275.61,313.34L275.75,312.68L276.6,313.24L276.74,313.29L277.44,313.23L277.58,313.36L279.41,313.37L279.55,313.34L281.95,313.42L282.09,313.44L282.93,313.26L283.07,313.39L284.34,313.25L284.48,313.42L286.03,313.23L286.17,313.38L304.33,313.43L304.47,312.71L305.03,313.45L305.31,313.34L305.45,313.41L305.6,313.02L306.16,313.46L306.3,313.31L307.28,313.41L307.43,313.43L312.35,313.46L312.49,313.47L322.77,313.37L322.91,313.41L329.53,313.41L329.67,313.44L329.81,312.62L330.37,313.35L330.51,313.34L333.75,313.41L333.89,313.39L342.05,313.39L342.19,313.25L342.76,313.22L342.9,312.8L343.32,312.61L343.6,313.34L343.74,313.21L343.88,313.36L350.92,313.37L351.06,313.37L352.61,313.42L352.75,313.45L358.1,313.32L358.24,312.88L359.08,313.35L359.22,313.33L362.32,313.47L362.46,313.41L369.08,313.39L369.22,313.37L371.19,313.39L371.33,313.04L372.18,313.34L372.32,313.38L373.58,313.43L373.72,313.42L379.5,313.47L379.64,313.46L387.1,313.36L387.24,313.13L388.08,313.42L388.22,313.44L398.78,313.46L398.92,313.42L402.86,313.43L403,309.45L403.85,313.38L403.99,313.33L405.54,313.3L405.68,313.42L406.52,313.27L406.66,313.39L406.8,313.38L408.63,313.39L408.77,313.39L410.74,313.45L410.89,313.41L415.67,313.28L415.81,311.16L416.52,313.34L416.66,313.28L416.8,313.38L422.29,313.41L422.43,313.39L424.4,313.43L424.54,313.45L483.94,313.4L484.08,312.7L484.93,313.44L485.07,313.39L488.87,313.47L489.01,313.46L510.54,313.48L510.69,313.48L528,313.48" style="vector-effect: non-scaling-stroke; fill: none; stroke: rgb(140, 86, 75); stroke-opacity: 1; stroke-width: 2px; opacity: 1;"/></g><g class="points"/><g class="text"/></g></g></g><g class="overplot"/><path class="xlines-above crisp" d="M0,0" style="fill: none;"/><path class="ylines-above crisp" d="M0,0" style="fill: none;"/><g class="overlines-above"/><g class="xaxislayer-above"><g class="xtick"><text text-anchor="middle" x="0" y="403" transform="translate(189.25,0)" style="font-family: 'Open Sans', verdana, arial, sans-serif; font-size: 12px; fill: rgb(68, 68, 68); fill-opacity: 1; white-space: pre;">50</text></g><g class="xtick"><text text-anchor="middle" x="0" y="403" transform="translate(321.29,0)" style="font-family: 'Open Sans', verdana, arial, sans-serif; font-size: 12px; fill: rgb(68, 68, 68); fill-opacity: 1; white-space: pre;">100</text></g><g class="xtick"><text text-anchor="middle" x="0" y="403" transform="translate(453.32,0)" style="font-family: 'Open Sans', verdana, arial, sans-serif; font-size: 12px; fill: rgb(68, 68, 68); fill-opacity: 1; white-space: pre;">150</text></g><g class="xtick"><text text-anchor="middle" x="0" y="403" transform="translate(585.36,0)" style="font-family: 'Open Sans', verdana, arial, sans-serif; font-size: 12px; fill: rgb(68, 68, 68); fill-opacity: 1; white-space: pre;">200</text></g></g><g class="yaxislayer-above"><g class="ytick"><text text-anchor="end" x="59" y="4.199999999999999" transform="translate(0,373.5)" style="font-family: 'Open Sans', verdana, arial, sans-serif; font-size: 12px; fill: rgb(68, 68, 68); fill-opacity: 1; white-space: pre;">0</text></g><g class="ytick"><text text-anchor="end" x="59" y="4.199999999999999" transform="translate(0,309.43)" style="font-family: 'Open Sans', verdana, arial, sans-serif; font-size: 12px; fill: rgb(68, 68, 68); fill-opacity: 1; white-space: pre;">2</text></g><g class="ytick"><text text-anchor="end" x="59" y="4.199999999999999" transform="translate(0,245.36)" style="font-family: 'Open Sans', verdana, arial, sans-serif; font-size: 12px; fill: rgb(68, 68, 68); fill-opacity: 1; white-space: pre;">4</text></g><g class="ytick"><text text-anchor="end" x="59" y="4.199999999999999" transform="translate(0,181.29000000000002)" style="font-family: 'Open Sans', verdana, arial, sans-serif; font-size: 12px; fill: rgb(68, 68, 68); fill-opacity: 1; white-space: pre;">6</text></g><g class="ytick"><text text-anchor="end" x="59" y="4.199999999999999" transform="translate(0,117.22)" style="font-family: 'Open Sans', verdana, arial, sans-serif; font-size: 12px; fill: rgb(68, 68, 68); fill-opacity: 1; white-space: pre;">8</text></g></g><g class="overaxes-above"/></g></g><g class="polarlayer"/><g class="ternarylayer"/><g class="geolayer"/><g class="pielayer"/><g class="glimages"/><defs id="topdefs-d4cfc0"><g class="clips"/><clipPath id="legendd4cfc0"><rect width="89" height="124" x="0" y="0"/></clipPath></defs><g class="layer-above"><g class="imagelayer"/><g class="shapelayer"/></g><g class="infolayer"><g class="legend" pointer-events="all" transform="translate(598.5600000000001, 60)"><rect class="bg" shape-rendering="crispEdges" width="89" height="124" x="0" y="0" style="stroke: rgb(68, 68, 68); stroke-opacity: 1; fill: rgb(255, 255, 255); fill-opacity: 1; stroke-width: 0px;"/><g class="scrollbox" transform="translate(0, 0)" clip-path="url(#legendd4cfc0)"><g class="groups"><g class="traces" transform="translate(0, 14.5)" style="opacity: 1;"><g class="layers" style="opacity: 1;"><g class="legendfill"/><g class="legendlines"><path class="js-line" d="M5,0h30" style="fill: none; stroke: rgb(31, 119, 180); stroke-opacity: 1; stroke-width: 2px;"/></g><g class="legendsymbols"><g class="legendpoints"/></g></g><text class="legendtext user-select-none" text-anchor="start" x="40" y="4.680000000000001" style="font-family: 'Open Sans', verdana, arial, sans-serif; font-size: 12px; fill: rgb(68, 68, 68); fill-opacity: 1; white-space: pre;">G_GAN</text><rect class="legendtoggle" pointer-events="all" x="0" y="-9.5" width="129" height="19" style="cursor: pointer; fill: rgb(0, 0, 0); fill-opacity: 0;"/></g><g class="traces" transform="translate(0, 33.5)" style="opacity: 1;"><g class="layers" style="opacity: 1;"><g class="legendfill"/><g class="legendlines"><path class="js-line" d="M5,0h30" style="fill: none; stroke: rgb(255, 127, 14); stroke-opacity: 1; stroke-width: 2px;"/></g><g class="legendsymbols"><g class="legendpoints"/></g></g><text class="legendtext user-select-none" text-anchor="start" x="40" y="4.680000000000001" style="font-family: 'Open Sans', verdana, arial, sans-serif; font-size: 12px; fill: rgb(68, 68, 68); fill-opacity: 1; white-space: pre;">G_L1</text><rect class="legendtoggle" pointer-events="all" x="0" y="-9.5" width="129" height="19" style="cursor: pointer; fill: rgb(0, 0, 0); fill-opacity: 0;"/></g><g class="traces" transform="translate(0, 52.5)" style="opacity: 1;"><g class="layers" style="opacity: 1;"><g class="legendfill"/><g class="legendlines"><path class="js-line" d="M5,0h30" style="fill: none; stroke: rgb(44, 160, 44); stroke-opacity: 1; stroke-width: 2px;"/></g><g class="legendsymbols"><g class="legendpoints"/></g></g><text class="legendtext user-select-none" text-anchor="start" x="40" y="4.680000000000001" style="font-family: 'Open Sans', verdana, arial, sans-serif; font-size: 12px; fill: rgb(68, 68, 68); fill-opacity: 1; white-space: pre;">D_real</text><rect class="legendtoggle" pointer-events="all" x="0" y="-9.5" width="129" height="19" style="cursor: pointer; fill: rgb(0, 0, 0); fill-opacity: 0;"/></g><g class="traces" transform="translate(0, 71.5)" style="opacity: 1;"><g class="layers" style="opacity: 1;"><g class="legendfill"/><g class="legendlines"><path class="js-line" d="M5,0h30" style="fill: none; stroke: rgb(214, 39, 40); stroke-opacity: 1; stroke-width: 2px;"/></g><g class="legendsymbols"><g class="legendpoints"/></g></g><text class="legendtext user-select-none" text-anchor="start" x="40" y="4.680000000000001" style="font-family: 'Open Sans', verdana, arial, sans-serif; font-size: 12px; fill: rgb(68, 68, 68); fill-opacity: 1; white-space: pre;">D_fake</text><rect class="legendtoggle" pointer-events="all" x="0" y="-9.5" width="129" height="19" style="cursor: pointer; fill: rgb(0, 0, 0); fill-opacity: 0;"/></g><g class="traces" transform="translate(0, 90.5)" style="opacity: 1;"><g class="layers" style="opacity: 1;"><g class="legendfill"/><g class="legendlines"><path class="js-line" d="M5,0h30" style="fill: none; stroke: rgb(148, 103, 189); stroke-opacity: 1; stroke-width: 2px;"/></g><g class="legendsymbols"><g class="legendpoints"/></g></g><text class="legendtext user-select-none" text-anchor="start" x="40" y="4.680000000000001" style="font-family: 'Open Sans', verdana, arial, sans-serif; font-size: 12px; fill: rgb(68, 68, 68); fill-opacity: 1; white-space: pre;">T_A</text><rect class="legendtoggle" pointer-events="all" x="0" y="-9.5" width="129" height="19" style="cursor: pointer; fill: rgb(0, 0, 0); fill-opacity: 0;"/></g><g class="traces" transform="translate(0, 109.5)" style="opacity: 1;"><g class="layers" style="opacity: 1;"><g class="legendfill"/><g class="legendlines"><path class="js-line" d="M5,0h30" style="fill: none; stroke: rgb(140, 86, 75); stroke-opacity: 1; stroke-width: 2px;"/></g><g class="legendsymbols"><g class="legendpoints"/></g></g><text class="legendtext user-select-none" text-anchor="start" x="40" y="4.680000000000001" style="font-family: 'Open Sans', verdana, arial, sans-serif; font-size: 12px; fill: rgb(68, 68, 68); fill-opacity: 1; white-space: pre;">T_B</text><rect class="legendtoggle" pointer-events="all" x="0" y="-9.5" width="129" height="19" style="cursor: pointer; fill: rgb(0, 0, 0); fill-opacity: 0;"/></g></g></g><rect class="scrollbar" rx="20" ry="3" width="0" height="0" x="0" y="0" style="fill: rgb(128, 139, 164); fill-opacity: 1;"/></g><g class="g-gtitle"><text class="gtitle" x="350" y="30" text-anchor="middle" dy="0em" style="font-family: 'Open Sans', verdana, arial, sans-serif; font-size: 17px; fill: rgb(68, 68, 68); opacity: 1; font-weight: normal; white-space: pre;">rss_expr4.11 loss over time</text></g><g class="g-xtitle"><text class="xtitle" x="324" y="442" text-anchor="middle" style="font-family: 'Open Sans', verdana, arial, sans-serif; font-size: 14px; fill: rgb(68, 68, 68); opacity: 1; font-weight: normal; white-space: pre;">epoch</text></g><g class="g-ytitle"><text class="ytitle" transform="rotate(-90,22,225)" x="22" y="225" text-anchor="middle" style="font-family: 'Open Sans', verdana, arial, sans-serif; font-size: 14px; fill: rgb(68, 68, 68); opacity: 1; font-weight: normal; white-space: pre;">loss</text></g></g></svg>