<svg class="main-svg" xmlns="http://www.w3.org/2000/svg" xmlns:xlink="http://www.w3.org/1999/xlink" width="700" height="450" style="" viewBox="0 0 700 450"><rect x="0" y="0" width="700" height="450" style="fill: rgb(255, 255, 255); fill-opacity: 1;"/><defs id="defs-c90d39"><g class="clips"><clipPath id="clipc90d39xyplot" class="plotclip"><rect width="528" height="330"/></clipPath><clipPath class="axesclip" id="clipc90d39x"><rect x="60" y="0" width="528" height="450"/></clipPath><clipPath class="axesclip" id="clipc90d39y"><rect x="0" y="60" width="700" height="330"/></clipPath><clipPath class="axesclip" id="clipc90d39xy"><rect x="60" y="60" width="528" height="330"/></clipPath></g><g class="gradients"/></defs><g class="bglayer"/><g class="layer-below"><g class="imagelayer"/><g class="shapelayer"/></g><g class="cartesianlayer"><g class="subplot xy"><g class="layer-subplot"><g class="shapelayer"/><g class="imagelayer"/></g><g class="gridlayer"><g class="x"><path class="xgrid crisp" transform="translate(218.39,0)" d="M0,60v330" style="stroke: rgb(238, 238, 238); stroke-opacity: 1; stroke-width: 1px;"/><path class="xgrid crisp" transform="translate(380.19,0)" d="M0,60v330" style="stroke: rgb(238, 238, 238); stroke-opacity: 1; stroke-width: 1px;"/><path class="xgrid crisp" transform="translate(541.99,0)" d="M0,60v330" style="stroke: rgb(238, 238, 238); stroke-opacity: 1; stroke-width: 1px;"/></g><g class="y"><path class="ygrid crisp" transform="translate(0,322.6)" d="M60,0h528" style="stroke: rgb(238, 238, 238); stroke-opacity: 1; stroke-width: 1px;"/><path class="ygrid crisp" transform="translate(0,271.7)" d="M60,0h528" style="stroke: rgb(238, 238, 238); stroke-opacity: 1; stroke-width: 1px;"/><path class="ygrid crisp" transform="translate(0,220.8)" d="M60,0h528" style="stroke: rgb(238, 238, 238); stroke-opacity: 1; stroke-width: 1px;"/><path class="ygrid crisp" transform="translate(0,169.9)" d="M60,0h528" style="stroke: rgb(238, 238, 238); stroke-opacity: 1; stroke-width: 1px;"/><path class="ygrid crisp" transform="translate(0,119)" d="M60,0h528" style="stroke: rgb(238, 238, 238); stroke-opacity: 1; stroke-width: 1px;"/><path class="ygrid crisp" transform="translate(0,68.1)" d="M60,0h528" style="stroke: rgb(238, 238, 238); stroke-opacity: 1; stroke-width: 1px;"/></g></g><g class="zerolinelayer"><path class="yzl zl crisp" transform="translate(0,373.5)" d="M60,0h528" style="stroke: rgb(68, 68, 68); stroke-opacity: 1; stroke-width: 1px;"/></g><path class="xlines-below"/><path class="ylines-below"/><g class="overlines-below"/><g class="xaxislayer-below"/><g class="yaxislayer-below"/><g class="overaxes-below"/><g class="plot" transform="translate(60, 60)" clip-path="url(#clipc90d39xyplot)"><g class="scatterlayer mlayer"><g class="trace scatter trace9d3e02" style="stroke-miterlimit: 2; opacity: 1;"><g class="fills"/><g class="errorbars"/><g class="lines"><path class="js-line" d="M0,184.64L0.86,299.31L1.04,296.41L1.21,296.37L1.38,299.54L1.55,304.29L2.07,302.91L2.24,299.92L2.42,281.48L2.59,302.51L2.93,299.56L3.1,301.18L3.28,294.98L3.62,303.72L3.8,299.09L3.97,303.34L4.14,305.01L4.49,301.28L4.66,299.08L4.83,304.9L5.52,304.35L5.69,300.71L5.87,310.2L6.21,293.62L6.55,306.99L6.73,306.75L6.9,307.01L7.07,306.26L7.25,306.73L7.42,304.84L7.59,305.05L7.76,299.76L8.45,291.9L8.63,292.48L8.8,298.96L9.49,291.5L9.66,296.09L10,281.41L10.52,284.98L10.7,287.6L10.87,280.17L11.04,297.04L11.21,292.89L11.39,300.73L11.73,286.22L11.9,288.91L12.08,300.27L12.42,301.36L12.77,273.69L12.94,298.64L13.11,294.74L13.28,306.19L13.45,305.11L13.8,298.64L13.97,279.5L14.49,296.11L14.84,291.54L15.01,293.84L15.18,294.45L15.35,284.42L15.53,296.17L16.21,294L16.39,295.14L16.56,291.6L16.73,298.75L16.9,298.29L17.08,297.86L17.25,297.98L17.42,291.68L17.77,284.99L18.29,296.66L18.46,287.36L18.63,291.74L18.8,287.68L18.98,276.58L19.15,300.6L19.66,286.99L19.84,286.05L20.18,283.66L20.7,300.32L20.87,295.28L21.04,285.44L21.22,281.95L21.39,302.83L21.56,290.96L22.08,296.75L22.25,298.93L22.77,288.76L22.94,293.34L23.11,304.85L23.46,305.98L23.63,305.16L23.8,304.31L24.15,286.75L24.49,296.86L24.67,296.98L25.01,292.79L25.36,297.24L25.53,296.29L25.87,291.71L26.05,298.17L26.22,280.73L26.56,301.11L26.74,299.42L26.91,288.38L27.08,287.4L27.25,270.58L27.77,306.09L28.29,301.75L28.46,297.44L28.64,270.55L29.15,304.91L29.32,306.34L29.5,307.17L29.84,306.22L30.01,305.89L30.53,302.59L30.7,298.35L31.05,308.36L31.22,295L31.39,282.71L31.74,305.84L31.91,300.02L32.09,264.82L32.43,297.05L32.77,255.59L32.95,296.21L33.12,292.08L33.46,285.53L33.64,287.81L33.81,292.41L34.15,287.25L34.5,288.75L34.67,293.14L35.53,275.97L35.71,283.72L35.88,292.78L36.22,293.21L36.74,287.99L36.91,294.14L37.09,295.78L37.26,290.35L37.43,281.99L37.78,291.18L37.95,290.2L38.12,289.85L38.29,289.46L38.47,292.59L38.64,281.89L39.16,284.99L39.33,295.92L39.67,286.77L39.85,292.53L40.02,302.22L40.71,281.7L41.05,291.27L41.23,305.58L42.26,281.02L42.43,283.21L43.47,298.81L43.64,274.6L43.99,312.71L44.33,293.44L44.5,286.5L44.68,287.88L44.85,287.08L45.02,269.81L45.37,301.59L45.71,290.53L45.88,285.15L46.57,307.31L46.92,307.03L47.09,306.82L47.44,307.21L47.61,306.46L47.78,306.39L48.47,307.27L48.64,306.26L48.82,305.88L48.99,306.12L49.16,303.62L49.85,309.07L50.02,285.85L50.71,302.15L50.89,291.47L51.06,280.87L51.23,293.08L51.58,289.86L51.75,287.15L51.92,278.77L52.09,294.16L52.27,288.86L52.44,297.32L52.78,298.87L53.13,287.61L53.47,290.93L53.65,292.69L53.82,275.04L54.16,300.15L54.34,286.49L54.51,294.27L54.68,296.77L54.85,291.26L55.03,295.52L55.2,282.66L55.72,292.41L56.06,288.93L56.23,283.04L56.75,289.96L57.1,288.22L57.27,284.18L57.44,285.84L57.61,280.08L58.13,304.9L58.48,289.75L58.65,288.53L59.34,307.55L59.51,283.08L60.37,294.62L60.55,289L61.24,281.33L61.41,297.21L61.58,302.23L61.75,287.4L61.93,282.24L62.1,280.02L62.27,292.65L62.62,285.76L62.79,304.87L62.96,303.18L63.13,290.31L63.48,292.57L64,284.32L64.17,288.53L64.34,293.37L64.51,286.2L64.86,287.55L65.03,288.56L65.38,286.93L65.89,291.61L66.07,285.32L66.24,285.73L66.41,292.36L66.76,276.83L67.1,287.25L67.27,286.01L67.45,282.68L67.62,287.96L67.79,284.87L67.96,287.2L68.48,288.47L68.65,283.93L68.82,290.76L69.52,285.69L69.69,288.14L70.03,289.43L70.21,287.54L70.38,288.53L71.24,287.64L71.41,288.13L71.58,289.21L71.93,286.76L72.1,288.23L72.27,284.55L72.45,288.5L72.97,284.97L73.14,282.98L73.83,289.64L74,282.85L74.17,16.5L74.34,306.03L74.69,303.61L74.86,301.82L75.21,299.64L75.38,287.77L75.55,300.74L75.9,286.3L76.07,291.2L76.24,284.43L76.59,288.23L76.93,263.05L77.11,290.24L77.28,294.65L77.45,289.43L77.62,278.52L78.14,290.03L78.48,287.76L78.66,287.94L78.83,270.34L79.35,288.1L79.52,288.39L79.87,288.55L80.04,286.69L80.21,287.39L80.38,289.17L80.56,286.78L81.07,288.64L81.24,289.5L81.42,287.12L81.59,290.95L81.76,288.84L81.93,291.34L82.28,287.17L82.8,287.52L82.97,291.13L83.49,287.57L83.66,287.72L83.83,289.77L84,287.23L84.18,295.44L84.35,246.18L84.87,307.08L85.21,306.2L85.38,282.12L85.56,291.16L85.9,286.07L86.07,277.49L86.59,285.61L86.77,305.14L86.94,282.55L87.63,285.94L87.8,289.59L88.14,289.77L88.32,286.55L88.49,287.6L88.66,288.2L89.35,284.87L89.52,288.01L89.7,286.93L89.87,289.15L90.04,274.73L91.08,297.64L91.25,283.55L91.42,293.08L91.94,285.31L92.11,286.82L92.63,288.34L92.97,287.66L93.15,285.02L93.84,292.48L94.01,287.11L94.18,287.75L94.35,289.18L94.53,286.58L94.7,285.32L95.56,288.5L95.73,262.22L95.91,291.22L96.6,286.84L96.77,287.53L97.29,288.41L97.46,286.49L97.98,291.89L98.15,287.31L98.32,287.53L98.49,286.63L98.84,287.84L99.01,287.45L99.18,287.91L99.53,287.95L99.7,288.23L99.87,286.79L100.39,292.55L100.56,296.98L100.74,298.3L100.91,289.07L101.08,293.86L101.25,284.72L101.6,288.56L101.77,287.27L101.94,287.91L102.29,287.62L102.46,299.06L102.81,286.49L103.32,287.59L103.5,285.12L104.01,285L104.19,294.89L104.53,293.18L104.7,289.71L105.05,292.94L105.22,284.16L105.57,288.27L106.08,287.74L106.26,288.07L106.6,287.14L106.95,288.11L107.12,288.45L107.29,288.73L107.46,287.06L107.98,288.58L108.33,287.71L108.5,300.83L109.36,286.18L109.53,293.46L110.05,288.24L110.4,290.16L110.57,289.17L111.26,286.16L111.43,287.92L111.6,288.63L111.78,286.02L112.29,290.68L112.64,288.26L112.81,288.81L113.16,288.96L113.33,287.66L113.5,287.89L113.67,267.63L114.19,289.49L114.54,288.12L114.71,287.27L114.88,286.17L115.05,288.03L115.23,287.29L115.4,287.72L115.57,287.06L115.74,293.98L116.61,285.53L116.78,287.95L116.95,288.05L117.81,288.63L117.99,288.18L118.16,288.11L118.33,288.64L118.5,286.7L118.68,288.31L119.19,287.73L119.37,287.23L119.88,288.22L120.23,287.94L120.4,288.11L120.75,288.35L120.92,287.79L121.09,287.81L121.26,287.71L121.44,287.55L121.61,288.14L121.78,288.9L122.13,287.16L122.64,288.31L122.81,287.91L122.99,287.75L123.16,288.26L123.33,288.9L123.5,287.25L124.02,287.83L124.2,287.83L125.4,288.05L125.58,287.38L125.75,288.4L126.09,287.24L126.26,287.23L126.44,287.93L126.95,288.75L127.13,288.12L127.3,288.28L128.16,286.85L128.34,301.64L128.68,298.72L129.03,303.32L129.2,298.76L129.89,284.75L130.06,305.61L130.92,283.19L131.1,294.25L131.44,298.75L131.79,285.21L131.96,286.01L132.13,297.04L132.3,281.24L132.82,289.13L132.99,294.05L133.16,301.61L133.34,286.31L133.51,287.19L133.68,286.87L134.03,287.75L134.2,285.82L134.37,290.28L134.89,287.12L135.06,285.66L135.41,290.05L135.75,286.32L135.92,286.86L136.1,287.44L136.27,285.65L136.44,289.38L136.96,286.82L137.3,287.52L137.48,288.78L137.82,288.03L138,284.02L138.69,296.42L138.86,287.4L139.03,289.22L139.2,293.83L139.55,287.95L139.72,288.05L139.89,287.49L140.24,287.82L140.41,283.9L140.75,300.64L140.93,288.09L141.1,286.78L141.79,288.24L141.96,287.32L142.82,288.45L143,287.94L144.55,288.09L144.72,287.65L144.9,288.34L145.41,287.52L145.58,287.26L145.76,288.45L146.27,287.11L146.45,286.15L146.62,282.41L146.96,287.81L147.14,288.47L148.17,287.29L148.35,288.13L148.69,289.78L149.03,284.83L149.21,288.7L149.38,285.53L149.72,288.74L150.07,285.91L150.24,285.9L150.93,288.93L151.1,287.44L151.28,287.65L151.62,286.93L151.8,287.86L151.97,287.5L152.14,285.76L153,289.23L153.17,288.14L153.35,292.24L153.69,287.59L153.86,289.99L154.04,288.38L154.21,288.99L154.38,288.12L154.55,288.19L154.73,287.52L155.24,289L155.42,287.66L156.11,288.75L156.28,288.18L156.45,287.43L156.62,286.26L156.8,288.41L157.14,286.87L157.31,287.91L158,285.27L158.18,287.61L158.35,283.82L158.69,290.96L158.87,285.41L159.04,287.19L159.38,289.19L159.56,284.87L160.25,288.9L160.42,281.94L160.76,290.47L161.28,288.31L161.45,287.52L161.63,257.84L161.97,290.1L162.14,288.89L162.32,287.97L162.49,287.44L162.66,290.17L163.35,286.54L163.52,288.04L163.7,289.06L163.87,287.18L164.04,290.13L164.56,287.77L164.73,287.19L165.25,286.84L165.59,288.28L165.77,287.07L165.94,288.4L166.11,298.62L167.15,272.57L167.32,296.5L168.01,284.15L168.18,287.31L168.35,289.26L168.53,282.99L169.04,288.76L169.22,287.2L169.39,290.89L169.91,288.03L170.08,287.36L170.77,288.18L170.94,287.79L171.11,287.96L171.8,287.08L171.98,287.9L172.15,286.66L172.32,288.52L172.84,287.94L173.01,287.64L173.36,288.19L173.7,287.82L173.87,287.98L174.73,287.75L174.91,288.19L175.25,288.43L175.43,286.57L175.6,287.06L175.77,289.03L175.94,285.98L176.12,291.09L176.46,287.77L176.63,288.43L176.81,287.87L176.98,282.64L178.01,287.86L178.18,287.17L178.36,290.44L178.53,287.08L178.88,287.51L179.05,288.22L179.22,286.25L179.39,292.01L179.74,288.51L179.91,299.59L180.77,287.49L180.95,286.74L181.29,292.36L181.46,287.87L181.63,288.07L182.15,287.98L182.33,285.12L183.19,294.28L183.36,287.73L183.53,285.75L183.71,289.02L184.05,288.24L184.22,288.23L184.74,288.55L184.91,287.93L185.08,287.43L185.26,288.2L185.43,288.16L185.6,288.4L186.29,287.63L186.47,288.46L186.64,287.86L187.33,288.14L187.5,288.03L188.53,288.33L188.71,287.66L189.4,288.06L189.57,287.45L190.78,288.59L190.95,287.59L191.29,288.63L191.64,287.5L191.81,287.84L191.98,289.37L192.16,47.61L193.02,289.05L193.19,291.85L193.88,285.69L194.05,287.65L194.23,287.54L194.92,289.15L195.09,283.59L195.43,289.81L195.95,287.78L196.13,288.81L196.47,286.66L196.82,287.33L196.99,287.83L197.33,289.67L197.5,288.04L197.68,292.84L198.02,287.53L198.19,259.82L198.88,290.1L199.06,287.29L199.23,288.18L199.4,287.11L199.58,289.99L199.92,287.77L200.09,288.48L200.44,288.61L200.95,287.57L201.13,289.77L201.99,282.66L202.16,287.49L202.33,290.18L202.68,286.54L202.85,287.89L203.03,285.29L203.89,288.56L204.06,286.25L204.58,288.41L204.92,287.95L205.09,287.22L205.61,288.76L205.78,287.29L205.96,287.49L206.47,286.1L206.65,288.48L207.16,287.23L207.51,287.84L207.68,288.24L208.03,288.38L208.2,287.93L208.37,287.32L208.54,288.62L208.72,286.75L209.06,288.23L209.23,287.8L209.58,288.3L209.75,287.85L209.92,287.24L210.96,288.61L211.13,287.63L211.3,287.2L211.48,288.18L211.82,287.89L211.99,287.68L213.2,288.7L213.37,300.35L213.72,284.38L214.24,287.8L214.41,287.92L214.58,289.27L214.93,287.7L215.1,310.45L215.44,285.93L216.13,286.56L216.31,287.96L216.48,288.65L216.82,288.35L217,287.27L218.03,288.67L218.2,287.44L218.55,286.7L218.72,289.18L218.89,286.67L219.58,288.7L219.76,284.7L220.27,289.49L220.62,288.35L220.79,288.02L221.14,288.6L221.31,286.88L221.48,289.16L222.34,287.37L222.52,292.79L223.38,287.82L223.55,286.58L223.9,288.41L224.41,287.87L224.59,288.27L225.45,287.26L225.62,289.22L225.97,281.95L226.14,298.44L226.48,284.43L227,287.95L227.17,287.63L227.52,287.37L227.86,287.91L228.04,288.21L228.55,287.87L228.73,291.51L229.42,287.75L229.59,288.23L229.76,287.82L230.11,285.93L230.28,288.06L230.45,288.46L230.62,287.29L231.14,287.58L231.31,288.15L233.21,287.71L233.38,288.59L233.56,288.6L233.73,287.81L234.42,285.36L234.59,288.47L234.76,288.74L234.94,288.13L235.11,288.21L235.28,287.64L235.63,290.03L235.8,287.77L236.49,288.93L236.66,287.88L236.83,287.61L237.18,288.46L237.52,288.09L237.7,287.61L238.9,289.03L239.08,287.78L239.25,285.51L239.76,288.43L239.94,287.79L240.28,288.54L240.8,288.25L240.97,287.97L241.15,286.96L241.49,288.27L241.66,288.18L241.84,288.19L242.01,288.4L242.18,303.75L243.04,287.03L243.39,288.81L243.56,286.6L244.42,291.47L244.6,285.66L245.11,288.29L245.29,279.42L245.8,288.25L246.15,287.64L246.32,288.46L247.18,287.64L247.36,288.53L247.53,286.84L248.05,288.12L248.22,297.09L248.74,287.7L249.08,288.47L249.25,288.14L249.42,287.69L249.6,288.99L249.94,287.98L250.11,288.01L251.5,287.81L251.67,289.12L252.01,288.21L252.19,300.78L252.53,286.56L253.05,288.94L253.22,281.43L253.74,287.91L254.08,287.37L254.26,287.57L255.12,288.72L255.29,287.68L256.15,287.82L256.32,288.16L256.67,287.6L257.36,288.1L257.53,288.13L258.4,287.9L258.57,288.03L259.08,286.52L259.26,287.63L259.77,287.89L259.95,292.66L260.29,287.78L260.81,288.21L260.98,285.26L261.85,288.58L262.02,284.38L262.19,288.55L262.88,288.37L263.05,289.59L263.91,287.61L264.09,288.11L264.78,284.1L264.95,285.08L265.12,281.1L265.47,288.11L265.98,286.82L266.16,287.84L266.33,285.54L266.85,287.79L267.02,287.38L267.54,288.03L267.71,285.75L268.05,289.11L268.23,286.86L268.4,263.42L268.57,302.16L269.09,288.03L269.26,288.33L269.43,289.29L269.78,288.99L269.95,287.6L270.12,286.8L270.47,287.93L270.64,288.52L271.33,286.39L271.5,288.51L272.02,288.33L272.19,285.61L272.37,288.57L272.88,287.97L273.06,287.48L273.23,287.75L273.4,285.59L273.57,289.61L274.09,288.38L274.26,287.3L274.61,288.42L274.78,288.12L274.95,283.84L275.47,287.89L275.82,287.78L275.99,288.11L276.16,287.88L276.33,285.68L276.51,289.41L276.85,284.16L277.02,286.78L277.2,288.1L277.71,287.39L277.89,288.13L278.06,288.34L278.58,287.79L278.75,287.92L278.92,288.29L279.09,287.62L279.27,288.55L279.61,288.26L279.78,288.57L279.96,288.28L280.13,285.82L280.47,288.49L280.82,288.04L280.99,281.18L281.51,288.55L281.85,287.58L282.03,288.26L282.54,287.62L282.89,301.29L283.06,288.3L283.41,286.85L283.58,287.02L283.75,288.79L284.79,287.39L284.96,287.53L285.13,288.86L285.3,287.81L285.48,292.24L285.65,287.01L286.34,287.26L286.51,288.02L288.41,287.84L288.58,288.08L289.62,288.19L289.79,288.09L291.34,288.33L291.51,287.98L291.69,287.66L291.86,287.9L292.03,291.05L292.89,287.55L293.07,286.92L293.76,288.37L293.93,287.39L294.1,287.25L294.27,288.22L294.44,288.59L294.79,287.86L294.96,290.44L295.83,284.89L296,287.76L296.17,288.67L296.52,287.47L296.69,288.26L296.86,287.96L297.21,288.5L297.72,287.34L297.89,287.8L298.07,288.14L298.24,287.97L298.41,288.93L299.28,287.27L299.45,287.57L299.79,288.65L300.14,288.05L300.31,288.01L300.66,287.51L300.83,288.49L301,288.17L301.17,288.02L301.34,288.64L301.52,287.73L301.86,287.77L302.04,287.23L302.38,288.15L302.55,287.54L302.73,285.42L303.24,288.95L303.59,287.6L303.76,288.72L303.93,287.87L304.1,288.1L304.28,290.2L304.45,288.26L305.14,288.76L305.31,287.7L305.49,285.63L306,288.26L306.18,288.95L306.69,287.78L307.04,288.05L307.21,288.52L307.73,288.23L307.9,287.02L308.42,286.7L308.59,288.12L308.76,288.07L308.93,287.81L309.8,287.92L309.97,289.52L310.83,287.4L311,287.87L311.52,287.28L311.87,288.84L312.04,287.45L313.08,288.78L313.25,288.5L313.76,287.87L313.94,288.04L314.11,288.28L314.8,287.77L314.97,288.41L315.83,288.22L316.01,289.32L316.53,287.62L316.87,287.7L317.04,289.21L317.56,287.37L317.9,288.17L318.08,288.47L318.77,288.04L318.94,294.73L319.11,287.54L319.46,288.38L319.8,287.77L319.98,287.94L320.15,288.7L320.66,287.63L320.84,287.55L321.01,288.34L321.53,287.51L321.7,287.16L322.73,288.23L322.91,287.98L323.25,288.03L323.43,292.19L323.77,287.94L324.29,288.1L324.46,287.94L324.98,287.67L325.15,287.81L325.32,288.4L325.84,288.71L326.01,287.94L326.53,288.39L326.7,287.3L326.87,288.02L327.05,284.85L327.39,287.89L327.91,287.24L328.08,289.45L328.77,287.86L328.94,287.93L329.12,287.84L329.46,287.93L329.63,286.64L330.32,288.41L330.5,287.68L330.67,287.95L331.01,287.4L331.36,288.43L331.53,287.49L332.22,288.58L332.39,288.12L332.57,288.14L332.74,288.34L332.91,287.18L333.6,288.7L333.77,287.95L333.95,287.95L334.12,288.64L334.29,286.94L334.64,288.33L334.81,287.68L334.98,288.34L335.5,287.95L335.67,287.73L335.84,288.16L336.19,287.82L336.36,271.33L337.22,288.3L337.4,292.27L337.57,280.37L338.09,290.48L338.26,288.34L338.43,289.13L338.6,287.71L338.95,288.1L339.12,286.5L339.98,287.91L340.16,287.8L340.5,289.67L340.67,287.98L340.85,288.21L342.05,287.49L342.23,289.36L342.74,287.55L343.09,288.28L343.26,287.9L343.78,288.3L343.95,287.81L344.12,287.72L345.16,288.49L345.33,287.99L346.37,288.04L346.54,284.23L347.06,288.08L347.4,287.86L347.57,288.29L348.09,287.67L348.26,288.2L348.44,288.91L349.3,287.88L349.47,288.11L349.82,288.47L349.99,289.54L350.68,284.37L350.85,287.88L351.02,287.92L351.54,287.22L351.89,287.67L352.06,287.86L352.23,289.31L352.4,286.84L352.75,287.99L352.92,288.1L354.13,288.46L354.3,287.68L355.16,287.92L355.34,284.25L355.51,288.18L356.2,287.67L356.37,288.32L356.72,287.07L357.23,287.53L357.41,287.73L358.1,288.13L358.27,287.98L358.44,287.96L359.47,287.97L359.65,287.7L361.2,288.25L361.37,288.04L361.55,287.82L361.89,288.2L362.06,289.54L362.41,287.81L362.92,287.96L363.1,288.16L364.13,288.15L364.31,288.15L364.65,287.82L365,288.35L365.17,287.95L365.86,287.01L366.03,287.86L366.2,288.01L366.37,286.32L366.55,287.56L366.72,300.03L367.41,287.02L367.58,287.35L367.76,287.63L368.1,286.72L368.27,287.65L368.45,288.1L369.13,287.68L369.31,287.31L369.82,288.11L370.17,287.88L370.34,288.07L370.86,287.61L371.21,288.11L371.38,288.56L372.41,287.44L372.58,287.96L373.1,286.64L373.27,287.67L373.45,287.88L373.79,287.52L374.66,288.67L374.83,287.98L375.17,289.12L375.34,287.62L375.52,287.65L375.69,288.44L376.03,288.56L376.21,285.78L376.9,288.31L377.07,288.14L377.24,288.14L378.11,288.46L378.28,286.72L378.97,288.35L379.14,288.14L379.31,288.02L380.52,287.72L380.69,286.49L381.56,288.08L381.73,287.69L382.07,287.46L382.24,288.03L382.42,288.27L383.28,287.66L383.45,288.12L384.83,287.7L385,286.3L385.52,288.99L385.87,287.61L386.04,288.17L386.21,288.49L386.73,288.05L386.9,288.08L387.07,287.49L387.42,288.35L387.59,287.93L387.76,287.98L387.94,288.69L388.28,287.71L388.45,287.72L388.63,287.94L388.8,288.72L389.14,287.96L389.32,287.22L389.66,288.34L390.18,288.09L390.35,287.72L390.87,288.17L391.21,287.9L391.39,287.82L392.25,288.16L392.42,287.84L392.94,288.52L393.28,288.22L393.46,288.09L394.15,287.81L394.32,288.09L394.84,287.82L395.01,288.04L395.18,288.17L395.53,287.8L395.87,287.99L396.04,288.29L396.56,288.07L396.73,293.06L397.08,287.72L397.6,288.18L397.77,287.87L398.98,288.07L399.15,288.07L399.32,287.75L399.67,288.12L399.84,288.39L400.18,287.38L400.7,288.01L400.87,287.87L401.05,288.42L401.56,288L401.74,288.09L402.77,287.82L402.94,287.94L404.67,288.23L404.84,288.46L405.01,288.57L405.36,287.96L405.53,287.95L405.88,288.35L406.05,287.61L406.22,287.57L407.26,288.29L407.43,288.03L407.95,288.17L408.12,287.64L408.64,287.23L408.98,288.33L409.15,288.04L410.53,288.17L410.71,288.05L412.09,287.95L412.26,288.01L412.43,288.46L412.95,288.1L413.12,287.83L413.81,288.54L413.98,287.5L414.15,287.47L414.33,288.24L414.84,287.67L415.02,288.71L415.36,288.99L415.54,287.93L416.23,288.27L416.4,288.41L417.78,287.47L417.95,288.05L418.81,288.05L418.99,288.13L419.33,288.14L419.5,288.66L419.68,287.66L419.85,288.8L420.54,288.45L420.71,287.55L421.57,288.46L421.74,288.21L421.92,287.62L423.13,288.13L423.3,287.89L424.16,288.09L424.33,283.82L424.68,288.21L425.19,287.93L425.37,287.92L427.26,288.04L427.44,287.85L428.47,288.16L428.64,288.19L429.51,287.7L429.68,288.08L429.85,288.5L430.71,287.71L430.89,288.31L431.75,287.93L431.92,288.06L433.82,287.89L433.99,288.05L434.68,288.18L434.85,287.06L435.03,288.26L435.37,286.68L435.54,287.02L435.72,287.39L435.89,288.57L436.41,288.26L436.58,288L436.75,288.88L437.27,288.58L437.44,286.79L437.96,288.47L438.3,287.77L438.48,288.46L438.65,288.53L438.82,287.73L439.86,288.07L440.03,287.98L442.1,287.97L442.27,288.19L456.07,288.22L456.24,287.44L457.28,288.26L457.45,288.34L458.14,287.41L458.31,287.94L459,288.1L459.18,287.97L459.35,287.91L459.52,288.32L460.04,288.05L460.21,287.86L461.07,287.21L461.25,288.17L462.28,287.99L462.45,288.49L463.66,287.86L463.83,288.07L464.35,287.5L464.52,288.33L464.7,288.07L465.73,287.97L465.9,288.03L466.94,288.03L467.11,288.15L467.46,287.98L467.63,292.06L467.8,283.59L468.49,290.48L468.66,287.84L468.84,287.65L469.87,288.85L470.04,287.78L470.39,287.46L470.91,288.1L471.08,287.1L471.42,288.41L471.6,286.94L471.94,287.54L472.11,288.07L472.8,287.82L472.97,288.4L473.67,287.9L473.84,288.14L475.22,288L475.39,288.07L476.94,287.98L477.12,288.21L478.15,287.92L478.32,288.45L478.5,286.58L479.01,288L479.18,287.43L479.53,288.28L480.05,288.03L480.22,287.23L481.08,289.38L481.26,288.22L482.12,287.9L482.29,287.97L482.63,288.2L482.81,298.22L482.98,287.68L483.67,287.94L483.84,288L484.02,287.93L484.19,289L484.53,287.81L485.05,287.96L485.22,288.16L486.26,287.88L486.43,288.13L486.6,288.13L488.84,288.05L489.02,288.35L489.71,288.06L489.88,288.17L490.05,287.99L491.95,288.09L492.12,288.13L492.81,288.13L492.98,285.83L493.16,288.33L493.85,288.13L494.02,287.8L494.88,288.14L495.05,287.74L495.23,287.87L495.4,288.98L496.26,287.81L496.43,288.1L496.95,287.05L497.12,287.79L497.3,288.39L497.64,287.49L497.81,289.43L497.99,287.76L498.68,287.98L498.85,288.15L500.4,288.01L500.57,288.27L502.13,288L502.3,290.09L502.47,287.7L503.16,288.16L503.33,287.22L503.51,288.25L504.2,288.06L504.37,288.05L505.75,288.03L505.92,287.72L506.61,288.2L506.78,288.04L506.96,287.83L507.47,288.29L507.65,286.52L507.82,287.67L507.99,307.68L508.16,287.79L508.85,288.06L509.03,286.22L509.37,288.13L509.54,287.12L509.72,285.67L510.23,288.46L510.58,288.18L510.75,288.28L511.96,288.05L512.13,289.19L512.65,287.66L512.99,287.84L513.17,288.14L514.03,287.9L514.2,288.36L515.06,288.15L515.24,288.08L517.48,287.58L517.65,284.68L518.34,288.03L518.51,287.71L518.69,288.81L518.86,287.94L519.55,288.11L519.72,288.03L522.14,288.02L522.31,288.15L525.07,288.09L525.24,287.85L528,288.07" style="vector-effect: non-scaling-stroke; fill: none; stroke: rgb(31, 119, 180); stroke-opacity: 1; stroke-width: 2px; opacity: 1;"/></g><g class="points"/><g class="text"/></g><g class="trace scatter tracef918d9" style="stroke-miterlimit: 2; opacity: 1;"><g class="fills"/><g class="errorbars"/><g class="lines"><path class="js-line" d="M0,313.5L528,313.5" style="vector-effect: non-scaling-stroke; fill: none; stroke: rgb(255, 127, 14); stroke-opacity: 1; stroke-width: 2px; opacity: 1;"/></g><g class="points"/><g class="text"/></g><g class="trace scatter trace87ad0f" style="stroke-miterlimit: 2; opacity: 1;"><g class="fills"/><g class="errorbars"/><g class="lines"><path class="js-line" d="M0,309.12L0.17,312.28L0.35,309.83L0.52,296.18L1.04,310.45L1.21,294.83L1.38,306.72L1.55,306.6L2.07,305.24L2.24,311.11L2.42,303.32L2.93,310.17L3.45,309.36L3.62,304.97L3.8,309.97L4.31,307.43L4.49,308.23L4.66,308.62L4.83,305.45L5,309.56L5.69,309.41L5.87,295.87L6.21,309.75L6.73,307.09L6.9,306.43L7.42,308.1L7.59,304.4L8.45,312.84L8.63,311.24L8.8,305.36L8.97,312.45L9.32,311.42L9.49,311.6L9.66,312.37L9.83,310.56L10,310.08L10.35,312.63L10.7,312.37L10.87,311.53L11.04,299.11L11.56,311.53L11.73,312.14L11.9,308.12L12.25,312.96L12.42,310.7L12.59,311.67L12.77,310.94L12.94,311.62L13.11,306.98L13.28,307.49L13.45,304.61L13.8,311.72L14.32,308.99L14.49,308.78L14.66,305.51L14.84,312.97L15.18,307.96L15.35,313.05L15.53,306.52L16.04,307.86L16.21,313.05L17.25,306.89L17.42,312.69L17.59,306.76L17.77,312.8L18.11,309.36L18.29,311.89L18.46,313.13L18.63,310.99L18.98,312.3L19.15,305.05L19.32,313.11L20.01,312.69L20.18,313.12L20.35,306.19L20.87,310.57L21.04,312.24L21.39,307.13L21.56,312.05L21.74,309.79L22.08,312.1L22.25,311.73L22.43,312.95L22.6,309.33L22.77,312.9L22.94,272.4L23.8,308.68L23.98,310.19L24.15,312.83L24.49,310.91L24.67,306.28L25.01,312.53L25.53,310.6L25.7,311.35L25.87,313.18L26.05,309.69L26.39,312.78L26.56,310.95L26.74,308.96L26.91,313.12L27.25,310.54L27.43,312.13L27.6,306.56L28.12,309.07L28.29,308.71L28.64,312.57L28.81,311.51L28.98,310.72L29.5,306.87L29.84,307.46L30.01,307.22L30.19,307.2L30.36,308.87L30.53,308.36L30.7,310.25L31.05,302.84L31.22,311.19L31.39,313.02L31.57,312.8L31.74,306.36L32.6,313.22L32.77,311.05L33.64,313.28L33.81,313.17L34.33,313.32L34.5,312.72L34.67,312.22L35.02,313.31L35.19,313.11L35.36,306.79L35.88,312.7L36.05,313.33L36.22,310.49L36.74,313.26L36.91,313.04L37.6,312.81L37.78,313.12L38.81,313.4L38.98,311.6L39.67,313.34L39.85,313.24L40.02,308.33L40.54,313.35L40.88,313.15L41.05,313.1L41.23,308.73L41.57,313.33L41.74,312.65L41.92,313.39L42.78,312.78L42.95,313.34L43.64,311.94L43.81,313.3L43.99,304.35L44.5,313.4L44.68,313.39L44.85,313.44L45.02,311.66L45.19,308.76L45.54,313.3L45.71,313.27L45.88,312.07L46.06,313.36L46.23,306.37L47.09,307.23L47.26,307.12L47.61,306.53L47.78,307.44L48.64,306.58L48.82,307.67L49.51,306.3L49.68,308.92L49.85,302.91L50.02,309.31L50.2,309.14L50.37,312.29L50.54,313.27L50.71,300.1L51.58,313.41L51.75,313.4L52.78,312.21L52.96,313.16L53.47,313.42L53.65,312.84L53.99,313.28L54.16,312.06L54.34,313.03L54.51,313.09L54.68,312.26L55.03,311.96L55.54,313.42L55.72,313.17L56.75,313.42L56.92,313.4L57.96,313.4L58.13,305.8L58.65,313.37L58.82,295.19L59.68,313.45L59.86,313.38L61.24,313.41L61.41,312.71L61.58,304.3L61.75,313.34L62.1,312.87L62.27,312.69L62.62,313.41L62.79,308.54L63.82,313.44L64,313.41L66.24,313.4L66.41,300.23L67.1,313.44L67.27,313.42L67.45,313.27L68.48,313.45L68.65,313.1L71.76,313.46L71.93,313.28L73.14,313.42L73.31,313.45L73.48,312.87L74,313.25L74.17,52.57L75.03,309.63L75.21,309.42L75.55,305.98L75.72,313.06L76.07,313.01L76.24,313.26L76.42,312.08L76.59,313.41L76.93,312.93L77.11,313.35L77.79,312.67L77.97,313.45L82.62,313.47L82.8,313.46L83.83,313.26L84,313.45L84.18,312.67L84.35,295.24L85.04,308.33L85.21,307.4L85.38,312.6L85.56,311.29L85.73,313.36L86.07,313.01L86.25,313.29L86.59,313.4L86.77,298.97L87.63,313.43L87.8,313.36L89.87,313.47L90.04,312.95L90.73,313.45L90.9,313.2L91.08,309.39L91.59,313.45L91.94,313.4L92.11,313.47L97.29,313.42L97.46,312.57L98.32,313.38L98.49,313.4L100.56,313.31L100.74,310.09L101.43,313.46L101.6,313.44L101.77,313.46L103.15,313.46L103.32,313.47L104.01,313.47L104.19,312.69L105.39,313.47L105.57,313.48L108.33,313.49L108.5,295.97L109.36,313.46L109.53,313.3L110.4,312.26L110.57,313.41L113.85,313.46L114.02,312.91L115.05,313.43L115.23,313.44L115.57,313.46L115.74,312.51L116.43,313.48L116.61,313.35L116.78,313.46L118.33,313.46L118.5,311.55L119.19,313.46L119.37,313.28L119.54,313.48L123.33,313.48L123.5,312.13L124.37,313.48L124.54,313.48L128.16,313.48L128.34,268.15L128.68,311.2L129.2,309.96L129.37,313.29L129.89,313.43L130.06,311L130.92,313.46L131.1,312.77L131.44,312.45L131.96,313.44L132.13,312.23L132.82,313.47L132.99,313.19L133.16,311.53L134.03,313.48L134.2,313.48L135.58,313.47L135.75,313.49L136.96,313.45L137.13,313.47L138.51,313.46L138.69,305.18L139.55,313.47L139.72,313.43L140.58,313.31L140.75,305.8L141.45,313.48L141.62,313.45L141.79,313.48L146.45,313.34L146.62,310.59L147.31,313.48L147.48,313.45L147.65,313.48L150.07,313.47L150.24,312.31L151.1,313.48L151.28,309.95L151.97,313.49L152.14,313.48L152.31,313.46L157.14,313.34L157.31,312.17L158,313.48L158.18,313.39L158.35,311.42L159.21,313.43L159.38,313.44L160.25,313.44L160.42,313.37L161.45,313.49L161.63,312.48L162.66,313.45L162.83,313.48L166.97,313.42L167.15,299.53L167.66,313.47L168.01,313.38L168.18,313.47L172.49,313.47L172.67,313.48L176.98,313.21L177.15,312.61L178.01,313.48L178.18,313.49L179.74,313.43L179.91,301.91L180.26,313.48L180.77,313.46L180.95,313.48L183.88,313.45L184.05,313.48L191.98,313.39L192.16,213.04L192.85,313.46L193.02,313.45L193.19,312.19L194.05,313.47L194.23,313.43L194.92,313.48L195.09,310.96L195.95,313.49L196.13,313.47L209.23,313.49L209.41,313.49L214.93,313.48L215.1,310.46L215.27,309.68L215.44,313.35L217.69,313.48L217.86,313.48L223.03,313.48L223.21,312.4L224.07,313.48L224.24,313.48L225.97,313.27L226.14,312.15L227,313.49L227.17,313.48L234.25,313.46L234.42,312.51L235.28,313.48L235.45,313.48L236.83,313.49L237.01,313.49L242.01,313.48L242.18,308.52L243.21,313.45L243.39,313.43L246.49,313.49L246.66,313.38L248.05,313.49L248.22,312.64L248.91,312.37L249.08,313.48L249.25,313.49L252.01,313.49L252.19,308.31L252.87,313.49L253.05,313.47L253.22,313.39L255.12,313.48L255.29,313.49L264.6,313.48L264.78,312.6L265.64,313.48L265.81,313.47L268.23,313.45L268.4,240.11L269.26,313.43L269.43,313.26L270.64,313.45L270.81,313.47L280.82,313.49L280.99,313.12L282.03,313.48L282.2,313.24L282.72,313.45L282.89,312.34L283.75,313.49L283.92,313.49L290.82,313.49L291,313.49L297.38,313.49L297.55,312.61L298.41,313.45L298.59,313.48L366.55,313.49L366.72,309.09L367.58,313.48L367.76,313.47L380.52,313.49L380.69,313.26L381.73,313.49L381.9,313.49L482.63,313.5L482.81,311.85L483.67,313.5L483.84,313.5L497.3,313.49L497.47,313.5L507.82,313.49L507.99,308.38L508.85,313.49L509.03,313.46L513.51,313.5L513.68,313.5L527.14,313.5L527.31,313.5L528,313.5" style="vector-effect: non-scaling-stroke; fill: none; stroke: rgb(44, 160, 44); stroke-opacity: 1; stroke-width: 2px; opacity: 1;"/></g><g class="points"/><g class="text"/></g><g class="trace scatter trace30fad7" style="stroke-miterlimit: 2; opacity: 1;"><g class="fills"/><g class="errorbars"/><g class="lines"><path class="js-line" d="M0,268.35L0.86,310.8L1.04,308.64L1.21,306.66L1.55,309.76L1.73,306.78L1.9,308.37L2.07,310.32L2.24,305.99L2.42,300.41L2.59,310.62L3.1,307.8L3.28,305.51L3.45,304.95L3.62,308.67L4.49,302.99L4.66,303.61L4.83,309.18L5,304.47L5.69,305.33L5.87,312.14L6.38,304.47L6.73,306.57L6.9,307.13L7.07,306.58L7.25,307.45L7.42,306.83L7.59,310.41L7.94,304.65L8.11,309.94L8.45,307.27L8.63,311.9L8.8,311.87L8.97,306.46L9.66,312.55L9.83,311.45L10,308.06L10.18,303.62L10.35,312.03L10.52,311.81L10.7,312.37L10.87,312.27L11.04,312.97L11.21,312.96L11.73,300.93L11.9,308.58L12.08,311.21L12.59,312.92L12.77,307.86L12.94,310.5L13.11,287.68L13.63,309.23L13.8,306.9L13.97,305.77L14.15,312.45L14.32,288.79L14.49,312.83L14.84,310.43L15.01,312.5L15.35,308.48L15.7,309.22L15.87,311.87L16.04,312.42L16.21,310.66L16.39,308.17L16.56,312.44L16.73,295.77L17.25,312.93L17.59,312.75L17.77,311.6L18.11,310.57L18.29,312.9L18.98,308.34L19.15,311.71L19.32,309.7L19.66,312.21L19.84,311.94L20.01,311.84L20.35,312.85L20.53,308.76L20.7,307.74L20.87,311L21.04,312.63L21.22,310.02L21.74,313.02L21.91,313.02L22.25,312.81L22.43,311.45L22.6,312.07L22.77,308.5L22.94,290.5L23.46,307.16L23.63,306.96L24.32,312.86L24.49,312.76L24.67,310.14L25.53,312.85L25.7,312.16L26.39,313.07L26.56,310.98L26.74,313.07L27.08,312.92L27.25,305.78L27.43,311.77L27.94,306.65L28.12,307.02L28.46,305.08L28.98,312.59L29.15,304.07L30.01,307.74L30.19,308.03L30.7,305.54L30.88,310.39L31.22,310.96L31.74,308.37L31.91,310.28L32.09,305.59L32.26,312.81L32.43,312.75L32.6,312.67L32.77,309.53L33.29,313.09L33.46,312.78L33.98,313.32L34.15,312.47L34.33,313.35L34.67,311.5L34.84,313.18L35.02,312.87L35.19,313.13L35.36,306.23L36.05,313.26L36.22,308.71L37.09,313.33L37.26,312.09L37.43,311.7L37.6,313.01L37.78,312.68L37.95,313.02L38.81,313.28L38.98,311.58L39.85,313.11L40.02,313.26L40.19,312.67L40.71,313.22L40.88,313.32L41.05,313.38L41.23,312.65L41.4,312.65L41.92,313.34L42.26,313.02L42.43,312.79L43.12,313.38L43.3,313.08L43.47,313.11L43.64,311.59L44.16,313.4L44.33,313.06L44.85,313.41L45.02,307.36L45.71,313.32L45.88,312.7L46.06,313.32L46.4,306.78L46.92,307.12L47.09,307.19L48.3,307.21L48.47,307.07L48.64,307.91L48.82,306.56L48.99,307.04L49.16,304.99L49.85,312.35L50.2,311.89L50.37,313.29L50.54,313.17L50.71,308.89L51.75,313.36L51.92,311.44L52.27,313.35L52.78,313.12L52.96,313.33L53.65,312.97L53.82,310.64L54.51,313.43L54.68,313.19L54.85,313.35L55.03,313.35L55.2,310.61L55.89,313.41L56.06,313.21L56.23,312.84L57.1,313.34L57.27,313.3L57.96,313.41L58.13,310.24L58.65,313.39L58.82,301.77L59.34,313.38L59.68,313.36L59.86,313.35L61.41,313.4L61.58,309.62L62.44,313.42L62.62,313.3L62.96,303.64L63.31,313.36L63.48,313.33L63.65,308.79L64.17,313.33L64.34,313.41L65.2,313.37L65.38,313.41L65.72,313.42L65.89,311.35L66.07,313.45L66.24,313.28L66.41,285.31L66.93,313.42L67.27,313.37L67.45,312.25L68.13,313.44L68.31,313.39L68.48,313.43L69.52,313.19L69.69,313.46L73.31,313.46L73.48,312.44L73.66,313.42L74,313.26L74.17,76.62L74.69,309.35L75.03,307.76L75.21,310.83L75.38,305.68L75.72,312.48L75.9,313.13L76.07,313.2L76.24,312.54L76.42,307.84L76.93,307.52L77.28,313.4L77.45,313.19L77.62,312.71L77.97,313.43L78.14,313.41L78.31,313.42L78.66,313.42L78.83,312.31L79.52,313.45L79.69,313.39L79.87,313.42L80.56,313.45L80.73,312.49L81.59,313.39L81.76,313.37L83.83,313.14L84,313.45L84.18,313.43L84.35,275.53L85.21,309.29L85.38,309.76L85.73,313.27L86.25,313L86.42,313.31L86.59,313.4L86.77,312.53L86.94,312.04L87.11,313.36L87.45,312.6L87.63,313.32L89.87,313.4L90.04,312.51L90.73,313.43L90.9,313.36L91.08,312.25L92.11,313.46L92.28,313.44L94.01,313.45L94.18,313.42L95.56,313.41L95.73,307.19L96.42,313.44L96.6,313.42L96.77,313.46L97.29,313.44L97.46,312.27L97.8,313.42L98.32,313.33L98.49,313.33L99.87,313.35L100.05,313.36L100.56,312.95L100.74,309.51L101.43,313.4L101.6,313.32L101.77,313.41L102.29,313.43L102.46,311.53L103.32,313.44L103.5,313.31L104.01,313.35L104.19,313.13L104.36,312.96L104.7,312.75L104.88,313.46L105.05,312.61L106.77,313.48L106.95,313.48L108.33,313.48L108.5,292.01L109.02,313.47L109.36,313.46L109.53,312.66L110.05,313.47L110.22,313.33L110.4,307.45L111.09,313.46L111.26,313.44L111.43,313.46L113.5,313.45L113.67,311.71L114.54,313.43L114.71,312.46L115.57,313.4L115.74,313.47L116.61,313.35L116.78,313.48L118.33,313.48L118.5,309.93L119.02,313.49L119.37,313.14L119.54,313.47L121.61,313.48L121.78,313.48L122.81,313.47L122.99,313.48L123.33,313.49L123.5,311.91L124.37,313.49L124.54,313.49L128.16,313.47L128.34,302.44L129.2,313.01L129.37,312.37L129.71,313.36L129.89,313.22L130.06,311.8L130.75,313.43L130.92,313.35L131.1,313.27L132.13,313.44L132.3,312.12L132.82,313.46L132.99,311.18L133.85,313.46L134.03,313.47L137.82,313.47L138,312.4L138.86,313.45L139.03,313.15L139.37,312.22L140.06,313.47L140.24,313.45L140.75,311.13L140.93,313.46L146.45,313L146.62,309.48L147.31,313.44L147.48,313.43L147.65,313.47L150.07,313.4L150.24,312.03L151.1,313.44L151.28,311.09L151.97,313.48L152.14,313.45L152.31,313.41L156.97,313.49L157.14,313.23L157.31,311.83L157.49,313.47L157.83,313.45L158,313.42L158.18,313.31L158.35,308.65L159.21,313.48L159.38,313.44L160.42,313.08L160.59,313.42L161.45,313.48L161.63,306.07L162.49,313.45L162.66,313.37L164.04,313.42L164.21,313.47L165.94,313.48L166.11,312.07L166.97,313.48L167.15,291.05L167.66,313.47L168.01,313.37L168.18,313.47L171.63,313.49L171.8,313.48L176.81,313.47L176.98,312.98L177.15,310.49L177.5,313.45L177.67,313.43L177.84,313.43L179.74,313.4L179.91,307.51L180.77,313.46L180.95,313.47L183.36,313.46L183.53,312.66L184.39,313.47L184.57,313.45L186.64,313.49L186.81,313.49L191.98,313.48L192.16,192.05L192.68,313.45L193.02,313.42L193.19,313.35L194.05,313.33L194.23,313.43L194.92,313.47L195.09,310.83L195.95,313.48L196.13,313.47L198.02,313.48L198.19,303.17L198.88,313.48L199.06,313.43L199.23,313.48L200.09,313.45L200.27,313.48L212.17,313.47L212.34,313.48L213.2,313.49L213.37,310.73L214.24,313.49L214.41,313.43L215.1,313.49L215.27,307L216.13,313.46L216.31,313.47L220.45,313.47L220.62,313.48L230.8,313.46L230.97,313.48L234.25,313.47L234.42,312.53L235.28,313.46L235.45,313.48L242.01,313.48L242.18,309.26L243.21,313.45L243.39,313.45L252.01,313.49L252.19,312.05L253.05,313.49L253.22,312.14L254.08,313.5L254.26,313.49L264.09,313.49L264.26,312.95L264.6,313.45L264.78,309.59L265.64,313.49L265.81,313.46L268.23,313.25L268.4,271.65L269.26,313.41L269.43,313.41L281.51,313.47L281.68,313.49L291.86,313.5L292.03,312.12L292.89,313.49L293.07,313.45L296,313.48L296.17,313.3L297.21,313.47L297.38,313.49L297.55,313.15L298.07,313.48L298.24,313.47L300.48,313.47L300.66,313.49L302.9,313.48L303.07,313.46L307.55,313.5L307.73,313.5L310.66,313.4L310.83,313.47L316.53,313.49L316.7,313.25L317.04,312.86L317.9,313.45L318.08,313.47L318.77,313.49L318.94,312.46L319.8,313.5L319.98,313.5L332.57,313.5L332.74,313.5L336.19,313.49L336.36,312.33L337.05,313.49L337.22,313.45L337.4,312.38L338.26,313.46L338.43,313.47L344.99,313.49L345.16,313.5L358.1,313.47L358.27,313.49L361.89,313.5L362.06,312.41L362.92,313.5L363.1,313.49L366.55,313.47L366.72,310.05L367.58,313.49L367.76,313.48L380.17,313.46L380.35,313.49L396.56,313.5L396.73,308.76L397.6,313.5L397.77,313.49L410.36,313.5L410.53,313.48L424.16,313.5L424.33,312.99L425.19,313.49L425.37,313.49L528,313.49" style="vector-effect: non-scaling-stroke; fill: none; stroke: rgb(214, 39, 40); stroke-opacity: 1; stroke-width: 2px; opacity: 1;"/></g><g class="points"/><g class="text"/></g><g class="trace scatter traceb1ccb4" style="stroke-miterlimit: 2; opacity: 1;"><g class="fills"/><g class="errorbars"/><g class="lines"><path class="js-line" d="M0,163.64L0.86,311.84L1.04,311.65L1.38,311.03L2.07,312.99L2.24,312.91L2.76,311.46L2.93,312.43L3.1,312.1L3.28,313.17L3.8,312.46L3.97,312.72L4.14,309.79L4.66,313.02L4.83,312.98L5.52,312.96L5.69,312.51L6.04,313.09L6.21,311.66L7.07,313.36L7.25,313.25L8.8,313.16L8.97,313.24L9.66,312.35L9.83,312.78L10,313.14L10.7,310.99L10.87,312.75L12.25,312.69L12.42,313.02L14.32,313.28L14.49,312.95L16.39,313.36L16.56,312.84L17.08,313.37L17.25,313.27L17.42,312.88L17.94,313.31L18.29,313.11L18.46,313.25L19.32,313.29L19.49,313.22L21.39,313.33L21.56,313.28L21.74,312.97L22.25,313.33L22.43,313.3L24.67,313.19L24.84,312.47L25.7,313.38L25.87,313.15L26.91,313.35L27.08,313.28L30.36,313.38L30.53,313.44L31.22,313.23L31.39,313.39L32.6,313.4L32.77,313.41L32.95,313.39L33.12,311.08L33.81,313.27L33.98,313.22L34.15,313.12L37.43,313.23L37.6,310.8L38.29,313.34L38.47,313.29L38.64,313.37L39.67,312.96L39.85,313.24L42.43,313.34L42.61,313.4L43.99,313.2L44.16,313.24L45.37,313.3L45.54,311.92L46.06,313.43L46.4,313.31L46.57,313.41L47.61,313.41L47.78,313.4L49.16,313.39L49.33,312.53L50.2,313.43L50.37,313.24L53.47,313.29L53.65,312.7L54.34,313.37L54.51,313.32L54.68,313.25L55.89,313.36L56.06,312.98L56.75,313.4L56.92,313.21L57.1,313.33L58.48,313.4L58.65,313.13L61.41,313.2L61.58,313.14L62.62,313.37L62.79,313.22L64,313.34L64.17,313.34L66.07,313.37L66.24,313.25L67.45,313.35L67.62,312.47L68.65,313.36L68.82,313.37L71.07,313.12L71.24,313.39L72.27,313.25L72.45,311.84L72.79,313.3L73.14,312.95L73.31,312.1L74.17,313.31L74.34,313.31L76.24,313.19L76.42,313.06L77.11,313.38L77.28,313.13L77.45,313.17L79.35,313.02L79.52,313.37L81.07,313.32L81.24,311.18L81.93,313.36L82.11,313.24L82.28,313.27L85.21,313.33L85.38,312.85L87.8,313.41L87.97,313.23L96.77,313.3L96.94,313.44L98.49,313.15L98.67,313.31L100.22,313.19L100.39,312.57L101.25,313.3L101.43,313.04L102.46,313.31L102.63,313.42L104.01,313.29L104.19,313.31L104.88,313.15L105.05,312.33L105.91,313.36L106.08,313.29L107.12,313.31L107.29,312.53L108.15,313.32L108.33,313.23L109.19,313.06L109.36,313.34L111.43,313.25L111.6,313.39L112.12,312.99L112.29,309.09L112.81,313.39L113.16,313.21L113.33,313.39L114.36,313.37L114.54,313.41L115.4,312.58L115.57,313.25L115.74,313.4L116.78,313.15L116.95,313.4L117.12,313.35L118.85,313.4L119.02,313.21L120.4,313.43L120.57,313.01L121.26,313.42L121.44,313.27L121.61,313.35L123.16,313.4L123.33,313.22L124.54,313.39L124.71,313.41L125.4,313.41L125.58,312.19L126.44,313.41L126.61,313.39L127.99,313.27L128.16,313.44L128.68,312.99L129.03,313.42L129.2,313.35L129.37,312.65L129.89,313.41L130.06,313.42L145.58,313.18L145.76,312.27L146.1,313.46L146.45,313.34L146.62,312.88L147.31,313.39L147.48,312.91L148.35,313.43L148.52,313.1L150.07,313.37L150.24,310.17L150.93,313.4L151.1,313.07L151.28,312.04L152.14,313.38L152.31,313.26L153.17,313.41L153.35,312.77L154.21,313.4L154.38,313.37L157.14,313.45L157.31,301.53L158,313.43L158.18,313.38L158.35,313.39L161.11,313.39L161.28,313.08L162.49,313.39L162.66,313.3L164.39,313.41L164.56,313.16L166.11,313.39L166.28,313.31L173.36,313.45L173.53,313.42L175.08,313.32L175.25,313.37L176.12,313.29L176.29,313.37L176.98,313.22L177.15,312.46L178.01,313.39L178.18,313.3L179.74,313.45L179.91,313.23L180.95,313.35L181.12,313.44L183.02,313.45L183.19,305.76L184.05,313.43L184.22,313.36L186.98,313.4L187.16,313.42L189.57,313.42L189.74,313.32L192.5,313.32L192.68,313.23L193.54,313.4L193.71,313.03L194.57,313.28L194.74,313.32L196.3,313.44L196.47,313.43L201.82,313.39L201.99,306.91L202.68,313.45L202.85,313.44L203.03,313.05L203.89,313.44L204.06,313.46L209.06,313.43L209.23,311.85L209.92,313.46L210.1,313.35L210.27,313.43L220.79,313.39L220.96,313.41L227.35,313.41L227.52,313.3L230.97,313.44L231.14,312.48L231.83,313.45L232,313.32L232.18,313.41L234.59,313.44L234.76,313.44L235.8,313.32L235.97,313.36L236.31,313.39L236.49,311.89L237.18,313.42L237.35,313.36L237.52,313.45L240.28,313.38L240.46,313.46L258.91,313.4L259.08,309.25L259.6,313.42L259.95,313.4L260.12,313.43L264.6,313.35L264.78,311.81L265.64,313.43L265.81,313.45L269.61,313.43L269.78,312.3L270.64,313.41L270.81,313.34L272.02,313.37L272.19,311.41L273.06,313.42L273.23,313.43L275.13,313.37L275.3,313.42L278.06,313.45L278.23,313.17L279.27,313.45L279.44,313.45L283.92,313.23L284.1,313.46L285.13,313.41L285.3,313.46L287.2,313.41L287.37,313.46L294.79,313.44L294.96,312.32L295.83,313.44L296,313.46L296.86,313.41L297.03,313.44L299.97,313.14L300.14,300.6L300.66,313.41L301,313.23L301.17,313.38L305.14,313.41L305.31,313.42L306.87,313.47L307.04,313.46L307.21,312.65L307.73,313.4L307.9,313.45L308.24,313.43L308.42,312.04L309.28,313.4L309.45,313.4L309.63,309.6L310.14,313.43L310.32,313.44L317.04,313.32L317.21,313.4L318.77,313.43L318.94,306.26L319.63,313.45L319.8,313.44L319.98,313.45L326.53,313.41L326.7,313.46L327.56,313.47L327.74,313.46L329.81,313.25L329.98,313.47L331.36,313.43L331.53,312.35L332.39,313.45L332.57,313.47L335.15,313.42L335.33,313.47L336.19,313.36L336.36,311.54L337.05,313.44L337.22,313.36L337.4,313.44L342.57,313.46L342.74,313.07L343.61,313.46L343.78,313.35L345.16,313.43L345.33,313.45L349.82,313.33L349.99,312.52L350.51,313.43L350.85,313.33L351.02,313.43L355.68,313.4L355.85,312.9L356.72,313.44L356.89,313.43L359.13,313.15L359.3,313.42L361.89,313.41L362.06,306.15L362.92,313.43L363.1,313.43L382.76,313.46L382.93,312.71L383.8,313.44L383.97,313.46L389.14,313.47L389.32,311L390.18,313.41L390.35,313.45L396.56,313.47L396.73,309.69L397.6,313.43L397.77,313.45L424.16,313.48L424.33,311.76L425.19,313.44L425.37,313.46L438.13,313.45L438.3,313.46L467.11,313.46L467.28,306.72L468.15,313.42L468.32,313.42L480.91,313.43L481.08,312.99L481.95,313.47L482.12,313.47L486.43,313.45L486.6,313.47L497.12,313.45L497.3,313.27L498.68,313.45L498.85,313.45L505.23,313.48L505.4,313.45L509.89,313.42L510.06,313.46L513.34,313.42L513.51,313.46L518.51,313.46L518.69,313.3L521.27,313.48L521.45,313.47L528,313.48" style="vector-effect: non-scaling-stroke; fill: none; stroke: rgb(148, 103, 189); stroke-opacity: 1; stroke-width: 2px; opacity: 1;"/></g><g class="points"/><g class="text"/></g><g class="trace scatter trace8c4b0c" style="stroke-miterlimit: 2; opacity: 1;"><g class="fills"/><g class="errorbars"/><g class="lines"><path class="js-line" d="M0,74.78L0.69,310.58L0.86,310.27L1.04,310.4L1.38,309.66L1.55,312.64L1.9,312.46L2.07,312.2L2.59,309.67L2.76,311.4L3.28,310.53L3.45,312.3L3.62,312.1L3.8,312.31L3.97,312.39L4.14,309.51L4.66,312.92L5,312.48L5.18,312.25L6.04,312.76L6.21,312.5L7.76,313.22L7.94,312.41L8.11,312.1L8.28,313.01L8.45,312.85L8.63,312.87L9.83,311.4L10,312.89L10.18,308.19L10.7,311.14L10.87,311.87L11.39,311.52L11.56,312.66L12.08,312.14L12.25,312.69L12.42,312.18L13.45,313.21L13.63,312.42L13.8,313.17L14.32,312.81L14.49,312.68L15.53,313.16L15.7,312.97L17.25,313.21L17.42,312.77L18.46,313.31L18.63,312.88L19.66,313.21L19.84,313.05L21.04,312.56L21.22,313.25L22.94,313.2L23.11,310.11L23.63,313.17L23.98,313.08L24.15,313.29L25.36,313.24L25.53,313.29L27.94,313.22L28.12,313.19L31.05,313.08L31.22,312.94L32.95,313.27L33.12,310.99L33.81,312.93L33.98,312.5L34.15,312.18L35.02,313.16L35.19,312.66L35.88,312.88L36.05,312.21L36.91,313.08L37.09,313.1L37.43,313.11L37.6,302.81L37.95,313.26L38.47,313.01L38.64,313.13L39.16,313.23L39.33,312.41L40.19,313.05L40.36,313.14L43.12,313.1L43.3,312.93L44.16,312.94L44.33,312.77L45.37,313.16L45.54,312.77L46.4,313.17L46.57,313.28L49.16,313.31L49.33,312.73L50.2,313.26L50.37,313.09L52.44,313.1L52.61,313.16L53.99,313.14L54.16,313.07L55.2,313.16L55.37,313.15L57.96,313.1L58.13,313.03L59.86,313.14L60.03,312.93L61.06,313.17L61.24,313.13L62.96,312.75L63.13,312.19L63.48,313.27L64,313.16L64.17,313.2L66.58,313.25L66.76,313.3L67.45,313.28L67.62,307.01L68.48,312.78L68.65,312.62L69.34,312.91L69.52,311.96L69.69,313.19L69.86,311.35L70.38,313.11L70.55,312.59L71.07,312.23L71.41,312.97L71.58,313.07L71.76,313.22L71.93,312.23L72.1,313.11L72.62,312.82L72.79,311.95L72.97,312.29L73.31,311.35L73.48,311.46L74.34,313.12L74.52,313.12L75.21,313.15L75.38,312.12L75.55,311.71L75.72,312.4L75.9,312.92L76.07,312.81L76.24,310.5L76.59,312.99L76.93,312.55L77.11,311.4L77.97,313.08L78.14,312.72L78.31,313.03L78.66,312.59L78.83,311.57L79.17,310.36L79.35,311.53L79.52,313.09L80.56,313.04L80.73,312.86L80.9,312.95L81.07,312.62L81.24,312.22L81.93,313.11L82.11,312.31L82.28,313.27L82.8,313.05L82.97,312.82L83.83,313.2L84,312.98L84.35,312.6L85.04,313.23L85.21,313.01L85.56,312.56L85.73,312L85.9,312.05L86.07,313.18L86.25,312.6L86.77,312.87L86.94,312.99L87.63,312.86L87.8,313.05L87.97,312.19L88.49,312.96L88.66,313.04L89.01,312.64L89.18,311.73L90.04,312.87L90.22,313.12L91.42,312.4L91.59,313.18L92.8,313.13L92.97,313.01L94.01,313.29L94.18,313.21L95.56,313.16L95.73,313.02L95.91,312.3L96.08,313.19L96.42,313.17L96.6,313.2L97.11,312.86L97.29,313.08L97.46,313.11L98.32,313.03L98.49,313.05L99.01,313.28L99.36,312.82L99.53,313.33L100.39,312.24L100.56,312.88L100.91,312.74L101.08,305.37L101.94,312.99L102.12,312.92L103.15,312.5L103.32,312.26L103.84,312.19L104.01,312.73L104.19,312.89L104.36,312.2L104.53,312.98L104.7,307.66L105.57,313.12L105.74,313L106.77,313.27L106.95,312.28L108.33,313.17L108.5,312.16L109.53,313.05L109.71,313.01L110.4,313.07L110.57,312.52L111.43,312.17L111.6,312.98L112.12,312.62L112.29,310.7L112.98,313.13L113.16,312.85L113.33,313.11L114.02,312.58L114.36,313.08L114.54,313.27L115.23,312.13L115.57,312.42L115.74,313.17L115.92,313.06L116.09,312.03L116.95,313.01L117.12,312.95L117.99,313.37L118.16,313.17L119.02,312.93L119.19,313.25L119.71,312.66L119.88,313.25L120.05,313.34L120.75,312.18L120.92,313.28L121.44,312.61L121.78,313.24L121.95,313.29L122.81,313.22L122.99,313.33L124.54,313.26L124.71,313.07L125.23,313.22L125.4,312.9L125.58,310.38L126.44,313.3L126.61,312.97L126.95,313.19L127.13,309.56L127.99,313.33L128.16,313.19L128.34,310.63L128.85,312.97L129.03,313.05L129.2,313.06L129.37,310.13L130.06,313.35L130.23,313.2L130.4,313.17L131.96,313.26L132.13,312.83L132.99,313.15L133.16,313.18L134.89,313.25L135.06,312.9L135.92,313.23L136.1,313.3L139.2,313.17L139.37,273.59L139.72,313.3L140.24,312.53L140.41,312.78L140.58,313.17L140.75,311.19L141.45,313.27L141.62,312.72L141.79,313.1L143,313.33L143.17,313.1L144.2,313.25L144.38,313.24L146.27,312.81L146.45,311.93L146.62,312L146.79,313.01L147.14,312.2L147.31,313.05L147.48,311.99L148,312.74L148.17,312.81L148.35,312.95L148.52,311.04L149.21,312.98L149.38,312.52L149.55,312.51L149.9,312.98L150.24,306.02L150.41,311.86L151.1,312.88L151.28,306.57L152.14,312.94L152.31,312.29L152.48,313.07L152.66,312.41L152.83,310.59L153.17,312.91L153.35,300.59L153.69,313.13L154.21,313.04L154.38,313.11L154.73,313.13L154.9,312.32L155.07,309.85L155.24,313.15L155.59,311.76L155.76,313.13L156.8,312.89L156.97,313.25L157.14,313.2L157.31,109.71L158,312.91L158.18,312.08L158.35,312.68L158.69,313.09L159.04,312.67L159.21,312.96L159.38,312.16L159.9,312.88L160.07,313.11L160.94,313.23L161.11,313.12L161.97,312.07L162.14,312.84L162.32,312.9L162.49,312.39L162.83,313.18L163.01,313.02L163.18,313.07L164.04,312.94L164.21,313.2L166.11,312.95L166.28,313.17L166.46,312.08L166.8,313.3L166.97,313.07L167.15,312.98L167.32,312.84L167.49,313.14L167.66,311.5L168.53,313.21L168.7,313.03L169.22,313.14L169.39,312.96L169.56,312.86L170.08,313.33L170.42,313.08L170.6,312.54L171.29,313.3L171.46,313.13L171.63,313.32L171.8,312.38L172.32,313.35L172.49,313.31L173.36,313.26L173.53,313.26L176.98,312.92L177.15,311.73L177.84,313.21L178.01,313.03L178.18,313.17L179.74,313.32L179.91,311.98L180.77,313.36L180.95,313.29L182.5,312.56L182.67,313.01L182.84,312.9L183.02,313.19L183.19,301.37L184.05,313.27L184.22,313.28L184.57,312.97L184.74,309.16L185.43,313.23L185.6,313.17L185.78,312.71L185.95,313.33L186.12,313.18L186.29,295.44L186.81,313.37L187.16,312.59L187.33,313.35L188.71,313.16L188.88,313.36L190.43,313.39L190.61,310.99L191.12,313.33L191.47,313.25L191.64,313.22L192.5,313.13L192.68,310.97L193.54,313.18L193.71,313.16L194.92,313.21L195.09,313.25L195.95,313.26L196.13,313.32L198.19,312.89L198.37,312.51L198.88,313.34L199.23,313.14L199.4,312.97L199.58,297.65L199.92,313.19L200.09,312.91L200.27,313.08L201.82,312.98L201.99,302.68L202.68,313.27L202.85,313L203.03,312.71L203.89,313.37L204.06,313.18L204.23,313.28L205.78,312.88L205.96,313.02L206.99,313.31L207.16,312.52L207.85,313.26L208.03,313.01L208.2,313.23L208.89,312.39L209.06,313.26L209.23,310.64L209.75,313.18L209.92,313.26L211.48,313.15L211.65,313.31L212.68,312.36L212.86,313.18L213.03,312.02L213.55,312.45L213.72,312.63L213.89,312.99L214.06,312.73L214.24,311.88L214.93,313.21L215.1,313.14L215.27,302.06L215.96,313.12L216.13,313.08L216.31,312.85L217.17,313.23L217.34,313.25L218.89,313.2L219.07,313.28L220.45,313.21L220.62,312.35L221.31,313.23L221.48,313.08L221.65,313.32L222.69,313.05L222.86,313.07L223.9,313.37L224.07,313.17L225.28,312.99L225.45,313.3L225.62,309.72L226.14,312.94L226.31,313.27L226.48,312.87L227,313.32L227.17,313.19L227.52,312.33L227.69,313L227.86,313.18L228.55,311.87L228.9,312.59L229.07,312.69L229.93,313.22L230.11,312.98L230.97,313.32L231.14,313.14L232,313.17L232.18,313.26L233.73,313.07L233.9,313.22L234.59,312.85L234.76,313.34L235.63,313.05L235.8,313.05L236.14,313.21L236.31,313.01L236.49,310.83L237.18,313.11L237.35,312.69L237.52,313.13L243.04,313.25L243.21,311.93L243.56,311.2L243.91,313.15L244.08,311.15L244.6,313.07L244.94,312.97L245.11,313.04L249.08,313.21L249.25,313.29L252.19,313.24L252.36,312.4L252.7,313.23L253.05,313.13L253.22,312.49L254.08,313.27L254.26,313.32L255.98,313.2L256.15,311.01L257.01,313.36L257.19,312.7L257.36,313.33L257.88,312.9L258.05,312.97L258.91,313.31L259.08,302.97L259.95,313.23L260.12,313.26L262.71,313.12L262.88,313.32L264.6,313.05L264.78,308.74L265.29,313.27L265.64,313.16L265.81,313.02L266.85,313.35L267.02,313.22L268.23,313.22L268.4,311.06L269.26,313.22L269.43,313.19L269.61,313.27L269.78,312.8L269.95,312.55L270.12,311.88L270.3,312.92L270.47,312.83L270.64,312.92L271.33,312.88L271.5,313.1L271.85,312.65L272.02,312.83L272.19,310.91L273.06,313.2L273.23,313.02L273.92,312.7L274.09,313.23L275.82,313.29L275.99,313.2L276.16,313.24L276.33,312.03L277.2,313.23L277.37,313.09L278.4,313.35L278.58,312.17L279.09,313.27L279.44,313.08L279.61,313.24L280.65,313.26L280.82,313.3L280.99,312.62L281.51,313.2L281.68,313.31L283.06,313.12L283.23,311.63L283.75,313.29L284.1,313.22L284.27,313.23L285.65,313.06L285.82,312.67L286.68,313.22L286.86,313.28L287.72,313.11L287.89,312.44L288.75,313.29L288.93,313.28L290.13,313.22L290.31,313.31L290.48,313.35L290.65,312.33L291.34,313.23L291.51,313.09L291.69,313.06L292.55,313.27L292.72,313.18L293.07,312.82L293.76,313.34L293.93,313.22L295.14,313.23L295.31,313.28L296.17,313.17L296.34,313.3L298.59,313.27L298.76,313.29L299.1,312.52L299.28,313.37L299.97,312.89L300.14,20.22L300.83,313.19L301,313.14L301.17,313.13L301.52,313.21L301.69,312.19L302.04,313.27L302.55,313.16L302.73,313.07L303.93,313.4L304.1,313.2L304.28,311.45L304.62,313.36L304.79,313.29L304.97,312.65L305.83,313.3L306,313.26L306.18,309.45L306.52,313.35L306.69,313.16L306.87,313.32L307.04,313.39L307.21,312.38L307.9,313.36L308.07,313.33L308.24,313.12L308.42,311.85L308.76,313.28L308.93,312.96L309.11,313.35L309.28,313.1L309.45,313.35L309.63,309.02L310.32,313.24L310.49,313.18L310.66,313.18L311.87,312.96L312.04,313.26L312.21,312.8L312.73,313.35L312.9,313.25L314.28,313.28L314.45,313.25L317.56,312.91L317.73,312.84L318.42,312.97L318.59,312.52L318.77,313.16L318.94,148.67L319.8,313.13L319.98,313.27L321.87,313.09L322.04,313.14L322.56,311.14L322.73,313.31L324.46,313.12L324.63,312.33L325.67,313.19L325.84,313.31L327.56,313.28L327.74,313.24L328.6,313.31L328.77,313.3L329.29,312.96L329.46,311.96L329.98,313.34L330.15,313.24L330.32,312.38L330.67,313.33L331.19,313.03L331.36,313.19L331.53,309.85L332.05,313.21L332.22,313.22L333.43,313.26L333.6,312.39L333.77,313.2L334.46,312.96L334.64,313.17L335.84,313.11L336.02,312.57L336.19,313.38L336.36,309.04L337.05,313.19L337.22,312.97L337.4,312.56L338.09,313.42L338.43,313.18L338.6,313.3L340.5,313.31L340.67,313.35L340.85,311.61L341.36,313.21L341.54,313.28L342.57,313.34L342.74,311.98L343.61,313.28L343.78,313.26L344.3,312.37L344.47,313.28L346.88,312.72L347.06,313.31L347.57,312.95L347.75,313.32L347.92,313.3L349.82,313.03L349.99,310.09L350.51,313.29L350.85,313.26L351.02,312.97L351.71,313.31L351.89,312.6L352.57,313.33L352.75,313.27L352.92,313.25L355.68,313.18L355.85,311.42L356.72,313.35L356.89,313.31L359.3,313.16L359.47,313.24L361.89,313.32L362.06,226.29L362.92,313.32L363.1,313.28L366.55,313.36L366.72,311.34L367.41,313.26L367.58,313.23L367.76,313.3L370.17,313.19L370.34,313.3L371.38,313.3L371.55,313.3L373.45,312.98L373.62,313.31L375,313.03L375.17,310.98L375.86,313.24L376.03,313.21L376.21,313.12L378.11,313.37L378.28,313.01L379.31,313.33L379.48,313.31L379.83,313.28L380,309.99L380.86,313.25L381.04,313.18L381.9,313.07L382.07,313.3L382.76,313.25L382.93,309.4L383.8,313.38L383.97,313.37L388.63,313.17L388.8,313.3L389.14,313.27L389.32,305.44L390.18,313.26L390.35,313.23L391.73,313.21L391.9,313.3L396.04,313.03L396.22,313.38L396.56,313.35L396.73,39.33L397.6,313.2L397.77,313.26L406.91,313.25L407.08,313.41L410.36,313.32L410.53,313.36L411.57,313.35L411.74,311.95L411.91,312.01L412.09,312.97L419.16,313.34L419.33,313.29L424.16,313.35L424.33,82.41L425.19,313.09L425.37,313.04L425.54,312.56L426.23,312.82L426.4,313.17L428.47,313.38L428.64,313.28L432.09,313.3L432.27,312.99L433.3,313.3L433.47,312.31L434.16,313.35L434.34,313.3L434.51,313.32L435.37,313.16L435.54,293.96L436.24,313.29L436.41,313.23L436.58,313.31L441.93,313.37L442.1,313.18L443.13,313.36L443.31,313.39L445.03,313.29L445.2,313.33L448.65,313.42L448.83,313.32L450.38,313.36L450.55,313.15L451.41,313.21L451.59,313.28L453.14,313.41L453.31,313.39L454,313.4L454.17,312.64L455.04,313.4L455.21,313.37L456.07,313.28L456.24,312.49L457.45,313.31L457.62,313.31L467.11,313.4L467.28,252.71L467.97,313.26L468.15,313.23L468.32,313.3L472.28,313.34L472.46,313.36L475.05,313.39L475.22,313.29L477.81,313.31L477.98,313.28L478.32,312.93L478.67,313.35L478.84,313.32L480.91,313.06L481.08,270.4L481.95,313.31L482.12,313.35L483.15,313.35L483.32,313.22L484.53,313.28L484.71,312.87L485.74,313.33L485.91,313.41L498.16,313.37L498.33,313.39L503.33,313.33L503.51,313.17L504.54,313.4L504.71,313.38L505.75,313.38L505.92,313.41L507.47,313.33L507.65,299.18L508.34,313.34L508.51,313.32L508.68,313.29L509.54,313.39L509.72,308.54L510.58,313.35L510.75,313.26L511.96,313.3L512.13,313.24L516.96,313.39L517.13,313.32L518.51,313.36L518.69,278.82L519.55,313.37L519.72,313.37L528,313.33" style="vector-effect: non-scaling-stroke; fill: none; stroke: rgb(140, 86, 75); stroke-opacity: 1; stroke-width: 2px; opacity: 1;"/></g><g class="points"/><g class="text"/></g></g></g><g class="overplot"/><path class="xlines-above crisp" d="M0,0" style="fill: none;"/><path class="ylines-above crisp" d="M0,0" style="fill: none;"/><g class="overlines-above"/><g class="xaxislayer-above"><g class="xtick"><text text-anchor="middle" x="0" y="403" transform="translate(218.39,0)" style="font-family: 'Open Sans', verdana, arial, sans-serif; font-size: 12px; fill: rgb(68, 68, 68); fill-opacity: 1; white-space: pre;">50</text></g><g class="xtick"><text text-anchor="middle" x="0" y="403" transform="translate(380.19,0)" style="font-family: 'Open Sans', verdana, arial, sans-serif; font-size: 12px; fill: rgb(68, 68, 68); fill-opacity: 1; white-space: pre;">100</text></g><g class="xtick"><text text-anchor="middle" x="0" y="403" transform="translate(541.99,0)" style="font-family: 'Open Sans', verdana, arial, sans-serif; font-size: 12px; fill: rgb(68, 68, 68); fill-opacity: 1; white-space: pre;">150</text></g></g><g class="yaxislayer-above"><g class="ytick"><text text-anchor="end" x="59" y="4.199999999999999" transform="translate(0,373.5)" style="font-family: 'Open Sans', verdana, arial, sans-serif; font-size: 12px; fill: rgb(68, 68, 68); fill-opacity: 1; white-space: pre;">0</text></g><g class="ytick"><text text-anchor="end" x="59" y="4.199999999999999" transform="translate(0,322.6)" style="font-family: 'Open Sans', verdana, arial, sans-serif; font-size: 12px; fill: rgb(68, 68, 68); fill-opacity: 1; white-space: pre;">2</text></g><g class="ytick"><text text-anchor="end" x="59" y="4.199999999999999" transform="translate(0,271.7)" style="font-family: 'Open Sans', verdana, arial, sans-serif; font-size: 12px; fill: rgb(68, 68, 68); fill-opacity: 1; white-space: pre;">4</text></g><g class="ytick"><text text-anchor="end" x="59" y="4.199999999999999" transform="translate(0,220.8)" style="font-family: 'Open Sans', verdana, arial, sans-serif; font-size: 12px; fill: rgb(68, 68, 68); fill-opacity: 1; white-space: pre;">6</text></g><g class="ytick"><text text-anchor="end" x="59" y="4.199999999999999" transform="translate(0,169.9)" style="font-family: 'Open Sans', verdana, arial, sans-serif; font-size: 12px; fill: rgb(68, 68, 68); fill-opacity: 1; white-space: pre;">8</text></g><g class="ytick"><text text-anchor="end" x="59" y="4.199999999999999" transform="translate(0,119)" style="font-family: 'Open Sans', verdana, arial, sans-serif; font-size: 12px; fill: rgb(68, 68, 68); fill-opacity: 1; white-space: pre;">10</text></g><g class="ytick"><text text-anchor="end" x="59" y="4.199999999999999" transform="translate(0,68.1)" style="font-family: 'Open Sans', verdana, arial, sans-serif; font-size: 12px; fill: rgb(68, 68, 68); fill-opacity: 1; white-space: pre;">12</text></g></g><g class="overaxes-above"/></g></g><g class="polarlayer"/><g class="ternarylayer"/><g class="geolayer"/><g class="pielayer"/><g class="glimages"/><defs id="topdefs-c90d39"><g class="clips"/><clipPath id="legendc90d39"><rect width="89" height="124" x="0" y="0"/></clipPath></defs><g class="layer-above"><g class="imagelayer"/><g class="shapelayer"/></g><g class="infolayer"><g class="legend" pointer-events="all" transform="translate(598.5600000000001, 60)"><rect class="bg" shape-rendering="crispEdges" width="89" height="124" x="0" y="0" style="stroke: rgb(68, 68, 68); stroke-opacity: 1; fill: rgb(255, 255, 255); fill-opacity: 1; stroke-width: 0px;"/><g class="scrollbox" transform="translate(0, 0)" clip-path="url(#legendc90d39)"><g class="groups"><g class="traces" transform="translate(0, 14.5)" style="opacity: 1;"><g class="layers" style="opacity: 1;"><g class="legendfill"/><g class="legendlines"><path class="js-line" d="M5,0h30" style="fill: none; stroke: rgb(31, 119, 180); stroke-opacity: 1; stroke-width: 2px;"/></g><g class="legendsymbols"><g class="legendpoints"/></g></g><text class="legendtext user-select-none" text-anchor="start" x="40" y="4.680000000000001" style="font-family: 'Open Sans', verdana, arial, sans-serif; font-size: 12px; fill: rgb(68, 68, 68); fill-opacity: 1; white-space: pre;">G_GAN</text><rect class="legendtoggle" pointer-events="all" x="0" y="-9.5" width="129" height="19" style="cursor: pointer; fill: rgb(0, 0, 0); fill-opacity: 0;"/></g><g class="traces" transform="translate(0, 33.5)" style="opacity: 1;"><g class="layers" style="opacity: 1;"><g class="legendfill"/><g class="legendlines"><path class="js-line" d="M5,0h30" style="fill: none; stroke: rgb(255, 127, 14); stroke-opacity: 1; stroke-width: 2px;"/></g><g class="legendsymbols"><g class="legendpoints"/></g></g><text class="legendtext user-select-none" text-anchor="start" x="40" y="4.680000000000001" style="font-family: 'Open Sans', verdana, arial, sans-serif; font-size: 12px; fill: rgb(68, 68, 68); fill-opacity: 1; white-space: pre;">G_L1</text><rect class="legendtoggle" pointer-events="all" x="0" y="-9.5" width="129" height="19" style="cursor: pointer; fill: rgb(0, 0, 0); fill-opacity: 0;"/></g><g class="traces" transform="translate(0, 52.5)" style="opacity: 1;"><g class="layers" style="opacity: 1;"><g class="legendfill"/><g class="legendlines"><path class="js-line" d="M5,0h30" style="fill: none; stroke: rgb(44, 160, 44); stroke-opacity: 1; stroke-width: 2px;"/></g><g class="legendsymbols"><g class="legendpoints"/></g></g><text class="legendtext user-select-none" text-anchor="start" x="40" y="4.680000000000001" style="font-family: 'Open Sans', verdana, arial, sans-serif; font-size: 12px; fill: rgb(68, 68, 68); fill-opacity: 1; white-space: pre;">D_real</text><rect class="legendtoggle" pointer-events="all" x="0" y="-9.5" width="129" height="19" style="cursor: pointer; fill: rgb(0, 0, 0); fill-opacity: 0;"/></g><g class="traces" transform="translate(0, 71.5)" style="opacity: 1;"><g class="layers" style="opacity: 1;"><g class="legendfill"/><g class="legendlines"><path class="js-line" d="M5,0h30" style="fill: none; stroke: rgb(214, 39, 40); stroke-opacity: 1; stroke-width: 2px;"/></g><g class="legendsymbols"><g class="legendpoints"/></g></g><text class="legendtext user-select-none" text-anchor="start" x="40" y="4.680000000000001" style="font-family: 'Open Sans', verdana, arial, sans-serif; font-size: 12px; fill: rgb(68, 68, 68); fill-opacity: 1; white-space: pre;">D_fake</text><rect class="legendtoggle" pointer-events="all" x="0" y="-9.5" width="129" height="19" style="cursor: pointer; fill: rgb(0, 0, 0); fill-opacity: 0;"/></g><g class="traces" transform="translate(0, 90.5)" style="opacity: 1;"><g class="layers" style="opacity: 1;"><g class="legendfill"/><g class="legendlines"><path class="js-line" d="M5,0h30" style="fill: none; stroke: rgb(148, 103, 189); stroke-opacity: 1; stroke-width: 2px;"/></g><g class="legendsymbols"><g class="legendpoints"/></g></g><text class="legendtext user-select-none" text-anchor="start" x="40" y="4.680000000000001" style="font-family: 'Open Sans', verdana, arial, sans-serif; font-size: 12px; fill: rgb(68, 68, 68); fill-opacity: 1; white-space: pre;">T_A</text><rect class="legendtoggle" pointer-events="all" x="0" y="-9.5" width="129" height="19" style="cursor: pointer; fill: rgb(0, 0, 0); fill-opacity: 0;"/></g><g class="traces" transform="translate(0, 109.5)" style="opacity: 1;"><g class="layers" style="opacity: 1;"><g class="legendfill"/><g class="legendlines"><path class="js-line" d="M5,0h30" style="fill: none; stroke: rgb(140, 86, 75); stroke-opacity: 1; stroke-width: 2px;"/></g><g class="legendsymbols"><g class="legendpoints"/></g></g><text class="legendtext user-select-none" text-anchor="start" x="40" y="4.680000000000001" style="font-family: 'Open Sans', verdana, arial, sans-serif; font-size: 12px; fill: rgb(68, 68, 68); fill-opacity: 1; white-space: pre;">T_B</text><rect class="legendtoggle" pointer-events="all" x="0" y="-9.5" width="129" height="19" style="cursor: pointer; fill: rgb(0, 0, 0); fill-opacity: 0;"/></g></g></g><rect class="scrollbar" rx="20" ry="3" width="0" height="0" x="0" y="0" style="fill: rgb(128, 139, 164); fill-opacity: 1;"/></g><g class="g-gtitle"><text class="gtitle" x="350" y="30" text-anchor="middle" dy="0em" style="font-family: 'Open Sans', verdana, arial, sans-serif; font-size: 17px; fill: rgb(68, 68, 68); opacity: 1; font-weight: normal; white-space: pre;">rss_expr4.4 loss over time</text></g><g class="g-xtitle"><text class="xtitle" x="324" y="442" text-anchor="middle" style="font-family: 'Open Sans', verdana, arial, sans-serif; font-size: 14px; fill: rgb(68, 68, 68); opacity: 1; font-weight: normal; white-space: pre;">epoch</text></g><g class="g-ytitle"><text class="ytitle" transform="rotate(-90,22,225)" x="22" y="225" text-anchor="middle" style="font-family: 'Open Sans', verdana, arial, sans-serif; font-size: 14px; fill: rgb(68, 68, 68); opacity: 1; font-weight: normal; white-space: pre;">loss</text></g></g></svg>