<svg class="main-svg" xmlns="http://www.w3.org/2000/svg" xmlns:xlink="http://www.w3.org/1999/xlink" width="700" height="450" style="" viewBox="0 0 700 450"><rect x="0" y="0" width="700" height="450" style="fill: rgb(255, 255, 255); fill-opacity: 1;"/><defs id="defs-8516d0"><g class="clips"><clipPath id="clip8516d0xyplot" class="plotclip"><rect width="528" height="330"/></clipPath><clipPath class="axesclip" id="clip8516d0x"><rect x="60" y="0" width="528" height="450"/></clipPath><clipPath class="axesclip" id="clip8516d0y"><rect x="0" y="60" width="700" height="330"/></clipPath><clipPath class="axesclip" id="clip8516d0xy"><rect x="60" y="60" width="528" height="330"/></clipPath></g><g class="gradients"/></defs><g class="bglayer"/><g class="layer-below"><g class="imagelayer"/><g class="shapelayer"/></g><g class="cartesianlayer"><g class="subplot xy"><g class="layer-subplot"><g class="shapelayer"/><g class="imagelayer"/></g><g class="gridlayer"><g class="x"><path class="xgrid crisp" transform="translate(189.25,0)" d="M0,60v330" style="stroke: rgb(238, 238, 238); stroke-opacity: 1; stroke-width: 1px;"/><path class="xgrid crisp" transform="translate(321.29,0)" d="M0,60v330" style="stroke: rgb(238, 238, 238); stroke-opacity: 1; stroke-width: 1px;"/><path class="xgrid crisp" transform="translate(453.32,0)" d="M0,60v330" style="stroke: rgb(238, 238, 238); stroke-opacity: 1; stroke-width: 1px;"/><path class="xgrid crisp" transform="translate(585.36,0)" d="M0,60v330" style="stroke: rgb(238, 238, 238); stroke-opacity: 1; stroke-width: 1px;"/></g><g class="y"><path class="ygrid crisp" transform="translate(0,304.6)" d="M60,0h528" style="stroke: rgb(238, 238, 238); stroke-opacity: 1; stroke-width: 1px;"/><path class="ygrid crisp" transform="translate(0,235.7)" d="M60,0h528" style="stroke: rgb(238, 238, 238); stroke-opacity: 1; stroke-width: 1px;"/><path class="ygrid crisp" transform="translate(0,166.8)" d="M60,0h528" style="stroke: rgb(238, 238, 238); stroke-opacity: 1; stroke-width: 1px;"/><path class="ygrid crisp" transform="translate(0,97.9)" d="M60,0h528" style="stroke: rgb(238, 238, 238); stroke-opacity: 1; stroke-width: 1px;"/></g></g><g class="zerolinelayer"><path class="yzl zl crisp" transform="translate(0,373.5)" d="M60,0h528" style="stroke: rgb(68, 68, 68); stroke-opacity: 1; stroke-width: 1px;"/></g><path class="xlines-below"/><path class="ylines-below"/><g class="overlines-below"/><g class="xaxislayer-below"/><g class="yaxislayer-below"/><g class="overaxes-below"/><g class="plot" transform="translate(60, 60)" clip-path="url(#clip8516d0xyplot)"><g class="scatterlayer mlayer"><g class="trace scatter trace530ed7" style="stroke-miterlimit: 2; opacity: 1;"><g class="fills"/><g class="errorbars"/><g class="lines"><path class="js-line" d="M0,294.66L0.28,300.84L0.7,294.79L0.85,294.15L0.99,294.48L1.13,287.29L1.41,288.75L1.97,244.7L2.11,293.63L2.25,299.62L2.39,271.43L2.53,293.57L2.96,253.79L3.1,246.29L3.24,296.66L3.94,294.85L4.08,260.5L4.51,298.8L4.93,297.64L5.07,272.39L5.21,303.02L5.63,256.67L5.77,274.06L5.91,258.26L6.05,235.6L6.48,282.2L6.62,283.88L7.18,307.55L7.46,239.91L7.6,242.01L8.16,307.55L8.31,264.12L8.45,248.11L8.59,283.15L8.73,224.29L9.15,256.81L9.29,248.35L9.43,302.06L10,266.74L10.14,249.74L10.42,244.75L10.56,247.62L10.7,292.98L10.84,240.49L11.26,295.78L11.54,247.31L11.68,229.11L11.82,224.49L11.97,293.2L12.67,245.27L12.81,245.64L12.95,235.78L13.37,245.32L13.51,230.04L13.65,234.42L13.8,227.6L14.08,231.92L14.5,227.64L14.64,223.23L15.63,213.99L15.77,219.09L15.91,214.52L16.05,220.49L16.61,215.67L16.75,217.31L16.89,219.94L17.03,216.17L17.17,218.85L17.31,185.38L17.74,219.26L18.16,214.38L18.3,209.75L18.72,224.88L18.86,207.48L19.14,224.19L19.28,205.76L19.57,301.58L20.13,281.71L20.27,253.84L20.41,241.58L20.55,295.05L21.26,241.23L21.4,299.05L21.96,244.17L22.1,289.1L22.66,225.42L22.95,235.93L23.09,301.57L23.37,288.28L23.51,261.15L23.65,261.51L23.79,247.7L23.93,250.44L24.07,241.23L24.21,232.85L24.77,219.71L24.92,226.58L25.06,296.16L25.34,236.2L25.62,302.92L25.9,253.58L26.04,285.46L26.6,242.77L26.74,289.05L26.89,261.45L27.03,289.03L27.31,233.23L27.45,249.34L27.59,243.06L27.73,254.73L28.15,245.5L28.29,234.67L28.44,242.31L28.58,229.85L28.72,230.6L28.86,220.29L29.7,302.73L29.84,246.11L29.98,271.76L30.41,245.91L30.55,234.24L30.83,237.53L30.97,223.43L31.11,239.66L31.25,187.39L31.81,215.75L31.95,210.63L32.23,202.11L32.52,289.24L32.8,240.38L32.94,251.92L34.07,226.88L34.21,231.13L34.49,200.24L34.63,220.57L34.77,224.74L34.91,216.61L35.05,207.93L36.04,259.64L36.18,227.54L36.6,287.93L36.88,259.2L37.02,228.13L37.72,303.85L37.87,295.45L38.01,272.14L38.29,233.57L38.43,281.54L38.85,224.75L39.27,241.7L39.41,236.16L40.26,224.11L40.4,226.72L40.54,250.74L40.96,218.23L41.1,245.51L41.53,243.75L41.67,282.31L41.81,250.95L41.95,252.86L42.37,239.49L42.51,281.11L43.36,222.04L43.5,234.68L43.64,247.88L43.92,220.33L44.06,185.7L44.9,302.6L45.04,269.76L45.18,274.76L46.03,242.51L46.17,242.92L46.31,161.17L46.59,250.56L46.87,231.39L47.02,249.13L47.3,250.78L47.72,226.77L47.86,253.56L48.14,180.69L48.56,231.33L48.7,233.34L48.85,239.26L49.27,231.32L49.41,231.46L49.55,231.06L49.69,228.34L49.83,227.32L50.11,228.91L50.25,216.57L50.39,207.19L50.53,223.08L50.82,216.32L50.96,220.93L51.8,203.59L51.94,211.23L52.08,212.24L52.22,211.61L52.36,217.89L52.93,204.89L53.21,210.67L53.35,210.01L53.49,209.89L53.63,210.79L53.77,207.13L53.91,212.01L54.19,210.39L54.33,213.03L54.48,215.56L54.62,209.51L54.9,210.2L55.04,206.2L55.32,197.78L55.46,206.34L55.74,202.93L55.88,209.71L56.02,214.92L56.16,193.64L56.59,210.15L56.73,206.53L57.43,193.51L57.57,206.69L57.71,206.05L57.85,209.67L58.56,165.5L58.7,198.07L59.4,198.73L59.68,179.47L59.82,193.04L59.97,197.97L60.25,182.52L60.39,187.28L60.53,183.28L61.23,192.25L61.37,183.06L61.51,197.44L61.94,184.92L62.08,293.08L62.5,297.86L63.06,220.56L63.2,276.85L63.62,253.97L63.77,307.93L64.61,237.1L64.75,247.6L64.89,249.46L66.16,225.23L66.3,223.49L66.44,185.42L67,229.26L67.14,218.24L67.28,219.16L67.43,168.93L67.85,281.52L68.27,238.07L68.41,237.86L68.69,259.89L68.83,240.78L68.97,240.37L69.82,171.6L69.96,273.76L70.1,212.42L70.66,248.81L70.8,255.55L71.79,227.33L71.93,220.02L72.63,261.84L73.06,250.77L73.2,243.75L73.34,244.49L73.48,212L74.18,262.07L74.32,246.41L74.46,234.67L74.75,220.97L74.89,249.02L75.59,225.47L75.73,228.48L75.87,221.09L76.01,223.33L76.15,195.58L76.44,257.06L76.86,217.36L77,207.6L77.56,216.44L77.7,223.01L78.26,197.73L78.41,215.97L78.55,220.18L78.83,203.23L79.11,220.25L79.25,217.11L79.39,217.49L79.67,242.41L79.95,224.51L80.09,204.32L80.66,303.16L80.8,214.3L80.94,226.49L81.36,230.23L82.49,211.99L82.63,215.12L82.77,200.79L83.05,211.85L83.19,236.91L83.33,232.73L83.61,240.86L83.75,240.17L83.9,276.98L84.6,211.86L84.74,213.98L84.88,210.37L85.16,195.08L85.58,205.57L85.72,208.2L86.01,205.63L86.15,213.07L86.71,237.7L86.99,224.98L87.13,205.74L87.84,311.63L87.98,237.31L88.12,231.34L88.26,233.95L88.4,215.36L89.1,227.59L89.24,214.17L89.53,214.93L89.81,208.9L89.95,210.03L90.09,217.71L90.23,220.1L90.37,211.84L90.51,209.32L90.65,206.94L90.79,235.61L91.5,183.7L91.64,203.18L91.78,212.26L92.2,220.06L93.04,176L93.18,198.79L93.47,185.44L93.61,278.97L93.75,284.61L93.89,235.78L94.45,272.85L94.59,252.13L94.73,243.89L94.87,235.05L95.16,244.61L95.3,259.94L95.58,226.46L96.14,236.44L96.28,249.68L97.27,227.62L97.41,224.3L98.67,208.06L98.82,216.68L99.8,204.5L99.94,229.02L100.08,241.59L100.22,201.94L100.36,194.3L100.79,227.54L101.07,223.83L101.21,205.53L101.49,203.2L102.05,217.71L102.19,198.24L102.34,198.72L102.48,210.4L102.62,206.75L102.76,281.82L102.9,293.37L103.04,239.34L103.32,152.99L103.46,221.35L103.6,304.52L104.45,225.5L104.59,225.77L104.87,231.41L105.29,224.82L105.43,224.76L105.85,219.04L105.99,209.84L106.13,220.91L106.7,213.37L106.84,214.35L106.98,215.93L107.12,210.11L107.26,214.61L107.4,210.87L107.54,211.84L107.68,209.27L107.82,133.75L108.11,207.15L108.67,202.15L108.81,201.05L109.23,198.4L109.37,166.91L109.65,196.36L110.08,192.8L110.22,177.27L110.5,193.65L111.06,191.89L111.2,168.12L111.62,191.89L112.05,187.62L112.19,188.49L113.03,177.91L113.17,185.36L113.31,186.18L113.45,181.87L113.6,182.22L113.74,178.67L114.16,177.67L114.3,185.36L114.58,184.09L114.72,183.85L115,171.52L115.43,181.31L115.57,179.53L115.85,180.46L116.13,176.25L116.41,177.22L116.55,175.81L116.83,174.85L116.97,175.1L117.11,133.73L117.96,173.7L118.1,175.14L118.66,173.62L118.8,174.05L118.94,165.8L119.08,174.54L119.79,173.25L119.93,172.02L120.07,172.53L120.21,122.82L121.06,172.79L121.2,171.77L121.48,169.54L121.62,171.75L121.9,168.24L122.32,169.31L122.46,170.59L122.75,168.11L122.89,160.44L123.03,169.71L123.31,168.09L123.45,115.22L124.15,167.96L124.29,167.23L124.43,165.95L124.72,166.63L124.86,166.02L125,163.87L125.14,165.83L125.28,161.94L125.42,158.62L125.84,163.71L126.26,163.15L126.41,162.73L126.55,153.56L127.11,160.79L127.25,160.06L127.39,160.65L127.53,152.96L127.95,159.6L128.38,158.41L128.52,156.75L128.8,158.3L128.94,73.29L129.78,159.58L129.92,157.53L130.21,159.05L130.35,150.78L130.91,158.69L131.19,158.03L131.33,155.39L131.61,157.7L131.75,156.37L131.9,125.69L132.74,154.87L132.88,154.52L133.3,150.44L133.44,124.02L134.29,150.2L134.43,147.28L134.57,145.94L134.71,149.27L134.85,138.02L135.27,148.12L135.7,147.32L135.84,146.66L135.98,146.73L136.12,145.84L136.54,143.09L136.68,142.4L137.1,143.82L137.24,142.58L137.38,140.99L137.95,138.76L138.09,140.9L138.37,130.1L138.51,136.22L138.65,140.4L138.79,136.52L139.07,140.77L139.36,137.24L139.5,138.93L139.78,140L140.34,135.45L140.48,138.39L140.62,137.57L140.76,66.65L141.61,137.88L141.75,136.47L142.45,138.02L142.59,137.04L142.73,137.08L142.87,137.15L143.01,135.61L143.16,134.33L143.3,137.33L143.58,136.55L143.72,137.34L143.86,137.99L144,136.99L144.14,136.96L144.28,95.79L144.7,135.35L145.13,133.84L145.27,135.17L145.41,132.14L146.11,133.13L146.25,98.55L147.1,138.43L147.24,138.87L148.22,135.63L148.36,135.95L148.5,106.7L149.49,146.45L149.63,147.48L149.91,150.17L150.05,153.57L150.62,164.53L150.76,16.5L150.9,281.23L151.6,207.35L151.74,234.73L151.88,240.33L152.02,227.38L152.16,234.83L152.31,213.75L152.59,210.2L152.73,231.73L152.87,215.29L153.01,206.95L153.57,244.83L153.85,231.59L153.99,230.04L154.42,220.29L154.56,239.96L154.7,255.14L154.84,191.04L155.26,251.62L155.4,242.21L155.54,256.84L155.82,207.87L155.96,225.54L156.11,220.14L156.39,206.08L156.53,227.06L156.67,226.19L156.81,165.29L157.37,237.21L157.51,226.56L157.65,202.11L158.22,224.03L158.36,189.5L158.64,214.73L159.2,209.59L159.34,209.01L160.05,219.33L160.19,215.97L160.33,210.9L160.47,216.6L160.75,204.52L160.89,206.65L161.03,203.23L161.17,206.79L161.6,202.68L161.74,197.27L162.02,199.28L162.86,177.2L163,186.45L163.14,189.34L163.43,188.38L163.57,161.24L163.71,188.81L164.41,185.33L164.55,184.17L164.69,184.86L164.83,184.21L164.97,180.7L165.82,188.68L165.96,186.75L166.24,191.64L166.52,183.07L166.66,190.08L166.8,187.45L167.23,183.3L167.37,181.2L167.51,182.19L167.65,177.03L167.93,179.78L168.07,177.97L168.21,152.49L168.78,182.09L169.06,180.74L169.2,181.52L169.34,174.57L169.48,194.19L169.76,181.34L169.9,187.67L170.18,183.55L170.32,143.11L170.75,187.06L171.17,178.7L171.31,176.7L171.59,174.92L171.73,178.74L172.01,176.13L172.15,159.15L172.43,182.04L173,177.98L173.14,176L173.28,175.86L173.42,172.42L173.56,175.48L173.98,171.48L174.12,172.85L174.26,168.57L174.4,141.63L174.69,172.36L174.97,162.3L175.11,164.62L175.25,170.82L175.81,166.3L175.95,165.62L176.09,167.11L176.24,162.48L176.38,159.55L176.52,163.57L176.94,163.5L177.08,129.53L177.5,159.72L177.92,156.23L178.06,156.56L178.21,156.97L178.35,153.51L178.49,151.01L178.63,157.59L178.77,119.28L179.05,155.37L179.61,153.51L179.75,152.21L180.03,150.28L180.18,153.34L180.6,149.44L180.88,150.78L181.02,105.84L181.58,149.31L181.87,145.95L182.01,142.62L182.29,147.58L182.85,146.07L182.99,146.01L183.13,129.07L183.7,139.02L183.84,142.04L184.12,142.48L184.26,139.56L184.68,145.94L184.82,134.68L184.96,141.98L185.52,139.67L185.67,123.05L186.23,143.82L186.51,139.95L186.65,137.45L187.21,141.26L187.35,136.39L187.5,138.47L188.06,140.43L188.2,137.25L188.34,133.7L188.48,138.24L188.9,137.21L189.04,136.17L189.19,135.49L189.33,47.06L190.17,134.54L190.31,121.06L190.59,137.44L191.16,133.63L191.3,136.57L191.44,137.28L191.58,134.61L191.72,134.44L191.86,135.73L192.28,133.49L192.56,135.31L192.7,133.14L192.84,132.31L192.98,133.06L193.13,94.55L193.83,133.69L193.97,133.29L194.11,129.28L194.53,133.68L194.82,131.58L194.96,127.06L195.38,130.95L195.52,126.93L195.66,125.03L195.8,129.88L195.94,106.14L196.65,133.05L196.79,129.5L196.93,132.57L197.35,110.33L197.49,123.82L197.63,127.53L198.05,133.15L198.19,126.68L198.33,130.81L198.47,124.91L198.9,130.29L199.04,124.3L199.32,133.65L199.46,138.52L199.6,135.27L199.74,147.25L199.88,160.64L200.16,297.32L200.73,243.69L200.87,229.59L201.01,235.2L201.15,223.65L201.29,226.32L201.43,305.47L201.85,228.08L202.28,229.54L202.42,225.25L203.68,205.45L203.82,210.42L204.11,201.95L204.25,215.16L204.39,242.61L205.37,210.65L205.51,236.15L206.36,214.31L206.64,218.81L206.78,217.06L207.2,207.55L207.34,212.54L207.48,232.26L207.77,241.56L207.91,226.67L208.05,272.03L208.61,245.78L208.75,233.52L208.89,236.89L209.31,232.51L209.45,229.12L209.6,232.09L209.74,222.74L209.88,224.64L210.02,222.33L211.57,208.25L211.71,208.75L212.27,205.93L212.41,200.23L213.54,209.22L213.68,209.06L213.82,208.39L214.1,204.2L214.24,161.04L214.66,207.65L215.09,200.04L215.23,205.36L215.93,190.19L216.07,196.84L216.21,196.52L216.63,192.43L216.77,105.26L217.48,190.63L217.62,189.45L217.76,189.63L218.46,180.84L218.6,185.59L219.03,178.25L219.17,186.55L219.31,190.85L220.15,182.04L220.29,193.53L221.28,175.56L221.42,181.34L221.56,182.69L222.26,168L222.4,178.45L222.55,179.66L222.69,119.45L222.97,184.29L223.25,183.84L223.39,180.97L223.53,181.81L223.67,192.14L224.09,271.85L224.8,268.7L224.94,242.78L225.08,249.73L225.36,243.89L225.5,212.39L225.78,234.42L226.35,229.29L226.49,226.11L226.63,231.6L226.77,215.79L227.05,223.4L227.19,217.95L227.47,218.07L227.61,213.87L227.75,214.54L227.89,236.8L228.04,191.96L228.6,207.22L228.74,207.52L229.16,197.06L229.44,203.67L229.58,208.17L230.15,197.83L230.29,210.52L230.99,195.1L231.13,195.8L231.27,207.71L231.55,270.47L231.98,231.35L232.12,185.56L232.96,310.08L233.1,250.16L233.24,229.31L233.38,230.67L233.52,228.9L233.67,224.45L233.81,220.58L233.95,241.53L234.79,220.16L234.93,208.16L235.35,223.49L235.78,213.74L235.92,210.37L236.34,206.99L236.48,207.16L236.62,194.42L236.76,203.29L236.9,177.83L237.33,195.22L237.47,192.16L237.61,191.61L237.75,269.28L237.89,269.57L238.03,245.87L239.01,214.05L239.16,218.88L239.3,221L239.58,219.18L239.72,226.01L239.86,215.56L240,213.17L240.14,226.2L240.7,204.66L240.84,222.05L240.99,233.83L241.13,222.51L241.27,233.12L241.41,289.5L241.83,215.19L242.25,228.96L242.39,234.89L242.81,226.22L243.1,246.56L243.24,238L243.52,222.42L244.08,226.16L244.22,253L244.36,255.36L244.5,237.49L244.65,258.59L244.93,228.1L245.21,235.83L245.35,231.18L245.49,218.6L246.05,221.71L246.19,223.61L246.62,211.35L247.18,214.53L247.32,225.78L247.6,205.1L248.16,205.46L248.3,207.72L249.57,184.94L249.71,200.22L249.85,194.5L250.14,201.72L250.42,199.55L250.56,201.9L250.98,206.98L251.12,205.46L251.26,201.85L251.54,205.88L251.68,204.12L251.82,182.47L252.11,204.4L252.67,199.93L252.81,197.4L252.95,197.1L253.09,199.25L254.36,185.16L254.5,187L254.64,161.94L255.06,187.38L255.48,183.87L255.63,185.07L255.91,180.23L256.05,155.36L256.33,180.21L256.89,178.41L257.03,176.36L257.45,172.71L257.74,173.88L257.88,175.61L258.3,173.49L258.44,172.22L259.14,164.95L259.57,166.69L259.71,119.79L260.41,167.2L260.55,165.18L260.69,165.95L261.54,159.99L261.68,161.63L261.82,160.78L262.1,162.03L262.38,158.4L262.52,160.99L262.66,159.63L263.23,162.61L263.37,117.97L264.07,165.36L264.21,152.95L264.35,162.41L264.49,163.43L264.63,161.3L264.77,159.86L265.06,158.28L265.2,164.09L266.04,145.01L266.18,159.07L266.46,162.33L267.03,161.64L267.17,161.55L267.45,159.62L267.59,112.86L268.43,158.89L268.58,157.08L268.86,156.59L269,154.01L269.42,156.52L269.7,155.05L269.84,154.03L270.12,153.46L270.26,153.93L270.4,92.44L270.97,157L271.25,156.39L271.39,157.91L272.09,150.25L272.23,153.68L272.37,155.94L272.52,157.01L272.8,155.32L272.94,153.01L273.36,156.43L273.64,155.76L273.78,152.06L273.92,152.81L274.06,141.21L274.21,148.84L274.35,106.09L275.05,168.62L275.19,166.64L275.33,179.64L275.61,192.05L275.75,185.12L275.89,169.46L276.88,155.67L277.02,157.7L277.16,169.93L278.01,136.54L278.15,148.28L278.29,147.83L278.43,153.68L278.85,145.74L279.13,149.06L279.27,157.12L279.98,115.51L280.12,242.28L280.4,258.51L280.54,256.25L280.68,231.97L281.24,214.25L281.38,176.88L281.53,215.92L282.23,204.28L282.37,198.64L282.65,207.29L282.79,252.02L282.93,254.83L283.07,247.67L283.21,237.81L283.64,221.75L283.78,172.82L284.2,243.84L284.62,231.45L284.76,235.54L285.04,239.4L285.89,218.16L286.03,194.67L286.31,215.03L286.73,212.15L286.87,206.95L287.16,202.05L287.3,214.26L287.58,207.87L287.72,198.41L287.86,199.11L288,206.6L288.42,194.94L288.56,209.51L288.7,209.34L288.84,206.8L289.27,209.09L289.69,198.21L289.83,204.59L290.11,195.39L290.39,201.5L290.53,202.05L290.67,199.32L290.81,227.58L291.52,125.14L291.66,219.6L291.8,219.93L291.94,202.3L292.36,218.11L292.65,209.28L292.79,174.61L293.21,221.76L293.49,212.98L293.63,145.27L294.19,241.25L294.48,235.74L294.62,218.64L294.76,181.25L295.32,215.35L295.46,211.71L295.88,202.26L296.02,155.9L296.87,226.58L297.01,220.85L297.15,222.67L297.43,221.03L297.57,208.1L298.14,203.62L298.27,200.37L298.42,197.73L298.7,205.31L298.84,202.53L298.98,205.7L299.12,207.57L299.26,201.52L299.4,146.79L299.54,195.75L300.25,182.82L300.39,184.67L300.53,174.71L300.67,196.14L300.95,178.02L301.09,196.52L301.37,192.43L301.51,236.81L301.79,155.56L301.94,221.75L302.08,223.98L302.22,234.3L302.64,226.24L302.78,218.84L303.2,211.42L303.62,215.57L303.76,219.91L304.47,205.28L304.61,207.54L304.75,213.97L305.03,208.99L305.17,204.11L305.45,202.59L305.74,206.92L305.88,201.44L306.58,189.41L306.72,195.03L306.86,198.87L307.57,191.66L307.71,195.38L308.41,188.65L308.55,189.92L308.69,187.21L308.83,182.1L309.25,188.84L309.4,191.75L310.8,177L310.94,182.04L311.79,174.61L311.93,179.15L312.21,176.62L312.35,178.94L312.49,173.12L312.91,178L313.2,175.63L313.34,174.05L313.48,177.99L313.76,166.34L314.04,175.27L314.18,175.42L314.46,176.96L314.6,173.67L314.89,176.89L315.03,174.2L315.17,176.3L315.45,172.65L315.59,175.37L315.73,172.32L315.87,170.42L316.01,175.01L316.15,174.56L316.29,176.4L317.42,165.26L317.56,168.09L317.7,167.72L317.84,169.24L317.98,169.29L318.26,164.1L318.55,171.2L318.69,167.62L318.83,167.94L319.11,169.44L319.25,166.12L319.81,157.62L319.95,162.91L320.09,164.22L320.38,147.68L320.52,157.74L320.66,161.53L321.22,163.52L321.36,158.23L321.5,160.47L321.78,161.94L321.92,155.49L322.49,161.06L322.63,154.37L322.91,161.57L323.33,160.42L323.47,156.87L323.89,156.59L324.04,158.57L324.18,156.76L324.32,157.21L324.88,157.41L325.16,147.63L325.3,158.15L325.44,159.25L325.58,154.19L325.72,153.77L325.86,156.69L326.01,157.65L326.15,136.48L326.29,159.79L326.85,148.31L326.99,150.11L327.41,163.63L327.69,159.19L327.84,159.09L328.54,164.66L328.68,115.68L328.96,160.77L329.53,156.13L329.67,155.3L329.81,156.93L330.09,154.3L330.23,148.45L330.51,154.29L330.93,150.91L331.07,146.62L331.64,152.6L331.78,151.5L331.92,147.82L332.34,141.89L332.76,144.24L332.9,145.85L333.04,146.19L333.18,143.04L333.47,145.73L333.75,143.49L333.89,141.48L334.03,144.67L334.31,139.26L334.45,124.43L334.73,141.98L335.3,141.41L335.44,140.43L335.72,141.99L335.86,135.85L336.28,138.39L336.42,138.16L336.7,90.11L336.84,137.53L336.99,135.98L337.41,137.51L337.55,138.25L338.39,129.04L338.53,135.08L338.67,128.15L339.1,135.93L339.24,130.37L339.38,134.8L339.52,120.08L340.08,127.05L340.22,131.22L340.5,132.15L340.79,127.02L340.93,131.63L341.21,127L341.35,128.31L341.49,131.77L341.91,126.38L342.05,124.87L342.19,122.84L342.33,127.48L342.62,126.99L342.76,111.46L343.18,128L343.6,122.56L343.74,121.78L344.16,121.27L344.3,126.67L344.59,125.61L344.73,122.3L344.87,122.67L345.01,117.91L345.15,115.41L345.29,121.79L345.71,118.42L345.85,119.89L345.99,119.08L346.27,120.74L346.42,98.87L347.12,121.18L347.26,114.98L347.4,119.79L347.54,114.59L347.97,120.95L348.11,119.71L348.25,116.47L348.67,119.12L348.81,117.25L348.95,111.12L349.09,110.87L349.23,117.25L349.51,119.06L349.65,113.37L349.79,116.11L350.22,111.75L350.5,115.65L350.64,114.31L350.78,116.13L350.92,82.27L351.76,114.45L351.91,114.41L352.33,112.19L352.47,104.6L352.89,114.79L353.31,111.9L353.45,114.54L353.88,110.72L354.02,78.83L354.86,120.75L355,116.21L355.14,116.54L355.28,119.01L355.43,119.9L355.57,117.35L355.71,98.19L355.85,97.66L356.13,99.36L356.27,102.28L356.41,105.08L356.55,65.33L357.25,104.69L357.54,104.17L357.68,105.39L357.82,106.81L357.96,102.29L358.1,102.35L358.24,102.47L358.8,98.74L358.94,100.83L359.08,95.39L359.22,97.3L359.37,94.06L359.65,94.44L359.79,89.73L360.35,91.78L360.49,91.51L360.63,88.49L361.34,92.38L361.48,92.3L361.62,92.45L361.76,90.56L362.18,94.73L362.32,96.11L363.17,110.78L363.31,106.24L363.45,94.46L363.73,104.76L364.15,100.65L364.29,99.34L365.28,93.13L365.42,93.16L365.7,92.54L365.84,90.22L366.12,89.66L366.26,72.1L366.83,91.08L367.11,83.86L367.25,89.16L367.81,90.16L367.95,89.05L368.09,87.19L368.38,90.96L368.94,89.79L369.08,89.56L369.22,90.11L369.5,88.41L369.64,88.85L369.78,88.25L370.06,90.25L370.2,88.04L370.49,88.93L370.63,87.59L370.77,87.87L370.91,84.98L371.05,87.53L371.19,83.42L371.61,84.06L371.75,81.97L372.6,86.73L372.74,87.37L373.02,86.36L373.16,79.77L373.58,86.02L374.01,85.26L374.15,84.63L375.13,79.02L375.27,82.2L375.41,82.65L375.55,81.13L375.69,80.17L375.84,81.56L375.98,81.1L376.12,69.3L376.82,82.15L376.96,80.38L377.1,81.54L377.24,81.61L377.38,82.75L377.81,82.98L377.95,79.24L378.23,81.91L378.37,82.11L378.93,78.89L379.21,80.18L379.35,80.87L379.5,78.29L379.92,81.24L380.06,80.53L380.2,79.97L380.62,80.35L380.76,77.73L380.9,80.41L381.04,71.36L381.61,78.57L381.75,76.98L381.89,78.85L382.31,76.66L382.45,77.28L382.59,77.43L383.3,75.49L383.44,75.8L383.58,41.65L384.14,74.17L384.42,73.75L384.56,73.65L384.7,74.11L384.84,72.67L384.99,73.04L385.13,72.72L385.27,72.85L385.41,71.7L385.55,67.86L385.69,97.99L386.67,119.37L386.81,224.99L387.52,192.4L387.8,202.96L387.94,212.56L388.08,222.37L388.22,198.69L388.5,213.24L388.64,192.94L389.21,206.82L389.35,202.76L389.49,193.4L389.77,206.33L389.91,205.37L390.05,189.66L390.19,180.55L390.48,206.4L390.62,204.08L390.76,153.16L391.32,216.02L391.46,212.88L391.6,212.75L391.74,194.76L391.88,183.35L392.16,218.24L392.3,223.12L392.73,203.02L393.15,206.89L393.29,211.38L394.28,196.53L394.42,198.45L395.4,187.91L395.54,193.47L396.1,192.06L396.25,190.03L396.81,204.19L397.09,197.27L397.23,193.01L397.51,193.68L397.65,188.16L397.79,189.42L397.94,187.86L398.08,184.5L398.64,181.9L398.78,185.96L398.92,186.5L399.06,181.65L399.34,184.09L399.48,178.72L399.62,182.32L399.76,313.22L400.47,145.73L400.61,219.12L400.75,215.6L400.89,214.66L401.03,219.23L401.17,221.77L401.31,219.94L401.45,213.08L401.74,215.37L403.14,190.13L403.28,191.63L403.43,192.81L403.57,186.97L403.85,181.76L404.27,184.81L404.41,191.08L404.55,191.19L404.69,196.93L405.11,196.81L405.4,201.47L405.54,192.53L405.96,224.14L406.24,205.81L406.38,187.95L406.66,207.93L406.8,175.53L407.65,189.61L407.79,183.98L407.93,191.9L408.49,185.28L408.63,181.31L409.06,186.2L409.2,186.06L409.34,181.86L409.62,184.41L409.76,196.72L410.6,177.34L410.74,185.82L410.89,190.4L411.31,183.42L411.45,185.95L411.59,182.04L411.73,175.46L411.87,183.5L412.29,179.22L412.43,196.98L413,180.49L413.42,185.07L413.56,191.31L413.98,202.22L414.12,191.48L414.97,173.31L415.11,211.27L416.09,166.16L416.23,171.36L416.38,178.26L416.94,172.58L417.08,174.69L417.22,193.77L417.78,176.09L417.92,156.08L418.06,203.26L418.35,196.17L418.49,71.55L419.47,169.99L419.61,165.08L419.75,157.75L419.89,123.6L420.32,169.62L420.46,167.18L420.6,184.75L420.88,173.36L421.02,186.48L421.16,183.67L421.3,186.06L421.72,168.46L422.01,172.65L422.15,176.9L422.43,170.44L422.71,176.05L422.85,183.16L423.41,168.73L423.55,169.98L423.69,192.95L423.98,168.29L424.26,208.75L424.4,215.42L424.68,219.19L425.38,185.75L425.52,64.65L426.51,178.52L426.65,188.87L426.93,193.94L427.07,197.18L427.64,202.27L427.78,197.69L427.92,192.24L428.06,192.64L428.2,186.64L428.48,177.88L428.62,179.57L428.76,204.26L429.47,178.57L430.17,179.65L430.31,176.66L430.59,181.47L430.73,176.03L430.87,175.41L431.3,183.72L431.44,177.07L431.86,186.3L432,156.76L433.13,231.48L433.27,228.03L434.25,197.33L434.39,204.21L434.67,180.28L435.1,189.94L435.24,192.21L435.38,190.8L435.52,201.11L436.36,183.56L436.5,214.92L437.21,186.55L437.35,194.02L437.49,207.5L438.61,177.38L438.76,182.12L438.9,186.32L439.04,184.04L439.18,168.33L439.46,166.08L439.6,172.46L439.74,168.62L439.88,165.28L440.45,221.58L440.87,197.17L441.01,165.18L441.15,204.81L441.71,196.72L441.85,185.28L442.42,155.87L442.56,206.7L443.54,174.96L443.68,182.48L444.39,182.68L444.53,173.35L444.67,173.27L444.81,179.62L445.09,159.85L445.23,207.57L445.94,176.6L446.08,178.02L446.22,173.07L446.36,174.57L446.5,173.4L446.64,169.37L446.92,161.27L447.2,186.06L447.62,178.51L447.77,173.06L447.91,182.76L448.47,182.46L448.61,176.71L449.45,157.02L449.59,159.99L449.74,160.91L449.88,167.94L450.02,156.61L450.3,164.72L450.44,154.82L450.86,153.35L451,178.61L451.28,168.45L451.42,166.88L451.56,216.98L451.99,164.36L452.13,171.97L452.27,171.62L452.41,171.9L452.55,167.15L452.83,172.78L453.11,163.71L453.25,168.28L453.4,169.43L453.54,168.51L453.68,168.62L453.82,159.49L453.96,167.41L454.52,159.5L454.66,164.3L455.23,157.37L455.37,160.26L455.51,181.55L455.93,205.5L456.21,197.4L456.35,178.11L456.91,192.96L457.2,192.21L457.34,184.32L457.76,173.78L457.9,205.35L458.04,187.97L458.18,187.86L458.32,193.11L458.46,179.12L458.6,181.36L458.74,178.83L460.01,165.25L460.15,169.75L460.29,164.08L460.57,172.23L460.72,171.17L460.86,171.95L461.7,161.34L461.84,163.01L461.98,174.25L462.54,168.62L462.69,160.26L462.97,169.3L463.39,166L463.53,156.3L464.09,198.96L464.38,176.07L464.52,171.88L464.66,172.06L464.8,167.6L465.08,166.61L465.22,159.7L465.36,163.85L465.5,157.09L465.78,159.27L465.92,156.22L466.06,159.46L466.2,187.52L466.91,160.37L467.33,165.52L467.47,163.54L467.61,163.41L467.75,169.05L467.89,160.19L468.18,177.21L468.32,172.66L468.46,172.42L468.6,166.65L468.74,173.64L469.16,169.8L469.3,175.24L469.44,171.49L469.58,176.02L469.72,186.08L470.29,171.77L470.57,175.7L470.71,181.94L471.13,167.73L471.55,173.33L471.69,174.74L471.98,168.27L472.12,196.84L473.24,163.4L473.38,160.86L473.52,166.05L473.67,154.78L473.81,102L474.09,204.7L474.65,191.92L474.79,189.32L475.49,180.31L475.64,183.56L475.78,182.97L476.48,174.83L476.62,177.35L476.76,182.06L477.33,170.24L477.47,172.8L477.61,178.84L477.75,180.91L478.03,176.46L478.31,180.17L478.45,238.67L479.3,184.87L479.44,185.15L480.28,174.99L480.42,176.94L480.56,176.07L480.7,176.45L480.84,173.97L481.55,169.4L481.69,173.91L481.97,163.38L482.53,167.92L482.67,166.51L483.1,167.7L483.24,163.11L483.38,172.68L483.66,169.37L483.8,174.31L483.94,181.22L484.08,181.4L484.22,177.55L485.35,163.75L485.49,166.85L487.04,156.8L487.18,157.18L487.32,157.03L487.74,161.72L487.88,158.26L488.02,154.6L488.16,162.26L488.59,159.1L488.73,156.26L489.29,162.59L489.57,159.74L489.71,159L489.85,163.88L490.42,160.35L490.56,161.13L490.84,162.29L491.12,161.99L491.26,183.71L492.53,167.76L492.67,172.65L492.95,175.58L493.23,174.89L493.37,173.33L493.51,176.57L493.79,171.51L493.93,175.58L494.08,170.45L494.36,202.1L494.78,191.91L494.92,181.76L495.06,183.67L495.2,178.06L495.34,180.09L495.48,162.38L495.62,175.97L496.19,170.12L496.33,167.34L496.47,164.5L496.61,170.61L496.75,194.72L497.74,170.06L497.88,167.02L498.02,166.92L498.16,171L498.44,127.18L498.58,145.2L498.72,152.59L499.28,187.97L499.56,173.68L499.71,171.51L499.85,164.81L500.13,173.16L500.27,181.88L500.69,121.74L500.97,146.55L501.11,158.93L501.68,173.14L501.96,172.17L502.1,169.62L502.8,160.54L503.08,162.85L503.23,159.65L503.37,161.95L503.51,159.48L503.65,159.62L503.79,155.21L503.93,158.09L504.21,154.07L504.49,154.54L504.63,156.33L505.05,149.98L505.48,150.38L505.62,151.38L506.46,145.1L506.6,151.62L507.31,148.02L507.45,148.16L507.59,149.2L507.73,150.16L507.87,144.21L508.43,163.63L509,159.95L509.14,162.2L509.7,155.17L510.26,156.34L510.4,159.33L510.69,160.37L510.83,157.53L511.39,160.14L511.53,154.5L511.67,180.51L512.37,172.66L512.51,164.9L513.64,178.34L513.78,172.8L514.2,168.42L514.35,176.13L514.63,174.56L514.77,170.75L514.91,174.45L515.33,170.96L515.47,168.07L515.75,165.95L515.89,171.34L516.03,153.48L516.32,171.47L516.88,167.23L517.02,163.79L517.3,171.18L517.44,162.46L517.72,168.52L517.86,166.37L518.43,162.37L518.57,158.76L518.71,164.75L519.27,164.67L519.41,162.23L519.69,163.29L519.84,157.86L519.98,158.48L520.12,156L520.26,161.36L520.54,158.44L520.96,159.32L521.1,168.94L521.24,176.17L521.67,168.31L521.81,168.63L521.95,170.98L522.79,158.97L523.21,160.87L523.35,163.79L523.92,150.63L524.2,160.14L524.34,158.49L525.04,153.44L525.33,155.21L525.46,155.37L525.75,156.09L526.03,153.97L526.17,155.62L526.31,155.57L526.45,150.93L527.01,154.4L527.15,154.51L527.3,149.38L528,149.68" style="vector-effect: non-scaling-stroke; fill: none; stroke: rgb(31, 119, 180); stroke-opacity: 1; stroke-width: 2px; opacity: 1;"/></g><g class="points"/><g class="text"/></g><g class="trace scatter tracef410f6" style="stroke-miterlimit: 2; opacity: 1;"><g class="fills"/><g class="errorbars"/><g class="lines"><path class="js-line" d="M0,313.5L528,313.5" style="vector-effect: non-scaling-stroke; fill: none; stroke: rgb(255, 127, 14); stroke-opacity: 1; stroke-width: 2px; opacity: 1;"/></g><g class="points"/><g class="text"/></g><g class="trace scatter traceda1ade" style="stroke-miterlimit: 2; opacity: 1;"><g class="fills"/><g class="errorbars"/><g class="lines"><path class="js-line" d="M0,300.85L0.85,308.09L0.99,304.95L1.55,313.22L1.97,312.94L2.11,310.21L2.39,313.17L2.53,306.74L2.67,312.64L2.82,312.72L2.96,313.11L3.1,312.43L3.24,294.22L3.66,313.19L4.08,313.13L4.22,263.45L4.79,313.11L5.07,311.08L5.21,301.7L6.05,313.13L6.19,313.05L6.33,313.26L6.48,310.51L6.62,308.74L6.76,312.51L6.9,312.51L7.04,313.2L7.18,304.69L7.6,313.28L7.74,308.43L7.88,307.85L8.16,306.3L8.73,313.4L8.87,313.22L9.01,313.32L9.29,313.29L9.43,301.85L10.28,313.18L10.42,313.12L10.56,313.4L10.7,302.22L10.98,313.45L11.12,313.43L11.26,282.11L11.68,313.47L12.11,313.33L12.25,312.41L13.09,313.49L13.23,313.48L19.28,313.4L19.43,309.86L19.57,304.1L19.99,310.21L20.13,312.33L20.41,313.46L20.55,305.52L21.26,313.26L21.4,309.46L21.54,301.41L21.96,313.44L22.1,308.25L22.24,312.53L22.52,311.85L22.95,313.45L23.09,304.57L23.93,313.48L24.21,313.44L24.35,313.45L24.92,313.49L25.06,307.09L25.34,313.46L25.62,305.54L25.9,313.18L26.04,311.45L26.32,313.35L26.46,279.67L27.31,313.48L27.45,312.14L28.29,313.46L28.44,313.45L29,312.77L29.14,313.25L29.28,313.49L29.56,313.49L29.7,289.59L30.41,313.5L30.55,313.42L30.69,313.45L32.38,313.49L32.52,308.89L33.36,313.5L33.5,313.48L35.9,313.44L36.04,312.85L36.18,313.4L36.32,310.49L36.6,304.42L37.02,313.41L37.16,313.2L37.3,312.86L37.58,313.47L37.72,302.32L38.85,313.47L38.99,313.49L40.96,313.48L41.1,312.67L41.53,313.34L41.67,310.79L42.37,313.49L42.51,311.93L43.36,313.49L43.5,313.5L43.64,312.78L44.2,313.5L44.34,313.5L44.48,302.92L45.04,311.71L45.18,312.33L45.33,313.41L46.03,313.25L46.17,313.48L47.3,313.04L47.44,313.47L50.82,313.5L50.96,313.49L61.94,313.48L62.08,308.61L62.5,304.3L62.64,309.42L62.92,308.77L63.62,313.37L63.77,240.73L64.61,313.23L64.75,313.34L67,313.49L67.14,313.49L67.71,313.49L67.85,308.31L68.13,294.74L68.41,313.4L68.69,312.44L68.83,313.37L69.82,313.43L69.96,292.73L70.8,313.48L70.95,313.4L72.21,313.48L72.35,313L72.49,313.45L72.63,312.58L72.92,313.23L73.06,302.49L73.76,313.49L73.9,313.39L74.04,313.48L74.18,312.48L74.75,313.45L74.89,312.92L75.45,312.5L75.73,313.49L75.87,313.41L76.44,311.7L76.57,313.5L80.23,313.23L80.38,312.62L80.52,313.49L80.66,294.16L80.94,313.5L81.5,313.49L81.64,313.5L83.75,313.47L83.9,308.61L84.46,313.5L84.74,313.49L84.88,313.5L87.7,313.5L87.84,297.82L88.54,313.5L88.68,313.46L88.82,313.48L89.67,313.49L89.81,313.49L91.21,313.5L91.36,313.5L93.47,313.5L93.61,308.29L93.75,308.92L93.89,313.25L94.03,313.45L94.17,313.02L94.31,312.35L94.45,311.72L94.73,313.43L94.87,313.46L95.72,312.66L95.86,313L96,313.43L99.8,313.5L99.94,310.81L100.79,313.49L100.93,313.5L102.62,313.5L102.76,311.62L102.9,298.42L103.18,313.49L103.6,302.03L103.74,313.4L105.29,313.5L105.43,313.5L150.76,313.5L150.9,302.08L151.74,313.44L151.88,313.12L152.45,313.42L152.59,310.24L153.01,313.49L153.43,313.46L153.57,313.31L154.56,313.43L154.7,304.9L155.54,313.49L155.68,313.31L156.81,313.5L156.95,313.48L177.36,313.5L177.5,313.5L199.74,313.5L199.88,260.1L200.45,313.33L200.73,312.38L200.87,313.34L201.29,313.47L201.43,310.32L202.28,313.49L202.42,313.49L207.91,313.49L208.05,312.33L209.03,313.49L209.17,313.49L223.81,313.5L223.95,303.25L224.52,313.46L224.94,313.41L225.08,313.09L226.06,313.49L226.21,313.49L231.41,313.39L231.55,311.57L232.4,313.49L232.54,313.49L232.82,313.5L232.96,297.03L233.81,313.49L233.95,313.42L234.79,313.5L234.93,313.5L237.61,313.5L237.75,298.29L238.45,313.48L238.59,313.47L238.73,313.22L239.72,313.5L239.86,313.5L241.27,313.46L241.41,306.89L241.97,313.5L242.25,313.49L242.39,313.01L243.24,313.45L243.38,313.49L244.5,313.44L244.65,312.04L245.49,313.5L245.63,313.49L266.89,313.5L267.03,313.5L282.65,313.39L282.79,312.55L283.64,313.46L283.78,313.03L284.62,313.48L284.76,313.5L297.57,313.48L297.71,313.5L305.6,313.5L305.74,313.5L391.74,313.5L391.88,311.49L392.73,313.5L392.87,313.5L393.71,313.5L393.85,313.5L399.62,313.5L399.76,264.28L400.61,313.49L400.75,313.48L411.45,313.5L411.59,313.5L432.84,313.5L432.98,311.94L433.83,313.5L433.97,313.5L454.94,313.5L455.08,313.5L478.31,313.5L478.45,309.28L479.3,313.5L479.44,313.5L528,313.5" style="vector-effect: non-scaling-stroke; fill: none; stroke: rgb(44, 160, 44); stroke-opacity: 1; stroke-width: 2px; opacity: 1;"/></g><g class="points"/><g class="text"/></g><g class="trace scatter trace610cb9" style="stroke-miterlimit: 2; opacity: 1;"><g class="fills"/><g class="errorbars"/><g class="lines"><path class="js-line" d="M0,303.01L0.14,302.73L0.28,305.28L0.56,307.53L0.85,304.31L0.99,303.28L1.55,313.13L1.83,311.22L1.97,296.31L2.82,312.39L2.96,313.19L3.1,313.35L3.24,309.81L3.38,309.25L3.52,313.08L3.66,313.24L3.8,309.55L4.22,313.05L4.36,303L4.51,303.46L4.65,299.5L5.21,312.94L5.49,310.75L5.63,305.68L5.77,312.88L6.05,294.39L6.33,310.92L6.48,308.97L7.04,313.26L7.32,312.8L7.46,313.31L7.6,313.4L7.74,304.67L8.16,312.72L8.45,311.63L8.59,309.51L8.73,306.89L9.01,313.45L9.15,312.96L9.29,313.16L9.43,304.35L10,312.74L10.14,312.41L10.42,313.38L10.56,313.24L10.7,306.88L11.12,313.37L11.54,313.17L11.68,313.45L11.97,306.61L12.39,313.22L12.53,313.25L13.94,313.46L14.08,313.45L19.43,313.5L19.57,307.28L19.85,306.92L20.41,312.96L20.55,306.43L20.69,304.93L20.83,312.96L21.11,311.63L21.26,313.32L21.4,294.72L21.96,312.82L22.24,312.57L22.38,312.99L22.95,313.43L23.09,304.71L23.37,302.57L24.07,313.32L24.21,313.4L24.92,313.45L25.06,303.5L25.34,313.39L25.9,312.85L26.04,290.99L26.46,313.47L27.03,313.33L27.17,313.31L27.31,313.37L27.45,310.16L28.29,313.4L28.44,313.38L29.56,313.47L29.7,309.53L30.55,313.41L30.69,313.44L32.38,313.49L32.52,309.08L33.5,313.44L33.64,313.46L36.18,313.45L36.32,310.78L37.02,313.3L37.3,313.11L37.44,313.31L37.58,313.38L37.72,304.17L38.15,312.69L38.29,295L38.85,313.45L39.13,313.39L39.27,313.4L40.96,313.47L41.1,303.92L41.67,313.43L41.95,312.95L42.09,313.24L44.34,313.46L44.48,306L44.62,311.41L44.9,298.8L45.18,311L45.33,305.99L46.03,313.38L46.17,313.29L46.31,295.84L46.87,313.44L47.16,313.28L47.3,313.36L48.85,313.4L48.99,313.43L60.39,313.5L60.53,313.5L61.94,313.5L62.08,307.32L62.22,307.1L62.36,305.01L62.92,312.09L63.06,293.58L63.34,313.02L63.91,307.53L64.05,312.8L64.19,312.27L64.33,313.36L64.61,313.37L64.75,313.23L66.86,313.46L67,313.45L67.71,313.47L67.85,312.43L69.26,313.46L69.4,313.45L69.82,313.5L69.96,312.69L70.38,313.43L70.52,313.3L70.66,311.73L71.51,313.45L71.65,313.43L74.04,313.47L74.18,312.91L75.17,313.43L75.31,313.42L77.28,313.49L77.42,313.49L82.06,313.48L82.21,313.49L83.75,313.38L83.9,302.47L84.6,313.49L84.74,313.48L84.88,313.49L93.47,313.5L93.61,295.86L94.17,313.31L94.45,313.18L94.59,312.9L95.72,313.47L95.86,313.31L97.13,313.45L97.27,313.46L102.62,313.49L102.76,311.63L102.9,311.76L103.04,313.37L103.32,289.81L103.6,313.38L103.74,313.21L103.88,313.41L150.76,313.45L150.9,308.53L151.04,308.78L151.18,311.57L152.02,313.45L152.16,313.43L152.45,313.46L152.59,311.94L153.01,313.49L153.43,313.43L153.57,313.26L154.56,313.34L154.7,313.15L155.4,313.38L155.54,313.19L156.53,313.45L156.67,313.45L156.81,307.74L157.23,313.48L157.37,313.44L157.51,313.47L199.74,313.5L199.88,259.01L200.59,313.43L200.73,312.92L200.87,313.41L201.99,313.42L202.14,313.42L207.34,313.49L207.48,311.73L207.91,313.45L208.05,305.28L208.75,313.43L208.89,313.42L209.03,313.43L220.43,313.5L220.57,313.5L223.81,313.48L223.95,311.3L224.66,313.45L224.8,312.35L224.94,313.31L225.08,312.7L225.64,313.39L225.78,313.4L227.61,313.49L227.75,313.49L231.41,313.18L231.55,311.31L232.4,313.48L232.54,313.48L237.75,312.83L237.89,311.5L238.73,313.45L238.87,313.48L241.27,313.39L241.41,312.45L242.25,313.45L242.39,313.34L242.81,313.45L242.96,295.41L243.52,313.47L243.8,313.43L243.94,313.47L244.36,312.77L244.65,313.46L244.79,313.45L263.93,313.5L264.07,313.5L280.26,313.32L280.4,309.09L281.38,313.5L281.53,313.48L282.65,313.49L282.79,312.45L283.78,313.5L283.92,313.45L285.32,313.46L285.47,313.48L293.91,313.49L294.05,241.92L294.76,313.49L294.9,313.48L295.04,313.48L528,313.5" style="vector-effect: non-scaling-stroke; fill: none; stroke: rgb(214, 39, 40); stroke-opacity: 1; stroke-width: 2px; opacity: 1;"/></g><g class="points"/><g class="text"/></g><g class="trace scatter tracee0d1ab" style="stroke-miterlimit: 2; opacity: 1;"><g class="fills"/><g class="errorbars"/><g class="lines"><path class="js-line" d="M0,312.12L0.85,313.47L0.99,313.46L144.14,313.29L144.28,311.95L145.13,313.22L145.27,313.26L146.11,313.24L146.25,307.31L147.24,313.24L147.38,313.22L147.52,313.19L149.21,313.3L149.35,313.21L150.05,313.27L150.19,312.72L150.76,313.33L150.9,307.8L151.32,306.83L151.46,305.65L152.16,307.11L152.31,306.4L152.45,305.74L152.59,306.1L152.87,305.43L153.01,305.79L153.15,304.94L153.29,306.38L153.99,305.96L154.14,306.62L154.7,305.6L155.12,305.79L155.26,305.97L155.4,305.85L155.54,306.35L155.68,306.82L155.82,306.5L155.96,309.71L156.25,309.22L156.39,307.24L156.81,309.07L156.95,305.97L157.09,306.92L157.23,305.49L157.8,308.17L158.08,307.84L158.22,308.04L158.36,306.04L158.78,308.04L158.92,309.6L159.34,311.64L159.48,312.22L161.45,313.17L161.6,313.14L162.58,312.94L162.72,313.28L163.57,313.26L163.71,313.29L165.82,313.31L165.96,313.32L174.83,312.97L174.97,311.61L175.81,310.64L175.95,311.73L176.24,310.72L176.8,310.91L176.94,311.1L177.36,309.19L177.78,309.97L177.92,309.84L178.63,308.61L178.77,309.94L179.19,310.42L179.33,309.57L179.47,310.62L179.89,309.98L180.03,310.81L180.18,310.9L180.74,310.25L180.88,311.19L181.02,311.53L181.16,306.94L182.15,308.91L182.29,308.6L182.43,308.31L183.41,305.86L183.55,306.45L183.84,306.44L184.12,306.92L184.26,307.03L184.4,306.73L184.68,307L184.82,310.92L185.81,306.65L185.95,307.5L186.09,308.18L186.23,307.23L186.93,307.45L187.07,307.47L187.21,308.72L187.5,306.97L187.78,307.67L187.92,307.25L188.62,308.79L188.9,308.16L189.04,307.61L189.19,307.87L189.33,307.11L189.47,307.44L189.61,306.92L189.89,306.71L190.17,307.04L190.31,306.29L190.45,306.02L190.59,306.87L190.73,306.68L190.87,306.95L191.16,306.13L191.3,306.54L191.44,307.18L191.72,306.85L192,307.27L192.14,307.52L192.28,306.72L192.7,307.67L192.84,307.01L192.98,307.26L193.55,305.63L193.69,306.53L193.83,306.64L194.39,306.84L194.68,306.09L194.82,306.18L195.38,308.08L195.66,306.92L195.8,307.27L195.94,307.97L196.08,306.42L196.36,307.57L196.5,306.87L197.49,310.43L197.63,310.16L197.77,308.89L197.91,308.79L198.05,309.32L198.19,308.14L198.33,308.76L198.47,307.35L198.76,308.05L198.9,306.94L199.04,308.1L199.18,305.84L199.6,306.83L199.74,306.61L200.87,305.01L201.01,305.86L201.15,306.26L201.57,305.48L201.71,305.67L201.85,305.85L201.99,306.06L202.14,305.58L202.28,305.66L202.42,305.31L202.56,305.08L202.7,306.08L202.84,306.11L202.98,305.38L203.4,306.28L203.54,306.19L203.68,306.27L203.82,305.91L203.96,306.59L204.11,307.88L204.25,307.27L204.53,307.68L204.67,308.96L205.09,310.54L205.23,308.55L205.37,308.8L205.51,307.11L205.65,306.7L205.8,307.26L205.93,310.13L206.5,306.63L206.78,307.85L206.92,308.72L208.05,313.35L208.19,313.36L209.74,313.34L209.88,313.4L221.42,313.38L221.56,313.4L223.11,313.33L223.25,313.37L224.24,313.25L224.37,313.38L225.5,313.18L225.64,312.17L225.92,309.43L226.21,313.02L226.35,312.64L226.49,313.32L227.75,313.23L227.89,313.31L228.74,311.82L228.88,312.37L229.02,312.97L229.86,313.38L230.01,310.16L230.71,313.4L230.85,313.35L230.99,313.23L231.27,312.11L231.41,312.78L231.55,311.63L231.7,311.57L231.84,310.65L232.54,307.64L232.68,308.36L232.82,307.94L232.96,307.4L233.1,310.41L233.24,311.22L233.38,309.95L233.52,308.07L233.95,311.04L234.23,308.84L234.37,309.43L234.79,307.97L234.93,309.82L235.92,307.71L236.06,308.23L236.9,312.11L237.19,311.23L237.33,310.83L237.75,310.33L237.89,312.78L238.03,310.69L238.17,309.55L239.16,313.39L239.3,313.39L240.99,313.05L241.13,311.8L241.27,312.91L241.41,309.62L241.55,310.15L241.69,308.35L242.39,306.83L242.53,308.03L242.68,308.62L242.81,306.28L242.96,307.34L243.1,306.29L243.24,306.14L243.38,307.33L243.8,306.34L244.22,306.74L244.36,306.5L244.5,307.56L245.07,306.54L245.21,306.99L245.63,307.19L245.77,305.76L246.62,306.86L246.76,306.52L247.04,306.4L248.02,309.9L248.16,309.12L248.3,308.31L248.45,309.42L248.87,307.57L249.01,307.75L249.29,307.21L249.43,307.91L249.57,306.2L249.99,307.88L250.28,306.91L250.42,306.33L250.56,307.4L251.12,307.16L251.26,306.95L251.54,306.73L251.68,307L251.82,305.92L251.96,305.75L252.11,306.38L252.25,306.19L252.39,306.55L253.09,306.48L253.23,306.32L253.37,306.04L253.79,306.68L253.94,306.86L254.78,306.13L254.92,306.88L255.48,306.83L255.63,307.68L256.19,306.65L256.33,307.92L256.47,307.23L256.61,307.75L257.45,306.89L257.6,307.49L257.74,307.93L258.3,307.34L258.58,308.34L258.72,307.97L259.14,308.14L259.28,307.28L259.42,307.99L259.57,308.35L259.71,308.81L259.85,308.01L260.27,308.45L260.41,308.13L260.55,307.85L260.97,308.6L261.11,308.15L261.26,308.67L261.4,307.8L261.54,309.05L262.1,308.13L262.24,308.07L262.38,308.27L262.66,307.61L262.8,307.54L263.37,308.66L263.51,307.5L263.65,307.32L264.07,307.08L264.21,306.25L264.91,306.85L265.06,306.79L265.2,306.35L265.76,307.68L266.04,306.87L266.18,306.4L266.74,307.64L266.89,306.92L267.03,306.64L267.45,307.23L267.59,306.82L267.73,305.78L267.87,307.37L268.43,306.51L268.58,305.85L268.86,306.98L269.14,306.75L269.28,306.22L269.98,307.51L270.12,307.09L270.26,307.1L270.4,308.98L270.69,305.62L270.97,306.54L271.11,306.69L271.39,306.32L272.09,306.88L272.23,306.91L272.66,307.12L273.08,305.91L273.22,306.43L273.92,307.25L274.06,306.13L274.77,307.29L274.91,306.61L275.19,307.3L275.33,306.35L275.47,305.97L275.61,308.02L275.89,310.46L276.18,306.8L276.32,306.82L276.46,305.88L276.88,307.2L277.02,306.46L277.16,306.96L277.3,306.72L277.44,307.46L277.58,307.4L277.72,307.49L278.01,311.03L278.15,306.36L278.43,307.22L278.57,307.96L278.85,306.96L279.41,307.08L279.55,307.21L279.84,307.62L279.98,308.34L280.12,306.64L280.68,308.19L280.82,309.67L281.1,311.06L281.67,310.32L281.81,310.61L282.51,313.29L282.65,313.17L282.79,313.23L283.5,308.41L283.64,309.84L283.78,308.88L284.34,310.36L284.62,309.28L284.76,309.28L285.61,306.76L285.75,307.2L285.89,306.72L286.03,308.08L286.17,308.56L286.59,310.33L286.73,308.93L286.87,306.83L287.16,306.41L288,307.46L288.14,306.8L288.42,307.08L288.7,306.52L288.84,307.91L289.69,306.58L289.83,307.17L290.11,307.01L290.39,307.72L290.53,307.62L290.67,307.11L291.24,306.59L291.38,307.11L291.52,307.52L291.66,308.01L291.8,306.81L292.08,307.28L292.22,306.86L292.79,306.86L292.93,307.84L293.07,306.69L293.63,307.14L293.77,307.37L294.19,308.3L294.33,307.6L294.48,307.23L295.32,306.69L295.46,307.17L295.6,307.35L295.74,311.16L296.3,309.2L296.45,308.28L296.73,308.79L297.01,308.03L297.15,306.19L297.57,308.64L297.71,308.38L297.85,306.7L298.42,308.13L298.7,307.19L298.84,306.81L299.54,307.78L299.68,307.64L299.82,307.23L300.53,307.96L300.67,306.94L301.79,310.32L301.94,309.54L302.08,307.62L302.36,308.64L302.64,307.4L302.78,306.87L303.2,307.49L303.76,306.69L303.91,307.24L304.05,306.65L304.47,307.56L304.61,307.65L305.03,307.71L305.17,308.15L305.31,307.49L305.88,308.14L306.02,308.12L307,309.16L307.14,308.89L307.28,308.97L307.85,309.38L307.99,308.43L308.13,308.47L308.27,308.52L309.25,309.09L309.4,307.92L310.24,308.39L310.38,308.26L311.09,307.52L311.23,308.45L311.79,307.36L312.07,307.45L312.21,307.82L312.49,307.25L312.77,307.65L312.91,308.28L313.62,306.97L313.76,307.64L313.9,307.8L314.32,306.58L314.6,307.83L314.74,307.75L315.31,308.25L315.59,307.65L315.73,307.62L316.01,307.34L316.15,307.99L316.29,307.48L316.43,306.83L316.86,307.56L317.14,306.75L317.28,306.49L318.69,307.1L318.83,306.88L319.11,307.64L319.25,306.58L319.53,307.09L319.67,306.64L320.52,305.81L320.66,306.5L320.8,306.02L321.36,306.44L321.5,306.39L322.06,306.63L322.2,306.45L322.35,305.53L322.49,306.7L323.05,306.55L323.19,306.13L324.18,306.74L324.32,306.27L324.46,306.06L324.74,306.85L325.02,306.54L325.16,306.98L325.44,305.82L325.86,306.86L326.01,306.72L326.15,307.43L326.57,306.24L326.71,306.53L326.85,306.01L327.13,307.39L327.55,306.12L327.69,306.07L327.98,305.73L328.54,306.16L328.68,311.14L329.1,307.54L329.53,307.88L329.67,308.82L329.81,308.1L330.37,308.59L330.51,309.34L331.92,308.69L332.06,309.85L332.48,310.39L332.62,309.44L333.47,311.16L333.61,311.12L334.59,313.18L334.73,313.14L334.87,313.09L340.22,313.24L340.36,313.14L341.21,312.71L341.49,313.11L341.63,313.23L344.02,312.98L344.16,313.06L345.29,313.03L345.43,312.96L347.54,313.21L347.68,313.1L350.64,313.01L350.78,312.9L350.92,310.45L351.48,312.47L351.62,312.27L351.76,311.91L352.33,312.44L352.47,312.46L353.17,312.64L353.31,312.36L353.45,312.27L354.02,312.13L354.16,312.85L355.43,312.07L355.57,312.33L355.71,312.54L357.4,311.14L357.54,311.44L358.1,311.48L358.24,310.73L358.52,310.2L358.66,311.26L359.08,310.16L359.37,311.35L359.51,311.28L359.79,310.38L359.93,311.6L360.07,310.45L360.63,311.46L360.77,311.41L361.76,311.67L361.9,311.75L362.74,311.64L362.89,312.19L363.17,312.28L363.31,311.48L364.15,309.56L364.29,310.3L364.71,311.38L364.86,310.61L365,309.95L365.28,310.68L365.7,310L365.84,309.67L366.12,309.16L366.26,311.29L366.69,311.44L366.83,310.51L366.97,310.9L367.39,310.04L367.53,310.12L368.23,308.35L368.52,308.52L368.66,308.41L369.08,308.85L369.22,307.93L369.36,308.13L369.5,307.21L369.64,307.24L369.78,306.95L370.35,305.55L370.63,305.87L370.77,306.05L371.05,306.53L371.19,305.24L371.47,306.54L371.89,305.91L372.04,305.57L373.02,306.16L373.16,305.98L373.3,304.75L373.58,305.83L374.01,305.57L374.15,305.21L374.71,305.52L374.85,306.26L375.13,305.19L375.55,305.67L375.69,305.89L375.84,305.22L376.4,306.02L376.54,306.72L377.24,305.32L377.38,306.14L377.52,305.88L377.66,305.38L377.95,305.62L378.09,307.06L378.51,305.35L378.79,306.05L378.93,306.59L379.21,305.41L379.64,306.75L379.78,306.62L379.92,306.74L380.06,306.14L380.2,306.17L380.34,305.78L380.76,306.28L381.04,305.54L381.18,305.48L381.47,305.96L381.61,304.97L381.75,305.97L381.89,306.23L382.87,305.34L383.01,305.98L383.58,307.06L383.72,305.94L383.86,305.17L384,304.93L384.28,305.87L384.42,306.21L384.84,305.41L385.13,305.77L385.27,306.41L385.55,306.69L385.69,305.42L385.97,305.45L386.11,306.61L386.81,310.69L387.1,310.09L387.24,309.6L387.66,309.16L388.08,311.45L388.36,311.3L388.5,310.74L390.05,312.35L390.19,312.16L390.33,312.09L391.18,312.04L391.32,312.91L392.16,313.22L392.3,312.98L393.85,308.55L393.99,309.03L394.13,309.17L394.7,306.16L395.26,306.58L395.4,306.67L396.1,305.66L396.25,306.79L396.53,305.64L397.09,306.03L397.23,305.81L397.65,307.02L398.22,306.81L398.36,306.49L398.5,305.2L399.06,306.77L399.2,305.74L399.48,305.23L400.05,308.32L400.19,310.17L400.89,312.01L401.03,311.84L401.17,311.41L401.45,310.39L402.02,313.23L402.16,313.12L402.3,313.24L406.1,313.33L406.24,313.34L408.35,312.87L408.49,312.7L409.62,312.39L409.76,311.68L410.04,312.41L410.46,311.59L410.6,311.88L410.89,311.27L411.03,312.11L411.59,312.35L411.73,311.91L411.87,311.65L412.01,311.44L412.15,311.96L412.29,311.97L412.43,312.39L413.42,309.13L413.84,309.43L413.98,310.06L414.4,308.86L414.69,309.7L414.83,310.47L415.11,310.42L415.25,309.62L417.08,312.56L417.22,312.32L417.36,312.05L417.5,312.4L417.92,311.83L418.06,310.18L419.05,311.84L419.19,310.96L419.61,310.49L419.75,308.32L421.16,313.02L421.3,313.16L424.26,312.57L424.4,312.69L425.66,313.04L425.81,313.06L427.5,312.49L427.64,311.5L427.78,312.04L428.2,311.15L428.34,311.26L428.48,311.04L428.76,311.7L429.18,311.05L429.33,309.78L429.89,310.37L430.03,309.46L430.17,309.73L430.31,309.09L430.45,309.12L430.59,308.57L430.87,308.28L431.01,309.02L431.3,308.36L431.44,308.39L432.42,307.17L432.56,307.12L432.84,307.38L432.98,306.77L433.13,306.98L433.27,307.58L434.53,312.82L434.67,312.81L435.52,313.2L435.66,313.11L438.9,313.2L439.04,313.15L443.82,313.01L443.96,312.89L444.81,312.66L444.95,312.65L445.79,312.59L445.94,312.87L446.64,312.66L446.78,312.84L446.92,312.73L448.33,312.3L448.47,311.7L448.75,311.12L448.89,312.33L449.31,311.49L449.74,311.81L449.88,311.93L450.86,311.4L451,311.78L451.14,311.03L451.71,311.26L451.85,311.57L451.99,311.21L452.27,312.25L452.41,312.11L452.55,312.21L452.97,311.85L453.4,312.19L453.54,312L454.38,312.71L454.52,312.56L454.66,312.12L455.51,312.83L455.65,312.16L456.21,311.96L456.35,310.8L456.63,311.05L456.77,310.11L457.05,310.13L457.2,309.26L458.18,310.53L458.32,309.87L458.46,309.5L458.74,310.34L459.03,309.99L459.17,309.79L459.45,309.33L459.87,309.69L460.01,310.16L460.43,310.28L460.57,309.1L460.72,310.58L461.56,309.13L461.7,309.87L461.84,309.39L462.4,309.96L462.54,309.67L463.25,310.88L463.39,310.45L463.53,308.79L463.81,311.36L464.38,310.28L464.52,310.65L465.36,310.25L465.5,311.03L465.78,310.79L466.2,311.36L466.35,311.08L466.49,310.62L467.33,311.36L467.47,310.82L468.32,310.02L468.46,310.77L468.74,310.07L469.02,310.92L469.16,310.27L469.3,310.18L469.44,311.01L470.85,309.49L470.99,310.2L471.69,309.8L471.84,310.13L471.98,309.11L472.12,310.22L472.82,310.11L472.96,310.27L473.81,308.51L473.95,310.12L474.09,309.87L474.23,310.95L474.37,311.07L474.65,309.9L474.79,311.47L475.07,310.8L475.21,311.03L476.2,312.24L476.34,312.27L477.33,313.09L477.47,313.06L482.82,313.24L482.96,312.68L484.08,313.12L484.22,312.92L484.36,313.17L484.5,312.26L484.79,312.82L484.93,312.38L485.07,313.06L485.35,312.28L485.63,312.63L485.77,311.95L486.61,312.75L486.76,312.38L486.9,312.06L487.04,312.62L487.6,312.25L487.74,312.31L488.44,312.43L488.59,311.39L489.29,312.96L489.43,312.79L489.57,312.62L490.28,312.77L490.42,313.08L491.82,312.32L491.96,313.21L492.67,311.99L492.81,312.55L492.95,312.56L493.93,311.05L494.08,311.54L494.22,311.29L494.36,311.59L494.64,311.03L494.78,310.41L495.77,309.25L495.91,307.86L497.31,309.56L497.45,308.41L497.59,309.5L497.88,308.2L498.02,308.46L498.16,307.63L499,308.65L499.14,307.97L499.71,306.94L499.85,307.92L499.99,307.97L500.69,307.67L500.83,308.35L501.54,310.14L501.82,309.4L501.96,309.4L502.66,310.3L502.8,309.86L502.94,310.35L503.37,310.94L503.79,310.76L503.93,310.78L504.49,312.02L504.77,311.55L504.91,311.91L505.05,310.58L505.62,311.8L505.76,311.65L506.04,311.77L506.6,311.14L506.74,311.75L506.88,311.12L507.03,311.98L507.45,311.39L507.59,311.7L508.01,312.1L508.15,311.13L508.43,310.84L508.57,312.14L508.86,311.42L509,311.22L509.56,311.72L509.84,310.45L509.98,311.59L510.12,310.58L510.83,310.8L510.97,310.83L511.39,311.3L511.53,310.42L511.81,311.1L511.95,311.28L512.51,311.39L512.66,310.65L513.08,310.42L513.64,312.05L513.78,312L514.2,311.23L514.35,312.02L514.49,311.62L514.63,312.13L515.05,311.96L515.19,312.19L515.47,311.73L515.61,312.35L515.75,311.99L515.89,312.47L516.6,311.78L516.74,311.87L516.88,312.18L517.16,312.62L517.3,311.89L517.44,312.77L517.72,311.84L518.29,312.41L518.43,312.56L518.57,312.3L518.99,312.59L519.13,312.88L519.55,312.06L519.84,312.63L519.98,312.93L520.54,312.57L520.82,312.81L520.96,312.87L521.81,312.92L521.95,312.8L523.35,312.81L523.49,313.02L523.64,312.16L524.2,312.62L524.34,312.54L524.48,312.16L525.04,312.66L525.18,312.66L526.17,312.57L526.31,312.48L527.3,311.9L527.44,312.52L527.58,313L527.86,312.61L528,312.77" style="vector-effect: non-scaling-stroke; fill: none; stroke: rgb(148, 103, 189); stroke-opacity: 1; stroke-width: 2px; opacity: 1;"/></g><g class="points"/><g class="text"/></g><g class="trace scatter traceb5b25b" style="stroke-miterlimit: 2; opacity: 1;"><g class="fills"/><g class="errorbars"/><g class="lines"><path class="js-line" d="M0,175.9L0.7,311.61L0.85,309.91L0.99,310.93L1.13,310.05L1.41,312.26L1.55,311.95L1.69,311.34L1.97,311.27L2.25,311.96L2.39,310.61L3.8,312.82L3.94,311.83L4.08,254.53L4.65,312.74L4.79,312.67L5.21,312.95L5.35,311.84L5.77,313.18L6.19,312.56L6.33,312.29L6.62,313.04L7.04,312.76L7.18,312.34L7.74,312.59L7.88,311.1L8.31,312.79L8.73,312.66L8.87,312.54L10,313.03L10.14,312.68L10.28,312.23L11.12,313.11L11.26,312.67L11.97,312.82L12.11,312.37L12.25,311.97L12.53,311.52L12.67,312.38L12.81,310.81L12.95,310.6L13.09,311.92L13.37,312.69L13.51,310.39L13.65,311.37L13.8,301.88L14.36,312.86L14.64,312.4L14.78,312.42L15.34,312.89L15.49,311.71L15.63,312.04L15.77,310.82L15.91,309.85L16.47,312.06L16.75,311.09L16.89,312.5L17.03,312.43L17.17,311.45L17.31,302.47L17.6,312.17L17.88,311.39L18.02,311.91L18.58,308.67L18.72,312.07L19.28,312.29L19.43,311.39L19.57,312.12L19.71,309.49L19.85,312.31L20.27,311.17L20.41,312.64L20.55,312.83L20.69,312.34L20.83,311.17L21.26,308.43L21.4,312.7L21.68,312.48L21.82,311.97L22.8,313.04L22.95,312.88L23.23,313.22L23.65,311.68L23.79,312.8L24.49,312.81L24.63,312.89L25.48,312.84L25.62,313.16L26.6,312.3L26.74,310.91L27.45,313.04L27.59,312.59L27.73,312.57L27.87,312.07L28.01,312.92L28.44,312.77L28.58,312.91L28.86,311.69L29.28,312.48L29.42,312.66L29.56,312.8L29.7,311.51L30.12,312.9L30.55,312.5L30.69,309.42L31.67,312.26L31.81,311.63L32.52,313.03L32.66,312.3L32.8,313L32.94,310.14L33.08,310.28L33.64,310.05L33.78,312.73L33.92,311.59L34.07,312.36L34.21,312.62L34.35,309.87L34.49,308.09L34.63,312.11L34.77,311.55L34.91,296.92L35.19,312.73L35.75,311.25L35.9,312.56L36.04,312.84L36.18,312.13L36.32,312.69L36.46,311.8L36.74,311.46L36.88,312.11L37.02,311.25L37.72,313.21L37.87,313.07L38.01,313.17L38.29,312.91L38.43,311.75L38.71,312.59L38.85,310.43L39.55,312.96L39.69,312.81L39.84,311.45L39.98,312.8L40.54,312.33L40.68,306.04L40.96,312.78L41.53,312.35L41.67,312.11L42.09,311.84L42.23,312.66L42.37,312.97L42.93,312.49L43.07,312.57L43.78,312.87L43.92,312.29L44.06,307.76L44.62,312.98L44.76,312.29L45.18,312.91L45.33,312.75L45.47,311.38L45.89,312.97L46.31,312.82L46.45,311.86L47.16,312.88L47.3,312.46L47.44,308.11L48,312.87L48.14,238.23L48.85,312.62L48.99,311.61L49.13,311.93L49.69,311.36L49.97,312.86L50.11,312.64L50.67,311.83L50.82,312.45L50.96,312.74L51.24,313.16L51.38,311L51.52,312.82L51.66,312.71L51.8,310.98L52.36,313.02L52.51,312.95L52.65,312.11L53.21,312.84L53.35,313L53.63,312.58L53.77,311.21L54.48,312.87L54.62,305.04L54.9,313.14L55.46,312.84L55.6,311.44L56.02,312.69L56.16,308.06L56.45,312.72L56.59,311.89L56.73,302.34L56.87,312.94L57.57,312.24L57.71,312.25L57.99,312.93L58.13,312.76L58.28,310L58.42,312.81L58.56,305.2L58.98,312.2L59.12,311.07L59.4,312.07L59.68,301.2L59.82,310.78L60.11,309.97L60.25,312.57L60.53,311.15L60.67,310.07L60.95,306.12L61.37,312.4L61.51,312.29L61.65,311.79L61.94,310.99L62.22,312.77L62.36,311.26L62.5,312.66L62.78,310.23L62.92,306.26L63.77,312.71L63.91,311.44L64.19,311.54L64.33,312.9L65.17,312.39L65.31,312.93L65.6,311.97L66.02,312.42L66.16,312.57L66.44,298.47L66.58,311.24L66.72,312.98L67,311.64L67.28,312.6L67.43,286.05L67.71,312.72L68.27,311.51L68.41,311.76L68.97,312.15L69.26,311.97L69.4,312.01L69.54,311.62L69.68,311.95L69.82,291.58L70.52,312.77L70.66,312.24L70.8,312.48L70.95,313.01L71.37,311.94L71.51,311.38L71.65,312.78L71.79,311.52L71.93,307.37L72.63,312.8L72.77,312.54L72.92,312.15L74.18,312.96L74.32,312.68L74.46,312.13L74.6,312.91L75.03,312.34L75.17,312.76L76.01,312.88L76.15,172.28L76.86,313.06L77,313.04L77.14,313.08L78.41,312.78L78.55,312.99L79.25,313.05L79.39,312.84L79.53,312.74L79.81,311.82L79.95,312.58L80.09,312.85L80.52,311.77L80.66,312.66L80.8,312.97L81.5,312.7L81.64,308.51L82.21,313.13L82.49,312.92L82.63,312.36L82.77,310.94L82.91,312.95L83.33,312.68L83.47,312.39L84.04,312L84.18,313.01L84.32,312.42L85.02,312.83L85.16,312.66L85.3,312.24L85.58,312.92L85.72,312.64L85.87,305.14L86.15,312.92L86.71,312.86L86.85,312.81L87.55,312.94L87.7,311.67L88.4,312.98L88.54,312.43L88.68,312.99L88.82,310.63L89.39,312.93L89.53,312.95L90.93,313.23L91.07,312.92L92.06,313.07L92.2,313.07L92.62,312.88L92.76,310.11L93.33,313.15L93.61,312.32L93.75,312.61L93.89,259.02L94.45,312.88L94.59,312.57L95.44,312.91L95.58,312.71L95.72,312.2L95.86,304.65L96.7,312.94L96.85,312.92L97.83,312.47L97.97,313.03L99.94,312.75L100.08,306.62L100.5,312.93L100.93,312.64L101.07,312.54L101.21,311.6L101.35,312.88L101.77,312.37L101.91,312.43L102.19,312.3L102.76,313.17L102.9,312.69L103.18,312.39L103.46,312.71L103.6,313.11L104.73,311.03L104.87,312.99L105.85,312.74L105.99,311.37L106.28,313.1L106.84,312.88L106.98,312.86L107.26,312.67L107.4,313.06L107.54,311.26L107.68,310.93L107.82,64.06L108.67,312.73L108.81,312.46L109.23,312.85L109.37,301.62L109.8,312.73L110.22,307.88L110.36,312.25L111.06,313.08L111.2,308.58L111.62,313.11L112.05,312.97L112.19,313.24L113.03,311.62L113.17,312.56L113.31,312.54L113.45,311.58L113.74,313.03L113.88,312.86L114.02,312.94L114.16,311.29L114.44,313.04L114.72,313.01L114.86,313.12L115.57,293.72L115.71,311.77L116.83,313.04L116.97,312.93L117.11,294.53L117.68,311.85L117.82,312.62L117.96,313.09L118.52,312.9L118.66,312.54L118.8,312.91L118.94,309.31L119.65,313.1L119.79,313.02L119.93,312.5L120.07,313.1L120.21,132L121.06,312.85L121.2,313.16L121.9,311.86L122.04,312.15L122.18,312.98L122.75,312.63L122.89,309.72L123.03,313.18L123.31,312.87L123.45,283.43L124.29,312.99L124.43,312.45L125,313.07L125.14,311.27L126.12,313.28L126.26,313.14L126.41,312.73L126.55,307.56L126.97,313.05L127.11,313.02L127.25,313.22L127.39,313.09L127.53,310.4L128.38,313.23L128.52,313.07L128.66,312.91L128.8,313.2L128.94,140.23L129.64,312.79L129.78,312.69L129.92,311.67L130.06,312.39L130.21,312.03L130.35,308.41L130.91,313.13L131.19,313.01L131.33,313.06L131.75,312.74L131.9,288.84L132.74,313.05L132.88,313.01L133.02,312.35L133.3,312.74L133.44,299.1L134.29,312.74L134.43,311.93L134.71,313.07L134.85,301.34L135.55,312.95L135.7,312.36L135.84,312.59L135.98,313.15L136.54,312.99L136.68,312.23L137.24,313.22L137.52,312.58L137.67,312.57L138.09,313.15L138.23,312.55L138.37,301.2L138.93,312.94L139.21,312.88L139.36,312.86L140.62,313.21L140.76,234.12L141.61,312.99L141.75,311.1L142.31,313.03L142.59,311.99L142.73,310.17L143.01,313.18L143.58,312.16L143.72,312.79L144.14,313.01L144.28,271.75L144.99,312.95L145.13,312.81L145.27,312.49L146.11,313.01L146.25,193.7L146.96,312.84L147.1,312.28L147.24,312.06L147.38,313.14L147.66,311.53L148.08,312.73L148.22,313.18L148.36,312.99L148.5,283.76L148.93,312.43L149.35,306.85L149.49,312.06L150.05,312.55L150.19,310.04L150.47,312.68L150.62,312.53L150.76,299.65L151.32,312.9L151.6,310.87L151.74,310.03L151.88,312.69L152.59,312.65L152.73,312.54L153.01,303.34L153.15,310.92L153.99,312.15L154.14,310.83L154.42,312.57L154.84,312.4L154.98,310.64L155.54,310.41L155.68,312.86L155.82,291.8L155.96,312.67L156.67,312.15L156.81,311.04L157.09,312.53L157.23,312.46L157.37,309.42L157.94,313.1L158.22,313.01L158.36,307.09L158.92,312.94L159.06,303.32L159.91,313.1L160.05,312.84L160.33,312.18L160.89,313.04L161.03,312.62L161.45,312.72L161.6,312.94L161.74,313.13L161.88,307.9L162.16,313.26L162.44,312.48L162.58,312.9L162.86,309.09L163.14,313.02L163.29,312.91L163.43,312.98L163.57,289.94L164.13,313.13L164.27,312.97L164.97,313.24L165.11,312.37L165.54,312.93L165.82,312.75L165.96,312.34L166.24,312.9L166.38,312.49L166.52,311.05L166.94,313.17L167.37,312.74L167.51,313.16L167.79,312.64L168.07,313.01L168.21,306.91L168.78,313.08L169.06,312.94L169.2,313.18L169.62,311.73L169.9,313.06L170.04,312.52L170.32,296.22L170.75,312.36L170.89,312.45L172.01,312.71L172.15,305.41L173,312.95L173.14,312.93L173.98,312.9L174.12,313.15L174.26,313L174.4,304.84L175.25,312.95L175.39,312.87L175.81,312.94L175.95,311.25L176.8,313.12L176.94,312.91L177.08,301.86L177.64,313.11L177.78,313.07L177.92,312.18L178.49,313.16L178.63,313.19L178.77,250.61L179.33,313.01L179.47,312.99L179.61,312.68L180.18,313.13L180.32,312.98L180.6,311.9L180.88,312.89L181.02,251.77L181.73,312.93L181.87,312.9L182.01,312.83L182.15,313.2L182.43,312.83L182.57,310.28L182.85,313.05L182.99,312.98L183.13,304.71L183.98,312.93L184.12,312.94L184.68,312.9L184.82,308.93L185.38,312.97L185.52,312.8L185.67,278.75L186.37,312.89L186.51,312.82L186.65,310.19L187.21,313.15L187.5,312.82L187.64,313.07L189.19,312.8L189.33,112.63L190.17,312.07L190.31,299.41L191.01,312.44L191.16,311.99L191.3,313.02L192.14,312.64L192.28,312.81L192.42,312.97L192.56,312.14L192.84,312.52L192.98,312.14L193.13,210.71L193.55,312.6L193.69,311.79L193.83,312.2L194.11,311.95L194.68,312.82L194.82,312.59L195.66,313.13L195.8,313L195.94,256.8L196.5,313.06L196.79,312.79L196.93,312.7L197.07,312.14L197.21,313.04L197.35,307.74L197.91,312.73L198.05,312.21L198.19,307.44L198.62,312.95L199.04,312.04L199.18,310.87L199.6,313.13L199.88,312.46L200.02,310.4L200.59,312.58L200.73,310.83L200.87,299.47L201.43,312.74L201.71,312.23L201.85,312.47L202.14,312.16L202.28,312.72L202.56,312.35L202.7,299.38L202.84,313.01L203.54,312.68L203.68,312.71L203.82,310.76L204.39,312.56L204.53,311.5L205.09,312.72L205.37,312.66L205.51,274.75L206.08,312.83L206.36,310.53L206.5,312.35L206.78,312.02L206.92,312.92L207.34,312.66L207.48,312.16L207.77,311.92L207.91,312.29L208.05,307.19L208.19,312.85L208.89,312.35L209.03,311.82L209.31,313.09L209.88,312.91L210.02,312.75L210.58,310.89L210.72,312.85L211.28,312.45L211.42,313.17L211.57,311.82L212.13,313.06L212.27,312.66L212.41,311.96L213.26,313.08L213.4,313.06L214.1,312.62L214.24,293.92L214.8,313.14L215.09,312.77L215.23,313.01L215.93,311.68L216.07,311.91L216.21,312.88L216.49,312.71L216.63,312.98L216.77,187.72L217.62,312.88L217.76,312.96L218.75,312.95L218.89,262L219.45,313.06L219.73,313.01L219.87,313.1L220.15,313.06L220.29,312.04L220.72,313.3L221,313.04L221.14,311.87L221.28,309.6L221.56,313.05L221.7,312.55L221.84,312.98L221.98,310.76L222.55,313.11L222.69,265.7L223.53,312.91L223.67,312.67L224.24,310.85L224.52,311.78L224.66,312.54L224.8,312.71L224.94,311.57L225.36,312.83L225.78,312.38L225.92,312.25L226.63,313.04L226.77,312.82L226.91,313.03L227.19,312.31L227.61,312.95L227.75,313.01L227.89,312.88L228.04,294.77L228.46,312.79L228.88,311.96L229.02,312.56L229.16,311.08L229.44,312.75L229.72,311.81L229.86,311.68L230.29,312.81L230.71,260.55L230.85,312.6L230.99,311.06L231.55,312.77L231.7,312.36L231.84,311.82L231.98,312.63L232.26,312.63L232.4,312.76L232.82,312.93L232.96,312.83L233.1,311.91L233.81,313.02L233.95,312.19L234.09,312.05L234.23,312.81L234.37,312.73L234.51,312.7L235.07,311.78L235.21,312.15L235.35,312.59L236.48,312.88L236.62,308.17L237.47,313.04L237.61,312.89L237.89,310.09L238.03,312.81L238.17,312.85L238.45,310.76L238.87,312.77L239.01,312.52L239.58,313.02L239.72,311.46L240.56,312.97L240.7,312.93L241.55,311.52L241.69,313.19L242.39,311.74L242.53,312.86L242.68,309.17L243.24,312.76L243.38,312.91L243.66,312.46L244.08,313.05L244.22,312.83L244.93,313.04L245.07,312.24L245.91,313.21L246.05,313.16L247.04,312.94L247.18,305.85L247.88,313.04L248.02,312.95L248.16,312.79L249.43,313.14L249.57,303.43L250.42,312.92L250.56,312.94L250.7,306.95L251.26,313.01L251.4,313.12L251.68,313.09L251.82,299.77L252.39,313.12L252.67,312.46L252.81,312.93L252.95,311.85L253.51,312.87L253.65,313.03L254.5,312.97L254.64,296.28L255.06,313.14L255.48,312.85L255.63,313.11L255.91,313.08L256.05,308.43L256.89,312.97L257.03,312.98L257.74,312.97L257.88,313.08L259.14,312.78L259.28,312.54L259.57,313.24L259.71,234.99L260.27,313.12L260.55,312.94L260.69,313.13L261.11,313.18L261.26,311.28L261.68,313.16L262.1,313.06L262.24,313.14L263.09,313.15L263.23,313.18L263.37,267.47L263.93,312.84L264.07,312.93L264.21,310.32L264.63,313.03L264.77,312.79L264.91,312.93L265.76,313.28L265.9,312.67L266.04,307.9L266.6,313.23L266.74,312.74L267.03,312.46L267.31,313.16L267.45,312.95L267.59,239.79L268.43,312.94L268.58,312.28L269,311.84L269.7,313.17L269.84,312.48L270.26,313.05L270.4,199.9L271.25,312.79L271.39,312.53L271.53,312.06L271.67,308.46L272.09,313.11L272.52,313L272.66,313.14L272.8,312.64L272.94,306.08L273.78,313.14L273.92,313.21L274.21,312.97L274.35,310.39L275.05,313.17L275.19,306.5L275.61,312.48L276.04,311.77L276.18,312.28L276.74,313L276.88,310.6L277.58,313.08L277.72,313.06L277.86,313.05L278.01,304.51L278.57,313.16L278.71,313.24L278.85,312.07L279.41,313.03L279.55,313.14L279.84,313.28L279.98,260.04L280.26,312.71L280.82,311.73L280.96,312.43L281.24,312.56L281.38,301.61L281.67,312.39L281.81,312.45L281.95,311.73L282.37,312.56L282.51,312.53L282.65,312.11L282.79,310.93L283.21,312.92L283.35,312.8L283.5,312.41L283.92,312.98L284.06,313.11L284.34,312.07L284.62,313.08L284.76,278.5L285.61,312.86L285.75,312.75L285.89,311.98L286.03,312.91L286.45,312.63L286.59,312.43L287.16,312.12L287.3,312.9L287.44,312.21L288.42,312.84L288.56,312.35L289.41,312.89L289.55,287.08L290.39,313.2L290.53,313.05L292.08,312.65L292.22,313.08L292.79,307.81L292.93,312.58L293.07,313.15L294.05,312.26L294.19,312.91L294.48,312.95L294.62,311.27L295.18,313.06L295.46,312.8L295.6,313.13L296.45,312.57L296.59,312.79L296.73,312.71L298.14,312.95L298.27,312.55L298.56,312.03L298.98,313.02L299.12,312.97L299.26,312.93L299.96,312.64L300.11,313.01L300.25,312.75L300.39,312.96L300.53,305.48L301.23,313.04L301.37,312.69L301.51,312.27L302.08,312.68L302.22,311.77L303.06,313.12L303.2,312.93L303.48,313.15L303.62,312.96L303.76,312.33L304.33,313.13L304.47,308.67L305.17,313.17L305.31,312.61L305.45,313.09L306.44,312.65L306.58,304.25L307.14,313.21L307.43,313.13L307.57,313.23L308.55,312.75L308.69,313L308.83,313.2L308.97,312.76L309.54,313.13L309.68,313.14L310.8,312.42L310.94,313.1L311.09,313.12L313.48,313.09L313.62,309.94L314.46,313.22L314.6,313.24L315.73,313.22L315.87,313.26L316.01,312.47L316.58,313.21L316.72,313.18L317.28,313.03L317.42,306.66L317.98,313.19L318.26,313.13L318.4,312.98L318.55,311.85L319.11,313.22L319.25,313.19L319.95,312.13L320.09,313.22L320.23,312.88L320.38,301.14L321.22,313.04L321.36,312.83L321.64,312.29L321.92,313L322.06,306.85L322.91,313.16L323.05,313.17L323.33,312.72L323.47,312.09L323.61,313.09L323.89,311.66L324.32,312.91L324.46,312.5L325.02,313.17L325.3,312.79L325.44,312.78L325.58,313.21L326.01,313.05L326.15,257.03L326.43,313.08L326.99,312.77L327.13,313.17L327.27,312.77L327.41,313.14L327.55,310.11L328.4,313.19L328.54,313.16L328.68,264.75L329.24,312.62L329.38,312.69L330.51,313.03L330.65,312.45L331.35,313.16L331.5,313.13L331.64,312.93L333.04,312.99L333.18,312.77L333.89,313.27L334.03,312.8L334.17,313.21L334.31,312.83L334.45,295.95L335.16,313.11L335.3,313.08L335.44,313.04L336.28,312.97L336.42,312.63L336.56,313.13L336.7,256.93L337.55,313.21L337.69,313.24L338.81,313.08L338.96,313.09L340.36,313.06L340.5,312.75L340.64,310.46L340.93,313.12L341.21,313.08L341.35,313.2L342.05,312.97L342.19,313.3L342.33,313.24L342.48,312.43L342.62,312.89L342.76,256.17L343.46,313.25L343.6,313.18L343.74,312.97L344.59,313.2L344.73,313.03L345.99,313.17L346.13,313.1L346.27,312.81L346.42,296.11L347.26,312.87L347.4,312.76L347.54,309.77L347.82,313.05L348.11,313.02L348.25,312.57L348.67,313.24L348.95,312.95L349.09,312.6L349.51,313.28L349.94,313.11L350.08,312.52L350.78,313.11L350.92,239.19L351.76,312.85L351.91,312.88L352.05,312.59L352.33,313.1L352.47,301.36L352.89,313.18L353.31,312.18L353.45,312.9L353.6,312.68L353.88,312.88L354.02,206.76L354.86,313.24L355,313.14L356.41,313.16L356.55,312.09L356.69,313.1L356.83,306.04L357.25,313.19L357.68,313L357.82,313.13L358.24,312.35L358.38,311.7L358.8,311.03L359.22,313.12L359.37,312.98L359.51,313.19L360.91,312.85L361.06,313.22L361.2,313.11L361.34,311.95L362.04,313.23L362.18,312.92L362.32,312.94L363.31,313.09L363.45,309.35L364.15,312.83L364.29,311.5L364.43,312.11L365.14,313.14L365.28,313.11L365.42,312.95L366.12,313.2L366.26,303.01L366.83,312.67L367.11,309.1L367.25,312.67L368.23,313.03L368.38,313.15L369.5,312.84L369.64,313.02L369.78,313.14L370.63,312.72L370.77,313.05L371.75,312.65L371.89,313.28L372.04,312.39L372.6,313.22L372.74,313.02L372.88,313.12L373.02,312.9L373.16,311.71L374.01,313.25L374.15,312.88L374.85,313.33L375.13,313.14L375.27,312.81L375.69,313.25L375.84,313.11L375.98,312.15L376.12,310.72L376.54,312.92L376.68,313.21L378.51,313.11L378.65,313.07L379.21,312.77L379.35,313.09L379.5,308.92L380.34,313.21L380.48,313.1L380.9,313.16L381.04,310.18L381.61,313.19L381.89,313.08L382.03,313.03L382.31,312.77L383.15,313.32L383.3,313.15L383.58,242.93L384,313.06L384.14,313.15L385.41,313.2L385.55,300.26L386.11,312.63L386.39,312.44L386.53,312.86L386.67,308.78L387.24,312.49L387.38,312.26L387.52,312.83L387.66,311.99L387.8,298.05L388.64,313.15L388.79,313.07L389.35,311.63L389.63,311.94L389.77,313.24L390.76,311.96L390.9,312.88L392.3,312.75L392.45,312.82L393.43,313.19L393.57,313.13L393.71,312.37L394.28,312.94L394.42,313.07L396.81,313.01L396.95,311.28L397.79,313.2L397.94,313.09L399.34,313.3L399.48,312.89L400.05,312.47L400.33,313L400.47,312.87L401.45,313.03L401.59,313.01L404.27,312.45L404.41,313.26L405.25,312.27L405.4,313.14L406.24,313.16L406.38,309.94L407.08,313.14L407.23,313.13L407.37,313.23L408.07,312.67L408.21,313.15L408.35,313.12L410.89,313.24L411.03,312.23L411.87,313.17L412.01,313.16L413.98,313.1L414.12,312.08L414.83,313.22L414.97,313.19L415.11,312.99L415.39,311.77L415.81,313.08L415.95,313.05L416.09,312.3L416.66,313.12L416.8,313.07L416.94,311.86L417.08,313.16L417.5,312.51L417.64,312.94L417.92,313.11L418.06,312.13L418.63,313.2L418.77,312.32L418.91,311.91L419.61,313.14L419.75,311.88L420.32,313.2L420.6,313.12L420.74,313.21L420.88,312.69L421.02,313.09L421.16,307.76L422.01,313.24L422.15,313.17L422.71,313.19L422.85,311.75L423.27,313.21L423.69,313.05L423.84,313.2L424.26,312L424.68,312.83L424.82,312.73L425.1,311.91L425.66,313.13L425.81,312.95L425.95,313.07L426.09,312.78L426.65,313.19L426.79,313.22L427.64,313.03L427.78,313.24L428.2,313.24L428.34,312.66L429.47,313.17L429.61,313.19L430.59,312.96L430.73,313.24L431.58,312.83L431.72,313.15L432.98,313.11L433.13,312.07L433.27,311.71L433.41,312.94L433.55,311.94L433.69,313.17L434.53,312.75L434.67,310.82L435.24,313.11L435.52,312.84L435.66,312.28L436.36,313.22L436.5,313.12L436.64,313.08L437.91,313.11L438.05,313.16L439.46,313.12L439.6,313.15L441.01,312.96L441.15,312.23L441.99,313.17L442.13,313.2L442.42,292.44L442.84,313.04L442.98,313.16L444.1,313.2L444.25,313.2L446.22,313.23L446.36,313.13L447.2,313.25L447.34,312.97L448.75,313.16L448.89,312.88L449.31,313.23L449.59,313.09L449.74,312.34L449.88,313.3L450.58,313.13L450.72,313.18L451.85,313.15L451.99,310.49L452.83,313.25L452.97,313.2L454.94,313.31L455.08,313.19L456.21,313.04L456.35,312.85L456.49,312.47L456.63,313.08L457.05,313.11L457.2,313.13L457.62,313.17L457.76,292L458.18,313.27L458.6,313.18L458.74,313.24L460.72,313.32L460.86,312.25L461.7,313.19L461.84,312.8L462.4,313.29L462.69,313.09L462.83,313.21L466.06,313.2L466.2,313.11L467.05,312.92L467.19,313.21L467.33,313.2L469.87,313.18L470,313.18L470.85,313.18L470.99,307.81L471.27,313.2L471.84,313.08L471.98,313.09L472.96,313.23L473.1,313.25L473.81,312.59L473.95,313.12L474.09,311.65L474.79,313.15L474.93,313.08L475.07,312.96L476.2,313.14L476.34,312.67L476.76,313.31L477.18,312.97L477.33,312.99L479.01,313.25L479.15,313.21L487.32,313.18L487.46,308.9L488.16,313.36L488.31,313.23L488.44,313.21L488.59,313.05L488.73,311.45L489.29,313.29L489.57,313.23L489.71,313.17L490.7,313.27L490.84,313.22L491.54,313.02L491.68,313.14L491.82,308.93L491.96,313.29L492.67,312.98L492.81,313.18L495.34,312.53L495.48,313.14L495.77,313.01L495.91,312.14L496.47,313.17L496.75,313.1L496.89,313.26L498.02,312.47L498.16,313.12L498.3,313.24L498.44,311.89L499,312.94L499.14,313.19L499.85,311.66L499.99,312.81L500.13,313.13L503.93,313.29L504.07,289.59L504.63,313.3L504.91,313.23L505.05,313.15L506.6,313.31L506.74,313.24L507.87,313.25L508.01,313.34L509.14,313.19L509.28,313.33L511.81,313.15L511.95,313.28L525.18,313.29L525.33,310.53L525.75,313.37L526.17,313.34L526.31,313.24L527.86,313.31L528,313.22" style="vector-effect: non-scaling-stroke; fill: none; stroke: rgb(140, 86, 75); stroke-opacity: 1; stroke-width: 2px; opacity: 1;"/></g><g class="points"/><g class="text"/></g></g></g><g class="overplot"/><path class="xlines-above crisp" d="M0,0" style="fill: none;"/><path class="ylines-above crisp" d="M0,0" style="fill: none;"/><g class="overlines-above"/><g class="xaxislayer-above"><g class="xtick"><text text-anchor="middle" x="0" y="403" transform="translate(189.25,0)" style="font-family: 'Open Sans', verdana, arial, sans-serif; font-size: 12px; fill: rgb(68, 68, 68); fill-opacity: 1; white-space: pre;">50</text></g><g class="xtick"><text text-anchor="middle" x="0" y="403" transform="translate(321.29,0)" style="font-family: 'Open Sans', verdana, arial, sans-serif; font-size: 12px; fill: rgb(68, 68, 68); fill-opacity: 1; white-space: pre;">100</text></g><g class="xtick"><text text-anchor="middle" x="0" y="403" transform="translate(453.32,0)" style="font-family: 'Open Sans', verdana, arial, sans-serif; font-size: 12px; fill: rgb(68, 68, 68); fill-opacity: 1; white-space: pre;">150</text></g><g class="xtick"><text text-anchor="middle" x="0" y="403" transform="translate(585.36,0)" style="font-family: 'Open Sans', verdana, arial, sans-serif; font-size: 12px; fill: rgb(68, 68, 68); fill-opacity: 1; white-space: pre;">200</text></g></g><g class="yaxislayer-above"><g class="ytick"><text text-anchor="end" x="59" y="4.199999999999999" transform="translate(0,373.5)" style="font-family: 'Open Sans', verdana, arial, sans-serif; font-size: 12px; fill: rgb(68, 68, 68); fill-opacity: 1; white-space: pre;">0</text></g><g class="ytick"><text text-anchor="end" x="59" y="4.199999999999999" transform="translate(0,304.6)" style="font-family: 'Open Sans', verdana, arial, sans-serif; font-size: 12px; fill: rgb(68, 68, 68); fill-opacity: 1; white-space: pre;">5</text></g><g class="ytick"><text text-anchor="end" x="59" y="4.199999999999999" transform="translate(0,235.7)" style="font-family: 'Open Sans', verdana, arial, sans-serif; font-size: 12px; fill: rgb(68, 68, 68); fill-opacity: 1; white-space: pre;">10</text></g><g class="ytick"><text text-anchor="end" x="59" y="4.199999999999999" transform="translate(0,166.8)" style="font-family: 'Open Sans', verdana, arial, sans-serif; font-size: 12px; fill: rgb(68, 68, 68); fill-opacity: 1; white-space: pre;">15</text></g><g class="ytick"><text text-anchor="end" x="59" y="4.199999999999999" transform="translate(0,97.9)" style="font-family: 'Open Sans', verdana, arial, sans-serif; font-size: 12px; fill: rgb(68, 68, 68); fill-opacity: 1; white-space: pre;">20</text></g></g><g class="overaxes-above"/></g></g><g class="polarlayer"/><g class="ternarylayer"/><g class="geolayer"/><g class="pielayer"/><g class="glimages"/><defs id="topdefs-8516d0"><g class="clips"/><clipPath id="legend8516d0"><rect width="89" height="124" x="0" y="0"/></clipPath></defs><g class="layer-above"><g class="imagelayer"/><g class="shapelayer"/></g><g class="infolayer"><g class="legend" pointer-events="all" transform="translate(598.5600000000001, 60)"><rect class="bg" shape-rendering="crispEdges" width="89" height="124" x="0" y="0" style="stroke: rgb(68, 68, 68); stroke-opacity: 1; fill: rgb(255, 255, 255); fill-opacity: 1; stroke-width: 0px;"/><g class="scrollbox" transform="translate(0, 0)" clip-path="url(#legend8516d0)"><g class="groups"><g class="traces" transform="translate(0, 14.5)" style="opacity: 1;"><g class="layers" style="opacity: 1;"><g class="legendfill"/><g class="legendlines"><path class="js-line" d="M5,0h30" style="fill: none; stroke: rgb(31, 119, 180); stroke-opacity: 1; stroke-width: 2px;"/></g><g class="legendsymbols"><g class="legendpoints"/></g></g><text class="legendtext user-select-none" text-anchor="start" x="40" y="4.680000000000001" style="font-family: 'Open Sans', verdana, arial, sans-serif; font-size: 12px; fill: rgb(68, 68, 68); fill-opacity: 1; white-space: pre;">G_GAN</text><rect class="legendtoggle" pointer-events="all" x="0" y="-9.5" width="129" height="19" style="cursor: pointer; fill: rgb(0, 0, 0); fill-opacity: 0;"/></g><g class="traces" transform="translate(0, 33.5)" style="opacity: 1;"><g class="layers" style="opacity: 1;"><g class="legendfill"/><g class="legendlines"><path class="js-line" d="M5,0h30" style="fill: none; stroke: rgb(255, 127, 14); stroke-opacity: 1; stroke-width: 2px;"/></g><g class="legendsymbols"><g class="legendpoints"/></g></g><text class="legendtext user-select-none" text-anchor="start" x="40" y="4.680000000000001" style="font-family: 'Open Sans', verdana, arial, sans-serif; font-size: 12px; fill: rgb(68, 68, 68); fill-opacity: 1; white-space: pre;">G_L1</text><rect class="legendtoggle" pointer-events="all" x="0" y="-9.5" width="129" height="19" style="cursor: pointer; fill: rgb(0, 0, 0); fill-opacity: 0;"/></g><g class="traces" transform="translate(0, 52.5)" style="opacity: 1;"><g class="layers" style="opacity: 1;"><g class="legendfill"/><g class="legendlines"><path class="js-line" d="M5,0h30" style="fill: none; stroke: rgb(44, 160, 44); stroke-opacity: 1; stroke-width: 2px;"/></g><g class="legendsymbols"><g class="legendpoints"/></g></g><text class="legendtext user-select-none" text-anchor="start" x="40" y="4.680000000000001" style="font-family: 'Open Sans', verdana, arial, sans-serif; font-size: 12px; fill: rgb(68, 68, 68); fill-opacity: 1; white-space: pre;">D_real</text><rect class="legendtoggle" pointer-events="all" x="0" y="-9.5" width="129" height="19" style="cursor: pointer; fill: rgb(0, 0, 0); fill-opacity: 0;"/></g><g class="traces" transform="translate(0, 71.5)" style="opacity: 1;"><g class="layers" style="opacity: 1;"><g class="legendfill"/><g class="legendlines"><path class="js-line" d="M5,0h30" style="fill: none; stroke: rgb(214, 39, 40); stroke-opacity: 1; stroke-width: 2px;"/></g><g class="legendsymbols"><g class="legendpoints"/></g></g><text class="legendtext user-select-none" text-anchor="start" x="40" y="4.680000000000001" style="font-family: 'Open Sans', verdana, arial, sans-serif; font-size: 12px; fill: rgb(68, 68, 68); fill-opacity: 1; white-space: pre;">D_fake</text><rect class="legendtoggle" pointer-events="all" x="0" y="-9.5" width="129" height="19" style="cursor: pointer; fill: rgb(0, 0, 0); fill-opacity: 0;"/></g><g class="traces" transform="translate(0, 90.5)" style="opacity: 1;"><g class="layers" style="opacity: 1;"><g class="legendfill"/><g class="legendlines"><path class="js-line" d="M5,0h30" style="fill: none; stroke: rgb(148, 103, 189); stroke-opacity: 1; stroke-width: 2px;"/></g><g class="legendsymbols"><g class="legendpoints"/></g></g><text class="legendtext user-select-none" text-anchor="start" x="40" y="4.680000000000001" style="font-family: 'Open Sans', verdana, arial, sans-serif; font-size: 12px; fill: rgb(68, 68, 68); fill-opacity: 1; white-space: pre;">T_A</text><rect class="legendtoggle" pointer-events="all" x="0" y="-9.5" width="129" height="19" style="cursor: pointer; fill: rgb(0, 0, 0); fill-opacity: 0;"/></g><g class="traces" transform="translate(0, 109.5)" style="opacity: 1;"><g class="layers" style="opacity: 1;"><g class="legendfill"/><g class="legendlines"><path class="js-line" d="M5,0h30" style="fill: none; stroke: rgb(140, 86, 75); stroke-opacity: 1; stroke-width: 2px;"/></g><g class="legendsymbols"><g class="legendpoints"/></g></g><text class="legendtext user-select-none" text-anchor="start" x="40" y="4.680000000000001" style="font-family: 'Open Sans', verdana, arial, sans-serif; font-size: 12px; fill: rgb(68, 68, 68); fill-opacity: 1; white-space: pre;">T_B</text><rect class="legendtoggle" pointer-events="all" x="0" y="-9.5" width="129" height="19" style="cursor: pointer; fill: rgb(0, 0, 0); fill-opacity: 0;"/></g></g></g><rect class="scrollbar" rx="20" ry="3" width="0" height="0" x="0" y="0" style="fill: rgb(128, 139, 164); fill-opacity: 1;"/></g><g class="g-gtitle"><text class="gtitle" x="350" y="30" text-anchor="middle" dy="0em" style="font-family: 'Open Sans', verdana, arial, sans-serif; font-size: 17px; fill: rgb(68, 68, 68); opacity: 1; font-weight: normal; white-space: pre;">rss_expr4.8 loss over time</text></g><g class="g-xtitle"><text class="xtitle" x="324" y="442" text-anchor="middle" style="font-family: 'Open Sans', verdana, arial, sans-serif; font-size: 14px; fill: rgb(68, 68, 68); opacity: 1; font-weight: normal; white-space: pre;">epoch</text></g><g class="g-ytitle"><text class="ytitle" transform="rotate(-90,22,225)" x="22" y="225" text-anchor="middle" style="font-family: 'Open Sans', verdana, arial, sans-serif; font-size: 14px; fill: rgb(68, 68, 68); opacity: 1; font-weight: normal; white-space: pre;">loss</text></g></g></svg>