<svg class="main-svg" xmlns="http://www.w3.org/2000/svg" xmlns:xlink="http://www.w3.org/1999/xlink" width="700" height="450" style="" viewBox="0 0 700 450"><rect x="0" y="0" width="700" height="450" style="fill: rgb(255, 255, 255); fill-opacity: 1;"/><defs id="defs-50bb9e"><g class="clips"><clipPath id="clip50bb9exyplot" class="plotclip"><rect width="528" height="330"/></clipPath><clipPath class="axesclip" id="clip50bb9ex"><rect x="60" y="0" width="528" height="450"/></clipPath><clipPath class="axesclip" id="clip50bb9ey"><rect x="0" y="60" width="700" height="330"/></clipPath><clipPath class="axesclip" id="clip50bb9exy"><rect x="60" y="60" width="528" height="330"/></clipPath></g><g class="gradients"/></defs><g class="bglayer"/><g class="layer-below"><g class="imagelayer"/><g class="shapelayer"/></g><g class="cartesianlayer"><g class="subplot xy"><g class="layer-subplot"><g class="shapelayer"/><g class="imagelayer"/></g><g class="gridlayer"><g class="x"><path class="xgrid crisp" transform="translate(150.99,0)" d="M0,60v330" style="stroke: rgb(238, 238, 238); stroke-opacity: 1; stroke-width: 1px;"/><path class="xgrid crisp" transform="translate(246.9,0)" d="M0,60v330" style="stroke: rgb(238, 238, 238); stroke-opacity: 1; stroke-width: 1px;"/><path class="xgrid crisp" transform="translate(342.81,0)" d="M0,60v330" style="stroke: rgb(238, 238, 238); stroke-opacity: 1; stroke-width: 1px;"/><path class="xgrid crisp" transform="translate(438.72,0)" d="M0,60v330" style="stroke: rgb(238, 238, 238); stroke-opacity: 1; stroke-width: 1px;"/><path class="xgrid crisp" transform="translate(534.63,0)" d="M0,60v330" style="stroke: rgb(238, 238, 238); stroke-opacity: 1; stroke-width: 1px;"/></g><g class="y"><path class="ygrid crisp" transform="translate(0,305.43)" d="M60,0h528" style="stroke: rgb(238, 238, 238); stroke-opacity: 1; stroke-width: 1px;"/><path class="ygrid crisp" transform="translate(0,237.37)" d="M60,0h528" style="stroke: rgb(238, 238, 238); stroke-opacity: 1; stroke-width: 1px;"/><path class="ygrid crisp" transform="translate(0,169.3)" d="M60,0h528" style="stroke: rgb(238, 238, 238); stroke-opacity: 1; stroke-width: 1px;"/><path class="ygrid crisp" transform="translate(0,101.22999999999999)" d="M60,0h528" style="stroke: rgb(238, 238, 238); stroke-opacity: 1; stroke-width: 1px;"/></g></g><g class="zerolinelayer"><path class="yzl zl crisp" transform="translate(0,373.5)" d="M60,0h528" style="stroke: rgb(68, 68, 68); stroke-opacity: 1; stroke-width: 1px;"/></g><path class="xlines-below"/><path class="ylines-below"/><g class="overlines-below"/><g class="xaxislayer-below"/><g class="yaxislayer-below"/><g class="overaxes-below"/><g class="plot" transform="translate(60, 60)" clip-path="url(#clip50bb9exyplot)"><g class="scatterlayer mlayer"><g class="trace scatter trace3632ec" style="stroke-miterlimit: 2; opacity: 1;"><g class="fills"/><g class="errorbars"/><g class="lines"><path class="js-line" d="M0,269.87L0.51,289.68L0.9,235.72L1.02,251.39L1.28,275.21L1.53,238.36L1.66,250.99L1.79,249.82L2.05,252.61L2.43,206.49L2.56,276.88L3.2,222.67L3.32,267.24L3.45,288.07L3.71,312.98L4.09,244.85L4.22,252.31L4.35,285.06L5.24,224.86L5.37,305.33L6.14,226.2L6.26,238.36L6.39,301.13L7.41,246.62L7.54,280.05L8.69,198.79L8.82,284.16L10.23,196.18L10.35,232.45L10.48,212.81L10.61,262.58L10.99,219.56L11.12,233.85L11.25,235L11.38,182.52L12.27,274.55L12.4,254.01L12.78,273.4L12.91,236.26L13.04,242.92L13.17,218.72L13.68,197.08L13.93,245.01L14.06,217.59L14.7,181.58L14.83,189.15L14.95,272.63L15.34,226.72L15.98,227.84L16.11,282.15L17,202.91L17.13,228.09L17.26,210.53L17.38,284.56L17.51,277.51L17.64,276L17.77,231.15L18.41,244.13L18.54,232.71L18.79,250.48L18.92,212.43L19.05,233.06L19.17,214.53L19.56,298.32L19.94,247.71L20.07,240.82L20.58,205.38L20.71,223.4L20.83,283.83L21.6,212.21L21.86,235.92L21.99,240.95L22.88,197.15L23.01,196.9L23.26,189.84L23.9,254.54L24.03,245.62L24.16,213.16L24.28,214.99L24.41,202.95L24.67,225.28L25.18,190.04L25.31,219.94L25.56,168.56L25.82,180.68L25.95,216.86L26.33,208.4L26.46,219.23L26.59,210.4L26.71,232.84L26.84,233.93L26.97,217.57L27.1,241.68L27.35,213.14L27.48,218.41L27.61,149.2L27.87,219.96L28.38,195.58L28.5,166.27L28.89,259.88L29.27,226.86L29.4,225.44L29.65,217.72L29.78,214.08L30.29,196.22L30.55,260.58L30.8,242.28L30.93,252.6L31.57,182.75L31.7,237.98L31.83,235.39L31.96,227.08L32.08,235.54L32.21,146.35L32.47,256.16L32.98,229.5L33.11,221.17L33.23,196.33L33.62,266.45L33.74,259.06L34,221.67L34.64,222.64L34.77,222.8L34.89,228.39L35.02,204.15L35.15,194.5L35.41,181.09L35.66,271.07L35.92,245.2L36.04,213.73L36.3,198.94L36.43,238.99L36.94,234.43L37.07,232.61L37.32,213.34L37.45,217.43L37.58,258.3L38.73,199.22L38.86,230.66L38.98,249.79L39.24,182.79L39.37,227.85L39.5,208.4L39.62,205.35L39.75,220.93L39.88,229.88L40.01,222.15L40.13,230.88L40.26,223.51L40.39,169.28L40.65,277.22L41.16,227.66L41.29,228.29L41.41,228.46L41.54,212.77L41.8,244.91L41.92,235.8L42.05,221.72L42.44,193.43L42.56,206.63L42.69,221.56L43.07,224.53L43.2,167.21L43.46,203.37L43.58,259.97L43.97,287.28L44.22,227.54L44.48,232.89L44.61,224.65L44.86,213.8L44.99,242.15L45.12,236.36L45.25,206.29L45.38,236.68L45.76,197.99L45.89,213.98L46.01,204.27L46.27,178.67L46.53,212.17L46.65,226.09L46.91,216.03L47.04,146.57L47.42,245.42L47.68,211.41L47.8,147.46L48.44,258.99L48.95,232.1L49.08,222.28L49.21,224.81L49.34,217.08L49.46,208.02L49.72,243.72L50.1,187.07L50.23,215.79L50.36,209.05L50.49,184.7L50.87,232.25L51,214.34L51.13,276.22L51.77,234.05L51.89,235.26L52.02,275.54L52.15,200.77L52.79,222.37L52.92,209.25L53.04,210.31L53.17,195.73L53.43,224.66L54.07,181.03L54.19,194.44L54.32,218L54.71,178.24L54.96,213.62L55.09,194.36L55.86,225.97L55.98,225.12L56.11,208.65L56.5,185.97L56.62,219.44L56.75,209.94L56.88,220.76L57.01,221.42L57.14,194.49L57.39,221.81L57.52,172.47L57.77,195.25L57.9,179.8L58.41,236.44L58.67,211.47L58.8,193.25L59.43,212.42L59.56,190.67L59.82,222.01L59.95,200.97L60.07,173.24L60.2,214.21L60.59,167.05L60.84,205.8L60.97,158.63L61.61,269.05L61.74,269.02L61.86,221.15L61.99,241.77L62.12,206.64L62.5,210.62L62.63,222.26L63.01,232.9L63.4,206.21L63.52,223.1L63.65,250.77L64.04,214.19L64.29,232.92L64.42,214.41L64.55,199.55L64.93,234.27L65.06,235.26L65.7,200.75L65.95,219.06L66.08,220.92L66.21,188.34L66.59,223.75L66.85,203.51L66.98,269.96L67.36,214.93L67.87,219.69L68,227.19L68.38,176.67L68.64,193.82L68.76,227.3L69.66,203.34L69.79,197.72L70.04,144.82L70.17,222.61L70.3,226.76L70.68,178.92L70.94,237.53L71.07,233.82L71.58,166.88L71.83,203.21L71.96,215.19L72.22,220.43L72.6,144.13L72.73,221.86L72.85,150.53L73.49,185.39L73.62,197.15L73.75,207.82L74.01,198.33L74.13,176.3L74.9,212.61L75.03,118.67L75.67,239.89L76.05,217.74L76.18,182.84L76.31,187.69L76.44,228.27L77.2,177.63L77.33,218.76L77.71,223.11L77.84,191.58L77.97,219.82L78.1,231.19L78.99,166.73L79.12,227.61L79.5,190.49L79.76,201.04L79.89,217.76L80.01,217.42L80.14,202.19L80.52,217.52L80.65,208.04L80.78,172.19L81.04,236.51L81.55,224.22L81.67,200.17L81.8,199.1L81.93,159.29L82.44,243.6L82.82,219.81L82.95,225.22L83.08,222.17L83.21,188.62L83.46,208.87L83.59,204.98L83.72,160.91L83.98,155.5L84.23,225.39L84.49,165.04L84.61,179.39L85,221.6L85.13,152.34L85.51,248.64L86.02,231.89L86.15,203.59L86.27,225.31L86.66,209.37L86.79,172.23L86.91,164.55L87.04,214.65L87.3,234.71L87.68,202.18L87.81,218.88L87.94,191.59L88.06,228.22L88.58,183.99L88.7,212.5L88.83,213.95L89.47,185.23L89.6,241.39L89.73,254.46L90.11,233.34L90.24,230.07L90.37,232.74L90.75,225.8L90.88,218.13L91.26,237.19L91.52,195.52L91.64,217.87L92.28,201.85L92.41,220.89L92.54,200.38L92.67,206.37L92.79,299.56L93.18,211.36L93.82,212.97L93.94,214.88L94.07,215.38L94.2,213.22L94.33,238.55L94.84,200.29L95.1,216.94L95.22,213.39L95.48,244.63L95.86,227.56L95.99,217.53L96.12,211.98L96.37,224.43L96.5,222.02L96.63,234.49L97.52,176.19L97.65,192.49L97.91,191.49L98.55,227.05L98.67,171.42L98.93,248.42L99.44,227.57L99.57,224.2L99.95,243.26L100.21,222.32L100.34,217.98L100.46,231.74L100.59,209.78L100.97,227.77L101.1,202.29L101.23,209.17L101.36,186.71L101.48,208.16L101.61,251.01L102.12,183.73L102.38,214.56L102.51,223.17L102.64,208.94L103.02,235.92L103.15,221.25L103.28,226.23L103.53,204.79L103.66,222.06L103.79,227.86L104.04,205.91L104.3,227.55L104.43,253.71L104.94,181.36L105.19,223.89L105.32,222.88L105.57,146.72L105.83,232.99L105.96,200.69L106.09,210.53L106.21,218.94L106.34,202.09L106.47,174.49L107.24,237.66L107.36,219.62L107.49,200.09L107.62,223.18L107.75,176.21L108.13,198.26L108.26,201.76L108.52,203.78L108.9,108.13L109.03,229.73L109.67,196.39L109.79,214.69L110.05,220.7L110.3,174.77L110.56,203.65L110.69,204.96L110.82,219.2L111.07,183.64L111.2,199.33L111.33,189.78L111.45,205.5L111.71,165.1L112.09,198.88L112.22,178.12L112.61,247L112.99,213.14L113.12,207.02L113.5,174.24L113.63,246.93L114.27,219.13L114.4,222.83L114.52,201.71L114.78,230.3L115.29,219.9L115.42,187L115.8,170.1L116.18,228.13L116.31,214.36L116.44,214.73L116.57,219.55L116.95,262.54L117.08,233.81L117.21,232.91L117.59,200.53L117.85,208.54L117.97,233.77L118.1,184.66L118.74,217.71L118.87,212.53L119.12,175.97L119.25,224.4L119.38,213.05L119.51,213.18L119.89,215.7L120.4,172.64L120.53,213.52L120.66,217.26L120.78,183.65L121.17,159.86L121.68,224.87L121.81,203.26L122.06,185.27L122.19,186.48L122.32,221.34L122.7,238.97L123.09,194.24L123.21,201.49L123.34,230.73L123.98,178.96L124.11,219.46L124.24,220.03L124.49,194.62L125,201.86L125.13,240.99L125.26,190.75L125.9,225.98L126.03,202.49L126.15,200.9L126.28,163.22L126.92,216.14L127.05,207.59L127.18,192.54L128.07,228.39L128.2,206.68L128.33,132.51L128.58,220.63L129.09,208.39L129.22,197.05L129.35,195.74L129.48,205.43L130.12,182.47L130.24,191.47L130.37,212.78L130.63,224.26L130.88,183.08L131.14,189.84L131.27,197.21L131.39,196.45L131.52,188.83L131.65,190.23L131.78,181.05L131.91,206.14L132.16,174.02L132.29,128.49L132.54,214.84L133.06,187.39L133.18,148.31L134.2,256.6L134.33,220.1L134.72,146.9L135.23,169.15L135.36,206.45L135.61,212.19L135.87,199.28L136,224.36L136.89,173.18L137.15,185.88L137.27,209.24L138.17,150.03L138.3,153.83L138.42,191.09L138.68,172.91L138.81,192.36L138.94,226.04L139.06,129.31L139.7,217.55L139.83,193.55L140.34,173.15L140.6,215.85L140.72,212.29L140.85,206.47L141.36,213.56L142,170.15L142.13,204.13L142.26,241.07L142.64,194.01L142.77,205.81L142.9,206.2L143.03,208.9L143.15,235.38L144.05,191L144.17,196.89L144.3,238.14L144.94,209.24L145.07,221.38L145.2,168.43L145.33,225.93L145.84,208.12L145.96,208.16L146.48,211.02L146.73,167.6L146.86,192.09L147.12,167.79L147.5,227.51L147.63,200.68L147.76,197.23L148.01,209.41L148.27,203.36L148.39,168.52L149.03,239.27L149.29,238.45L149.41,228.58L149.54,230.18L149.67,207.52L149.8,231.54L150.18,180.68L150.31,194.46L150.44,194.75L150.57,169.38L151.08,212.2L151.21,197.54L151.46,238.7L151.72,192.74L151.84,212.85L151.97,197.74L152.1,212.61L152.48,172.29L152.61,203.07L152.74,175.2L153.38,202.43L153.5,92.96L154.02,218.9L154.27,185.23L154.4,200.31L154.78,188.89L155.17,213.45L155.3,149.33L155.42,165.11L155.68,106.65L155.81,233.64L156.57,157.93L156.7,230.4L156.96,144.48L157.34,262.69L157.47,192.27L157.6,224.69L157.72,237.35L157.98,199.61L158.23,222.31L158.36,193.68L158.49,175.38L158.62,213.78L158.87,194.01L159,234.87L159.38,195.08L159.51,218.72L159.64,184.5L159.77,238.39L160.28,194.9L160.41,223.91L161.05,192.43L161.18,203.28L161.3,202.51L161.43,189.91L161.56,216.4L161.81,201.09L161.94,217.39L162.84,193.42L162.96,221.07L163.09,250.32L163.22,155.15L163.6,198.83L163.73,174.08L164.37,221.45L164.5,159.89L165.26,217.58L165.39,205.6L165.52,147.6L166.03,207.56L166.16,214.76L166.42,165.44L167.06,167.37L167.18,213.39L167.82,141.48L167.95,199.37L168.08,232.66L168.46,173.92L168.84,183.88L168.97,213.27L169.1,156.08L169.35,228.46L169.61,192.53L169.74,210.94L170.12,174.11L170.25,192.31L170.38,241.09L171.02,188.23L171.14,192.24L171.27,219.43L171.4,222.24L171.53,242.85L171.78,250.37L172.17,186.42L172.3,216.39L172.42,221.11L172.68,244.91L173.19,230.8L173.32,232.28L173.57,233.06L173.7,211.14L174.08,211.88L174.21,216.94L174.34,212.04L174.47,221.54L174.6,182.94L175.23,236.11L175.36,214.39L175.49,219.64L175.75,227.74L176.26,167.83L176.51,187.24L176.64,213.17L176.77,217.1L177.02,208.59L177.15,192.69L177.41,209.44L177.79,195.33L177.92,145L178.68,209.6L178.81,202.45L178.94,208.29L179.2,179.35L179.58,220.61L179.71,214.33L179.84,212.11L179.96,157.71L180.09,164.7L180.22,225.96L180.35,171.65L180.99,193.85L181.11,226.79L181.37,181.12L181.75,190.79L181.88,246.3L182.65,168.72L182.77,191.93L182.9,171.84L183.29,209.93L183.41,216.86L183.54,174.56L184.18,204.79L184.31,213.71L184.56,233.68L184.69,182.3L184.95,193.1L185.08,232.91L185.97,161.33L186.1,162.03L186.48,132.58L186.99,194.41L187.12,189.67L187.38,194.01L187.5,258.8L188.27,153.56L188.4,195.9L188.78,155.66L189.04,200.46L189.17,172.72L189.29,185.94L189.68,203.03L189.81,170.65L189.93,176.48L190.44,201.46L190.57,180.04L190.7,155.63L191.47,231.59L191.6,174.51L192.1,205.06L192.23,168.95L192.36,177.88L192.49,163.61L192.62,214.62L193.26,183.1L193.38,160.76L193.89,213.33L194.15,199.52L194.28,187.33L194.66,204.46L194.92,156.64L195.05,187.06L195.3,227.8L195.81,210.44L195.94,182.23L196.07,201.51L196.2,155.08L196.45,177.29L196.58,146L196.71,148.03L196.83,233.84L197.22,169.97L197.73,186.27L197.86,191.16L198.11,156.67L198.24,207.98L198.62,181.62L198.75,172.98L198.88,199.2L199.39,185.85L199.52,128.33L199.9,212.75L200.29,206.33L200.41,176.59L200.54,208.99L200.67,123.17L201.05,207L201.18,181.15L201.43,207.44L201.56,158.73L201.69,173.54L201.82,233.14L202.59,134.83L202.71,151.38L202.84,114.93L203.1,251.19L203.48,192.98L203.61,189.46L203.74,183.68L203.86,219.97L204.63,182.91L204.76,209.77L205.02,206.8L205.14,206.93L205.27,199.95L205.66,147.56L205.91,152.45L206.04,191.18L206.16,189.17L206.29,199.67L206.55,217.27L206.68,155.22L207.06,196.05L207.19,207.06L207.44,213.8L207.7,150.92L208.08,174.02L208.21,205.66L208.34,200.55L208.47,220.33L208.59,184.55L208.98,155.41L209.11,198.85L209.23,196.04L209.36,206.98L209.49,175.27L209.74,210.57L210,202.46L210.13,209.64L210.26,209.32L210.38,203.32L210.51,207L210.64,160.48L211.28,222.58L211.53,214.39L211.66,193.89L211.79,206.61L211.92,143.9L212.3,214.7L212.81,210.01L212.94,231.5L213.45,191.09L213.71,195.53L213.83,196.41L214.09,200.64L214.22,210.34L214.35,213.54L214.47,194.45L214.6,212.46L214.86,178.91L215.24,202.23L215.37,182.3L215.5,205.73L216.01,196.9L216.13,170.79L216.39,215.1L216.9,204.43L217.03,199.84L217.16,141.86L217.54,214.54L217.8,171.48L217.92,195.12L218.18,210.96L218.31,181.21L218.82,205.41L219.07,193.43L219.2,164.63L219.84,159.77L219.97,218.19L220.23,207.13L220.35,204.89L220.48,205.75L220.61,158.72L220.99,148.97L221.5,207.67L221.63,208.68L221.76,215.32L221.89,171.23L222.4,220.19L222.65,184.44L222.78,153.19L223.04,134.91L223.16,192.81L223.68,181.63L223.8,171.87L224.19,237.12L224.7,232.87L224.83,220.16L225.21,231.3L225.59,195.12L225.72,209.77L226.1,117.53L226.23,216.33L226.36,235.4L226.74,196.82L226.87,188.15L227.38,207.65L227.51,72.14L227.64,233.23L228.28,225.16L228.41,208.12L228.79,219.28L229.04,204.12L229.17,213.54L229.43,189.37L229.56,210.84L229.68,215.66L229.94,216.46L230.32,171.8L230.45,195.66L230.58,209.2L230.7,215.83L230.96,189.38L231.09,211.45L231.22,177.57L231.47,190.91L231.6,178.23L231.98,164.97L232.37,213.43L232.49,207.19L232.88,108.47L233.01,238.39L233.52,258.98L233.9,216.33L234.03,222.2L234.29,222.24L234.67,212L234.8,222.49L235.69,164.85L235.82,181.52L236.2,170.62L236.58,215.28L236.71,192.04L236.84,211.19L237.22,169.72L237.35,194.34L237.48,167.42L238.25,223.61L238.37,210.71L238.5,196.86L238.89,140.51L239.01,205L239.27,176.08L239.4,203.2L239.65,220.1L239.91,163.03L240.16,178.66L240.29,218.47L240.8,170.6L240.93,220.69L241.7,171.97L241.83,211.58L242.08,214.9L242.34,176.35L242.59,183.29L242.72,191.59L242.85,195.46L242.98,191.92L243.1,150.26L244,217.64L244.13,186.94L244.38,206.13L244.51,174.5L244.76,176.88L244.89,208.87L245.28,205.23L245.4,191.21L245.53,146.68L245.79,215.49L246.04,199.84L246.17,212.29L246.3,167.98L246.81,207.09L246.94,213.34L247.07,212.13L247.19,172.25L247.83,213.14L247.96,151.61L248.6,237.85L248.73,202.98L248.86,211.97L248.98,215.4L249.11,201.13L249.24,155.1L249.88,226.32L250,172.39L250.13,211.57L250.26,125.89L250.77,218.24L250.9,198.31L251.03,213.6L251.16,231.75L251.28,135.37L251.92,222.37L252.18,216.19L252.31,208.72L252.43,166.27L252.82,196.32L252.95,291.54L253.59,176.66L253.71,218.15L253.84,204.24L253.97,205.44L254.09,199.31L254.35,203.18L254.48,185.24L254.73,211.85L254.86,153.4L255.25,176.04L255.37,176.93L255.5,179.15L255.63,179.06L255.76,200.84L255.88,192.9L256.01,229.64L256.14,230.68L256.65,162.94L256.91,203.12L257.04,211.46L257.29,215.22L257.42,205.06L257.55,201.07L257.8,183.89L258.31,232L258.44,203.79L258.57,203.16L258.7,207.45L258.83,155.03L259.33,225.49L259.46,164.44L259.59,185.55L259.85,223.16L259.97,174.39L260.23,157.49L260.49,212.49L260.61,133.29L260.74,212.35L261.25,122.96L261.38,161.18L261.51,138.16L261.89,271.95L262.4,207.55L262.53,150.86L262.79,220.2L263.43,216.14L263.55,178.46L263.68,177.51L263.81,181.33L263.94,200.48L264.19,164.64L264.32,176.58L264.45,206.35L264.7,219L265.34,181.53L265.47,188.72L265.6,187.31L265.73,210.11L266.37,154.06L266.75,154.38L266.88,178.31L267.13,218.17L267.26,189.76L267.39,177.86L267.52,238.12L267.9,164.92L268.16,205.75L268.28,203.86L268.54,217.56L268.79,188.74L268.92,157.46L269.18,226.46L269.3,155.75L269.56,191.71L269.69,161.55L269.82,211.49L270.2,201.34L270.33,94.41L270.58,204.29L271.22,191.86L271.35,215.72L271.73,233.2L271.86,189.34L271.99,214.09L272.12,224.9L272.76,136.29L273.01,159.17L273.14,211.35L274.03,174.11L274.16,187.57L274.29,195.93L274.67,177.42L274.8,173.49L274.93,192.31L275.18,147.09L275.31,127.55L276.08,209.87L276.21,152.79L276.46,217.99L276.97,199.72L277.1,194.91L277.23,212.95L277.36,164.44L277.49,137.81L277.74,61.73L278.25,207.16L278.38,149.12L278.76,145.89L279.15,199.34L279.27,163.3L280.3,226.67L280.43,163.02L280.68,225.76L280.81,156.22L281.06,217.06L281.45,147.09L281.58,159.72L281.83,200.88L282.34,180.72L282.47,188.61L282.6,150.99L283.11,188.35L283.24,198.93L283.49,205.91L284,181.71L284.13,201.69L284.39,207.77L284.64,176.12L284.77,218.65L284.9,226.54L285.15,208.91L285.28,187.25L285.54,214.11L285.79,182.26L285.92,188.75L286.05,176.36L286.69,228.64L287.07,226.84L287.2,218.6L287.58,189.15L287.84,214.67L287.97,216.14L288.09,219.51L288.22,175.27L288.48,216.98L289.12,211.19L289.24,198.89L289.5,165.01L289.63,208.18L289.76,234.36L289.88,200.8L290.39,218.62L290.52,151.94L291.03,205.27L291.29,184.77L291.42,186.27L291.67,209.68L292.31,209.37L292.44,201.83L292.69,203.02L292.82,196.69L292.95,205.64L293.08,204.58L293.21,184.65L293.46,175L293.85,208.6L293.97,185.06L294.48,171.96L294.74,211.02L294.87,185.64L295.12,157.89L295.76,226.94L295.89,219.25L296.53,192.53L296.66,200.26L296.79,164.91L296.91,167.1L297.04,196.04L297.3,202.13L297.68,169.5L297.81,185.76L297.93,205.19L298.06,200.82L298.19,201.63L298.32,161.33L298.96,200.57L299.09,179.21L299.21,179.55L299.47,169.84L299.6,204.26L299.98,203.05L300.11,183.02L300.36,202.88L300.49,178.15L300.75,179.5L300.88,155.47L301.52,189.11L301.64,133.77L302.02,224.37L302.28,213.52L302.41,100.86L302.79,237.73L303.18,182.33L303.3,214.84L303.43,222.03L303.56,186.21L303.81,222.76L304.2,171.49L304.33,209.31L304.45,205.58L304.58,208.57L304.71,134.24L305.61,223.6L305.73,201.63L305.86,191.24L305.99,206.58L306.37,194.43L306.5,209.43L307.39,154.17L307.52,191.75L307.65,231.74L308.03,171.59L308.16,190.69L308.29,179.3L308.67,195.14L309.06,147.81L309.18,160.61L309.31,167.36L309.69,130.08L310.08,208.67L310.21,193.49L310.33,82.86L311.23,218.7L311.36,186.15L311.49,185.39L311.61,194.53L311.74,197.41L311.87,159.11L312.76,208.91L312.89,195.87L313.02,170.14L313.66,191.38L313.78,175.1L314.04,214.83L314.42,205.7L314.55,188.91L314.68,171.56L314.81,226.4L315.06,180L315.19,216.48L315.32,216.59L315.45,201.49L315.57,215.8L315.7,166.05L315.83,155.96L316.34,231.27L316.6,216.98L316.72,189.2L316.98,153.38L317.23,195.05L317.49,177.16L317.62,182.26L317.87,175.34L318,236.75L318.26,142.3L318.77,150.86L318.9,188.05L319.15,195.51L319.28,176.46L319.54,153.87L319.66,181.28L319.79,189.44L320.18,192.07L320.56,159.66L320.69,173.69L320.82,225.7L321.32,160.71L321.58,167.09L321.71,221.32L321.84,141.81L322.09,228.73L322.48,206.09L322.6,242.89L322.99,143.21L323.37,181.47L323.5,170.71L323.75,157.42L324.14,212.54L324.27,16.5L324.78,220.26L325.03,195.44L325.16,172.83L325.8,219.35L325.93,196.52L326.05,184.25L326.18,196.34L326.44,189.09L326.57,159.76L326.69,163.61L326.82,151.27L326.95,144.21L327.72,207.47L327.84,117.05L327.97,219.71L328.48,179.48L328.61,118.74L328.99,213.11L329.63,197.95L329.76,179.44L330.02,179.25L330.4,211.01L330.66,206.97L330.78,185.52L330.91,177.44L331.04,117.76L331.42,205.29L331.93,191.61L332.06,202.13L332.32,152.45L332.7,176.94L332.83,183.24L333.08,139.74L333.6,151.58L333.72,176.63L333.98,130.88L334.11,186.04L334.24,181.32L334.36,194.48L334.62,164.31L334.75,212L334.87,170.49L335.13,140.42L335.64,228.78L335.77,204.26L335.9,194.05L336.15,181.77L336.28,238.62L336.41,196.94L337.05,221.14L337.17,220.58L337.81,178.68L337.94,81.27L338.71,238.54L338.84,177.39L339.35,160.01L339.6,239.47L339.73,177.73L339.86,129.57L340.37,216.4L340.5,194.8L340.88,205.45L341.14,133.58L341.52,155.44L341.65,173.45L341.9,162.88L342.03,185.44L342.29,193.76L342.41,137.77L342.54,146.04L342.67,206.88L342.8,204.64L342.93,181.03L343.31,163.11L343.44,145.05L343.69,212.75L344.08,153.21L344.21,148.32L344.46,211.73L344.59,208.92L344.72,152.92L345.35,191.85L345.48,186.44L345.61,162.02L346.25,232.3L346.38,186.24L346.5,195.84L346.63,123.33L347.4,215.56L347.53,199.9L347.66,204.52L347.78,188.3L347.91,191.99L348.04,160.71L348.42,151.87L348.81,231.19L348.93,212.42L349.06,211.17L349.32,94.57L349.45,222.69L349.57,215.71L349.7,221.19L349.83,134.34L350.08,216.47L350.59,211.61L350.72,194.65L350.85,114.85L351.11,207.14L351.36,195.05L351.49,203.87L352.13,174.51L352.26,193.67L352.38,215.26L352.64,189.79L353.15,198.08L353.28,200.75L353.66,214.07L353.79,192.5L353.92,228.32L354.43,152.27L354.81,198.25L354.94,193.36L355.07,204.42L355.2,177.41L355.58,184.5L355.71,183.89L355.83,205.8L356.47,202.56L356.6,186.75L356.73,195.82L356.86,174.08L357.11,174.92L357.24,177.88L357.37,196.01L357.75,169.68L358.01,192.37L358.14,179.78L358.78,170.36L359.03,170.59L359.16,172.11L359.29,169.61L359.42,176.34L359.54,188.72L360.31,164.01L360.44,187.82L360.82,165.87L360.95,107.81L361.97,252.58L362.1,223.95L362.23,228.17L362.48,159.45L362.87,185.12L362.99,223.56L363.51,202.11L363.63,209.78L363.76,227.09L364.65,188.78L364.78,170.71L364.91,221.29L365.29,163.3L365.55,210.76L365.68,206.41L366.19,212.83L366.44,172.63L366.57,198.05L366.7,175.68L366.83,213.06L367.21,202.24L367.34,204.1L367.59,210.76L368.11,132.21L368.23,178.76L368.49,173.8L368.62,200.67L368.75,121.08L369,215.29L369.25,206.27L369.38,222.23L369.51,172.84L370.15,194.41L370.28,166.7L370.41,147.45L370.53,198.37L370.79,184.37L370.92,188.39L371.05,201.49L371.3,151.38L371.43,189.7L371.56,168.8L371.94,167.6L372.2,192.02L372.32,163.48L372.58,147.22L372.71,200.36L372.96,170.88L373.09,171.3L373.47,157.53L374.11,204.9L374.24,193.94L374.62,212.9L374.88,198.65L375.01,181.09L375.13,78.65L375.26,208.8L375.65,204.74L375.77,179.66L375.9,185.91L376.03,158.21L376.16,178.84L376.29,164.14L376.41,204.17L376.54,44.47L377.05,168.62L377.18,186.79L377.31,198.91L377.44,151.48L377.82,189.3L377.95,132.2L378.72,208.4L378.84,100.49L379.86,220.52L379.99,201.13L380.12,171.44L380.38,224.66L380.63,189.7L380.76,221.33L380.89,179.83L381.53,210.03L381.65,193.28L381.78,211.93L382.42,196.32L382.55,184.83L382.68,246.34L383.19,158.71L383.32,200.48L383.44,186.99L383.7,203.02L383.83,177.16L383.95,121.59L384.85,231.53L384.98,168.02L385.1,149.2L385.23,198.64L385.62,166.44L385.74,201.21L386.13,125.38L386.26,192.76L386.38,193.29L386.51,194.56L386.64,183.17L386.89,191.63L387.02,159.18L387.28,164.21L387.41,188.11L387.66,196.05L387.79,181.09L387.92,174.92L388.43,214.55L388.81,207.44L388.94,196.77L389.07,219.48L389.19,186.54L389.71,202.9L389.83,195.25L390.09,156.86L390.22,205.99L390.35,227.5L390.73,204.32L390.98,213.11L391.11,213.32L391.37,183.48L391.5,227.97L391.62,190.92L391.88,206.42L392.01,158.33L392.26,186.11L392.39,192.31L392.77,158.46L393.16,173.34L393.28,197.53L393.41,199.93L393.54,195.41L393.67,186.01L393.92,212.84L394.31,180.36L394.43,181.02L394.82,204.01L395.07,170.46L395.2,194.84L395.33,181.81L395.59,150.99L395.71,186.31L396.1,162.01L396.35,213.99L396.48,193.92L396.61,136.88L396.74,221.12L397.38,161.8L397.5,162.88L397.63,140.6L397.76,210.9L398.01,170L398.14,222.94L398.4,157.83L398.91,183.75L399.04,199.37L399.29,173.18L399.55,183.86L399.68,212.77L400.06,152.1L400.44,170.05L400.57,196.52L400.7,153.09L401.08,218.93L401.21,213.85L401.34,219.51L401.98,221.62L402.11,137.65L402.23,191.38L402.36,193.34L402.49,188.69L402.62,203.8L402.74,143.07L403.13,202.77L403.64,196.79L403.77,189.69L403.89,192.98L404.02,179.75L404.15,165L404.28,156.51L404.4,198.08L404.53,213.15L404.66,167.82L405.04,205.13L405.17,169.14L405.43,198.24L405.56,187.99L405.68,155.78L406.19,248.97L406.71,232.28L406.83,221.35L407.22,202.59L407.35,223.45L407.47,213.92L407.6,221.01L407.98,187.83L408.49,199.1L408.62,202.4L408.75,204.31L408.88,184.88L409.01,183.82L409.13,152.89L409.52,102.33L409.77,238.27L410.03,226.09L410.16,213.86L410.8,216.17L410.92,168.76L411.05,211.99L411.31,212.33L411.56,197.19L411.69,199.19L411.82,217.02L411.95,154.27L412.58,186.75L412.71,163.9L413.1,212.38L413.48,195.89L413.61,192.64L413.73,193.5L413.86,211.03L414.5,211.3L414.89,152.21L415.01,157.2L415.14,207.73L415.78,205.01L415.91,171.79L416.16,197.81L416.29,141.15L416.68,192.16L416.8,173.92L417.06,168.08L417.18,242.26L417.57,209.64L417.7,159.27L418.21,215.15L418.46,192.24L418.59,203.5L418.85,210.54L419.1,164.95L419.23,206.67L420.13,167.18L420.25,172.39L420.38,171.97L420.64,167.23L421.15,205.66L421.28,172.38L421.41,186.07L421.91,166.64L422.04,184.55L422.17,181.44L422.3,187.82L422.43,166.17L422.55,176.76L422.68,231.24L423.19,193.7L423.45,214.96L423.58,212.81L423.7,222.86L423.96,202.18L424.09,190.89L424.22,205.76L424.34,189.53L424.6,197.16L424.73,164.64L424.86,206.8L425.37,150.24L425.49,193.39L425.62,166.47L425.75,170.54L425.88,155.45L426.01,185.12L426.26,198.97L426.77,121.69L426.9,186.94L427.03,193.68L427.15,185.16L427.28,167.58L427.41,139.52L427.67,222.47L427.79,186.31L427.92,210.08L428.05,208.5L428.18,182.23L428.95,210.06L429.07,203.46L429.2,202.44L429.33,201.8L429.46,191.85L429.71,220.06L429.84,166.27L429.97,148.9L430.22,193.87L430.74,188.43L430.86,179.03L430.99,179.25L431.12,193.13L431.5,203.55L431.63,129.73L431.76,223.3L432.01,175.55L432.52,177.02L432.65,198.34L432.78,220.55L433.16,157.34L433.29,182.37L433.42,155.06L433.8,134.1L434.06,209.32L434.19,180.85L434.31,187.55L434.44,131.51L435.08,169.3L435.21,167.52L435.34,220.53L435.85,124.01L435.98,168.61L436.61,231.74L436.74,194.53L436.87,118.03L437.64,187.24L437.76,151.13L438.02,170.9L438.28,138.13L438.4,161.96L438.66,132.57L439.04,170.12L439.17,191.41L439.3,188.77L439.43,194.56L439.55,203.01L439.68,205.45L439.81,201.34L439.94,171.07L440.19,146.53L440.32,165L440.45,190.74L440.71,199.67L440.83,133.46L441.21,155.14L441.34,179.88L441.47,152.33L441.98,190.22L442.11,200.01L442.62,207.15L442.88,163.32L443,196.22L443.64,126.27L443.9,131.97L444.03,180.71L444.16,145.53L444.67,190.09L444.79,198.28L444.92,186.05L445.18,222.95L445.31,222.91L445.56,220.96L445.82,233.76L445.94,217.18L446.71,162.28L446.97,189.49L447.09,200.82L447.35,182.53L447.86,190.6L447.99,190.28L448.37,128.3L448.5,203.75L449.27,153.47L449.4,184.92L449.52,205.81L449.78,152.83L450.04,171.17L450.16,145.57L450.29,231.55L450.67,143.73L450.93,184.51L451.06,153.02L451.18,238.22L451.7,173.47L451.82,116.39L452.33,87.48L452.72,176.85L452.85,157.53L452.97,161.67L453.1,194.58L453.23,120.07L453.87,175.91L454,172.52L454.13,82.2L454.76,132.97L454.89,170.98L455.28,194.34L455.4,180.06L455.53,145.51L455.78,154.9L455.91,185.57L456.04,105.59L456.68,120.19L456.81,107.82L457.06,187.2L457.7,165.86L457.83,188.62L457.96,192.68L458.21,180.58L458.34,139.54L459.11,179.78L459.24,158.9L459.62,217.12L459.88,184.36L460.01,152.06L460.39,229.96L460.51,111.76L460.64,225.49L460.77,141.79L460.9,130.92L461.03,196.85L461.28,163.63L461.41,207.88L461.66,189.02L461.79,174.23L462.05,205.52L462.18,156L462.43,184.03L462.56,201.88L462.94,159.41L463.33,169.61L463.46,179.58L463.97,194.62L464.22,141.01L464.35,155.36L464.48,158.89L464.61,137.52L464.73,237.66L465.37,179.06L465.5,171.7L465.75,139.54L466.01,158.84L466.14,192.65L466.52,119.86L466.65,160.77L466.78,167L467.8,247.26L467.93,214.91L468.44,183.14L468.82,192.4L468.95,200.88L469.34,207.99L469.72,137.22L469.84,144.12L469.97,185.84L470.23,113.43L470.36,198.34L470.48,189.4L470.61,201.79L471,208.98L471.63,153.95L471.76,192.2L471.89,194.1L472.02,210.79L472.66,114.81L472.79,143.81L472.91,202.99L473.3,237.94L473.68,163.91L473.81,176.06L473.94,148.51L474.19,185.01L474.32,177.77L474.45,209.06L474.58,211.86L474.7,188.69L474.83,212.14L475.08,178.89L475.47,200.22L475.6,176.09L475.85,216.26L475.98,185.25L476.11,155.96L476.36,225.15L476.75,182.4L476.88,156.22L477,145.29L477.26,179.08L477.39,180.73L477.64,194.62L477.77,147.03L478.41,197.99L478.54,159.03L478.67,173.14L479.18,197.08L479.31,152.62L479.43,197.35L479.69,211.95L479.81,142.76L480.33,165.41L480.45,172.67L480.71,132.71L481.22,203.43L481.35,184.98L481.6,147.5L481.73,187.5L481.86,210.19L482.37,135.28L482.5,181.64L482.63,179.66L482.76,154.32L483.14,186.55L483.39,160.27L483.52,176.19L483.65,180.97L483.78,235.93L484.42,181.29L484.54,192.6L484.67,223.85L485.44,172.67L485.57,227.13L485.95,173.51L486.33,210.82L486.46,204.31L486.72,158.36L486.84,212.62L486.97,215.05L487.23,218.17L487.61,198.46L487.74,207.15L487.87,209.25L488,205.61L488.12,211.62L488.25,153.13L488.38,208.1L488.76,198.49L488.89,79.64L489.4,199.89L489.66,192.49L489.78,176.6L490.04,220.42L490.3,146.83L490.55,183.33L490.68,186.48L491.32,218.92L491.57,208.25L491.7,193.09L492.09,211.68L492.21,144.33L492.47,184.88L492.6,193.03L492.72,166.2L493.11,203.75L493.36,185.68L493.49,188.57L493.75,190.18L493.87,185.68L494,182.18L494.13,204.54L494.9,173.17L495.02,195.75L495.15,234.42L495.28,151.71L495.66,208.83L495.79,194.21L496.05,221.78L496.18,180.31L496.43,196.45L496.56,194.69L496.94,186.28L497.07,227.92L497.2,165.04L497.97,216.85L498.09,202.5L498.22,192.69L498.48,200.96L498.6,231.92L499.11,238.89L499.37,173.06L499.5,203.92L499.75,157.78L499.88,237.47L500.52,168.68L500.65,211.27L500.78,197.18L501.03,168.34L501.16,205.15L501.93,179.65L502.06,209.22L502.57,179.62L502.69,231.79L502.95,235.12L503.08,189.97L503.46,206.2L503.59,224.62L503.97,184.32L504.48,198.99L504.61,202.7L504.99,186.23L505.12,190.18L505.25,174.05L506.02,247.19L506.14,193.32L506.27,187.57L506.4,181.66L506.53,236.52L507.42,187.31L507.55,185.33L507.68,185.46L507.81,179.05L508.57,268.56L508.7,209.88L508.83,125.97L509.21,214.94L509.6,187.93L509.72,191.92L509.98,212.92L510.11,176.71L510.23,209.74L510.36,112.61L510.75,155.24L510.87,169.5L511.13,209.61L511.39,116.17L511.51,209.48L511.64,156.55L511.77,73.68L512.28,205.14L512.41,157.16L512.79,193.26L513.05,166.38L513.17,166.2L513.81,127.13L513.94,191.07L514.71,119.93L514.84,156.8L515.22,201.76L515.73,109.98L515.86,161.69L516.11,199.44L516.24,172.26L516.37,124.8L517.14,238.86L517.39,224.36L517.52,218.85L518.29,148.52L518.41,188.42L518.8,216.37L519.18,95.08L519.31,207.01L519.95,212.99L520.08,136.99L520.2,179.71L520.84,218.08L520.97,213.35L521.1,214.87L521.36,217.68L521.48,204.31L521.61,205.59L521.74,191.25L521.87,176.65L522.12,192.49L522.25,242.53L523.14,154.61L523.27,190.48L523.4,203.6L523.53,147.18L523.65,72.79L524.17,203.4L524.55,198.93L524.68,201.44L524.81,168.91L525.32,192.11L525.44,210.26L526.34,151.8L526.47,190.48L526.72,213.65L526.98,178.96L527.24,195.13L527.36,172.52L527.74,132.85L528,198.35" style="vector-effect: non-scaling-stroke; fill: none; stroke: rgb(31, 119, 180); stroke-opacity: 1; stroke-width: 2px; opacity: 1;"/></g><g class="points"/><g class="text"/></g><g class="trace scatter trace39dc68" style="stroke-miterlimit: 2; opacity: 1;"><g class="fills"/><g class="errorbars"/><g class="lines"><path class="js-line" d="M0,313.5L528,313.5" style="vector-effect: non-scaling-stroke; fill: none; stroke: rgb(255, 127, 14); stroke-opacity: 1; stroke-width: 2px; opacity: 1;"/></g><g class="points"/><g class="text"/></g><g class="trace scatter trace41776e" style="stroke-miterlimit: 2; opacity: 1;"><g class="fills"/><g class="errorbars"/><g class="lines"><path class="js-line" d="M0,311.41L0.26,307.64L0.38,313.21L0.51,298.92L1.02,313.34L1.41,312.96L1.53,312.9L1.66,313.16L1.79,312.61L1.92,313.01L2.05,310.42L2.43,313.38L2.56,308.79L2.81,313.13L2.94,313.29L3.07,313.09L3.2,313.23L3.32,277.53L3.96,313.3L4.22,313.24L4.35,308.57L5.24,313.46L5.37,294.59L6.26,313.29L6.39,300.75L7.29,313.13L7.41,313.25L7.54,310L8.05,313.08L8.18,313.41L8.69,313.21L8.82,308.11L9.71,313.41L9.84,313.45L10.48,313.35L10.61,309.22L11.38,313.48L11.5,313.4L12.14,313.46L12.27,310.87L12.4,310.65L12.53,311.76L12.66,313.21L12.78,310.97L12.91,313.31L13.29,313.26L13.42,313.19L14.32,313.49L14.44,313.46L14.83,313.49L14.95,311.65L15.21,313.23L15.34,313.14L15.47,308.8L15.98,313.33L16.23,313.07L16.36,313.31L17.26,313.39L17.38,308.15L17.64,306.69L18.28,313.4L18.41,313.47L19.17,313.46L19.3,305.2L19.56,293.02L20.2,313.31L20.32,313.3L20.71,313.47L20.83,291.78L21.73,313.46L21.86,313.41L23.65,313.49L23.78,312.72L24.8,313.5L24.92,308.75L25.18,313.5L25.69,313.48L25.82,313.49L26.33,313.48L26.46,273.6L26.97,313.45L27.23,313.22L27.35,313.46L28.38,313.48L28.5,313.48L28.63,311.19L29.27,312.65L29.4,312.83L30.29,313.47L30.42,313.5L30.55,309.81L31.06,313.36L31.19,313.48L31.32,312.36L31.57,313.43L31.7,286.08L32.08,313.45L32.47,312.4L32.59,313.3L33.49,313.46L33.62,311.13L34.38,313.46L34.51,313.44L34.64,312.99L35.28,313.49L35.41,313.45L35.53,312.84L35.66,311.67L36.04,313.45L36.3,312.7L36.43,313.29L36.56,313.4L36.68,312.26L37.45,313.46L37.58,311.11L38.34,313.42L38.47,313.35L38.6,313.11L38.98,312.8L39.5,313.46L39.62,313.35L40.52,313.41L40.65,308.01L40.9,304.07L41.29,313.46L41.41,313.45L41.54,313.44L41.8,312.16L42.18,313.46L42.31,313.48L43.46,313.49L43.58,312.58L43.84,313.21L43.97,304.41L44.74,313.49L44.86,313.48L44.99,313.08L45.63,313.39L45.76,313.49L47.29,313.49L47.42,312.72L47.93,313.49L48.06,310.96L48.31,313.5L48.95,313.45L49.08,313.13L49.59,312.75L49.98,313.5L50.1,313.49L50.49,313.5L50.62,312.1L51.13,309.37L51.38,313.48L51.51,313.48L51.64,313.3L51.77,313.45L51.89,311.74L52.02,309.33L52.41,313.48L52.53,313.47L52.66,313.49L54.19,313.5L54.32,312.72L55.34,313.5L55.47,313.5L56.62,313.5L56.75,313.5L58.41,313.24L58.54,313.49L61.1,313.49L61.22,308.31L61.48,313.5L61.61,306.63L62.12,313.48L62.25,313.43L63.52,313.43L63.65,311.27L64.29,313.48L64.42,313.4L64.55,313.29L65.44,313.41L65.57,313.05L66.34,313.49L66.47,313.33L66.85,313.44L66.98,311.24L68,313.49L68.13,313.45L72.6,313.49L72.73,313.06L73.62,313.5L73.75,313.49L75.67,312.78L75.8,312.32L76.18,312.21L76.56,313.5L76.69,313.5L78.86,313.5L78.99,308.53L79.63,313.5L79.76,313.48L79.89,313.5L82.31,313.45L82.44,311.49L83.08,313.5L83.21,313.49L83.34,313.43L85.38,313.48L85.51,311.02L86.4,313.49L86.53,313.43L87.04,313.24L87.17,307.92L87.81,313.48L87.94,313.36L88.06,313.49L88.32,313L88.83,313.49L88.96,313.46L89.47,313.5L89.6,297.33L90.37,313.46L90.49,313.48L92.67,313.4L92.79,290.84L93.56,313.46L93.69,313.48L95.22,313.49L95.35,311.97L96.37,313.49L96.5,313.45L96.63,313.15L97.27,313.49L97.4,313.5L99.57,313.18L99.7,312.2L99.95,311.69L100.59,313.49L100.72,313.49L101.48,313.48L101.61,311.74L102.64,313.5L102.76,313.41L103.66,313.39L103.79,313.48L104.3,313.45L104.43,312.4L105.07,313.5L105.19,305.29L105.96,313.49L106.09,313.49L109.67,313.49L109.79,313.5L111.71,313.45L111.84,310.3L112.35,313.5L112.61,310.73L112.73,312.58L113.37,313.49L113.5,313.42L113.63,312.69L113.88,313.48L114.01,311.42L114.91,313.49L115.03,313.45L116.7,313.33L116.82,312.03L116.95,312.11L117.08,313.31L117.85,313.49L117.97,312.73L118.74,313.5L118.87,313.44L120.66,313.5L120.78,312.25L121.3,313.5L121.55,313.47L121.68,311.75L122.45,313.5L122.58,313.49L123.09,312.65L123.34,313.38L123.47,313.45L124.24,313.5L124.37,313.46L124.75,313.5L124.87,312.55L125.13,311.67L125.64,313.5L125.77,313.5L126.66,313.21L126.79,313.5L132.93,313.24L133.06,310.31L133.31,313.5L133.82,313.45L133.95,313.03L134.2,311.84L134.72,313.49L134.84,313.34L135.1,313.49L135.23,312.46L136,313.5L136.12,313.5L142.13,313.49L142.26,312.41L143.03,313.49L143.15,313.19L144.05,313.49L144.17,313.49L144.3,312.95L144.94,313.49L145.07,313.5L145.2,312.63L145.71,313.47L145.84,313.5L147.24,313.5L147.37,312.64L148.27,313.49L148.39,313.5L148.9,313.09L149.03,309.65L149.67,313.5L149.8,312.25L149.93,313.47L151.33,313.48L151.46,312.7L152.23,313.5L152.36,310.99L153.12,313.5L153.25,313.46L153.5,310.36L153.89,312.84L154.02,313.5L154.91,313.5L155.04,312.42L155.55,313.5L155.68,310.73L156.57,313.5L156.7,312.92L157.09,313.5L157.21,313.11L157.34,305.43L158.11,313.49L158.23,311.62L158.87,313.5L159,312.83L159.13,312.8L159.51,313.5L159.64,313.34L159.77,310.77L160.28,310.22L160.54,313.5L160.66,313.5L162.96,313.5L163.09,311.99L163.73,313.5L163.86,313.45L163.99,313.5L170.25,313.5L170.38,312.33L171.14,313.5L171.27,313.49L171.53,312.44L172.04,313.41L172.17,313.46L172.68,312.3L172.93,313.01L173.06,313.43L173.19,313.12L173.83,313.49L173.96,313.31L174.98,313.49L175.11,313.5L175.23,313.18L175.87,313.5L176,313.49L178.81,313.5L178.94,310.39L179.58,313.5L179.71,313.49L179.84,313.48L180.86,313.5L180.99,313.5L181.75,313.48L181.88,310.24L182.65,313.5L182.77,313.5L183.03,312.82L183.67,313.24L183.8,313.5L184.95,313.5L185.08,312.17L185.33,311.12L185.72,313.5L185.84,313.45L185.97,313.5L187.38,313.5L187.5,310.4L188.14,313.5L188.27,313.19L188.4,313.5L190.19,313.5L190.32,311.62L191.08,313.5L191.21,313.5L191.47,312.49L191.98,313.29L192.1,313.5L193.26,313.5L193.38,306.96L194.15,313.5L194.28,313.5L196.71,313.5L196.83,308.27L197.6,313.5L197.73,313.5L200.16,313.5L200.29,311.66L201.05,313.5L201.18,313.5L201.69,313.47L201.82,312.31L202.59,313.5L202.71,313.5L202.97,313.5L203.1,311.4L203.86,313.48L203.99,313.34L205.02,313.5L205.14,313.49L206.8,313.5L206.93,312.28L207.7,313.5L207.83,313.5L209.11,313.49L209.23,307.96L209.87,313.5L210,313.44L210.13,313.5L211.15,313.5L211.28,310.92L211.79,313.5L211.92,302.27L212.68,313.5L212.81,313.5L219.84,313.5L219.97,311.37L220.35,313.5L220.73,313.45L220.86,313.38L222.01,313.5L222.14,313.5L222.4,311.72L222.78,313.5L222.91,313.49L223.93,313.5L224.06,311.17L224.57,313.5L224.83,313.48L224.96,313.32L225.85,313.49L225.98,313.33L226.23,313.03L227,313.5L227.13,313.5L228.92,313.49L229.04,313.5L229.43,312.59L229.56,313.5L229.68,313.5L229.94,310.35L230.32,313.5L230.45,313.49L232.75,313.5L232.88,296.14L233.65,313.49L233.77,313.47L237.86,313.5L237.99,309.97L238.76,313.5L238.89,313.49L240.16,313.5L240.29,309.71L241.06,313.5L241.19,313.5L245.15,313.5L245.28,312.69L246.04,313.5L246.17,313.5L247.71,313.49L247.83,311.36L248.34,313.5L248.6,312.14L248.73,313.46L248.86,313.16L249.49,313.5L249.62,313.5L250.52,313.45L250.64,313.5L251.79,313.5L251.92,313.5L252.82,313.49L252.95,310.21L253.71,313.5L253.84,313.49L256.14,312.97L256.27,306.96L256.91,313.49L257.04,313.47L257.16,313.33L258.19,313.46L258.31,310.47L258.95,313.5L259.08,313.49L259.21,313.5L259.72,313.5L259.85,311.85L260.61,313.49L260.74,313.5L261.76,313.5L261.89,306.96L262.02,305.95L262.15,313.45L262.28,311.61L262.4,313.5L262.79,313.42L262.92,313.47L268.41,313.5L268.54,313.12L268.92,313.49L269.05,313.31L269.18,311.49L269.94,313.5L270.07,313.5L271.09,313.5L271.22,312.04L271.48,313.5L271.61,307.52L272.25,313.49L272.37,313.48L272.5,313.49L280.43,313.09L280.55,307.71L281.19,313.5L281.32,313.47L281.45,312.94L282.34,313.49L282.47,313.5L286.69,313.47L286.82,311.22L287.46,313.5L287.58,313.49L287.71,313.34L289.63,313.5L289.76,309.57L290.27,313.5L290.52,313.44L290.65,313.49L298.83,313.5L298.96,311.32L299.47,313.5L299.73,313.47L299.85,313.5L299.98,311.45L300.49,313.5L300.62,313.5L302.41,313.4L302.54,312.43L302.66,312.53L302.79,312.14L302.92,313.5L307.52,313.5L307.65,311.77L308.67,313.5L308.8,313.46L311.1,313.49L311.23,309.32L311.99,313.5L312.12,313.47L314.68,313.47L314.81,311.26L315.45,313.5L315.57,313.42L315.7,313.44L316.21,313.5L316.34,311.38L317.11,313.5L317.23,313.5L321.32,313.49L321.45,312.05L321.71,311.65L321.96,313.5L322.09,305.99L322.86,313.5L322.99,313.2L323.88,313.5L324.01,313.21L324.14,313.5L324.27,295.84L325.03,313.5L325.16,313.5L328.87,313.5L328.99,310.09L329.76,313.5L329.89,313.5L330.02,312.94L330.53,313.5L330.66,313.5L331.29,313.5L331.42,310.21L332.19,313.5L332.32,313.5L334.87,313.49L335,307.29L335.77,313.5L335.9,313.5L338.71,313.5L338.84,310.27L339.6,313.5L339.73,313.5L344.33,313.5L344.46,309.27L345.23,313.5L345.35,313.5L348.68,313.5L348.81,311.66L349.19,313.5L349.32,306.68L349.95,313.5L350.08,313.45L350.21,313.49L351.23,313.47L351.36,313.5L361.2,313.5L361.33,311.81L361.84,313.49L361.97,307.71L362.74,313.49L362.87,313.5L362.99,312.01L363.63,313.31L363.76,312.54L364.4,313.49L364.53,313.46L364.65,313.47L374.62,313.5L374.75,313.49L379.35,313.43L379.48,306.09L379.86,313.5L380.25,313.49L380.38,313.41L380.63,313.49L380.76,310.69L381.53,313.49L381.65,313.5L382.55,313.47L382.68,312.49L383.44,313.49L383.57,313.5L384.72,313.5L384.85,312.16L385.62,313.5L385.74,313.5L388.05,313.5L388.17,311.51L388.94,313.5L389.07,311.6L389.83,313.5L389.96,313.5L390.22,313.5L390.35,311.51L391.11,313.5L391.24,313.49L391.5,311.71L391.88,313.5L392.01,313.5L392.14,309.93L392.65,313.5L392.77,313.39L393.16,313.45L393.28,312.59L394.05,313.5L394.18,313.5L398.01,313.5L398.14,310.02L398.91,313.5L399.04,313.47L400.95,313.33L401.08,313.49L406.07,313.48L406.19,312.18L407.09,313.49L407.22,312.58L407.98,313.5L408.11,312.93L408.88,313.49L409.01,313.5L412.97,313.48L413.1,306.17L413.86,313.5L413.99,313.48L416.93,313.5L417.06,289.68L417.82,313.49L417.95,313.5L422.94,313.12L423.06,312.47L423.83,313.5L423.96,313.34L424.98,313.45L425.11,313.49L427.15,313.5L427.28,310.19L427.54,304.37L427.92,313.49L428.05,313.48L428.18,313.5L429.2,313.5L429.33,313.5L431.5,313.49L431.63,306.57L432.52,313.5L432.65,313.48L435.08,313.5L435.21,311.76L435.85,313.5L435.98,313.49L436.1,313.5L436.87,313.49L437,311.54L437.76,313.5L437.89,313.5L444.92,313.5L445.05,312.52L445.43,309.92L445.69,313.47L445.82,313.16L445.94,313.43L446.2,311.77L446.58,313.5L446.71,313.49L450.16,313.49L450.29,310.57L451.06,313.5L451.18,312.18L451.95,313.5L452.08,313.5L459.37,313.49L459.49,311.39L460.26,313.5L460.39,313.17L460.51,313.5L460.64,307.64L461.41,313.5L461.54,313.48L461.66,313.44L464.61,313.5L464.73,312.05L465.5,313.5L465.63,313.49L467.67,313.5L467.8,309.29L468.44,313.5L468.57,313.49L468.7,310.21L469.46,313.5L469.59,313.5L471.63,313.5L471.76,310.8L472.4,313.5L472.53,313.49L472.66,313.5L473.04,313.5L473.17,312.74L473.3,311.48L473.42,313.49L473.81,313.49L473.94,313.49L476.24,313.5L476.36,311.31L477,313.5L477.13,313.49L477.26,313.5L479.94,313.5L480.07,311.91L480.96,313.5L481.09,313.5L484.54,313.5L484.67,310.25L485.44,313.5L485.57,312.35L486.33,313.5L486.46,313.5L491.7,313.5L491.83,306.31L492.6,313.5L492.72,313.5L495.54,313.5L495.66,310.4L496.43,313.5L496.56,313.5L497.84,313.5L497.97,311.19L498.73,313.5L498.86,313.5L503.08,313.5L503.21,308.71L503.97,313.5L504.1,313.5L508.44,313.5L508.57,307.1L509.34,313.5L509.47,313.5L511.64,313.5L511.77,310.41L512.28,313.5L512.54,313.45L512.66,313.5L512.92,312.71L513.43,313.5L513.56,313.5L516.63,313.5L516.75,309.33L517.01,313.49L517.52,313.46L517.65,313.48L520.2,313.5L520.33,312.72L521.1,313.49L521.23,313.42L522.12,313.5L522.25,312.42L523.02,313.5L523.14,313.5L525.06,313.5L525.19,312.73L526.08,313.5L526.21,313.5L528,313.48" style="vector-effect: non-scaling-stroke; fill: none; stroke: rgb(44, 160, 44); stroke-opacity: 1; stroke-width: 2px; opacity: 1;"/></g><g class="points"/><g class="text"/></g><g class="trace scatter trace817acc" style="stroke-miterlimit: 2; opacity: 1;"><g class="fills"/><g class="errorbars"/><g class="lines"><path class="js-line" d="M0,310.96L0.26,313.46L0.9,313.26L1.02,313.12L1.53,313.26L1.66,299.68L1.79,306.49L1.92,313.48L2.17,312.56L2.3,313.25L2.43,286L3.07,313.39L3.32,308.06L3.45,307.21L3.96,313.31L4.22,312.36L4.35,309.83L5.11,313.45L5.24,313.43L5.37,313.44L5.5,307.23L6.01,313.29L6.14,313.46L6.26,313.28L6.39,309.2L6.52,306.91L6.9,312.02L7.03,312.77L7.16,313.35L7.29,312.52L7.41,312.8L7.54,309.22L8.31,313.47L8.44,312.94L8.57,313.41L9.2,305.22L9.33,312.72L9.46,313.08L9.59,312.89L9.84,313.45L10.1,313.42L10.23,313.49L10.48,313.49L10.61,311.62L11.38,313.49L11.5,313.4L11.63,312.97L12.14,313.5L12.27,309.69L12.4,306.82L12.66,313.34L12.91,309.28L13.04,313.17L13.81,313.49L13.93,313.39L14.06,313.47L14.7,313.49L14.83,312.48L15.21,313.09L15.34,311.94L15.47,311.99L15.98,313.44L16.11,309.31L17,313.48L17.13,313.4L17.26,313.48L17.38,304.59L17.51,299.84L17.64,308.96L17.77,305.92L17.9,313.08L19.17,313.47L19.3,310.5L19.43,307.97L19.81,312.62L19.94,312.95L20.58,313.49L20.71,313.43L20.83,307L21.6,313.47L21.73,312.33L22.62,313.47L22.75,313.46L23.65,313.49L23.78,287.08L24.54,313.49L24.67,313.32L26.2,313.48L26.33,313.47L26.59,311.75L27.1,313.39L27.23,313.4L28.12,313.5L28.25,313.48L28.63,311.38L28.76,313.3L28.89,313.34L29.4,312.74L29.65,313.43L29.78,313.48L30.93,313.37L31.06,313.42L31.19,313.07L31.44,313.35L31.57,310.36L31.96,313.42L32.08,313.32L32.21,284.99L32.59,313.45L32.98,313.41L33.11,313.45L33.49,313.48L33.62,310.79L34.51,313.43L34.64,313.47L35.53,313.44L35.66,312.49L35.79,312.67L35.92,311.57L36.04,311.19L36.3,313.48L36.56,313.44L36.68,309.09L37.32,313.46L37.45,313.41L37.58,310.28L38.47,313.46L38.6,313.49L38.73,311.96L39.24,313.49L39.37,313.3L40.39,313.5L40.52,313.48L40.65,311.21L41.16,313.29L41.29,313.43L43.46,313.49L43.58,311.34L44.74,313.4L44.86,313.4L44.99,313.07L45.63,313.47L45.76,313.48L48.44,312.77L48.57,312.28L49.46,313.48L49.59,313.37L51,313.47L51.13,313.16L51.26,312.99L51.51,313.34L51.64,311.13L52.41,313.48L52.53,313.49L57.39,313.42L57.52,313.5L58.67,313.46L58.8,312.65L59.56,313.5L59.69,313.48L61.22,313.28L61.35,312.34L61.74,312.14L62.12,313.47L62.25,313.42L63.52,313.42L63.65,312.56L64.93,313.38L65.06,313.42L66.21,312.84L66.34,313.47L66.85,313.47L66.98,311.99L67.87,313.46L68,313.44L69.92,313.5L70.04,311.71L70.81,313.49L70.94,313.07L71.07,313.23L72.34,313.49L72.47,313.49L73.37,313.37L73.49,313.49L76.18,313.22L76.31,313.49L80.78,313.5L80.91,313.5L81.93,313.41L82.06,313.47L82.44,312.95L82.95,313.39L83.08,313.39L84.1,313.5L84.23,313.24L85.13,313.5L85.25,313.08L85.51,312.19L85.64,313.48L89.6,313.2L89.73,312.56L89.86,311.48L90.11,313.41L90.37,313.37L90.49,313.35L92.79,313.35L92.92,309.8L93.05,310.01L93.18,305.68L93.94,313.48L94.07,313.47L94.2,313.45L94.97,313.15L95.1,313.47L96.24,313.46L96.37,313.45L97.91,313.49L98.03,313.48L98.8,313.49L98.93,311.6L99.82,313.46L99.95,313.44L101.36,313.49L101.48,313.48L102.38,313.22L102.51,313.42L103.4,313.19L103.53,313.49L104.68,313.47L104.81,313.48L105.45,313.49L105.57,312.16L106.34,313.48L106.47,313.49L108.77,313.5L108.9,300.56L109.67,313.48L109.79,313.46L112.35,313.46L112.48,311.49L113.24,313.49L113.37,313.47L113.5,313.5L113.88,312.74L114.27,313.44L114.4,313.45L115.67,313.24L115.8,313.5L116.44,313.34L116.57,313.43L116.7,313.47L116.82,312.85L117.46,313.46L117.59,313.49L118.87,313.45L119,313.47L119.38,313.39L119.51,311.71L120.27,313.49L120.4,313.5L121.04,313.47L121.17,311.24L121.81,313.46L121.94,313.41L122.06,313.49L123.85,313.46L123.98,310.99L124.49,313.49L124.75,313.46L124.87,313.48L128.2,313.47L128.33,311.84L128.97,313.49L129.09,313.48L129.22,313.49L138.55,313.49L138.68,313.49L138.94,313.42L139.06,309.8L139.83,313.49L139.96,313.47L142,313.5L142.13,282.28L142.9,313.48L143.03,313.48L143.92,313.47L144.05,313.49L148.27,313.48L148.39,312.61L148.9,313.49L149.16,313.42L149.29,313.45L153.76,313.46L153.89,313.5L156.45,313.49L156.57,313.5L157.85,313.46L157.98,313.49L159.38,313.11L159.51,313.46L161.94,313.46L162.07,312.97L162.84,313.49L162.96,313.16L163.86,313.49L163.99,313.48L167.18,313.47L167.31,313.48L167.69,313.47L167.82,311.65L168.46,313.5L168.59,313.48L168.71,313.48L172.55,313.3L172.68,312.53L173.44,313.47L173.57,313.42L173.7,313.48L176.13,313.49L176.26,313.49L178.81,313.49L178.94,312.62L179.45,313.48L179.71,313.12L179.84,313.4L180.99,313.48L181.11,313.44L184.95,313.47L185.08,313.38L186.1,313.5L186.23,313.21L187.12,313.49L187.25,313.48L188.01,313.07L188.14,313.46L188.27,313.5L199.39,313.5L199.52,311.06L200.29,313.5L200.41,313.4L202.71,313.5L202.84,313.5L202.97,312.27L203.48,313.48L203.61,313.39L204.89,313.45L205.02,313.48L221.76,313.48L221.89,313.49L222.01,313.16L222.65,313.49L222.78,313.5L225.98,313.49L226.1,303.4L226.87,313.49L227,313.49L227.38,313.49L227.51,302.09L227.77,313.48L228.28,313.43L228.41,313.46L232.75,313.49L232.88,304L233.65,313.47L233.77,313.45L244.64,313.47L244.76,312.06L245.53,313.5L245.66,313.49L247.83,313.5L247.96,313.49L255.88,313.49L256.01,312.36L257.04,313.47L257.16,313.43L258.44,313.47L258.57,313.49L259.21,312.82L259.46,313.5L259.59,313.49L261.76,313.49L261.89,312.3L262.53,313.5L262.66,313.44L262.79,313.45L270.46,313.5L270.58,313.23L271.48,313.48L271.61,313.41L272.25,313.24L272.37,313.4L272.5,313.44L273.27,313.3L273.39,313.48L276.72,313.49L276.85,312.73L277.74,313.5L277.87,313.49L280.68,313.34L280.81,311.84L281.58,313.49L281.7,313.48L282.73,313.49L282.85,313.49L301.52,313.49L301.64,309.88L301.77,313.49L302.28,313.39L302.41,293.12L303.18,313.5L303.3,313.46L309.95,313.5L310.08,313.31L310.21,313.48L310.33,311.66L311.1,313.49L311.23,313.49L312.12,313.48L312.25,313.49L321.58,312.75L321.71,313.5L327.72,313.49L327.84,312.43L328.61,313.5L328.74,313.5L337.81,313.5L337.94,311.67L338.2,313.49L338.71,313.32L338.84,313.5L339.22,313.47L339.35,312.3L340.12,313.5L340.24,313.49L346.76,313.4L346.89,313.49L356.09,313.5L356.22,313.5L361.2,313.5L361.33,312.7L361.71,313.49L362.1,313.36L362.23,313.42L363.63,313.3L363.76,312.82L364.65,313.48L364.78,313.49L365.93,313.15L366.06,313.47L375.01,313.49L375.13,311.44L375.77,313.5L375.9,313.49L376.03,313.5L379.35,313.5L379.48,294.19L380.12,313.5L380.25,313.44L380.38,313.4L382.81,313.5L382.93,313.48L388.05,313.49L388.17,310.08L388.94,313.49L389.07,313.47L393.03,313.48L393.16,308.68L393.8,313.49L393.92,313.33L394.05,313.42L396.61,313.5L396.74,313.44L399.42,313.49L399.55,313.33L400.7,313.49L400.83,313.36L400.95,311.87L401.08,313.44L401.47,313.39L401.59,313.44L402.23,313.48L402.36,306.12L402.87,313.5L403.13,313.49L403.25,313.5L405.94,313.49L406.07,312.36L406.96,313.47L407.09,313.45L409.39,313.49L409.52,296.82L410.28,313.49L410.41,313.46L417.06,313.5L417.18,313.32L418.21,313.4L418.34,313.41L421.02,313.5L421.15,313.33L422.17,313.5L422.3,313.48L422.81,313.4L422.94,312.14L423.7,313.47L423.83,313.49L427.28,313.48L427.41,305.85L428.18,313.5L428.31,312.81L429.07,313.47L429.2,313.48L430.22,313.49L430.35,313.46L431.88,313.38L432.01,312.35L432.52,313.5L432.78,313.43L432.91,313.49L445.05,313.3L445.18,312.95L446.07,313.48L446.2,313.48L450.42,313.43L450.55,312.75L451.31,313.48L451.44,313.49L459.11,313.5L459.24,310.84L460.01,313.49L460.13,312.55L461.15,313.46L461.28,313.5L473.04,312.95L473.17,310.94L473.94,313.5L474.06,313.5L492.21,313.5L492.34,313.5L511.26,313.5L511.39,312.7L512.02,313.5L512.15,313.48L512.28,313.48L516.63,313.5L516.75,310.27L517.01,308.35L517.27,313.48L517.52,313.25L517.65,313.5L526.85,313.48L526.98,313.5L528,313.48" style="vector-effect: non-scaling-stroke; fill: none; stroke: rgb(214, 39, 40); stroke-opacity: 1; stroke-width: 2px; opacity: 1;"/></g><g class="points"/><g class="text"/></g><g class="trace scatter trace400f1c" style="stroke-miterlimit: 2; opacity: 1;"><g class="fills"/><g class="errorbars"/><g class="lines"><path class="js-line" d="M0,311.74L0.38,311.32L0.77,311.89L0.9,311.73L1.53,312.15L1.66,311.41L2.05,312.03L2.43,311.8L2.56,311.62L3.71,312.03L3.84,311.79L3.96,311.49L4.98,311.81L5.11,311.81L6.01,311.87L6.14,312.1L6.78,311.74L6.9,311.8L7.03,311.91L7.16,311.43L7.8,311.75L7.93,311.97L8.82,311.8L8.95,311.85L9.2,311.52L9.33,312.06L9.71,311.78L9.84,311.83L10.74,311.58L10.86,311.87L13.68,311.63L13.81,312.01L15.08,311.73L15.21,311.82L16.23,311.6L16.36,311.95L17.26,311.52L17.38,311.62L18.41,311.82L18.54,311.53L19.17,312.02L19.3,311.38L19.94,311.87L20.07,311.52L20.2,311.68L20.58,311.99L21.09,311.51L21.22,311.95L22.11,311.48L22.24,311.86L22.5,312.12L23.14,311.75L23.26,311.85L24.28,311.86L24.41,312.12L25.69,311.3L25.82,311.77L25.95,312.42L26.46,311.44L26.59,311.85L26.71,311.84L28.25,312.11L28.38,311.75L29.53,312.03L29.65,311.73L30.16,312.11L30.55,311.58L30.68,311.55L31.19,312.12L31.44,311.57L31.57,311.64L31.83,312.04L32.59,311.69L32.72,312.05L33.49,311.67L33.62,311.79L33.74,311.86L34.13,312.13L34.64,311.63L34.77,311.88L35.66,311.48L35.79,311.79L35.92,311.69L36.04,311.96L36.68,311.57L36.81,311.77L37.71,311.87L37.84,311.68L38.98,312.01L39.11,311.52L39.75,312.05L40.01,311.88L40.13,311.64L41.16,312.08L41.29,312.04L41.92,311.48L42.05,311.94L42.18,311.86L42.44,312.18L43.07,311.52L43.2,311.93L43.33,312.21L43.46,311.79L43.84,311.86L43.97,311.75L45.63,312.01L45.76,311.48L45.89,312.04L46.53,311.76L46.65,311.9L48.19,311.97L48.31,311.46L48.95,312.21L49.21,311.93L49.34,311.91L50.62,311.58L50.74,311.9L50.87,311.58L51.38,311.91L51.51,312.16L52.41,311.65L52.53,311.74L53.43,311.95L53.55,311.78L53.68,311.92L54.58,312.04L54.71,311.6L54.83,312.31L55.47,311.82L55.6,311.91L55.98,311.59L56.24,311.91L56.37,311.67L57.01,311.83L57.14,311.37L57.9,311.89L58.03,311.64L58.41,311.47L58.8,312.1L58.92,311.85L59.82,311.45L59.95,311.66L61.22,311.97L61.35,311.78L61.99,311.74L62.12,311.53L62.25,312.16L62.88,311.66L63.01,311.74L66.98,311.55L67.1,311.94L67.61,311.44L67.87,312.24L68,311.89L68.25,311.3L68.76,311.75L68.89,311.85L69.02,311.47L69.66,311.83L69.79,312.26L70.43,311.41L70.56,311.66L70.68,311.74L72.09,312.14L72.22,311.57L73.88,311.64L74.01,311.96L74.77,311.87L74.9,311.51L75.92,311.91L76.05,311.85L77.46,311.95L77.58,312.32L77.71,311.48L78.35,311.81L78.48,311.71L78.73,311.43L79.37,312.01L79.5,311.87L80.4,311.93L80.52,311.99L81.29,311.38L81.42,311.92L82.06,311.18L82.31,311.54L82.44,311.92L83.46,311.88L83.59,311.74L84.36,311.97L84.49,311.66L84.61,312.07L85.25,311.6L85.38,311.81L85.64,312.21L86.27,311.52L86.4,311.9L86.53,312.29L87.04,311.85L87.17,311.77L88.19,311.82L88.32,311.97L88.83,311.66L89.09,312.04L89.22,311.95L90.75,311.85L90.88,311.8L92.15,311.81L92.28,311.42L92.41,311.99L93.05,311.52L93.18,311.72L93.82,311.87L93.94,312.23L94.84,311.56L94.97,312.02L96.24,311.79L96.37,311.95L96.76,311.23L97.27,311.79L97.4,311.73L97.65,311.56L98.16,312.28L98.29,311.59L98.93,311.34L99.06,311.95L99.19,311.81L100.08,311.74L100.21,311.83L100.34,311.52L100.85,311.93L100.97,312.12L101.87,311.56L102,311.53L102.76,311.83L102.89,311.72L103.53,311.95L103.66,311.45L104.68,311.86L104.81,311.76L105.19,311.51L105.57,311.91L105.7,311.89L106.85,311.89L106.98,311.91L107.75,311.72L107.88,312.03L108.77,311.68L108.9,311.89L109.79,311.59L109.92,311.7L111.2,311.67L111.33,311.7L112.35,311.93L112.48,311.56L112.99,311.9L113.24,311.46L113.37,311.6L114.27,311.87L114.4,311.51L114.78,312L114.91,311.42L115.03,311.05L115.29,312.09L115.8,311.48L115.93,311.89L116.06,312.32L116.18,311.7L116.7,311.88L116.82,312.04L117.72,311.31L117.85,312L118.87,311.61L119,312.05L121.04,311.69L121.17,311.43L121.68,312.09L122.06,311.93L122.19,311.8L122.32,311.16L122.45,311.92L122.96,311.74L123.09,312.1L123.34,311.46L123.85,311.82L123.98,311.79L125.13,311.95L125.26,311.66L125.77,312.1L125.9,311.5L126.03,311.93L126.79,311.5L126.92,311.68L127.05,311.99L127.94,311.56L128.07,311.95L128.2,311.99L129.09,311.98L129.22,311.61L130.24,311.98L130.37,311.85L130.5,311.68L133.06,311.93L133.18,311.37L133.7,312.26L133.95,311.5L134.08,311.78L135.23,311.88L135.36,311.81L136.38,311.77L136.51,311.89L136.76,311.63L137.15,311.89L137.27,311.45L137.91,312.08L138.3,311.73L138.42,311.54L140.47,311.86L140.6,311.72L141.36,311.52L141.49,311.61L141.62,311.81L142.39,311.83L142.51,311.59L142.9,312.14L143.41,311.92L143.54,311.88L144.3,311.75L144.43,311.73L144.69,311.34L145.33,311.98L145.45,311.69L146.48,312.15L146.6,311.9L147.24,311.72L147.37,312.24L147.76,311.37L148.14,311.68L148.27,311.68L148.78,312.12L149.16,311.83L149.29,311.87L150.05,311.76L150.18,311.93L151.08,311.7L151.21,311.85L151.72,312.07L152.1,311.59L152.23,311.78L152.48,311.49L152.87,311.92L153,312.07L153.89,311.41L154.02,311.61L154.14,311.76L154.66,312.04L154.91,311.66L155.04,311.66L156.19,311.41L156.32,312.03L157.34,311.56L157.47,311.81L158.49,311.44L158.62,311.34L158.75,312.09L159.38,311.79L159.51,311.42L160.54,311.96L160.66,311.89L162.2,311.73L162.33,312.04L163.22,311.48L163.35,311.58L163.47,311.61L164.75,312.03L164.88,311.71L165.78,311.92L165.9,311.54L166.03,312.01L166.16,311.46L166.67,311.67L166.8,311.7L167.69,312.08L167.82,311.71L168.59,311.87L168.71,311.76L168.84,312.11L169.48,311.79L169.61,311.89L170.76,311.77L170.89,312L172.55,311.39L172.68,312.14L173.83,311.83L173.96,311.86L174.08,311.36L174.6,312.12L174.72,311.78L174.85,311.77L175.75,311.77L175.87,311.49L176.51,311.85L176.77,311.73L176.9,311.67L177.15,312.06L177.53,311.68L177.66,311.38L178.43,312L178.56,311.78L178.68,311.86L179.45,311.6L179.58,312.23L180.48,311.52L180.6,311.89L181.37,311.49L181.5,311.63L181.63,311.88L182.52,311.86L182.65,312.01L182.9,311.46L183.29,311.84L183.41,312.22L184.44,311.63L184.56,312.03L184.69,312.17L184.82,311.62L185.46,311.93L185.59,311.97L186.74,311.78L186.87,312.04L187.63,311.45L187.76,311.83L187.89,312.05L188.78,311.62L188.91,312.28L189.04,311.42L189.68,311.67L189.81,311.37L190.83,312.04L190.96,311.6L191.47,312.08L191.72,311.71L191.85,311.84L193,311.71L193.13,312.01L193.51,311.24L194.02,311.77L194.15,311.96L195.3,311.56L195.43,311.68L196.32,312.06L196.45,311.84L196.58,311.74L197.35,312.14L197.47,311.94L197.6,311.83L198.11,311.2L198.5,311.74L198.62,312.06L199.78,311.65L199.9,311.85L203.48,311.75L203.61,311.63L204.5,311.88L204.63,311.69L205.53,311.91L205.66,311.78L206.68,312.15L206.8,312.03L207.7,311.45L207.83,311.96L208.72,311.71L208.85,311.84L209.87,311.83L210,311.91L210.89,311.63L211.02,311.89L211.15,311.4L211.28,312.06L211.66,311.58L211.79,311.94L212.68,311.64L212.81,312.04L215.24,311.76L215.37,312.23L216.39,311.47L216.52,311.7L217.41,311.95L217.54,311.56L218.05,311.93L218.18,311.77L218.31,311.38L218.69,311.98L218.95,311.84L219.07,311.28L219.33,312.19L219.84,311.75L219.97,311.79L220.86,311.74L220.99,311.99L222.01,311.84L222.14,311.98L222.78,311.5L222.91,311.95L223.04,311.89L223.8,311.89L223.93,312.38L224.83,311.5L224.96,312.25L225.98,311.73L226.1,311.91L227.51,311.59L227.64,311.99L228.15,311.59L228.41,311.95L228.53,311.97L229.43,311.48L229.56,312.08L229.94,311.34L230.32,311.75L230.45,312.08L230.7,311.67L231.34,311.88L231.47,311.55L232.11,311.96L232.24,311.68L232.37,311.46L233.13,312.03L233.26,311.73L233.52,311.39L234.16,311.98L234.29,311.79L234.67,311.53L235.05,312.07L235.18,312.03L235.82,311.62L235.95,312.2L236.46,311.58L236.71,311.96L236.84,311.9L237.86,311.75L237.99,311.8L238.63,312.14L238.76,311.43L238.89,311.84L239.78,312.19L239.91,311.65L240.29,311.92L240.8,311.66L240.93,311.65L241.95,312.19L242.08,311.51L242.85,312.27L242.98,311.81L243.36,312.02L243.74,311.47L243.87,312.25L245.02,311.64L245.15,312.01L245.91,311.59L246.04,311.89L246.17,311.9L247.58,311.65L247.71,312.18L248.09,311.38L248.47,311.93L248.6,312.12L249.37,311.54L249.49,311.98L250.64,311.58L250.77,312.03L251.54,311.6L251.67,311.81L253.59,311.72L253.71,312.14L254.48,311.51L254.61,311.95L254.73,311.27L255.37,311.9L255.5,311.93L256.14,311.67L256.27,311.98L256.4,311.91L256.65,312.19L257.16,311.79L257.29,312.05L258.06,311.64L258.19,311.77L258.95,311.64L259.08,311.95L259.97,311.59L260.1,311.68L261.13,312.01L261.25,311.68L262.4,311.92L262.53,311.7L263.3,311.89L263.43,311.81L263.68,311.42L264.19,312.03L264.32,311.9L264.45,311.99L265.21,311.53L265.34,311.64L265.47,312.08L266.88,311.87L267.01,312.02L267.9,312.08L268.03,311.55L269.3,311.95L269.43,311.89L270.71,311.99L270.84,311.72L272.12,311.87L272.25,312L273.14,311.4L273.27,311.77L273.39,311.75L274.55,311.98L274.67,311.8L275.82,312.14L275.95,311.69L277.1,311.88L277.23,311.44L277.36,312.08L278,311.64L278.12,312.04L279.15,311.51L279.27,312.14L280.04,311.61L280.17,311.74L281.32,311.72L281.45,311.62L281.58,312.13L281.83,311.49L282.22,311.88L282.34,311.96L283.49,311.64L283.62,311.83L283.88,311.5L284.51,311.98L284.64,311.44L285.15,311.96L285.41,311.56L285.54,311.48L285.67,312.14L286.31,311.62L286.43,312.06L287.33,311.62L287.46,312.15L288.48,311.47L288.6,311.92L289.37,311.7L289.5,311.9L289.63,311.49L289.88,312.19L290.27,311.81L290.39,311.88L291.8,311.62L291.93,312.2L292.69,311.66L292.82,311.76L293.59,311.49L293.72,311.67L293.85,311.95L297.93,311.52L298.06,312.02L298.45,311.46L298.83,311.8L298.96,311.75L299.6,311.58L299.73,312.16L299.85,311.71L300.49,312.13L300.62,311.95L301.39,311.54L301.52,312.05L302.41,311.8L302.54,311.77L302.92,312.26L303.3,311.67L303.43,311.72L304.2,312.09L304.33,311.56L304.97,311.94L305.09,311.73L305.22,311.44L305.99,312.14L306.12,311.67L307.01,312.23L307.14,311.64L307.27,311.48L307.78,311.99L308.03,311.76L308.16,311.46L308.8,312.01L308.93,311.64L309.06,311.73L310.33,311.73L310.46,311.42L310.97,311.88L311.23,311.68L311.36,311.8L312.38,311.82L312.51,311.61L312.76,312.28L313.53,311.34L313.66,311.84L314.42,311.48L314.55,312.02L315.7,311.68L315.83,311.79L316.85,312.05L316.98,311.67L317.11,312.13L317.23,311.47L317.75,311.71L317.87,311.95L318.13,311.74L318.64,312.06L318.77,311.65L319.41,312.26L319.66,311.68L319.79,311.81L320.05,312.05L320.56,311.63L320.69,311.81L320.82,311.9L322.48,311.67L322.6,311.81L323.37,311.74L323.5,311.99L324.52,311.6L324.65,311.9L325.03,312.05L325.29,311.71L325.42,312.06L326.57,311.72L326.69,312.03L327.59,311.52L327.72,311.76L327.84,312.26L328.48,311.47L328.74,311.66L328.87,311.91L329.63,311.42L329.76,311.65L329.89,311.59L330.02,312.05L330.66,311.7L330.78,311.89L331.17,312.08L331.29,311.69L331.42,312.08L331.55,312.11L332.45,311.27L332.57,311.95L332.7,311.51L333.34,311.79L333.47,311.94L334.24,311.3L334.36,311.77L335.26,312L335.39,311.74L335.77,312.06L336.15,311.47L336.28,312.13L337.05,311.5L337.17,311.93L337.43,312.12L338.07,311.53L338.2,311.61L338.84,312.02L338.96,311.71L339.09,311.58L340.37,312.14L340.5,311.37L341.26,312.05L341.39,311.99L341.52,311.91L342.54,311.52L342.67,311.77L343.31,311.68L343.44,312.13L343.95,311.48L344.21,311.89L344.33,312.18L344.46,311.59L345.1,312.09L345.23,311.97L345.35,311.56L345.99,311.91L346.12,312.08L346.63,311.64L347.02,311.9L347.14,311.71L347.91,311.68L348.04,311.83L355.83,311.81L355.96,312.26L356.73,311.64L356.86,311.74L356.99,312.1L358.14,311.52L358.26,311.87L358.39,312.06L359.16,311.47L359.29,311.89L359.54,311.25L360.05,311.92L360.18,311.84L360.69,312.2L361.08,311.59L361.2,311.79L361.59,312.12L361.71,311.46L361.84,311.72L361.97,312.05L362.74,311.41L362.87,311.51L363.63,311.97L363.76,311.75L364.65,311.91L364.78,311.73L364.91,311.72L366.19,311.7L366.32,312.17L367.47,311.47L367.59,311.79L368.87,312.27L369,311.67L369.38,311.38L369.51,312.1L369.77,311.7L369.89,311.73L371.17,311.99L371.3,311.95L371.68,312.14L371.81,311.57L372.07,311.85L372.2,311.71L373.47,312.02L373.6,311.74L375.01,312.07L375.13,311.59L375.77,312.04L376.03,311.89L376.16,311.83L376.54,312.09L376.8,311.56L376.93,311.68L377.05,311.88L378.08,311.72L378.2,312.12L378.72,311.45L379.1,311.77L379.22,311.84L379.48,311.93L380.12,311.13L380.25,311.74L380.63,311.41L380.89,311.84L381.01,311.63L381.14,311.69L382.04,311.37L382.17,312.01L382.93,311.71L383.06,311.91L383.95,311.84L384.08,311.68L385.36,311.88L385.49,311.63L386.26,311.91L386.38,311.41L387.28,311.8L387.41,311.67L390.73,311.45L390.86,312.16L391.37,311.31L391.75,311.7L391.88,311.66L392.52,311.35L392.77,311.96L392.9,311.97L393.8,311.54L393.92,311.5L394.43,312.08L394.69,311.66L394.82,311.5L395.71,311.86L395.84,311.57L396.48,312.08L396.61,311.44L397.25,312.17L397.38,311.64L397.5,311.85L397.63,311.43L397.89,312.12L398.27,311.71L398.4,311.73L398.52,312.03L399.04,311.48L399.16,311.33L399.29,312.18L399.93,311.78L400.06,311.77L400.19,312.27L400.57,311.53L400.7,311.78L400.83,311.53L401.59,311.9L401.72,311.78L402.74,311.74L402.87,311.75L403.77,311.82L403.89,311.72L404.02,312.22L404.66,311.87L404.79,311.5L405.68,311.9L405.81,311.83L406.58,311.53L406.71,311.68L406.83,311.87L408.24,311.85L408.37,311.42L409.26,312.13L409.39,311.83L409.52,311.6L410.54,311.86L410.67,311.67L411.44,312.08L411.56,311.8L412.58,311.43L412.71,311.94L413.35,311.99L413.48,311.55L414.25,312.01L414.37,311.88L414.5,311.7L414.89,312.29L415.27,311.7L415.4,311.57L416.55,312.01L416.68,311.69L416.93,312.14L417.57,311.6L417.7,311.77L419.36,311.65L419.49,311.75L419.74,311.65L420.25,312.02L420.38,311.92L421.28,311.66L421.41,311.85L422.3,311.66L422.43,311.63L423.45,312.02L423.58,311.84L423.83,312.12L424.22,311.68L424.34,311.85L424.47,312.22L424.98,311.47L425.24,311.95L425.37,311.95L426.01,311.93L426.13,311.69L426.26,311.69L426.52,311.43L426.65,312.15L427.03,311.9L427.15,311.65L427.28,312.1L427.41,311.37L427.92,311.72L428.05,312.02L429.07,311.73L429.2,312.06L430.48,311.9L430.61,312.23L431.25,311.38L431.5,311.69L431.63,311.79L432.4,311.63L432.52,311.97L432.65,312.05L433.93,311.49L434.06,311.69L434.19,312.21L435.21,311.62L435.34,311.94L436.61,311.71L436.74,311.93L437,311.64L437.51,311.92L437.64,311.69L438.53,312.27L438.66,311.87L438.79,312.25L439.3,311.6L439.43,311.69L440.19,312L440.32,311.81L440.45,311.92L441.21,311.88L441.34,311.58L442.11,311.88L442.24,311.78L443.9,312.06L444.03,311.6L445.18,311.83L445.31,311.58L445.69,311.82L446.07,311.5L446.2,311.69L449.27,311.76L449.4,312.02L450.29,311.45L450.42,311.7L451.06,312.04L451.18,311.84L451.31,311.61L452.33,311.3L452.46,311.72L452.59,312.11L453.1,311.33L453.23,311.66L453.36,311.74L454.25,311.8L454.38,311.77L454.64,311.46L455.15,312.12L455.28,311.42L456.04,311.97L456.17,311.76L459.11,311.57L459.24,312.05L460.39,311.5L460.51,311.95L460.64,312.12L461.28,311.33L461.54,311.66L461.66,311.53L462.3,312.07L462.43,311.68L462.56,311.61L462.69,312.07L463.2,311.77L463.33,311.26L464.22,311.95L464.35,311.76L465.5,311.82L465.63,311.73L466.78,311.66L466.91,311.45L467.67,312.01L467.8,311.71L469.46,311.85L469.59,312.17L470.61,311.27L470.74,312.04L471.38,311.62L471.51,311.79L471.63,312.16L472.27,311.55L472.4,311.9L472.53,312L473.3,311.33L473.42,312.17L474.45,311.79L474.58,311.8L475.34,311.93L475.47,311.77L476.36,311.49L476.49,312.1L476.62,311.31L477.26,311.76L477.39,311.9L477.77,312.01L478.03,311.7L478.15,311.61L478.79,312L478.92,311.68L479.05,311.5L479.31,311.84L479.94,311.71L480.07,311.96L481.22,311.61L481.35,311.91L481.48,311.95L483.01,311.68L483.14,311.98L483.39,312.08L484.03,311.49L484.16,311.91L484.93,311.5L485.05,311.79L485.57,311.97L485.82,311.75L485.95,311.77L486.08,311.4L486.21,311.99L486.72,311.82L486.84,311.82L487.1,311.99L487.74,311.68L487.87,311.97L488.64,311.72L488.76,312.08L488.89,311.51L489.53,311.82L489.66,311.63L490.68,311.95L490.81,311.48L491.45,312.16L491.57,311.72L491.7,311.94L492.34,311.77L492.47,312.15L493.62,311.54L493.75,312.19L494.51,311.38L494.64,311.64L494.77,311.64L497.45,312.14L497.58,311.32L498.48,312.05L498.6,311.75L499.63,312.1L499.75,311.74L500.39,311.6L500.52,311.77L500.65,312.03L501.42,311.47L501.54,311.71L501.8,311.46L502.44,311.95L502.57,311.84L502.69,311.71L502.95,311.53L503.21,311.98L503.46,311.78L503.59,311.81L504.35,312.16L504.48,311.98L504.61,311.72L505.38,311.78L505.51,311.58L506.27,312.11L506.53,311.86L506.66,311.59L507.42,312.07L507.68,311.84L507.81,311.44L508.96,312.14L509.08,311.82L509.34,312.17L509.98,311.6L510.11,311.77L520.46,311.71L520.59,311.63L521.1,312.08L521.36,311.69L521.48,311.95L523.53,311.96L523.65,312.01L523.78,311.44L524.42,311.81L524.55,311.67L525.7,311.79L525.83,311.79L526.21,311.6L526.47,311.95L526.6,311.87L526.72,311.6L526.98,312.16L527.49,311.63L527.62,311.86L527.87,312L528,311.8" style="vector-effect: non-scaling-stroke; fill: none; stroke: rgb(148, 103, 189); stroke-opacity: 1; stroke-width: 2px; opacity: 1;"/></g><g class="points"/><g class="text"/></g></g></g><g class="overplot"/><path class="xlines-above crisp" d="M0,0" style="fill: none;"/><path class="ylines-above crisp" d="M0,0" style="fill: none;"/><g class="overlines-above"/><g class="xaxislayer-above"><g class="xtick"><text text-anchor="middle" x="0" y="403" transform="translate(150.99,0)" style="font-family: 'Open Sans', verdana, arial, sans-serif; font-size: 12px; fill: rgb(68, 68, 68); fill-opacity: 1; white-space: pre;">20</text></g><g class="xtick"><text text-anchor="middle" x="0" y="403" transform="translate(246.9,0)" style="font-family: 'Open Sans', verdana, arial, sans-serif; font-size: 12px; fill: rgb(68, 68, 68); fill-opacity: 1; white-space: pre;">40</text></g><g class="xtick"><text text-anchor="middle" x="0" y="403" transform="translate(342.81,0)" style="font-family: 'Open Sans', verdana, arial, sans-serif; font-size: 12px; fill: rgb(68, 68, 68); fill-opacity: 1; white-space: pre;">60</text></g><g class="xtick"><text text-anchor="middle" x="0" y="403" transform="translate(438.72,0)" style="font-family: 'Open Sans', verdana, arial, sans-serif; font-size: 12px; fill: rgb(68, 68, 68); fill-opacity: 1; white-space: pre;">80</text></g><g class="xtick"><text text-anchor="middle" x="0" y="403" transform="translate(534.63,0)" style="font-family: 'Open Sans', verdana, arial, sans-serif; font-size: 12px; fill: rgb(68, 68, 68); fill-opacity: 1; white-space: pre;">100</text></g></g><g class="yaxislayer-above"><g class="ytick"><text text-anchor="end" x="59" y="4.199999999999999" transform="translate(0,373.5)" style="font-family: 'Open Sans', verdana, arial, sans-serif; font-size: 12px; fill: rgb(68, 68, 68); fill-opacity: 1; white-space: pre;">0</text></g><g class="ytick"><text text-anchor="end" x="59" y="4.199999999999999" transform="translate(0,305.43)" style="font-family: 'Open Sans', verdana, arial, sans-serif; font-size: 12px; fill: rgb(68, 68, 68); fill-opacity: 1; white-space: pre;">5</text></g><g class="ytick"><text text-anchor="end" x="59" y="4.199999999999999" transform="translate(0,237.37)" style="font-family: 'Open Sans', verdana, arial, sans-serif; font-size: 12px; fill: rgb(68, 68, 68); fill-opacity: 1; white-space: pre;">10</text></g><g class="ytick"><text text-anchor="end" x="59" y="4.199999999999999" transform="translate(0,169.3)" style="font-family: 'Open Sans', verdana, arial, sans-serif; font-size: 12px; fill: rgb(68, 68, 68); fill-opacity: 1; white-space: pre;">15</text></g><g class="ytick"><text text-anchor="end" x="59" y="4.199999999999999" transform="translate(0,101.22999999999999)" style="font-family: 'Open Sans', verdana, arial, sans-serif; font-size: 12px; fill: rgb(68, 68, 68); fill-opacity: 1; white-space: pre;">20</text></g></g><g class="overaxes-above"/></g></g><g class="polarlayer"/><g class="ternarylayer"/><g class="geolayer"/><g class="pielayer"/><g class="glimages"/><defs id="topdefs-50bb9e"><g class="clips"/><clipPath id="legend50bb9e"><rect width="89" height="105" x="0" y="0"/></clipPath></defs><g class="layer-above"><g class="imagelayer"/><g class="shapelayer"/></g><g class="infolayer"><g class="legend" pointer-events="all" transform="translate(598.5600000000001, 60)"><rect class="bg" shape-rendering="crispEdges" width="89" height="105" x="0" y="0" style="stroke: rgb(68, 68, 68); stroke-opacity: 1; fill: rgb(255, 255, 255); fill-opacity: 1; stroke-width: 0px;"/><g class="scrollbox" transform="translate(0, 0)" clip-path="url(#legend50bb9e)"><g class="groups"><g class="traces" transform="translate(0, 14.5)" style="opacity: 1;"><g class="layers" style="opacity: 1;"><g class="legendfill"/><g class="legendlines"><path class="js-line" d="M5,0h30" style="fill: none; stroke: rgb(31, 119, 180); stroke-opacity: 1; stroke-width: 2px;"/></g><g class="legendsymbols"><g class="legendpoints"/></g></g><text class="legendtext user-select-none" text-anchor="start" x="40" y="4.680000000000001" style="font-family: 'Open Sans', verdana, arial, sans-serif; font-size: 12px; fill: rgb(68, 68, 68); fill-opacity: 1; white-space: pre;">G_GAN</text><rect class="legendtoggle" pointer-events="all" x="0" y="-9.5" width="129" height="19" style="cursor: pointer; fill: rgb(0, 0, 0); fill-opacity: 0;"/></g><g class="traces" transform="translate(0, 33.5)" style="opacity: 1;"><g class="layers" style="opacity: 1;"><g class="legendfill"/><g class="legendlines"><path class="js-line" d="M5,0h30" style="fill: none; stroke: rgb(255, 127, 14); stroke-opacity: 1; stroke-width: 2px;"/></g><g class="legendsymbols"><g class="legendpoints"/></g></g><text class="legendtext user-select-none" text-anchor="start" x="40" y="4.680000000000001" style="font-family: 'Open Sans', verdana, arial, sans-serif; font-size: 12px; fill: rgb(68, 68, 68); fill-opacity: 1; white-space: pre;">G_L1</text><rect class="legendtoggle" pointer-events="all" x="0" y="-9.5" width="129" height="19" style="cursor: pointer; fill: rgb(0, 0, 0); fill-opacity: 0;"/></g><g class="traces" transform="translate(0, 52.5)" style="opacity: 1;"><g class="layers" style="opacity: 1;"><g class="legendfill"/><g class="legendlines"><path class="js-line" d="M5,0h30" style="fill: none; stroke: rgb(44, 160, 44); stroke-opacity: 1; stroke-width: 2px;"/></g><g class="legendsymbols"><g class="legendpoints"/></g></g><text class="legendtext user-select-none" text-anchor="start" x="40" y="4.680000000000001" style="font-family: 'Open Sans', verdana, arial, sans-serif; font-size: 12px; fill: rgb(68, 68, 68); fill-opacity: 1; white-space: pre;">D_real</text><rect class="legendtoggle" pointer-events="all" x="0" y="-9.5" width="129" height="19" style="cursor: pointer; fill: rgb(0, 0, 0); fill-opacity: 0;"/></g><g class="traces" transform="translate(0, 71.5)" style="opacity: 1;"><g class="layers" style="opacity: 1;"><g class="legendfill"/><g class="legendlines"><path class="js-line" d="M5,0h30" style="fill: none; stroke: rgb(214, 39, 40); stroke-opacity: 1; stroke-width: 2px;"/></g><g class="legendsymbols"><g class="legendpoints"/></g></g><text class="legendtext user-select-none" text-anchor="start" x="40" y="4.680000000000001" style="font-family: 'Open Sans', verdana, arial, sans-serif; font-size: 12px; fill: rgb(68, 68, 68); fill-opacity: 1; white-space: pre;">D_fake</text><rect class="legendtoggle" pointer-events="all" x="0" y="-9.5" width="129" height="19" style="cursor: pointer; fill: rgb(0, 0, 0); fill-opacity: 0;"/></g><g class="traces" transform="translate(0, 90.5)" style="opacity: 1;"><g class="layers" style="opacity: 1;"><g class="legendfill"/><g class="legendlines"><path class="js-line" d="M5,0h30" style="fill: none; stroke: rgb(148, 103, 189); stroke-opacity: 1; stroke-width: 2px;"/></g><g class="legendsymbols"><g class="legendpoints"/></g></g><text class="legendtext user-select-none" text-anchor="start" x="40" y="4.680000000000001" style="font-family: 'Open Sans', verdana, arial, sans-serif; font-size: 12px; fill: rgb(68, 68, 68); fill-opacity: 1; white-space: pre;">T</text><rect class="legendtoggle" pointer-events="all" x="0" y="-9.5" width="129" height="19" style="cursor: pointer; fill: rgb(0, 0, 0); fill-opacity: 0;"/></g></g></g><rect class="scrollbar" rx="20" ry="3" width="0" height="0" x="0" y="0" style="fill: rgb(128, 139, 164); fill-opacity: 1;"/></g><g class="g-gtitle"><text class="gtitle" x="350" y="30" text-anchor="middle" dy="0em" style="font-family: 'Open Sans', verdana, arial, sans-serif; font-size: 17px; fill: rgb(68, 68, 68); opacity: 1; font-weight: normal; white-space: pre;">rss_expr4 loss over time</text></g><g class="g-xtitle"><text class="xtitle" x="324" y="442" text-anchor="middle" style="font-family: 'Open Sans', verdana, arial, sans-serif; font-size: 14px; fill: rgb(68, 68, 68); opacity: 1; font-weight: normal; white-space: pre;">epoch</text></g><g class="g-ytitle"><text class="ytitle" transform="rotate(-90,22,225)" x="22" y="225" text-anchor="middle" style="font-family: 'Open Sans', verdana, arial, sans-serif; font-size: 14px; fill: rgb(68, 68, 68); opacity: 1; font-weight: normal; white-space: pre;">loss</text></g></g></svg>