<svg class="main-svg" xmlns="http://www.w3.org/2000/svg" xmlns:xlink="http://www.w3.org/1999/xlink" width="700" height="450" style="" viewBox="0 0 700 450"><rect x="0" y="0" width="700" height="450" style="fill: rgb(255, 255, 255); fill-opacity: 1;"/><defs id="defs-2a4c94"><g class="clips"><clipPath id="clip2a4c94xyplot" class="plotclip"><rect width="528" height="330"/></clipPath><clipPath class="axesclip" id="clip2a4c94x"><rect x="60" y="0" width="528" height="450"/></clipPath><clipPath class="axesclip" id="clip2a4c94y"><rect x="0" y="60" width="700" height="330"/></clipPath><clipPath class="axesclip" id="clip2a4c94xy"><rect x="60" y="60" width="528" height="330"/></clipPath></g><g class="gradients"/></defs><g class="bglayer"/><g class="layer-below"><g class="imagelayer"/><g class="shapelayer"/></g><g class="cartesianlayer"><g class="subplot xy"><g class="layer-subplot"><g class="shapelayer"/><g class="imagelayer"/></g><g class="gridlayer"><g class="x"><path class="xgrid crisp" transform="translate(189.31,0)" d="M0,60v330" style="stroke: rgb(238, 238, 238); stroke-opacity: 1; stroke-width: 1px;"/><path class="xgrid crisp" transform="translate(321.32,0)" d="M0,60v330" style="stroke: rgb(238, 238, 238); stroke-opacity: 1; stroke-width: 1px;"/><path class="xgrid crisp" transform="translate(453.34,0)" d="M0,60v330" style="stroke: rgb(238, 238, 238); stroke-opacity: 1; stroke-width: 1px;"/><path class="xgrid crisp" transform="translate(585.36,0)" d="M0,60v330" style="stroke: rgb(238, 238, 238); stroke-opacity: 1; stroke-width: 1px;"/></g><g class="y"><path class="ygrid crisp" transform="translate(0,344.34)" d="M60,0h528" style="stroke: rgb(238, 238, 238); stroke-opacity: 1; stroke-width: 1px;"/><path class="ygrid crisp" transform="translate(0,284.66999999999996)" d="M60,0h528" style="stroke: rgb(238, 238, 238); stroke-opacity: 1; stroke-width: 1px;"/><path class="ygrid crisp" transform="translate(0,165.32999999999998)" d="M60,0h528" style="stroke: rgb(238, 238, 238); stroke-opacity: 1; stroke-width: 1px;"/><path class="ygrid crisp" transform="translate(0,105.66)" d="M60,0h528" style="stroke: rgb(238, 238, 238); stroke-opacity: 1; stroke-width: 1px;"/></g></g><g class="zerolinelayer"><path class="yzl zl crisp" transform="translate(0,225)" d="M60,0h528" style="stroke: rgb(68, 68, 68); stroke-opacity: 1; stroke-width: 1px;"/></g><path class="xlines-below"/><path class="ylines-below"/><g class="overlines-below"/><g class="xaxislayer-below"/><g class="yaxislayer-below"/><g class="overaxes-below"/><g class="plot" transform="translate(60, 60)" clip-path="url(#clip2a4c94xyplot)"><g class="scatterlayer mlayer"><g class="trace scatter trace274f0c" style="stroke-miterlimit: 2; opacity: 1;"><g class="fills"/><g class="errorbars"/><g class="lines"><path class="js-line" d="M0,165L20.06,164.27L20.13,164.26L33.57,163.32L33.64,163.31L38.85,162.89L38.92,162.86L58.27,160.7L58.34,160.69L62.77,160.53L62.84,161.63L63.69,160L63.76,159.99L69.74,159.13L69.81,162.4L70.58,159L70.65,158.99L74.03,158.47L74.1,158.46L76.63,158.07L76.71,158.05L87.19,156.29L87.26,158.43L88.18,156.13L88.25,156.11L93.38,155.15L93.45,163.04L94.23,155.01L94.3,155.03L98.94,154.06L99.01,154.05L103.8,153.08L103.87,153.06L106.54,152.51L106.61,154.23L106.68,159.92L107.32,152.4L107.39,152.4L121.25,149.2L121.32,149.21L124.7,148.35L124.77,148.33L131.81,146.59L131.88,146.57L134.13,146.01L134.2,153.51L134.97,145.84L135.04,145.82L145.74,142.88L145.81,151.97L146.58,142.63L146.66,142.62L158.13,139.25L158.2,140.26L158.27,145.9L158.83,139.05L158.9,139.05L158.97,139.02L174.94,133.9L175.01,184.28L175.79,133.63L175.86,133.59L185.36,130.36L185.43,134.4L186.27,130.1L186.34,130.04L190.78,128.39L190.85,128.36L217.94,117.98L218.01,117.93L222.52,116.1L222.59,116.06L226.25,114.57L226.32,131.96L227.09,114.24L227.16,114.2L228.08,114.15L228.15,113.76L228.22,114.04L228.85,113.48L228.92,113.48L233.85,111.38L233.92,111.87L234.76,110.93L234.83,110.92L241.87,107.7L241.94,107.76L243.42,107L243.49,107.01L245.67,106L245.74,106.91L246.58,105.59L246.65,105.56L252.21,102.93L252.28,103.01L253.34,102.39L253.41,102.41L256.43,100.96L256.5,100.96L260.31,99.1L260.38,99.88L261.22,98.62L261.29,98.6L284.02,87.49L284.09,89.57L284.87,87.09L284.94,87.05L289.86,84.62L289.93,84.58L294.86,82.24L294.93,83.2L295,83.84L295.49,81.95L295.56,81.91L300.98,79.55L301.05,79.88L301.89,78.9L301.97,78.95L303.44,78.18L303.51,78.67L304.36,77.79L304.43,77.79L305.98,76.95L306.05,76.93L312.31,73.98L312.38,74.58L313.3,73.63L313.37,73.49L317.02,71.95L317.09,72.7L317.94,71.36L318.01,71.3L333.28,64.49L333.35,67.17L334.13,64.15L334.2,64.25L338.49,62.18L338.56,63.7L339.4,61.75L339.47,61.72L369.73,49.49L369.8,49.53L372.13,48.62L372.2,48.61L375.01,47.52L375.08,47.49L386.48,43.42L386.55,43.42L389.65,42.3L389.72,42.3L395.28,40.35L395.35,40.34L416.25,33.85L416.32,34.48L416.46,33.84L416.53,33.88L416.6,41.49L417.02,33.73L417.37,33.83L417.44,33.68L418.85,33.36L418.92,33.48L419.06,34.42L419.84,32.89L419.91,33.15L420.19,33.39L420.75,32.71L420.82,33.02L420.89,33.08L421.95,32.17L422.02,32.48L422.16,32.62L422.79,32.14L422.86,32.26L422.93,32.19L423.57,31.95L423.64,31.86L423.71,31.83L425.54,31.42L425.61,31.33L426.88,30.87L426.95,30.95L427.02,31.05L427.16,31.26L428.07,30.51L428.14,30.51L429.62,30.24L429.69,30.21L430.32,30.24L430.39,29.99L430.46,29.95L435.6,28.75L435.67,29.42L436.45,28.68L436.52,28.63L437.01,28.31L437.29,28.73L437.36,28.43L438.63,28.49L438.7,28.21L439.61,27.75L439.68,27.65L442.78,26.96L442.85,26.91L443.76,26.88L443.83,26.69L443.9,26.63L446.09,26.34L446.16,27.32L446.93,26.06L447,26.1L447.07,26.33L447.35,25.95L447.71,26.81L447.78,26.16L447.85,25.98L449.82,25.64L449.89,25.71L450.73,25.26L450.8,25.31L453.9,24.53L453.97,24.86L454.04,25.01L454.39,24.47L454.53,24.47L454.6,24.37L455.73,24.23L455.8,24.11L459.46,23.51L459.53,23.45L469.38,21.83L469.45,21.97L470.65,21.45L470.72,21.8L471.07,21.99L471.49,21.28L471.56,21.41L471.63,21.35L472.97,21.14L473.04,21.33L473.95,20.92L474.02,20.9L475.01,20.8L475.08,20.74L476.35,20.63L476.42,21.3L477.26,20.43L477.33,20.43L479.51,20.2L479.58,20.09L481.84,19.82L481.91,19.77L483.38,20.05L483.52,19.65L483.59,19.58L484.16,19.93L484.44,19.65L484.51,19.59L485.42,19.37L485.5,19.57L486.69,19.43L486.76,19.18L487.82,19.28L487.89,19.13L489.01,18.97L489.08,19.06L489.15,19.28L489.65,18.86L490,18.98L490.07,19.1L491.26,18.63L491.34,18.71L491.41,18.67L492.25,18.77L492.32,18.67L494.01,18.43L494.08,18.81L494.78,18.27L494.92,18.35L494.99,18.35L496.26,18.15L496.33,18.09L499.71,17.85L499.78,17.8L500.77,17.98L500.84,17.82L502.38,17.61L502.45,17.65L504.99,17.41L505.06,17.52L507.1,17.39L507.17,17.48L508.01,17.31L508.08,17.28L509.49,17.22L509.56,17.12L510.76,17.06L510.83,17.09L512.59,17.25L512.66,17.08L512.73,17L514.07,16.9L514.14,17.25L514.91,16.89L514.98,16.97L516.39,16.85L516.46,17.29L517.3,16.69L517.37,16.68L520.54,16.69L520.61,16.65L521.31,17.07L521.45,16.97L521.53,16.88L523.07,16.88L523.14,17.04L523.78,16.59L523.92,16.67L523.99,16.74L524.76,16.54L524.83,16.86L524.9,17.27L525.54,16.6L525.68,16.67L525.75,16.68L526.45,16.82L526.52,16.74L526.59,16.68L527.86,16.6L527.93,16.65L528,16.5" style="vector-effect: non-scaling-stroke; fill: none; stroke: rgb(31, 119, 180); stroke-opacity: 1; stroke-width: 2px; opacity: 1;"/></g><g class="points"/><g class="text"/></g><g class="trace scatter tracec4230a" style="stroke-miterlimit: 2; opacity: 1;"><g class="fills"/><g class="errorbars"/><g class="lines"><path class="js-line" d="M0,165L528,165" style="vector-effect: non-scaling-stroke; fill: none; stroke: rgb(255, 127, 14); stroke-opacity: 1; stroke-width: 2px; opacity: 1;"/></g><g class="points"/><g class="text"/></g><g class="trace scatter trace3cafcd" style="stroke-miterlimit: 2; opacity: 1;"><g class="fills"/><g class="errorbars"/><g class="lines"><path class="js-line" d="M0,165L20.34,165.56L20.41,165.57L25.05,165.73L25.12,164.46L25.83,165.82L25.9,165.81L25.97,165.82L26.74,165.74L26.81,164.52L27.59,165.91L27.66,165.9L30.89,165.85L30.96,164.59L31.67,166.13L31.74,166.12L31.81,166.13L40.04,166.65L40.11,163.37L40.89,166.71L40.96,166.72L62.77,168.21L62.84,162.31L62.91,161.83L62.98,168.51L64.95,168.8L65.02,168.8L69.74,169.28L69.81,165.51L70.58,169.38L70.65,169.39L75.51,169.83L75.58,159.76L76.35,170.03L76.42,170.03L87.19,171.41L87.26,158.51L88.04,171.49L88.11,171.49L93.38,172.22L93.45,163.28L94.23,172.31L94.3,172.34L106.12,174.12L106.19,174.13L106.54,174.19L106.61,154.64L107.39,174.27L107.46,174.26L108.16,174.33L108.23,174.44L119.14,176.23L119.21,176.25L128.22,177.86L128.29,177.87L134.13,179.01L134.2,162.86L134.41,146.96L134.97,179.09L135.04,179.02L136.87,179.48L136.94,179.52L145.74,181.27L145.81,173.59L146.58,181.41L146.66,181.44L152.14,182.6L152.21,181.92L153.06,182.78L153.13,182.81L158.13,183.92L158.2,140.37L159.04,184.07L159.11,184.11L164.39,185.33L164.46,185.35L174.94,187.65L175.01,184.06L175.79,187.99L175.86,188.04L178.82,188.78L178.89,188.8L185.36,190.4L185.43,189.41L185.5,188.36L186.06,190.52L186.13,190.45L187.54,190.95L187.61,190.9L192.61,192.29L192.68,192.26L195.07,192.94L195.14,192.94L197.89,193.7L197.96,192.77L198.73,193.93L198.8,193.95L226.25,202L226.32,158.35L227.09,202.2L227.16,202.17L230.4,203.22L230.47,203.13L231.31,203.5L231.38,203.24L232.37,203.85L232.44,203.82L233.85,204.28L233.92,202.5L234.69,204.57L234.76,204.46L235.68,204.88L235.75,204.85L239.12,205.97L239.19,205.65L239.97,206.21L240.04,206.19L240.11,206.24L244.47,207.73L244.54,207.52L245.39,208.01L245.46,208.06L245.67,208.14L245.74,206.37L246.58,208.38L246.65,208.46L259.32,212.8L259.39,212.09L260.02,213.03L260.16,213L260.24,213.06L260.38,212.6L260.87,213.27L260.94,213.27L261.01,213.36L269.03,216.17L269.1,216.01L269.95,216.52L270.02,216.48L270.09,216.61L281.98,220.8L282.05,220.84L284.02,221.48L284.09,218.42L284.87,221.81L284.94,221.86L286.06,222.25L286.13,222.26L291.69,224.25L291.76,224.23L294.01,225.03L294.08,224.5L294.86,225.34L294.93,223.39L295.77,225.61L295.84,225.58L295.91,225.68L301.19,227.42L301.26,227.48L301.82,227.48L301.97,227.62L302.04,227.63L302.95,228.08L303.02,228L304.01,228.39L304.08,228.47L308.02,229.76L308.09,229.84L312.31,231.28L312.38,229.67L313.15,231.53L313.23,231.46L313.3,231.61L317.02,232.86L317.09,231.77L317.94,233.19L318.01,233.19L326.6,236.06L326.67,235.58L327.58,236.43L327.65,236.45L333.28,238.28L333.35,224.37L334.06,238.51L334.13,238.5L334.2,238.3L335.11,238.85L335.18,238.84L338.56,239.95L338.63,239.5L339.47,240.22L339.54,240.26L382.4,253.18L382.47,253.18L386.06,254.15L386.13,254.12L388.52,254.77L388.59,254.79L407.59,259.44L407.66,259.45L416.04,261.32L416.11,260.12L416.53,261.37L416.6,250.44L417.09,261.39L417.37,261.09L417.44,261.47L418.08,260.66L418.15,261.55L418.22,261.59L419.84,261.98L419.91,261.61L420.54,262.06L420.61,260.92L421.39,262.27L421.46,262.26L422.37,262.42L422.44,262.07L423.29,262.69L423.36,262.74L433.77,264.67L433.84,263.7L434.55,264.79L434.62,264.7L434.69,264.56L434.97,264.39L435.18,264.89L435.25,263.1L436.02,264.87L436.09,264.57L436.73,264.25L436.87,265.13L436.94,264.94L437.36,264.67L437.71,265.24L437.78,265.17L437.85,265.3L437.92,264.47L438.35,265.4L438.56,264.75L438.63,265.4L439.82,265.73L439.89,265.63L441.23,266.01L441.3,265.58L441.58,264.83L442.01,266.11L442.08,266.08L442.15,266.06L442.22,265.41L442.5,266.24L442.85,266.24L442.92,266.27L444.12,266.44L444.19,266.49L445.95,266.65L446.02,266.78L446.09,266.21L446.16,259.05L446.79,266.82L446.93,266.77L447,266.71L447.28,266.86L447.63,265.6L447.78,266.43L447.85,266.91L448.2,266.39L448.48,267.11L448.55,267.12L450.38,266.91L450.45,267.44L451.65,267.28L451.72,264.92L452.49,267.67L452.56,267.73L454.32,267.81L454.39,268L455.09,268.05L455.16,267.35L455.87,268.2L455.94,268.07L456.01,268.15L456.29,267.84L456.78,268.21L456.85,268.11L457.56,268.43L457.63,268.13L457.7,268.2L457.91,268.5L458.12,267.25L458.4,268.54L458.47,268.32L459.74,268.85L459.81,268.82L460.3,268.16L460.51,268.71L460.58,268.86L461.15,268.21L461.29,268.86L461.36,268.97L463.26,269.23L463.33,267.98L464.1,269.35L464.17,269.41L464.88,269.3L464.95,269.49L465.02,269.44L465.23,268.87L465.79,269.33L465.86,269.56L467.69,269.9L467.76,269.86L469.38,269.26L469.45,269.97L469.59,269.86L469.66,269.99L469.73,260.96L470.29,270.17L470.51,270L470.58,270.15L471.42,269.89L471.56,270.29L471.63,270.31L476.14,270.87L476.21,270.77L477.47,270.98L477.54,269.51L478.32,271.03L478.39,271.07L479.87,271.22L479.94,271.24L480.71,271.19L480.78,271.26L482.26,271.39L482.33,271.19L483.03,271.53L483.17,271.42L483.24,271.44L483.95,271.4L484.02,271.45L484.09,271.43L484.93,271.58L485,269.87L485.42,271.7L485.78,271.19L485.85,271.56L486.13,271.24L486.83,271.87L486.9,271.75L487.82,271.68L487.89,271.91L489.65,272.06L489.72,271.55L490.56,272.2L490.63,271.71L491.26,272.26L491.41,272.11L491.48,272.18L492.67,272.34L492.74,271.83L493.52,272.43L493.59,272.42L494.78,272.05L494.85,272.46L496.26,272.62L496.33,272.35L497.04,272.64L497.11,271.74L497.74,272.72L497.88,272.68L497.95,272.64L500.62,272.89L500.7,271.06L501.4,272.96L501.47,272.87L501.54,272.8L501.89,272.98L501.96,272.85L502.03,264.11L502.45,273.01L502.81,273L502.88,273.02L503.86,273.07L503.93,271.76L504,273.12L504.71,272.93L504.78,273.18L506.18,273.07L506.25,261.3L506.82,273.21L507.03,273.15L507.1,273.13L508.72,273.29L508.79,273.24L509.84,273.37L509.91,272.95L510.41,273.4L510.48,273.24L510.55,271.05L511.18,273.47L511.32,273.41L511.39,273.46L511.81,273L512.24,273.5L512.31,273.42L513.93,273.52L514,273.32L514.7,273.55L514.77,273.51L514.84,272.33L515.4,273.63L515.61,273.53L515.68,273.57L515.82,273.62L516.39,272.8L516.46,273.63L516.74,272.92L517.16,273.55L517.23,273.66L518.92,273.48L518.99,273.64L519.7,273.46L519.77,272.42L520.33,273.7L520.54,273.61L520.61,273.62L522.23,273.69L522.3,273.64L523.64,273.64L523.71,273.55L524.69,273.76L524.76,261.98L524.97,273.81L525.54,273.74L525.61,273.56L526.24,273.8L526.45,273.69L526.52,272.95L527.08,273.83L527.3,273.49L527.37,273.71L527.93,273.73L528,272.98" style="vector-effect: non-scaling-stroke; fill: none; stroke: rgb(44, 160, 44); stroke-opacity: 1; stroke-width: 2px; opacity: 1;"/></g><g class="points"/><g class="text"/></g><g class="trace scatter tracefedbba" style="stroke-miterlimit: 2; opacity: 1;"><g class="fills"/><g class="errorbars"/><g class="lines"><path class="js-line" d="M0,165L19.85,165.72L19.92,165.73L26.67,166.15L26.74,165.26L27.52,166.21L27.59,166.22L34.27,166.73L34.34,166L35.12,166.82L35.19,166.82L38.49,167.1L38.56,165.09L39.34,167.17L39.41,167.18L50.67,168.36L50.74,167.84L51.58,168.46L51.65,168.47L62.77,169.64L62.84,168.75L63.69,170L63.76,170.01L69.74,170.87L69.81,166.91L70.72,171.01L70.8,171L75.51,171.76L75.58,171.44L76.56,171.91L76.63,171.94L84.02,173.17L84.1,173.19L87.19,173.7L87.26,171.78L87.33,169.06L87.68,173.77L87.89,173.76L87.97,173.81L93.45,174.64L93.52,172.44L94.23,174.98L94.3,174.96L94.37,175.02L106.54,177.49L106.61,176.13L106.68,172.84L107.32,177.59L107.39,177.59L134.13,183.98L134.2,173.7L134.27,171.78L134.55,183.76L134.62,183.91L135.96,184.39L136.03,184.41L138.98,185.27L139.06,185.27L145.74,187.11L145.81,162.31L146.58,187.36L146.66,187.31L149.26,188.15L149.33,188.17L152.14,188.97L152.21,187.15L152.99,189.24L153.06,189.27L158.13,190.74L158.2,189.68L158.27,186.98L158.83,190.93L158.9,190.93L158.97,190.96L172.13,195.18L172.2,195.19L174.94,196.1L175.01,145.19L175.79,196.37L175.86,196.4L184.52,199.37L184.59,199.3L185.36,199.62L185.43,170.21L186.2,199.81L186.27,199.42L186.34,199.93L187.82,200.39L187.89,199.79L187.96,200.54L191.2,201.7L191.27,201.79L202.11,205.77L202.18,205.05L203.02,206.15L203.09,206.2L226.25,215.4L226.32,214.12L227.16,215.76L227.23,215.79L227.93,215.58L228,216.13L228.08,215.17L228.71,216.46L228.78,216.5L232.65,218.1L232.72,217.34L233.49,218.49L233.56,218.48L233.63,218.43L234.76,219.03L234.83,219.05L245.67,224L245.74,214.03L246.51,224.34L246.58,224.39L247.36,224.66L247.43,224.75L249.61,225.87L249.68,225.89L260.31,230.9L260.38,227.55L261.08,231.31L261.15,231.3L261.22,231.37L274.38,237.81L274.45,237.87L278.18,239.68L278.25,239.72L283.39,242.22L283.46,242.13L284.02,242.49L284.09,239L284.87,242.89L284.94,242.94L289.86,245.37L289.93,245.42L294.86,247.73L294.93,207.3L295.7,248.15L295.77,248.15L298.73,249.62L298.8,249.51L298.87,249.23L299.43,249.87L299.5,249.8L299.57,249.92L299.78,249.99L299.85,249.33L300.21,250.09L300.28,250.27L300.98,250.44L301.05,242.18L301.75,250.92L301.82,250.73L301.89,251.08L302.95,251.05L303.02,251.61L303.44,251.8L303.51,249.66L304.15,252.15L304.29,252.09L304.36,252.2L308.51,254.17L308.58,254.05L309.49,254.64L309.57,254.49L309.85,254.32L310.76,255.26L310.83,255.2L311.89,255.79L311.96,255.82L312.31,255.99L312.38,255.23L313.3,256.36L313.37,256.5L316.95,258.05L317.02,257.7L317.09,256.91L317.94,258.63L318.01,258.68L333.28,265.5L333.35,263.97L334.13,265.84L334.2,265.72L334.27,265.77L336.31,266.78L336.38,266.81L338.49,267.81L338.56,264.79L339.33,268.22L339.4,268.21L345.17,270.66L345.24,270.68L355.59,274.9L355.66,274.95L360.3,276.79L360.37,276.77L362.77,277.74L362.84,277.59L363.75,278.08L363.82,278.19L377.26,283.25L377.33,283.17L379.37,284.05L379.45,284.09L416.25,296.12L416.32,295.44L416.46,296.15L416.53,296.06L416.6,279.34L417.02,296.25L417.37,296.14L417.44,296.3L418.71,296.76L418.78,296.62L418.85,296.58L419.06,293.24L419.28,296.91L419.35,296.98L420.19,296.25L420.26,296.91L420.75,297.04L420.82,296.68L420.89,296.38L421.81,297.78L421.88,297.81L422.16,297.33L422.65,297.72L422.72,297.68L425.33,298.42L425.4,296.98L426.31,298.98L426.38,299.03L427.37,299.2L427.44,299.26L428.99,299.54L429.06,298.91L429.76,299.83L429.83,298.82L429.9,298.38L429.97,299.94L430.39,300L430.46,300.03L432.29,300.48L432.36,299.4L432.93,300.62L433.14,299.78L433.21,300.48L434.05,300.93L434.12,300.79L434.19,300.78L434.83,301.15L434.9,301.08L434.97,300.62L435.53,301.27L435.6,301.2L435.67,295.84L436.09,301.34L436.45,301.26L436.52,298.34L437.01,301.67L437.29,301.22L437.36,301.54L437.92,301.09L438.06,301.73L438.14,301.86L438.27,301.35L438.84,302.03L438.91,302L440.81,302.54L440.88,302.45L442.85,303.07L442.92,303.08L444.61,303.33L444.68,303.23L445.24,303.67L445.45,303.36L445.52,303.17L446.02,303.75L446.16,302.68L446.3,303.45L446.37,303.68L446.44,303.13L446.65,303.89L447.14,303.32L447.21,303.85L447.49,303.34L447.56,304.02L447.63,303.54L447.71,302.18L448.41,304.21L448.55,304.01L448.62,304.21L449.32,303.37L449.46,304.01L449.53,304.33L450.31,304.43L450.38,304.7L451.08,304.49L451.22,304.66L451.29,304.75L451.72,304.96L451.93,304.2L452,304.86L452.07,304.82L452.28,304.21L452.7,305.12L452.77,305.04L453.55,305.37L453.62,305.17L454.04,304.33L454.46,305.53L454.53,305.45L455.45,305.73L455.52,305.74L456.64,305.79L456.71,305.51L457.49,306.11L457.56,305.7L458.82,306.33L458.89,306.35L460.02,306.58L460.09,305.14L460.94,306.85L461.01,306.86L461.57,306.36L461.85,306.92L461.92,307.04L463.12,307.16L463.19,307.24L463.4,306.65L464.31,307.16L464.38,306.59L465.02,307.58L465.09,307.51L465.16,306.87L466,307.73L466.07,307.78L467.2,308.06L467.27,307.21L467.76,308.17L468.04,308L468.11,308.1L468.39,306.63L468.46,308.04L468.54,308.06L469.66,308.28L469.73,307.74L470.58,308.55L470.65,308.51L470.72,307.41L471.28,308.59L471.35,308.54L471.42,308.67L472.12,308.57L472.27,308.82L472.34,308.83L473.04,308.49L473.11,308.86L473.18,308.94L473.74,308.77L474.02,309.08L474.09,309.09L474.73,308.97L474.87,309.13L474.94,309.22L476.35,309.36L476.42,308.66L476.49,308.09L476.98,309.52L477.05,309.45L477.12,309.48L480.57,309.94L480.64,309.81L482.89,310.3L482.96,310.18L483.38,309.61L484.09,310.44L484.16,309.61L485,310.59L485.07,310.51L485.78,310.45L485.85,309.53L486.48,310.68L486.62,310.47L486.69,310.32L487.25,310.8L487.47,310.69L487.54,310.74L488.8,310.74L488.87,309.69L489.65,311.12L489.72,311.02L490.7,310.9L490.77,311.17L492.11,311.27L492.18,311.4L492.95,311.37L493.02,311.44L494.01,311.56L494.08,310.96L494.78,311.72L494.85,311.58L494.92,311.55L496.05,311.71L496.12,311.62L496.82,311.91L496.89,311.82L496.97,311.78L497.88,312.01L497.95,311.96L499.71,312.14L499.78,312.18L500.55,312.2L500.62,312.25L500.7,312.22L500.77,311.97L501.47,312.25L501.54,312.17L503.3,312.41L503.37,312.31L504,312.57L504.14,312.25L504.21,312.37L505.27,312.53L505.34,311.17L505.9,312.68L506.11,312.52L506.18,312.15L506.82,312.64L506.96,312.46L507.03,312.59L508.22,312.61L508.3,312.73L511.32,312.97L511.39,312.67L512.16,312.95L512.24,312.89L512.31,312.57L512.45,312.37L513.22,312.96L513.29,312.89L513.43,312.82L514.07,313.09L514.14,312.58L514.91,313.1L514.98,313.02L515.82,313.21L515.9,312.67L516.46,312.42L516.67,313.22L516.74,313.13L519.7,313.19L519.77,313.07L519.98,312.29L520.61,313.35L520.68,313.05L521.67,313.18L521.74,313.03L522.02,313.41L522.51,313.27L522.58,313.15L523.14,312.91L523.35,313.44L523.42,313.18L523.57,313.07L524.2,313.48L524.27,313.36L524.34,313.24L524.9,312.85L525.11,313.34L525.19,313.28L525.33,312.68L525.54,313.4L525.89,313.13L525.96,313.33L526.03,313.03L526.66,313.34L526.73,313.42L526.87,313.12L527.44,313.27L527.51,313.4L528,313.5" style="vector-effect: non-scaling-stroke; fill: none; stroke: rgb(214, 39, 40); stroke-opacity: 1; stroke-width: 2px; opacity: 1;"/></g><g class="points"/><g class="text"/></g><g class="trace scatter trace1efd53" style="stroke-miterlimit: 2; opacity: 1;"><g class="fills"/><g class="errorbars"/><g class="lines"><path class="js-line" d="M0,165L528,165" style="vector-effect: non-scaling-stroke; fill: none; stroke: rgb(148, 103, 189); stroke-opacity: 1; stroke-width: 2px; opacity: 1;"/></g><g class="points"/><g class="text"/></g></g></g><g class="overplot"/><path class="xlines-above crisp" d="M0,0" style="fill: none;"/><path class="ylines-above crisp" d="M0,0" style="fill: none;"/><g class="overlines-above"/><g class="xaxislayer-above"><g class="xtick"><text text-anchor="middle" x="0" y="403" transform="translate(189.31,0)" style="font-family: 'Open Sans', verdana, arial, sans-serif; font-size: 12px; fill: rgb(68, 68, 68); fill-opacity: 1; white-space: pre;">50</text></g><g class="xtick"><text text-anchor="middle" x="0" y="403" transform="translate(321.32,0)" style="font-family: 'Open Sans', verdana, arial, sans-serif; font-size: 12px; fill: rgb(68, 68, 68); fill-opacity: 1; white-space: pre;">100</text></g><g class="xtick"><text text-anchor="middle" x="0" y="403" transform="translate(453.34,0)" style="font-family: 'Open Sans', verdana, arial, sans-serif; font-size: 12px; fill: rgb(68, 68, 68); fill-opacity: 1; white-space: pre;">150</text></g><g class="xtick"><text text-anchor="middle" x="0" y="403" transform="translate(585.36,0)" style="font-family: 'Open Sans', verdana, arial, sans-serif; font-size: 12px; fill: rgb(68, 68, 68); fill-opacity: 1; white-space: pre;">200</text></g></g><g class="yaxislayer-above"><g class="ytick"><text text-anchor="end" x="59" y="4.199999999999999" transform="translate(0,344.34)" style="font-family: 'Open Sans', verdana, arial, sans-serif; font-size: 12px; fill: rgb(68, 68, 68); fill-opacity: 1; white-space: pre;">−2M</text></g><g class="ytick"><text text-anchor="end" x="59" y="4.199999999999999" transform="translate(0,284.66999999999996)" style="font-family: 'Open Sans', verdana, arial, sans-serif; font-size: 12px; fill: rgb(68, 68, 68); fill-opacity: 1; white-space: pre;">−1M</text></g><g class="ytick"><text text-anchor="end" x="59" y="4.199999999999999" transform="translate(0,225)" style="font-family: 'Open Sans', verdana, arial, sans-serif; font-size: 12px; fill: rgb(68, 68, 68); fill-opacity: 1; white-space: pre;">0</text></g><g class="ytick"><text text-anchor="end" x="59" y="4.199999999999999" transform="translate(0,165.32999999999998)" style="font-family: 'Open Sans', verdana, arial, sans-serif; font-size: 12px; fill: rgb(68, 68, 68); fill-opacity: 1; white-space: pre;">1M</text></g><g class="ytick"><text text-anchor="end" x="59" y="4.199999999999999" transform="translate(0,105.66)" style="font-family: 'Open Sans', verdana, arial, sans-serif; font-size: 12px; fill: rgb(68, 68, 68); fill-opacity: 1; white-space: pre;">2M</text></g></g><g class="overaxes-above"/></g></g><g class="polarlayer"/><g class="ternarylayer"/><g class="geolayer"/><g class="pielayer"/><g class="glimages"/><defs id="topdefs-2a4c94"><g class="clips"/><clipPath id="legend2a4c94"><rect width="89" height="105" x="0" y="0"/></clipPath></defs><g class="layer-above"><g class="imagelayer"/><g class="shapelayer"/></g><g class="infolayer"><g class="legend" pointer-events="all" transform="translate(598.5600000000001, 60)"><rect class="bg" shape-rendering="crispEdges" width="89" height="105" x="0" y="0" style="stroke: rgb(68, 68, 68); stroke-opacity: 1; fill: rgb(255, 255, 255); fill-opacity: 1; stroke-width: 0px;"/><g class="scrollbox" transform="translate(0, 0)" clip-path="url(#legend2a4c94)"><g class="groups"><g class="traces" transform="translate(0, 14.5)" style="opacity: 1;"><g class="layers" style="opacity: 1;"><g class="legendfill"/><g class="legendlines"><path class="js-line" d="M5,0h30" style="fill: none; stroke: rgb(31, 119, 180); stroke-opacity: 1; stroke-width: 2px;"/></g><g class="legendsymbols"><g class="legendpoints"/></g></g><text class="legendtext user-select-none" text-anchor="start" x="40" y="4.680000000000001" style="font-family: 'Open Sans', verdana, arial, sans-serif; font-size: 12px; fill: rgb(68, 68, 68); fill-opacity: 1; white-space: pre;">G_GAN</text><rect class="legendtoggle" pointer-events="all" x="0" y="-9.5" width="129" height="19" style="cursor: pointer; fill: rgb(0, 0, 0); fill-opacity: 0;"/></g><g class="traces" transform="translate(0, 33.5)" style="opacity: 1;"><g class="layers" style="opacity: 1;"><g class="legendfill"/><g class="legendlines"><path class="js-line" d="M5,0h30" style="fill: none; stroke: rgb(255, 127, 14); stroke-opacity: 1; stroke-width: 2px;"/></g><g class="legendsymbols"><g class="legendpoints"/></g></g><text class="legendtext user-select-none" text-anchor="start" x="40" y="4.680000000000001" style="font-family: 'Open Sans', verdana, arial, sans-serif; font-size: 12px; fill: rgb(68, 68, 68); fill-opacity: 1; white-space: pre;">G_L1</text><rect class="legendtoggle" pointer-events="all" x="0" y="-9.5" width="129" height="19" style="cursor: pointer; fill: rgb(0, 0, 0); fill-opacity: 0;"/></g><g class="traces" transform="translate(0, 52.5)" style="opacity: 1;"><g class="layers" style="opacity: 1;"><g class="legendfill"/><g class="legendlines"><path class="js-line" d="M5,0h30" style="fill: none; stroke: rgb(44, 160, 44); stroke-opacity: 1; stroke-width: 2px;"/></g><g class="legendsymbols"><g class="legendpoints"/></g></g><text class="legendtext user-select-none" text-anchor="start" x="40" y="4.680000000000001" style="font-family: 'Open Sans', verdana, arial, sans-serif; font-size: 12px; fill: rgb(68, 68, 68); fill-opacity: 1; white-space: pre;">D_real</text><rect class="legendtoggle" pointer-events="all" x="0" y="-9.5" width="129" height="19" style="cursor: pointer; fill: rgb(0, 0, 0); fill-opacity: 0;"/></g><g class="traces" transform="translate(0, 71.5)" style="opacity: 1;"><g class="layers" style="opacity: 1;"><g class="legendfill"/><g class="legendlines"><path class="js-line" d="M5,0h30" style="fill: none; stroke: rgb(214, 39, 40); stroke-opacity: 1; stroke-width: 2px;"/></g><g class="legendsymbols"><g class="legendpoints"/></g></g><text class="legendtext user-select-none" text-anchor="start" x="40" y="4.680000000000001" style="font-family: 'Open Sans', verdana, arial, sans-serif; font-size: 12px; fill: rgb(68, 68, 68); fill-opacity: 1; white-space: pre;">D_fake</text><rect class="legendtoggle" pointer-events="all" x="0" y="-9.5" width="129" height="19" style="cursor: pointer; fill: rgb(0, 0, 0); fill-opacity: 0;"/></g><g class="traces" transform="translate(0, 90.5)" style="opacity: 1;"><g class="layers" style="opacity: 1;"><g class="legendfill"/><g class="legendlines"><path class="js-line" d="M5,0h30" style="fill: none; stroke: rgb(148, 103, 189); stroke-opacity: 1; stroke-width: 2px;"/></g><g class="legendsymbols"><g class="legendpoints"/></g></g><text class="legendtext user-select-none" text-anchor="start" x="40" y="4.680000000000001" style="font-family: 'Open Sans', verdana, arial, sans-serif; font-size: 12px; fill: rgb(68, 68, 68); fill-opacity: 1; white-space: pre;">T_B</text><rect class="legendtoggle" pointer-events="all" x="0" y="-9.5" width="129" height="19" style="cursor: pointer; fill: rgb(0, 0, 0); fill-opacity: 0;"/></g></g></g><rect class="scrollbar" rx="20" ry="3" width="0" height="0" x="0" y="0" style="fill: rgb(128, 139, 164); fill-opacity: 1;"/></g><g class="g-gtitle"><text class="gtitle" x="350" y="30" text-anchor="middle" dy="0em" style="font-family: 'Open Sans', verdana, arial, sans-serif; font-size: 17px; fill: rgb(68, 68, 68); opacity: 1; font-weight: normal; white-space: pre;">rss_expr4.2 loss over time</text></g><g class="g-xtitle"><text class="xtitle" x="324" y="442" text-anchor="middle" style="font-family: 'Open Sans', verdana, arial, sans-serif; font-size: 14px; fill: rgb(68, 68, 68); opacity: 1; font-weight: normal; white-space: pre;">epoch</text></g><g class="g-ytitle"><text class="ytitle" transform="rotate(-90,22,225)" x="22" y="225" text-anchor="middle" style="font-family: 'Open Sans', verdana, arial, sans-serif; font-size: 14px; fill: rgb(68, 68, 68); opacity: 1; font-weight: normal; white-space: pre;">loss</text></g></g></svg>