<svg class="main-svg" xmlns="http://www.w3.org/2000/svg" xmlns:xlink="http://www.w3.org/1999/xlink" width="700" height="450" style="" viewBox="0 0 700 450"><rect x="0" y="0" width="700" height="450" style="fill: rgb(255, 255, 255); fill-opacity: 1;"/><defs id="defs-222f22"><g class="clips"><clipPath id="clip222f22xyplot" class="plotclip"><rect width="528" height="330"/></clipPath><clipPath class="axesclip" id="clip222f22x"><rect x="60" y="0" width="528" height="450"/></clipPath><clipPath class="axesclip" id="clip222f22y"><rect x="0" y="60" width="700" height="330"/></clipPath><clipPath class="axesclip" id="clip222f22xy"><rect x="60" y="60" width="528" height="330"/></clipPath></g><g class="gradients"/></defs><g class="bglayer"/><g class="layer-below"><g class="imagelayer"/><g class="shapelayer"/></g><g class="cartesianlayer"><g class="subplot xy"><g class="layer-subplot"><g class="shapelayer"/><g class="imagelayer"/></g><g class="gridlayer"><g class="x"><path class="xgrid crisp" transform="translate(189.25,0)" d="M0,60v330" style="stroke: rgb(238, 238, 238); stroke-opacity: 1; stroke-width: 1px;"/><path class="xgrid crisp" transform="translate(321.29,0)" d="M0,60v330" style="stroke: rgb(238, 238, 238); stroke-opacity: 1; stroke-width: 1px;"/><path class="xgrid crisp" transform="translate(453.32,0)" d="M0,60v330" style="stroke: rgb(238, 238, 238); stroke-opacity: 1; stroke-width: 1px;"/><path class="xgrid crisp" transform="translate(585.36,0)" d="M0,60v330" style="stroke: rgb(238, 238, 238); stroke-opacity: 1; stroke-width: 1px;"/></g><g class="y"><path class="ygrid crisp" transform="translate(0,353.52)" d="M60,0h528" style="stroke: rgb(238, 238, 238); stroke-opacity: 1; stroke-width: 1px;"/><path class="ygrid crisp" transform="translate(0,310.68)" d="M60,0h528" style="stroke: rgb(238, 238, 238); stroke-opacity: 1; stroke-width: 1px;"/><path class="ygrid crisp" transform="translate(0,267.84000000000003)" d="M60,0h528" style="stroke: rgb(238, 238, 238); stroke-opacity: 1; stroke-width: 1px;"/><path class="ygrid crisp" transform="translate(0,182.17000000000002)" d="M60,0h528" style="stroke: rgb(238, 238, 238); stroke-opacity: 1; stroke-width: 1px;"/><path class="ygrid crisp" transform="translate(0,139.32999999999998)" d="M60,0h528" style="stroke: rgb(238, 238, 238); stroke-opacity: 1; stroke-width: 1px;"/><path class="ygrid crisp" transform="translate(0,96.49000000000001)" d="M60,0h528" style="stroke: rgb(238, 238, 238); stroke-opacity: 1; stroke-width: 1px;"/></g></g><g class="zerolinelayer"><path class="yzl zl crisp" transform="translate(0,225)" d="M60,0h528" style="stroke: rgb(68, 68, 68); stroke-opacity: 1; stroke-width: 1px;"/></g><path class="xlines-below"/><path class="ylines-below"/><g class="overlines-below"/><g class="xaxislayer-below"/><g class="yaxislayer-below"/><g class="overaxes-below"/><g class="plot" transform="translate(60, 60)" clip-path="url(#clip222f22xyplot)"><g class="scatterlayer mlayer"><g class="trace scatter trace905263" style="stroke-miterlimit: 2; opacity: 1;"><g class="fills"/><g class="errorbars"/><g class="lines"><path class="js-line" d="M0,165L14.64,164.43L14.78,164.4L31.25,163.24L31.39,163.79L32.52,162.94L32.66,162.92L43.92,161.69L44.06,162.95L44.9,161.58L45.04,161.56L53.21,160.51L53.35,160.49L63.34,159.09L63.48,162.81L63.91,159.08L64.19,159.13L64.33,160.85L65.17,158.8L65.31,158.78L68.41,158.33L68.55,161.46L69.4,158.16L69.54,158.13L73.9,157.47L74.04,159.24L74.89,157.25L75.03,157.23L76.01,157.05L76.15,157.02L82.35,156.2L82.49,158.4L83.33,155.77L83.47,155.75L84.18,155.96L84.32,156.4L85.3,155.38L85.44,155.36L90.93,154.65L91.07,162.21L91.5,154.28L91.92,154.36L92.06,154.18L97.69,152.84L97.83,152.8L98.39,152.74L98.53,155.42L99.24,152.62L99.38,152.78L99.52,152.6L101.07,152.17L101.21,152.14L109.23,150.68L109.37,150.32L110.08,150.16L110.22,150.84L110.36,153.48L110.78,150.24L110.92,150.27L111.06,150.03L113.31,149.46L113.45,149.6L114.02,149.28L114.16,149.97L114.3,150.3L114.58,149.52L114.72,149.3L116.13,148.8L116.27,148.76L117.11,148.86L117.26,152.04L118.1,148.3L118.24,148.26L121.2,147.49L121.34,147.45L124.29,146.68L124.43,146.63L130.49,145.13L130.63,153.97L131.47,144.88L131.61,144.83L132.03,145.02L132.18,145.53L133.44,144.32L133.58,144.27L137.38,143.35L137.52,143.28L142.17,142.19L142.31,142.56L142.73,141.8L143.16,141.9L143.3,141.69L147.8,140.24L147.94,140.22L149.49,139.82L149.63,144.21L149.77,144.29L149.91,140.06L150.05,140.93L150.34,139.68L150.47,139.66L150.62,139.6L152.45,138.94L152.59,138.9L154.28,138.49L154.42,139.06L155.4,138.13L155.54,138.06L157.94,137.32L158.08,137.54L159.48,136.77L159.62,136.76L161.45,136.38L161.6,145.09L162.44,136.06L162.58,135.94L166.38,134.63L166.52,134.57L166.94,134.97L167.09,141.3L167.79,134.3L167.93,134.45L168.07,134.61L170.89,133.19L171.03,148.77L171.87,132.92L172.01,132.89L174.97,131.79L175.11,131.95L175.25,132.37L175.67,131.55L175.81,131.49L176.38,131.53L176.52,132.31L177.64,131.14L177.78,130.94L180.03,130.06L180.18,130.01L184.54,128.45L184.68,128.39L189.47,126.68L189.61,126.85L191.3,126.05L191.44,125.98L192.7,125.57L192.84,137.67L193.55,125.71L193.69,125.93L193.83,125.27L195.66,124.46L195.8,124.41L196.08,124.41L196.22,125.08L201.15,122.43L201.29,123.72L202.14,121.97L202.28,121.93L204.81,121.2L204.95,127.51L205.8,120.76L205.93,120.65L208.89,119.38L209.03,119.69L210.44,118.73L210.58,118.74L214.8,117.06L214.94,117.29L216.91,116.21L217.06,116.17L218.46,115.52L218.6,115.48L219.31,115.19L219.45,115.1L220.15,114.82L220.29,115.84L220.86,114.6L221.14,114.95L221.28,114.44L228.04,111.47L228.18,112L229.86,110.65L230.01,110.63L234.09,108.8L234.23,108.84L236.2,107.9L236.34,107.87L236.62,109.83L236.76,174.49L237.61,107.58L237.75,107.5L238.59,107.12L238.73,107.53L238.87,117.73L239.72,106.75L239.86,106.64L240.42,106.35L240.56,107.02L240.7,107.3L241.69,105.76L241.83,105.69L242.53,105.33L242.68,105.76L242.81,106.59L243.66,104.82L243.8,104.86L245.21,104.18L245.35,104.09L245.77,104.32L246.05,103.93L246.19,103.74L246.9,103.39L247.04,104.24L248.02,102.87L248.16,102.75L253.65,100.18L253.79,101.47L254.36,99.83L254.5,100.12L254.64,101.09L255.48,99.22L255.63,99.13L266.74,94.17L266.89,94.35L267.73,93.42L267.87,93.53L268.43,93.12L268.58,93.21L268.72,104.84L269.56,92.47L269.7,92.4L270.97,92.23L271.11,92.81L271.95,91.24L272.09,91.18L276.04,89.33L276.18,89.25L276.88,88.96L277.02,98.85L277.86,88.55L278.01,88.37L280.54,87.03L280.68,86.98L281.81,86.44L281.95,86.37L283.07,85.87L283.21,86.48L283.35,87.39L284.48,85.21L284.62,85.14L290.96,82.38L291.1,83.07L291.94,81.64L292.08,81.57L297.57,79.28L297.71,78.94L298.42,79L298.56,78.64L300.95,77.39L301.09,77.42L302.22,76.99L302.36,77.43L303.48,76.22L303.62,76.24L303.76,76.17L303.91,82.54L304.75,75.64L304.89,75.57L311.79,72.74L311.93,91.53L312.77,72.07L312.91,72.6L313.06,73.24L313.34,71.84L313.48,71.69L318.12,69.56L318.26,69.51L318.55,69.69L318.69,79.59L319.53,68.93L319.67,68.85L323.05,67.36L323.19,68.53L324.04,66.89L324.18,66.83L325.16,66.48L325.3,66.39L336.28,61.92L336.42,62.51L337.55,61.01L337.69,60.95L341.77,59.44L341.91,63.89L342.62,59L342.76,59.05L342.9,58.84L343.74,58.52L343.88,58.91L344.02,60.22L344.87,58.1L345.01,58.03L345.43,57.83L345.57,58.21L345.71,58.68L346.7,57.24L346.84,57.18L347.97,57.45L348.11,56.76L349.79,56.13L349.94,56.68L351.2,55.6L351.34,55.51L351.76,56.52L351.91,55.43L353.03,54.72L353.17,54.64L357.4,53.04L357.54,53.51L357.68,53.83L357.82,53.42L357.96,53.7L358.1,55.5L358.8,52.45L358.94,52.97L359.08,52.34L359.93,52.31L360.07,51.95L360.63,52.23L360.77,52.89L361.76,51.27L361.9,51.2L366.97,49.21L367.11,49.89L368.66,48.6L368.8,48.61L369.36,48.77L369.5,48.5L369.64,48.32L372.46,47.19L372.6,47.65L372.74,50.32L373.58,46.78L373.72,46.69L378.51,44.95L378.65,44.85L380.2,44.35L380.34,46.34L380.76,44.17L381.18,44.25L381.33,44L382.17,43.7L382.31,44.6L382.87,45.12L383.15,43.4L383.3,43.33L386.53,42.11L386.67,42.07L387.38,42L387.52,42.58L388.5,41.49L388.64,41.44L389.21,41.35L389.35,42.4L390.19,40.95L390.33,41.75L390.48,41.84L390.62,41.01L392.16,40.14L392.3,40.13L393.99,39.63L394.13,40.18L395.26,39.1L395.4,39.04L397.23,38.53L397.37,45.47L398.22,38.25L398.36,38.17L399.06,37.85L399.2,37.79L404.69,36.14L404.83,37.37L405.54,35.86L405.68,35.88L405.82,37.26L406.38,35.67L406.66,35.93L406.8,36.17L407.65,35.26L407.79,35.23L415.25,33.22L415.39,33.8L416.38,32.73L416.52,32.78L416.8,33.32L417.08,32.53L417.22,32.46L417.64,32.62L417.78,33.36L418.63,32.14L418.77,32.08L421.72,31.28L421.87,31.99L422.71,31.2L422.85,31.42L423.13,30.93L423.27,31.44L423.41,32.18L424.26,30.63L424.4,30.5L425.1,30.52L425.24,31.43L425.66,30.24L425.81,31.39L425.95,32.22L426.79,30.29L426.93,30.1L427.07,29.99L427.21,30.91L427.64,29.87L427.92,32.79L428.06,30.11L429.04,29.48L429.18,29.44L431.44,29.25L431.58,29.36L432.14,29.44L432.28,28.79L434.11,28.17L434.25,30.96L435.1,28.03L435.24,29.17L435.38,29.54L435.52,28.31L435.66,27.91L436.93,27.64L437.07,27.98L437.21,28.67L437.77,27.35L437.91,27.61L438.05,29.02L438.76,27.13L438.9,27.16L439.04,28.91L439.6,26.88L439.88,27.28L440.02,27.6L441.01,26.45L441.15,26.44L441.43,27.1L441.85,26.51L441.99,26.45L442.28,26.28L442.42,27.09L442.56,27.03L442.7,27.59L442.84,26.33L444.25,25.84L444.39,25.79L445.79,25.49L445.94,26.99L446.92,25.5L447.06,25.52L447.2,25.78L447.48,25.26L447.77,25.3L447.91,25.39L448.47,26.5L448.61,25.13L449.45,26.59L449.59,25.66L450.3,24.94L450.44,25.19L450.58,25.16L451.42,24.58L451.56,24.76L451.71,24.78L452.13,24.46L452.27,25.67L453.4,24.41L453.54,24.36L453.82,25.45L453.96,24.1L454.24,24.97L454.38,24.27L454.66,24.6L454.94,23.85L455.08,24.05L455.23,24.15L456.07,23.75L456.21,23.95L456.35,23.94L457.05,23.63L457.2,23.96L457.62,23.43L457.76,24.02L457.9,23.75L458.04,23.69L458.32,23.35L458.46,23.99L458.74,23.58L458.89,23.49L459.87,23.02L460.01,23.88L460.57,23L460.86,23.43L461,23.22L461.7,23.38L461.84,22.76L461.98,23.35L462.54,23.01L462.69,23.01L463.39,22.71L463.53,23.01L463.67,22.9L465.92,22.18L466.06,22.13L466.35,23.08L466.63,22.54L466.77,22.25L467.61,22.03L467.75,22.63L468.74,21.47L468.88,22.46L469.72,21.51L469.87,21.43L470.71,21.67L470.85,21.67L472.68,21.1L472.82,22.12L473.38,21.03L473.52,22.1L473.67,21.67L473.95,22.72L474.37,20.91L474.51,21.79L475.35,20.71L475.49,21.04L477.33,20.72L477.47,20.45L478.45,20.49L478.59,20.25L479.58,20.56L479.72,20.25L480,20.62L480.42,20.04L480.56,20L481.41,20.22L481.55,20.05L482.53,19.77L482.67,19.63L483.94,19.64L484.08,19.55L485.35,19.41L485.49,19.37L485.77,19.43L485.91,21.13L486.76,19.19L486.9,19.11L487.6,19.36L487.74,19.09L488.44,19.07L488.59,18.92L490.13,20.06L490.28,19.34L490.84,19.45L490.98,18.74L491.82,19.17L491.96,18.82L492.95,18.76L493.09,18.48L494.22,18.73L494.36,18.24L495.48,18.58L495.62,18.2L495.77,18.1L496.75,18.63L496.89,18.16L500.41,18.14L500.55,18.09L502.1,17.88L502.24,18.05L503.23,17.72L503.37,17.91L504.07,17.84L504.21,18.06L504.77,17.65L505.05,17.84L505.2,17.85L506.46,17.45L506.6,17.96L507.73,17.34L507.87,17.53L508.43,17.24L508.57,18.33L509,17.11L509.42,17.45L509.56,17.15L510.12,17.45L510.26,17.29L510.4,17.16L510.97,17.33L511.11,17.06L511.25,17.11L512.8,17.51L512.94,17.52L513.92,17.77L514.06,17.57L515.75,17.2L515.89,17.44L516.18,17.1L516.46,17.83L516.6,17.26L516.74,16.99L517.3,17.87L517.44,16.77L518.43,17.16L518.57,16.93L519.41,17.1L519.55,16.89L520.26,17.16L520.4,16.89L521.1,17.1L521.24,16.71L522.37,17.06L522.51,16.66L523.21,17L523.35,16.59L524.2,17.3L524.34,16.58L525.04,17L525.18,16.87L525.33,16.72L526.31,17.02L526.45,16.78L527.58,16.5L527.72,16.52L527.86,16.99L528,16.73" style="vector-effect: non-scaling-stroke; fill: none; stroke: rgb(31, 119, 180); stroke-opacity: 1; stroke-width: 2px; opacity: 1;"/></g><g class="points"/><g class="text"/></g><g class="trace scatter traced53c9f" style="stroke-miterlimit: 2; opacity: 1;"><g class="fills"/><g class="errorbars"/><g class="lines"><path class="js-line" d="M0,165L528,165" style="vector-effect: non-scaling-stroke; fill: none; stroke: rgb(255, 127, 14); stroke-opacity: 1; stroke-width: 2px; opacity: 1;"/></g><g class="points"/><g class="text"/></g><g class="trace scatter tracec58642" style="stroke-miterlimit: 2; opacity: 1;"><g class="fills"/><g class="errorbars"/><g class="lines"><path class="js-line" d="M0,165.01L12.53,165.24L12.67,165.32L13.94,165.39L14.08,165.41L22.52,165.85L22.66,165.86L25.06,165.99L25.2,164.55L26.04,165.94L26.18,165.01L27.03,166.06L27.17,166.07L31.25,166.2L31.39,165.21L32.38,166.39L32.52,166.41L48.14,167.55L48.28,166.68L48.42,165.76L48.85,167.62L48.99,167.64L56.16,168.22L56.31,167.57L57.29,168.36L57.43,168.38L63.34,168.97L63.48,165.32L63.91,168.93L64.19,168.74L64.33,166.7L65.17,169.13L65.31,169.16L67.28,169.39L67.43,169.4L73.9,169.82L74.04,163.5L74.89,170.17L75.03,170.19L76.01,170.22L76.15,170.31L82.35,170.96L82.49,167.36L83.33,171.21L83.47,171.24L84.18,171.05L84.32,170.57L85.3,171.43L85.44,171.47L90.93,172.04L91.07,168.37L91.5,172.18L91.92,172L92.06,172.16L94.59,172.57L94.73,172.22L95.86,172.87L96,172.88L98.39,173.19L98.53,169.44L99.24,173.22L99.38,173.08L99.52,173.1L100.65,173.53L100.79,173.55L107.54,174.59L107.68,174.61L110.08,174.96L110.22,172.69L110.36,170.14L110.78,174.74L110.92,174.74L111.06,174.57L111.2,174.98L111.48,175.11L111.62,175.12L114.02,175.51L114.16,174.34L114.3,173.9L114.58,175.28L114.72,175.47L116.13,175.92L116.27,175.85L116.97,176.01L117.11,175.73L117.26,172.45L118.1,176.2L118.24,176.23L119.79,176.47L119.93,175.52L120.77,176.62L120.92,176.67L130.06,178.28L130.21,178.33L130.49,178.33L130.63,156.9L131.47,178.41L131.61,178.46L132.03,178.48L132.18,177.74L133.3,178.77L133.44,178.62L134.43,179L134.57,178.98L135.27,179L135.41,179.19L136.26,179.16L136.4,178.51L137.81,179.64L137.95,179.69L138.37,179.59L138.51,178.3L139.36,179.9L139.5,179.91L141.47,180.11L141.61,179.91L141.89,180.31L142.31,179.67L142.45,180.11L142.59,180.47L143.44,180.65L143.58,180.7L149.49,181.82L149.63,145.52L150.34,181.81L150.47,181.74L150.62,181.93L155.82,183.06L155.96,183.14L160.89,184.21L161.03,184.25L161.45,184.04L161.6,152.21L162.44,184.36L162.58,184.45L166.8,185.29L166.94,184.66L167.09,143.94L167.65,185.39L167.79,185.49L168.07,185.2L168.49,185.72L168.63,185.74L170.6,186.22L170.75,186.18L170.89,186.31L171.03,169.79L171.87,186.45L172.01,186.38L173.7,186.94L173.84,186.92L175.11,187.22L175.25,186.88L176.38,187.52L176.52,186.98L176.66,186.76L176.8,187.27L177.08,187.26L177.22,187.44L179.75,188.29L179.89,188.4L183.13,188.85L183.27,187.12L184.12,189.29L184.26,189.34L191.72,191.23L191.86,191.18L192.7,191.5L192.84,176.43L193.69,191.35L193.83,191.56L195.8,192.2L195.94,192.24L196.36,190.98L196.5,192.26L197.49,192.6L197.63,192.03L199.88,193.27L200.02,193.18L201.15,193.48L201.29,191.2L202.14,193.79L202.28,193.87L203.4,194.11L203.54,194.19L204.81,194.41L204.95,128.04L205.8,194.59L205.93,194.73L207.91,195.24L208.05,195.36L209.03,195.28L209.17,194.6L210.02,195.9L210.16,195.87L212.27,196.51L212.41,196.52L218.75,198.3L218.89,198.23L219.03,197.07L219.59,198.41L219.73,198.54L220.15,198.71L220.29,196.51L220.72,198.85L221,198.77L221.14,197.69L221.98,199.13L222.12,199.17L227.89,200.83L228.04,200.8L228.18,200.24L228.74,200.88L228.88,201L233.38,202.44L233.52,202.44L235.64,203.08L235.78,203.02L236.48,203.31L236.62,201.45L236.9,133.08L237.04,201.87L238.17,203.73L238.31,203.77L238.73,203.57L238.87,118.23L239.72,204.07L239.86,204.14L240.42,204.37L240.56,203.43L240.7,202.87L240.99,204.37L241.13,204.54L242.53,205.07L242.68,204.39L242.81,203.42L243.24,205.12L243.38,205.27L244.93,205.73L245.07,205.75L245.91,205.76L246.05,206.08L246.9,206.06L247.04,204.46L248.02,206.53L248.16,206.69L251.12,207.69L251.26,207.77L253.65,208.31L253.79,206.42L254.36,208.61L254.5,208.49L254.64,205.03L255.34,208.91L255.48,208.67L255.63,209.04L268.43,213.16L268.58,212.44L268.72,174.18L269.28,213.22L269.42,213.27L270.55,213.67L270.69,213.74L271.11,213.29L271.25,213.93L271.39,214.08L275.05,215.33L275.19,214.77L276.32,215.74L276.46,215.76L276.88,215.94L277.02,212.03L277.86,216.16L278.01,216.22L280.4,217.02L280.54,217.08L282.37,217.72L282.51,217.75L283.21,217.89L283.35,217.2L284.34,218.36L284.48,218.43L288,219.56L288.14,218.1L289.13,219.85L289.27,219.77L290.67,220.35L290.81,220.28L293.21,221.25L293.35,221.27L299.4,223.24L299.54,223.03L300.81,223.67L300.95,223.66L302.22,224.05L302.36,222.28L303.2,224.3L303.34,224.45L303.76,224.54L303.91,220.6L304.75,224.85L304.89,224.87L306.58,225.39L306.72,225.43L307.14,225.61L307.28,225.27L307.43,224.6L308.27,225.94L308.41,226.03L311.23,226.41L311.37,226.16L311.65,227L311.79,226.89L311.93,135.25L312.63,227.25L312.77,226.8L312.91,227.22L313.06,225.95L313.48,227.51L313.62,227.41L313.76,227.57L315.17,227.8L315.31,227.19L316.29,228.46L316.43,228.41L317.98,229L318.12,228.98L318.55,229L318.69,201L319.39,229.3L319.53,229.28L319.67,229.43L322.63,230.19L322.77,229.63L323.75,230.72L323.89,230.77L331.64,233.09L331.78,232.48L332.76,233.43L332.9,233.44L333.18,232.95L333.75,233.45L333.89,233.55L334.87,233.99L335.02,233.97L336,234.31L336.14,234.41L336.28,234.47L336.42,230.79L337.27,234.7L337.41,234.78L341.77,235.97L341.91,184.43L342.76,236.23L342.9,236.31L344.02,236.29L344.16,236.52L345.57,237.05L345.71,235.92L346.42,237.37L346.56,237.3L346.7,237.38L349.23,238.21L349.37,237.98L350.36,238.34L350.5,238.24L351.48,238.74L351.62,238.43L352.61,239.13L352.75,239.02L352.89,239.2L353.03,238.9L353.6,239.41L353.74,239.28L354.86,239.68L355,239.39L355.99,240.05L356.13,240.09L357.4,240.38L357.54,240.04L357.68,237.94L358.24,240.47L358.38,240.29L359.51,241.03L359.65,240.34L360.49,241.22L360.63,241.02L360.77,240.9L365.14,242.52L365.28,242.33L366.97,242.93L367.11,241.31L368.66,243.4L368.8,243.42L369.78,243.76L369.92,243.16L371.05,244.02L371.19,243.92L372.46,244.3L372.6,243.76L372.74,237.72L373.3,244.44L373.44,244.06L374.85,244.92L374.99,244.83L376.26,245.33L376.4,245.36L378.37,245.76L378.51,245.84L379.35,246.02L379.5,246.14L380.2,246.3L380.34,241.55L380.76,246.29L381.18,246.21L381.33,246.4L382.45,246.74L382.59,246.42L382.73,246.82L382.87,243.5L383.58,247.01L383.72,246.99L383.86,247.04L384.14,247.16L384.28,245.8L385.13,247.41L385.27,247.04L385.41,246.87L385.55,247.42L385.69,247.33L385.83,247.63L387.94,248.06L388.08,248.16L389.07,248.03L389.21,248.29L389.35,247.82L389.91,248.46L390.05,248.34L390.19,248.57L390.33,247.64L390.48,244.89L391.32,248.83L391.46,248.82L392.73,249.12L392.87,248.31L393.43,249.41L393.71,249.29L393.85,249.36L394.13,248.67L395.82,249.9L395.97,249.94L397.23,250.16L397.37,244.38L398.22,250.25L398.36,250.33L398.5,249.94L398.64,250.45L399.06,250.58L399.2,250.59L401.45,251.14L401.59,251.07L403.14,251.49L403.28,251.54L405.54,251.72L405.68,251.97L405.96,248.24L406.1,251.93L409.48,252.86L409.62,252.64L410.6,253.09L410.74,253.01L415.25,253.98L415.39,253.71L416.38,254.23L416.52,253.87L417.5,254.46L417.64,254.19L417.78,253.43L418.06,254.51L418.2,254.52L418.35,254.62L421.72,255.23L421.87,253.65L422.71,255.41L422.85,255.22L423.27,255.4L423.41,254.49L424.26,255.73L424.4,255.73L425.1,255.65L425.24,255L425.66,255.9L425.81,253.82L425.95,250.36L426.23,255.72L426.79,255.48L426.93,255.89L427.21,255.63L427.64,256.21L427.78,255.58L428.9,256.53L429.04,256.35L431.15,256.96L431.3,256.93L431.86,255.7L432,256.43L432.14,256.88L432.7,257.19L432.98,256.99L433.13,256.86L434.11,257.34L434.25,251.37L434.67,257.36L435.1,257.29L435.24,256.58L436.22,257.76L436.36,257.74L436.93,257.91L437.07,257.47L437.21,256.26L437.91,258.04L438.05,257.39L438.19,257.64L438.9,258.22L439.04,257.82L439.18,257.37L439.6,258.24L439.88,257.44L440.02,256.82L440.73,258.48L440.87,258.42L441.01,258.31L441.43,257.94L441.85,258.64L441.99,258.49L442.28,258.64L442.42,258.18L442.56,257.05L443.4,258.85L443.54,258.89L443.68,258.43L444.25,258.96L444.39,258.91L445.51,259.22L445.65,259.03L445.79,259.32L445.94,256.82L446.08,255.87L446.22,258.89L446.36,259.2L447.48,259.13L447.62,259.48L448.33,259.36L448.47,257.73L449.17,259.61L449.31,259.3L449.45,259.31L449.88,258.85L450.16,259.61L450.3,259.18L450.58,259.77L450.72,258.87L451.56,259.74L451.71,256.55L452.13,259.88L452.55,259.34L452.69,259.91L453.68,258.71L453.82,257.06L454.24,260.1L454.66,260.06L454.8,259.65L455.08,258.41L455.65,260.33L455.79,260.23L456.91,259.93L457.05,260.29L457.62,260.16L457.76,259.75L458.32,260.52L458.46,258.78L458.6,260.47L459.31,260.06L459.45,260.79L460.15,260.38L460.29,260.76L461.14,259.16L461.28,260.56L461.84,261.04L461.98,259.89L462.69,261.15L462.83,260.95L462.97,261.11L463.25,261.11L463.39,260.4L463.95,261.21L464.09,261.05L464.23,260.38L464.66,260.02L465.22,261.42L465.36,261.33L465.5,260.72L465.64,261.47L466.06,261.08L466.2,261.35L467.33,261.54L467.47,261.33L468.03,260.71L468.18,261.46L468.32,261.68L468.74,261.75L468.88,260.63L470.29,261.97L470.43,262.02L471.27,261.57L471.41,261.78L472.4,262.28L472.54,261.91L472.82,254.19L472.96,261.78L473.81,262.06L473.95,262.12L474.09,262.43L474.23,262.05L474.37,261.08L475.07,262.37L475.21,262.32L475.35,262.08L476.06,261.86L476.2,261.59L477.04,262.57L477.18,260.71L477.89,262.77L478.03,262.48L478.17,262.73L478.73,262.1L478.87,262.77L479.01,262.53L479.3,262.36L479.58,263L479.86,262.72L480,261.92L480.84,263.08L480.98,262.88L481.41,262.33L481.69,262.71L481.83,262.98L482.11,262.36L482.25,263.22L482.39,262.13L483.1,262.46L483.24,263.33L483.8,262.67L483.94,263.37L484.08,263.42L485.07,262.41L485.21,263.27L485.91,262.74L486.19,263.37L486.33,263.59L487.04,263.32L487.18,263.59L487.32,261.75L487.74,263.63L488.16,263.53L488.31,262.81L488.87,263.7L489.15,263.63L489.29,263.49L490.28,262.71L490.42,263.4L490.56,261.35L490.98,263.81L491.12,263.56L491.26,263.9L491.68,263.87L491.82,262.07L492.67,263.83L492.81,263.87L493.65,263.86L493.79,263.63L494.92,264.17L495.06,263.82L495.91,264.15L496.05,263.65L496.19,263.76L496.33,263.05L496.47,264.2L497.17,263.33L497.31,264.26L498.3,263.16L498.44,263.65L498.58,263.93L499,264.3L499.14,262.77L499.28,263.85L499.42,263.81L499.56,263.98L499.71,263.11L499.85,263.68L499.99,263.18L500.83,264.22L500.97,263.99L501.11,263.74L501.4,264.53L501.68,264.19L501.82,264.1L501.96,264.48L502.1,263.93L502.24,262.08L502.94,264.65L503.08,264.54L503.23,264.64L503.51,264.63L503.65,259.93L503.93,264.67L504.49,263.68L504.63,263.69L504.77,264.8L505.34,264.63L505.48,264.33L506.46,264.46L506.6,264.6L508.29,264.85L508.43,264L509.14,264.97L509.28,264.38L510.12,264.85L510.26,264.63L511.11,265.04L511.25,264.95L512.09,264.64L512.23,265.12L512.94,263.74L513.08,261.93L513.78,265.01L513.92,264.35L514.06,264.84L514.35,265.01L514.49,263.29L514.77,264.2L514.91,265.02L515.61,263.79L515.75,265.12L516.18,265L516.32,264L517.16,265.1L517.3,264.99L517.44,265.09L517.58,264.71L517.72,261.46L518.29,265.15L518.57,264.95L518.71,264.67L519.55,265.19L519.69,265.07L520.26,264.01L520.54,264.59L520.68,265.2L521.24,264.44L521.38,265.31L521.52,265.21L521.67,265.2L521.81,263.85L521.95,265.23L522.51,264.78L522.65,264.5L523.49,265.23L523.64,265.16L523.78,265.28L523.92,264.38L524.62,265.34L524.76,264.51L525.18,265.37L525.61,265.03L525.75,265.19L526.73,265.17L526.87,265.38L527.01,264.2L527.58,265.14L527.72,265.08L527.86,265.38L528,265" style="vector-effect: non-scaling-stroke; fill: none; stroke: rgb(44, 160, 44); stroke-opacity: 1; stroke-width: 2px; opacity: 1;"/></g><g class="points"/><g class="text"/></g><g class="trace scatter traceb4d8ef" style="stroke-miterlimit: 2; opacity: 1;"><g class="fills"/><g class="errorbars"/><g class="lines"><path class="js-line" d="M0,165L17.03,165.78L17.17,165.8L25.34,166.14L25.48,165.49L26.18,166.42L26.32,165.96L26.46,166.45L27.17,166.56L27.31,166.58L43.92,168.32L44.06,164.25L44.9,168.43L45.04,168.44L48.28,168.76L48.42,166.02L49.27,168.94L49.41,168.96L49.69,168.92L49.83,167.31L50.67,169.15L50.82,169.16L56.16,169.83L56.31,166.49L57.15,169.95L57.29,170L63.34,170.91L63.48,165.35L63.91,170.92L64.33,169.69L64.47,171.02L67.57,171.57L67.71,171.59L68.41,171.67L68.55,162.26L69.4,171.84L69.54,171.87L73.9,172.44L74.04,170.71L74.89,172.74L75.03,172.76L76.15,172.99L76.29,173.02L82.35,173.87L82.49,166.11L83.33,174.23L83.47,174.29L90.65,175.59L90.79,175.7L90.93,174.98L91.5,175.62L91.64,175.71L91.78,171.82L92.34,175.83L92.48,176L98.25,177.29L98.39,177.26L98.67,176.55L98.82,176.94L98.96,177.34L103.74,178.46L103.88,178.49L110.22,179.63L110.36,178.96L111.48,180.15L111.62,180.11L114.02,180.73L114.16,179.32L115.14,180.97L115.29,181.02L119.79,181.82L119.93,180.73L120.77,182.36L120.92,182.43L130.49,184.85L130.63,177.9L131.75,185.22L131.9,185.25L132.18,183.58L132.32,184.59L132.46,185.13L133.72,185.77L133.87,185.79L136.82,186.4L136.96,185.55L137.81,186.8L137.95,186.85L138.37,186.45L138.51,184.42L139.36,187.25L139.5,187.32L143.16,188.07L143.3,188.31L147.8,189.78L147.94,189.75L149.49,190.16L149.63,185.92L149.77,183.88L149.91,189.85L150.05,188.58L150.19,190.04L151.46,190.76L151.6,190.8L152.45,191.06L152.59,191.1L154.28,191.48L154.42,190.93L155.82,192.1L155.96,192.16L161.45,193.58L161.6,184.08L161.74,176L162.16,193.65L162.3,193.67L163.43,194.32L163.57,194.39L166.8,195.11L166.94,194.61L167.09,188.64L167.65,195.63L167.79,195.68L168.07,194.56L168.21,195.41L168.35,195.88L169.34,196.3L169.48,195.79L170.75,196.79L170.89,196.78L171.03,194.13L171.59,196.91L171.73,196.99L174.4,198.04L174.55,198.08L175.53,198.36L175.67,198.47L176.38,198.33L176.52,194.03L177.22,198.8L177.36,198.51L177.5,198.69L179.33,199.69L179.47,199.74L182.99,200.97L183.13,200.3L183.27,199.99L183.41,201.01L183.55,201.21L192.7,204.36L192.84,195.06L193.55,204.27L193.69,203.95L193.83,204.74L195.38,205.44L195.52,205.49L196.08,205.48L196.22,204.74L196.36,203.93L196.65,205.81L196.79,205.99L201.15,207.55L201.29,203.69L202.14,208.03L202.28,208.07L204.81,208.64L204.95,204.63L205.93,209.34L206.08,209.43L218.89,214.41L219.03,213.82L220.01,215.14L220.15,215.15L220.29,214.77L220.72,215.41L220.86,215.32L221,215.28L221.14,214.76L221.56,215.73L221.7,215.81L236.48,222.18L236.62,216.03L236.76,146.06L237.33,222.09L237.47,222.24L238.59,222.86L238.73,222.28L238.87,215.63L239.44,223.08L239.58,223.17L240.42,223.65L240.56,222.67L240.7,222.59L240.84,223.27L240.99,223.76L242.53,224.67L242.68,224.05L242.81,223.25L243.1,224.85L243.24,224.53L243.38,225.03L246.62,226.24L246.76,224.51L247.6,226.94L247.74,226.9L249.57,227.95L249.71,227.96L253.23,229.38L253.37,228.78L254.36,230.12L254.5,229.83L257.31,231.75L257.45,231.78L263.09,234.29L263.23,234.35L264.49,235.14L264.63,235.02L264.77,234.76L264.91,235.34L265.2,235.47L265.34,235.41L266.74,236.17L266.89,235.76L268.15,236.74L268.29,236.79L268.58,236.25L268.72,184L269.56,237.51L269.7,237.57L270.97,237.67L271.11,236.93L271.95,238.73L272.09,238.82L274.77,240.03L274.91,240.1L275.19,239.41L276.88,241.03L277.02,234.07L277.86,241.41L278.01,241.6L280.54,242.97L280.68,243.01L283.07,244.11L283.21,242.7L284.62,244.86L284.76,244.93L287.3,245.94L287.44,246.24L288.56,246.56L288.7,246.58L290.96,247.58L291.1,246.77L291.94,248.36L292.08,248.43L295.32,249.98L295.46,250.05L299.12,251.69L299.26,251.8L300.81,252.5L300.95,252.62L301.79,252.87L301.94,253.08L302.36,252.27L302.5,252.97L302.64,253.34L303.76,253.77L303.91,235.41L304.75,254.36L304.89,254.45L307.14,255.46L307.28,254.99L307.43,254.72L308.41,255.98L308.55,256.06L311.65,257.35L311.79,256.89L311.93,247.43L312.63,257.87L312.77,257.79L312.91,255.83L313.9,258.49L314.04,258.52L314.74,258.91L314.89,258.88L315.45,258.53L315.59,259.24L317.84,260.31L317.98,260.36L318.4,260.47L318.55,260.14L318.69,255.92L319.53,261.04L319.67,261.14L323.05,262.64L323.19,261.23L324.04,263.1L324.18,263.16L324.74,263.37L324.88,262.5L325.72,263.81L325.86,263.79L327.41,264.21L327.55,264.39L327.84,264.6L328.26,264.2L328.4,264.94L331.21,265.81L331.35,266.23L331.64,266.38L331.78,265.31L332.48,266.59L332.62,266.45L332.76,266.91L333.61,267.15L333.75,267.15L336.14,268.3L336.28,267.85L336.42,267.16L336.7,268.6L336.84,268.6L336.99,268.7L337.69,269.06L337.83,269.13L339.8,269.81L339.94,269.03L340.79,270.32L340.93,270.38L341.77,270.53L341.91,265.85L342.76,271L342.9,271.02L343.74,271.46L343.88,271.01L344.02,269.57L344.3,271.6L344.45,271.59L344.59,271.73L345.43,272.17L345.57,271.12L345.71,270.91L345.85,272.13L346.98,272.85L347.12,272.87L347.4,272.26L347.54,273.07L347.97,272.36L348.11,273.22L349.79,273.83L349.94,273.03L351.06,274.4L351.2,274.36L351.62,274.18L351.76,273.29L352.61,275.1L352.75,275.15L357.4,276.94L357.54,276.31L357.82,276.17L357.96,276.28L358.1,272.09L358.8,277.55L358.94,276.32L359.08,277.63L359.51,277.72L359.65,276.45L360.35,278.22L360.49,277.82L360.63,277.64L360.77,275.91L361.2,278.48L361.34,278.54L366.26,280.5L366.4,280.17L366.97,280.76L367.11,279.44L368.23,281.17L368.38,281.29L368.94,281.3L369.08,280.75L369.78,281.75L369.92,281.11L370.06,281.02L370.91,282.17L371.05,282.31L372.46,282.8L372.6,282.23L372.74,269.74L373.58,283.2L373.72,283.3L375.27,283.81L375.41,283.86L377.95,284.83L378.09,284.53L378.23,283.99L378.93,285.26L379.07,285.09L379.21,285.32L379.5,285.42L379.64,284.3L380.2,285.63L380.34,281.23L380.76,285.82L381.18,285.68L381.33,285.98L382.17,286.34L382.31,285.27L382.87,284.73L383.15,286.59L383.3,286.69L384.14,286.79L384.28,286.18L385.13,287.38L385.27,287.43L387.38,287.92L387.52,287.07L388.22,288.45L388.36,288.41L388.5,288.43L389.21,288.59L389.35,287.35L390.19,289.04L390.33,288.31L390.48,284.91L391.04,289.23L391.18,289.45L393.29,290.19L393.43,289.62L394.42,290.52L394.56,290.61L396.53,291.23L396.67,290.72L397.23,291.48L397.37,272.06L398.22,291.74L398.36,291.83L399.06,292.16L399.2,292.21L403.99,293.59L404.13,292.81L404.69,293.83L404.83,292.19L405.54,294.14L405.68,294.1L405.82,291.61L406.38,294.32L406.66,293.39L406.8,293.62L407.65,294.74L407.79,294.77L415.25,296.75L415.39,294.27L416.23,297.23L416.38,297.21L416.66,297.19L416.8,295.89L417.36,297.59L417.64,297.42L417.78,296.34L418.63,297.85L418.77,297.92L421.72,298.71L421.87,297.56L422.29,298.85L422.71,298.74L422.85,298.45L423.13,299.09L423.27,297.24L423.41,297.46L424.26,299.44L424.4,299.49L425.24,298.69L425.38,299.3L425.66,299.75L425.81,298.51L425.95,295.98L426.79,299.68L426.93,299.88L427.07,300L427.21,298.69L427.35,298.31L427.5,299.84L427.64,300.12L427.92,296.89L428.06,299.83L428.2,300.23L431.15,301.07L431.3,300.84L432,300.19L432.14,300.45L432.28,301.2L434.11,301.81L434.25,267.48L434.96,301.96L435.1,301.95L435.24,300.33L435.38,300.25L435.52,301.63L436.5,302.27L436.64,302.41L437.07,301.73L437.21,300.53L437.77,302.63L437.91,302.12L438.05,300.79L438.76,302.87L438.9,302.82L439.04,298.32L439.6,303.11L439.88,302.55L440.02,302.52L441.15,303.56L441.29,303.31L441.43,302.82L441.99,303.53L442.13,303.67L442.28,303.7L442.42,302.33L442.7,302.14L443.68,304.02L443.82,304.07L445.79,304.51L445.94,302.48L446.22,304.04L446.36,303.99L446.5,301.73L447.06,304.47L447.34,304.14L447.48,304.71L447.91,304.48L448.05,303.93L448.47,303.27L448.61,304.83L448.89,304.64L449.03,304.44L449.17,304.78L449.31,304.64L449.45,303.29L449.74,305.08L450.3,304.89L450.44,304.79L450.58,304.4L450.72,305.02L451,304.88L451.14,305.14L451.99,305.35L452.13,305.47L452.41,302.79L452.83,305.4L452.97,305.19L453.54,305.53L453.82,304.48L453.96,305.87L454.66,304.43L454.8,306.01L455.65,306.04L455.79,305.79L456.77,306.44L456.91,306.04L457.05,306.34L457.2,305.52L457.34,305.83L457.48,305.38L458.32,306.57L458.46,305.86L459.17,306.67L459.31,305.76L459.87,306.94L460.01,306.02L460.15,305.66L460.57,306.96L461,306.68L461.14,306.84L461.28,306.35L461.56,307L461.7,306.64L461.84,307.19L462.69,306.92L462.83,307.19L463.53,306.88L463.67,307.06L463.81,307.11L464.94,307.31L465.08,307.33L466.2,307.61L466.35,305.47L466.91,308.04L467.19,307.81L467.33,307.7L468.74,308.48L468.88,307.16L469.72,308.45L469.87,308.56L470.57,308.04L470.71,308.24L470.85,308.28L471.41,308.75L471.55,307.78L472.4,308.74L472.54,308.84L473.38,308.8L473.52,307.86L473.81,308.65L473.95,304.12L474.65,309.07L474.79,308.47L474.93,308.49L475.07,308.27L475.21,308.8L475.35,309.23L475.92,308.68L476.2,308.92L476.34,309.39L477.33,309.22L477.47,309.45L478.03,309.27L478.17,309.56L478.31,309.59L478.45,309.1L478.59,309.7L478.87,309.41L479.01,309.89L480,309.29L480.14,309.49L480.98,309.78L481.13,309.19L481.83,310.16L481.97,309.09L482.11,308.9L482.25,310.21L483.1,309.76L483.24,310.22L483.66,309.93L484.08,310.36L484.22,310.36L484.79,309.95L485.21,310.53L485.35,310.54L485.77,310.49L485.91,308.81L486.76,310.76L486.9,310.85L487.18,310.21L487.6,310.42L487.74,310.88L488.02,310.5L488.44,310.92L488.59,311.05L489.29,309.82L489.43,310.67L489.57,310.97L490.13,309.87L490.42,310.46L490.56,310.5L490.84,310.12L491.26,311.19L491.4,311.01L491.54,311L492.81,311.06L492.95,311.21L493.65,311.22L493.79,311.13L494.78,311.77L494.92,311.57L495.48,311.4L495.62,311.82L495.77,311.91L495.91,311.36L496.47,311.65L496.61,311.66L496.75,311.25L496.89,311.78L497.31,311.45L497.45,311.74L498.3,311.45L498.44,311.79L499.28,311.11L499.42,311.54L501.11,312.14L501.26,311.89L502.24,311.9L502.38,312.19L503.37,312.05L503.51,312.27L504.21,311.73L504.35,312.23L504.49,312.35L505.34,312.15L505.48,312.49L506.32,311.89L506.46,312.52L507.31,311.64L507.45,312.41L508.43,312.74L508.57,311.15L509,312.87L509.42,312.52L509.56,312.82L510.12,312.45L510.26,312.74L510.4,312.83L510.97,312.65L511.11,312.93L511.25,312.9L512.8,312.26L512.94,312.54L513.92,311.78L514.06,312.4L515.89,312.54L516.03,312.2L516.74,312.98L516.88,312.91L517.02,312.74L517.3,311.69L517.44,313.23L517.58,312.91L517.72,313.11L518.43,312.81L518.57,313.06L518.71,313.01L519.41,312.89L519.55,313.03L520.26,312.82L520.4,313.08L521.1,312.89L521.24,313.28L522.37,312.93L522.51,313.35L523.21,313L523.35,313.4L524.2,312.6L524.34,313.41L525.18,313.05L525.33,313.29L526.31,312.99L526.45,313.22L527.44,313.39L527.58,313.5L527.86,313.01L528,313.27" style="vector-effect: non-scaling-stroke; fill: none; stroke: rgb(214, 39, 40); stroke-opacity: 1; stroke-width: 2px; opacity: 1;"/></g><g class="points"/><g class="text"/></g><g class="trace scatter trace888490" style="stroke-miterlimit: 2; opacity: 1;"><g class="fills"/><g class="errorbars"/><g class="lines"><path class="js-line" d="M0,165L528,165" style="vector-effect: non-scaling-stroke; fill: none; stroke: rgb(148, 103, 189); stroke-opacity: 1; stroke-width: 2px; opacity: 1;"/></g><g class="points"/><g class="text"/></g><g class="trace scatter tracedd46f8" style="stroke-miterlimit: 2; opacity: 1;"><g class="fills"/><g class="errorbars"/><g class="lines"><path class="js-line" d="M0,165L528,165" style="vector-effect: non-scaling-stroke; fill: none; stroke: rgb(140, 86, 75); stroke-opacity: 1; stroke-width: 2px; opacity: 1;"/></g><g class="points"/><g class="text"/></g></g></g><g class="overplot"/><path class="xlines-above crisp" d="M0,0" style="fill: none;"/><path class="ylines-above crisp" d="M0,0" style="fill: none;"/><g class="overlines-above"/><g class="xaxislayer-above"><g class="xtick"><text text-anchor="middle" x="0" y="403" transform="translate(189.25,0)" style="font-family: 'Open Sans', verdana, arial, sans-serif; font-size: 12px; fill: rgb(68, 68, 68); fill-opacity: 1; white-space: pre;">50</text></g><g class="xtick"><text text-anchor="middle" x="0" y="403" transform="translate(321.29,0)" style="font-family: 'Open Sans', verdana, arial, sans-serif; font-size: 12px; fill: rgb(68, 68, 68); fill-opacity: 1; white-space: pre;">100</text></g><g class="xtick"><text text-anchor="middle" x="0" y="403" transform="translate(453.32,0)" style="font-family: 'Open Sans', verdana, arial, sans-serif; font-size: 12px; fill: rgb(68, 68, 68); fill-opacity: 1; white-space: pre;">150</text></g><g class="xtick"><text text-anchor="middle" x="0" y="403" transform="translate(585.36,0)" style="font-family: 'Open Sans', verdana, arial, sans-serif; font-size: 12px; fill: rgb(68, 68, 68); fill-opacity: 1; white-space: pre;">200</text></g></g><g class="yaxislayer-above"><g class="ytick"><text text-anchor="end" x="59" y="4.199999999999999" transform="translate(0,353.52)" style="font-family: 'Open Sans', verdana, arial, sans-serif; font-size: 12px; fill: rgb(68, 68, 68); fill-opacity: 1; white-space: pre;">−600k</text></g><g class="ytick"><text text-anchor="end" x="59" y="4.199999999999999" transform="translate(0,310.68)" style="font-family: 'Open Sans', verdana, arial, sans-serif; font-size: 12px; fill: rgb(68, 68, 68); fill-opacity: 1; white-space: pre;">−400k</text></g><g class="ytick"><text text-anchor="end" x="59" y="4.199999999999999" transform="translate(0,267.84000000000003)" style="font-family: 'Open Sans', verdana, arial, sans-serif; font-size: 12px; fill: rgb(68, 68, 68); fill-opacity: 1; white-space: pre;">−200k</text></g><g class="ytick"><text text-anchor="end" x="59" y="4.199999999999999" transform="translate(0,225)" style="font-family: 'Open Sans', verdana, arial, sans-serif; font-size: 12px; fill: rgb(68, 68, 68); fill-opacity: 1; white-space: pre;">0</text></g><g class="ytick"><text text-anchor="end" x="59" y="4.199999999999999" transform="translate(0,182.17000000000002)" style="font-family: 'Open Sans', verdana, arial, sans-serif; font-size: 12px; fill: rgb(68, 68, 68); fill-opacity: 1; white-space: pre;">200k</text></g><g class="ytick"><text text-anchor="end" x="59" y="4.199999999999999" transform="translate(0,139.32999999999998)" style="font-family: 'Open Sans', verdana, arial, sans-serif; font-size: 12px; fill: rgb(68, 68, 68); fill-opacity: 1; white-space: pre;">400k</text></g><g class="ytick"><text text-anchor="end" x="59" y="4.199999999999999" transform="translate(0,96.49000000000001)" style="font-family: 'Open Sans', verdana, arial, sans-serif; font-size: 12px; fill: rgb(68, 68, 68); fill-opacity: 1; white-space: pre;">600k</text></g></g><g class="overaxes-above"/></g></g><g class="polarlayer"/><g class="ternarylayer"/><g class="geolayer"/><g class="pielayer"/><g class="glimages"/><defs id="topdefs-222f22"><g class="clips"/><clipPath id="legend222f22"><rect width="89" height="124" x="0" y="0"/></clipPath></defs><g class="layer-above"><g class="imagelayer"/><g class="shapelayer"/></g><g class="infolayer"><g class="legend" pointer-events="all" transform="translate(598.5600000000001, 60)"><rect class="bg" shape-rendering="crispEdges" width="89" height="124" x="0" y="0" style="stroke: rgb(68, 68, 68); stroke-opacity: 1; fill: rgb(255, 255, 255); fill-opacity: 1; stroke-width: 0px;"/><g class="scrollbox" transform="translate(0, 0)" clip-path="url(#legend222f22)"><g class="groups"><g class="traces" transform="translate(0, 14.5)" style="opacity: 1;"><g class="layers" style="opacity: 1;"><g class="legendfill"/><g class="legendlines"><path class="js-line" d="M5,0h30" style="fill: none; stroke: rgb(31, 119, 180); stroke-opacity: 1; stroke-width: 2px;"/></g><g class="legendsymbols"><g class="legendpoints"/></g></g><text class="legendtext user-select-none" text-anchor="start" x="40" y="4.680000000000001" style="font-family: 'Open Sans', verdana, arial, sans-serif; font-size: 12px; fill: rgb(68, 68, 68); fill-opacity: 1; white-space: pre;">G_GAN</text><rect class="legendtoggle" pointer-events="all" x="0" y="-9.5" width="129" height="19" style="cursor: pointer; fill: rgb(0, 0, 0); fill-opacity: 0;"/></g><g class="traces" transform="translate(0, 33.5)" style="opacity: 1;"><g class="layers" style="opacity: 1;"><g class="legendfill"/><g class="legendlines"><path class="js-line" d="M5,0h30" style="fill: none; stroke: rgb(255, 127, 14); stroke-opacity: 1; stroke-width: 2px;"/></g><g class="legendsymbols"><g class="legendpoints"/></g></g><text class="legendtext user-select-none" text-anchor="start" x="40" y="4.680000000000001" style="font-family: 'Open Sans', verdana, arial, sans-serif; font-size: 12px; fill: rgb(68, 68, 68); fill-opacity: 1; white-space: pre;">G_L1</text><rect class="legendtoggle" pointer-events="all" x="0" y="-9.5" width="129" height="19" style="cursor: pointer; fill: rgb(0, 0, 0); fill-opacity: 0;"/></g><g class="traces" transform="translate(0, 52.5)" style="opacity: 1;"><g class="layers" style="opacity: 1;"><g class="legendfill"/><g class="legendlines"><path class="js-line" d="M5,0h30" style="fill: none; stroke: rgb(44, 160, 44); stroke-opacity: 1; stroke-width: 2px;"/></g><g class="legendsymbols"><g class="legendpoints"/></g></g><text class="legendtext user-select-none" text-anchor="start" x="40" y="4.680000000000001" style="font-family: 'Open Sans', verdana, arial, sans-serif; font-size: 12px; fill: rgb(68, 68, 68); fill-opacity: 1; white-space: pre;">D_real</text><rect class="legendtoggle" pointer-events="all" x="0" y="-9.5" width="129" height="19" style="cursor: pointer; fill: rgb(0, 0, 0); fill-opacity: 0;"/></g><g class="traces" transform="translate(0, 71.5)" style="opacity: 1;"><g class="layers" style="opacity: 1;"><g class="legendfill"/><g class="legendlines"><path class="js-line" d="M5,0h30" style="fill: none; stroke: rgb(214, 39, 40); stroke-opacity: 1; stroke-width: 2px;"/></g><g class="legendsymbols"><g class="legendpoints"/></g></g><text class="legendtext user-select-none" text-anchor="start" x="40" y="4.680000000000001" style="font-family: 'Open Sans', verdana, arial, sans-serif; font-size: 12px; fill: rgb(68, 68, 68); fill-opacity: 1; white-space: pre;">D_fake</text><rect class="legendtoggle" pointer-events="all" x="0" y="-9.5" width="129" height="19" style="cursor: pointer; fill: rgb(0, 0, 0); fill-opacity: 0;"/></g><g class="traces" transform="translate(0, 90.5)" style="opacity: 1;"><g class="layers" style="opacity: 1;"><g class="legendfill"/><g class="legendlines"><path class="js-line" d="M5,0h30" style="fill: none; stroke: rgb(148, 103, 189); stroke-opacity: 1; stroke-width: 2px;"/></g><g class="legendsymbols"><g class="legendpoints"/></g></g><text class="legendtext user-select-none" text-anchor="start" x="40" y="4.680000000000001" style="font-family: 'Open Sans', verdana, arial, sans-serif; font-size: 12px; fill: rgb(68, 68, 68); fill-opacity: 1; white-space: pre;">T_A</text><rect class="legendtoggle" pointer-events="all" x="0" y="-9.5" width="129" height="19" style="cursor: pointer; fill: rgb(0, 0, 0); fill-opacity: 0;"/></g><g class="traces" transform="translate(0, 109.5)" style="opacity: 1;"><g class="layers" style="opacity: 1;"><g class="legendfill"/><g class="legendlines"><path class="js-line" d="M5,0h30" style="fill: none; stroke: rgb(140, 86, 75); stroke-opacity: 1; stroke-width: 2px;"/></g><g class="legendsymbols"><g class="legendpoints"/></g></g><text class="legendtext user-select-none" text-anchor="start" x="40" y="4.680000000000001" style="font-family: 'Open Sans', verdana, arial, sans-serif; font-size: 12px; fill: rgb(68, 68, 68); fill-opacity: 1; white-space: pre;">T_B</text><rect class="legendtoggle" pointer-events="all" x="0" y="-9.5" width="129" height="19" style="cursor: pointer; fill: rgb(0, 0, 0); fill-opacity: 0;"/></g></g></g><rect class="scrollbar" rx="20" ry="3" width="0" height="0" x="0" y="0" style="fill: rgb(128, 139, 164); fill-opacity: 1;"/></g><g class="g-gtitle"><text class="gtitle" x="350" y="30" text-anchor="middle" dy="0em" style="font-family: 'Open Sans', verdana, arial, sans-serif; font-size: 17px; fill: rgb(68, 68, 68); opacity: 1; font-weight: normal; white-space: pre;">rss_expr4.9 loss over time</text></g><g class="g-xtitle"><text class="xtitle" x="324" y="442" text-anchor="middle" style="font-family: 'Open Sans', verdana, arial, sans-serif; font-size: 14px; fill: rgb(68, 68, 68); opacity: 1; font-weight: normal; white-space: pre;">epoch</text></g><g class="g-ytitle"><text class="ytitle" transform="rotate(-90,22,225)" x="22" y="225" text-anchor="middle" style="font-family: 'Open Sans', verdana, arial, sans-serif; font-size: 14px; fill: rgb(68, 68, 68); opacity: 1; font-weight: normal; white-space: pre;">loss</text></g></g></svg>