<svg class="main-svg" xmlns="http://www.w3.org/2000/svg" xmlns:xlink="http://www.w3.org/1999/xlink" width="700" height="450" style="" viewBox="0 0 700 450"><rect x="0" y="0" width="700" height="450" style="fill: rgb(255, 255, 255); fill-opacity: 1;"/><defs id="defs-1bc8b3"><g class="clips"><clipPath id="clip1bc8b3xyplot" class="plotclip"><rect width="528" height="330"/></clipPath><clipPath class="axesclip" id="clip1bc8b3x"><rect x="60" y="0" width="528" height="450"/></clipPath><clipPath class="axesclip" id="clip1bc8b3y"><rect x="0" y="60" width="700" height="330"/></clipPath><clipPath class="axesclip" id="clip1bc8b3xy"><rect x="60" y="60" width="528" height="330"/></clipPath></g><g class="gradients"/></defs><g class="bglayer"/><g class="layer-below"><g class="imagelayer"/><g class="shapelayer"/></g><g class="cartesianlayer"><g class="subplot xy"><g class="layer-subplot"><g class="shapelayer"/><g class="imagelayer"/></g><g class="gridlayer"><g class="x"><path class="xgrid crisp" transform="translate(215.35,0)" d="M0,60v330" style="stroke: rgb(238, 238, 238); stroke-opacity: 1; stroke-width: 1px;"/><path class="xgrid crisp" transform="translate(373.97,0)" d="M0,60v330" style="stroke: rgb(238, 238, 238); stroke-opacity: 1; stroke-width: 1px;"/><path class="xgrid crisp" transform="translate(532.5799999999999,0)" d="M0,60v330" style="stroke: rgb(238, 238, 238); stroke-opacity: 1; stroke-width: 1px;"/></g><g class="y"><path class="ygrid crisp" transform="translate(0,313.46000000000004)" d="M60,0h528" style="stroke: rgb(238, 238, 238); stroke-opacity: 1; stroke-width: 1px;"/><path class="ygrid crisp" transform="translate(0,253.43)" d="M60,0h528" style="stroke: rgb(238, 238, 238); stroke-opacity: 1; stroke-width: 1px;"/><path class="ygrid crisp" transform="translate(0,193.39)" d="M60,0h528" style="stroke: rgb(238, 238, 238); stroke-opacity: 1; stroke-width: 1px;"/><path class="ygrid crisp" transform="translate(0,133.35)" d="M60,0h528" style="stroke: rgb(238, 238, 238); stroke-opacity: 1; stroke-width: 1px;"/><path class="ygrid crisp" transform="translate(0,73.32)" d="M60,0h528" style="stroke: rgb(238, 238, 238); stroke-opacity: 1; stroke-width: 1px;"/></g></g><g class="zerolinelayer"><path class="yzl zl crisp" transform="translate(0,373.5)" d="M60,0h528" style="stroke: rgb(68, 68, 68); stroke-opacity: 1; stroke-width: 1px;"/></g><path class="xlines-below"/><path class="ylines-below"/><g class="overlines-below"/><g class="xaxislayer-below"/><g class="yaxislayer-below"/><g class="overaxes-below"/><g class="plot" transform="translate(60, 60)" clip-path="url(#clip1bc8b3xyplot)"><g class="scatterlayer mlayer"><g class="trace scatter trace166106" style="stroke-miterlimit: 2; opacity: 1;"><g class="fills"/><g class="errorbars"/><g class="lines"><path class="js-line" d="M0,297.64L0.17,303.16L0.68,296.92L0.76,297.35L0.85,300.7L1.18,288.73L1.27,282.82L1.35,301.53L1.86,253.95L2.03,294.51L2.11,279.36L2.2,280.11L2.28,289.42L2.79,294.69L2.88,267.22L2.96,297.61L3.13,260.23L3.3,308.61L3.72,268.97L3.8,280.35L4.23,255.57L4.48,303.16L4.57,301.01L4.65,280.67L4.74,287.96L5.07,257L5.16,243.68L5.5,230.9L6,304.66L6.09,252.78L6.68,301.94L6.76,275.79L6.85,254.69L7.44,294.17L7.53,270.79L7.61,250.98L8.2,247.84L8.46,307.02L8.54,240L8.71,254.59L8.79,237.69L8.96,253.89L9.05,288.52L9.55,238.21L9.89,254.53L9.98,244.19L10.15,252.89L10.4,244.1L10.48,248.79L10.57,241.88L10.74,243.34L10.82,251.02L10.91,251.59L10.99,234.94L11.16,241.05L11.33,236.26L11.41,229.68L11.58,236.61L11.67,228.67L11.92,229.28L12.01,208.43L12.09,241.43L12.68,232.52L12.77,205.13L13.02,284.43L13.61,254.77L13.7,244.26L13.95,251.36L14.12,228.55L14.2,296.21L14.29,250.44L14.63,305.94L14.97,261.09L15.05,257.54L15.14,258.58L15.22,246.6L15.47,308.6L15.98,299.04L16.06,305.19L16.32,307.95L16.99,249.03L17.16,254.9L17.25,292.42L17.33,291.34L17.42,276.07L17.5,301.49L18.01,235.23L18.18,291.06L18.26,275.37L18.86,242L18.94,250.84L19.02,285.09L19.62,232.79L19.78,252.97L19.87,275.57L20.21,233.75L20.55,291.78L20.63,252.82L20.72,263.55L20.97,269.81L21.39,246.91L21.48,247.9L21.56,265.37L21.65,264.43L21.73,252.99L21.98,245.41L22.07,224.46L22.32,240.87L22.83,240.09L22.91,239.33L23.59,226.07L23.67,231.96L23.76,236.17L23.93,241.81L24.1,223.11L24.35,232.47L24.44,246.16L24.69,173.41L25.2,218.12L25.28,223.81L25.36,204.57L25.79,237.32L26.04,215.37L26.13,216.19L26.38,231.36L26.97,198.7L27.06,218.83L27.14,213.2L27.39,247.32L27.48,248.57L27.73,290.66L27.82,215.18L28.24,240.45L28.32,243.79L28.41,242.06L28.49,208.3L28.66,237.11L29.25,231.13L29.34,230.32L29.42,202.42L30.1,221.24L30.18,221.62L30.44,218.73L30.52,214.83L30.78,221.88L31.28,216.55L31.37,216.07L31.54,223.38L31.62,301.05L32.81,246.05L32.89,248.94L32.97,304.59L33.23,246.56L33.82,250.58L33.9,279.1L34.58,228.21L34.67,251.08L34.75,246.58L34.83,217.23L35.17,295.36L35.43,240.98L35.51,255.35L35.85,283.18L36.1,218.63L36.36,244.01L36.44,241.06L36.53,237.4L36.61,272.44L36.69,270.26L36.78,274.61L36.86,303.28L37.03,212.05L37.63,252.48L37.71,273.15L37.79,239.4L38.47,256.27L38.55,243.79L38.64,245L38.72,211.66L39.48,254.45L39.57,241.66L39.65,237.39L39.74,148.73L40.08,260.77L40.5,240.84L40.58,236.23L41.09,232.04L41.17,248.82L41.26,246.4L41.34,233.6L41.68,238.69L41.77,230.56L42.02,232.71L42.11,234.55L42.78,226.31L42.87,221.1L43.46,246.88L43.63,239.46L43.71,210.5L44.14,233.42L44.47,224.77L44.56,206.39L44.64,122.26L44.81,220.31L45.23,183.3L45.32,204.68L45.4,222.32L45.83,171.09L45.91,221.11L45.99,97.88L46.16,297.67L46.76,250.65L46.84,247.15L46.93,236.76L47.01,295.02L47.35,260.07L47.43,289.44L47.85,203.42L48.19,249.42L48.28,278.38L48.87,226.47L49.04,259.26L49.12,256.64L49.38,240.17L49.46,221.74L49.8,202.16L49.97,270.82L50.31,248.81L50.39,228.86L50.48,250.98L50.65,223.85L51.07,227.92L51.15,229.12L51.32,258.75L51.83,244.7L51.91,232.01L52.42,255.96L52.59,236.11L52.67,231.03L52.84,233.16L53.01,224.45L53.1,210.89L53.35,255.29L53.86,217.04L53.94,224.7L54.03,257.37L54.2,222.82L54.7,240.64L54.79,241.5L55.13,249.58L55.46,217.28L55.55,236.6L55.63,251.21L55.97,212.21L56.31,217.36L56.39,258.29L56.56,300.98L56.65,222.2L57.15,240.6L57.24,250.43L57.66,232.69L57.75,245.58L57.83,209.76L58.17,262.82L58.59,243.47L58.68,210.6L59.1,207.36L59.52,251.54L59.61,223.66L59.95,245.89L60.2,165.6L60.28,237.2L60.37,230.69L60.45,234.24L60.54,192.03L60.79,252.82L61.3,221.93L61.38,251.75L61.89,277.54L61.97,226.05L62.14,233.88L62.23,245.35L62.4,256.81L62.48,152.13L62.99,191.55L63.07,257.29L63.75,232.51L63.83,234.69L63.92,237.53L64.09,245.79L64.51,232.02L64.59,230.36L64.68,188.89L65.27,220.96L65.36,225.61L65.86,226.78L66.12,217.32L66.2,221.28L66.62,193.64L66.88,213.18L66.96,221.54L67.3,222.45L67.55,208.51L67.64,228.29L67.72,224.53L67.81,230.56L67.89,181.11L68.06,260.28L68.74,244.04L68.82,214.35L69.08,255.27L69.58,243.6L69.67,156.82L70.09,259.92L70.43,237.64L70.51,246.89L70.68,233.8L70.77,311.87L71.11,227.3L71.53,245.95L71.61,250L71.78,237.08L71.87,244.11L71.95,221.19L72.63,260.83L72.71,246.58L72.8,244.33L73.22,206.84L73.3,259.34L73.56,232.29L73.64,234.85L73.81,244.11L74.06,231.63L74.4,237.6L74.49,232.58L74.57,235.16L74.91,225.85L75.16,233.89L75.25,232.71L75.42,233.49L75.5,230.53L75.59,227.84L76.01,227.79L76.09,241.81L76.43,236.77L76.52,229.24L76.77,230.03L76.94,197.51L77.36,209.92L77.45,211.27L77.62,198.95L77.7,239.57L77.95,215.3L78.04,228.67L78.63,213.54L78.72,243.13L79.14,184.66L79.47,185.65L79.56,222.08L79.81,301.25L80.32,254.63L80.41,249.2L80.49,283.77L80.66,236.89L81.08,243.03L81.17,244.81L81.25,242.88L81.34,269.67L81.67,310.43L82.01,233.85L82.1,235.78L82.18,242.06L82.43,221.99L82.69,245.39L82.94,226.16L83.03,236.31L83.11,226.07L83.28,244.68L83.36,311.8L83.87,232.15L84.13,244.61L84.21,236.8L84.29,239.11L84.38,207.34L84.89,264.1L85.14,231.58L85.23,225.83L85.56,221L85.65,232.49L85.73,225.26L85.82,236.56L86.07,240.53L86.15,226.37L86.49,235.27L86.58,248.61L86.75,265.71L87,221.51L87.17,243.6L87.25,239.3L87.51,213.45L87.59,220.56L87.68,236.99L88.18,209.18L88.27,243.55L88.35,255.48L88.52,222.2L88.86,234.3L88.94,228.63L89.54,232.66L89.62,209.37L89.71,220.36L89.79,229.9L90.21,282.33L90.55,237.22L90.64,238.94L90.97,221.53L91.06,227.82L91.14,249.45L91.23,251.28L91.31,238.39L91.4,149.53L91.99,249.08L92.24,235.1L92.33,231.14L92.41,215.19L92.5,238.82L93.09,225.11L93.17,228.74L93.34,219.29L93.59,264.38L93.85,241.12L93.93,241L94.27,196.37L94.53,221.52L94.61,247.27L95.03,191.33L95.37,239.98L95.45,255.16L96.05,238.83L96.3,240.57L96.38,246.57L97.06,231.55L97.15,231.87L97.23,241.99L97.4,213.35L97.91,219.58L97.99,228.59L98.16,219.82L98.25,237.06L98.33,157.29L98.75,239.05L99.09,232.34L99.17,234.42L99.85,169.23L99.94,232.38L100.11,230.11L100.19,225.81L100.27,250.1L100.61,223.42L100.87,237.87L100.95,225.17L101.2,245.41L101.8,240.57L101.88,219.99L102.13,207.97L102.22,247.41L102.56,245.25L102.64,221.95L103.06,251.15L103.23,216.95L103.4,227.79L103.49,248.87L103.57,252.93L103.74,233.7L103.83,225.92L103.91,237.85L103.99,213.96L104.5,218.82L104.59,212.71L105.35,244.73L105.43,213.75L105.52,267.84L106.19,242.36L106.28,239.94L106.45,204.43L106.53,234.82L106.62,232.17L106.7,154.31L107.38,256L107.46,247.48L107.55,237.72L107.63,243.44L107.8,212.98L107.88,228.41L107.97,188.25L108.14,263.59L108.56,186.87L108.73,234.11L108.81,236.68L108.9,237.16L108.98,242.03L109.83,218.19L109.91,222.5L110,237.64L110.25,238.46L111.01,205.73L111.1,215.74L111.18,218.62L111.52,207.19L111.6,228.63L111.69,219.05L111.77,244.77L112.03,227.69L112.11,245.49L112.2,216.59L112.45,249.62L113.04,242.72L113.13,212L113.72,248.52L113.8,202.15L113.89,221.85L113.97,237.33L114.22,252.9L114.48,224.87L114.73,231.92L114.82,238.44L115.24,251.79L115.49,219.97L115.58,256.13L115.66,162.68L116.34,224.1L116.42,234.93L116.51,220.12L116.59,294.32L116.76,223.36L116.85,309.35L117.77,178.68L117.86,255.48L118.03,193.6L118.62,234.45L118.71,230.19L119.38,210.13L119.47,211.54L119.55,219.6L119.64,215.57L119.81,227.41L119.89,221.4L119.97,244.6L120.23,248.36L120.82,226.34L120.9,238.07L121.5,217.8L121.66,225.72L121.75,230.62L122.26,247.87L122.43,193.93L122.51,241.11L122.59,248.3L123.02,232.75L123.1,233.13L123.19,225.33L123.27,224.11L123.36,243.44L123.61,230.72L123.69,244.31L124.03,229.94L124.45,237.35L124.54,231.08L124.62,234.28L124.96,218.9L125.05,205.33L125.47,243.49L125.55,146.74L126.06,309.42L126.32,235.92L126.4,232.92L126.65,234.22L126.82,224.2L126.91,243.62L126.99,217.63L127.24,261.67L127.67,240.12L127.75,235.76L128.43,214.36L128.51,229L129.27,205.05L129.36,229.6L129.44,237.55L129.78,202.77L129.95,214.27L130.03,211.47L130.29,189.11L130.37,232.7L130.46,228.42L130.54,120.41L130.63,223.21L131.3,212.29L131.39,132.23L132.06,241.13L132.15,230.69L132.23,230.72L132.49,205.96L132.57,240.59L132.66,233.26L132.74,240.18L132.83,160.67L133.16,295.09L133.42,243.31L133.5,234.4L133.67,224.85L134.01,255.87L134.09,126.9L134.26,249.9L134.94,243.95L135.02,238.02L135.36,248.48L135.53,206.65L135.87,211.13L135.95,227.6L136.04,228.74L136.12,223.12L136.21,224.88L136.29,218.17L136.54,220.83L136.71,212.45L136.8,224.82L137.56,167.42L137.64,244.79L137.9,298.52L138.15,191.27L138.41,227.01L138.49,244.59L139.17,213.46L139.25,224.49L139.34,230.81L140.01,215.99L140.18,221.57L140.26,224.81L140.6,212.23L140.69,221.81L140.86,221.8L140.94,226.22L141.79,204.03L141.87,214.48L141.96,218.86L142.04,219.24L142.13,214.8L142.21,216.62L142.38,212.6L142.46,215.28L142.55,200.01L143.39,236.93L143.48,234.63L143.56,239.46L143.65,249.27L143.99,213.38L144.15,228.17L144.24,216.12L144.58,228.97L145,200.76L145.08,216.38L145.17,208.27L145.51,245.02L145.59,235.04L145.68,239.56L145.84,208.73L145.93,311.78L146.35,245.4L146.44,247.68L146.69,210.82L147.28,228.05L147.37,232.92L147.54,188.54L148.13,218.75L148.21,247.23L148.38,224.77L148.97,231.64L149.06,236.83L149.23,246L149.31,228.99L149.4,243.87L149.48,223.48L149.99,224.28L150.07,193.83L150.41,302.13L150.83,239.61L150.92,234.9L151.26,222.81L151.43,255.59L151.51,176.68L151.68,242.35L152.1,226.83L152.19,159.11L152.95,313.37L153.03,249.99L153.12,247.04L153.2,255.91L153.29,153.76L153.62,251.38L154.05,214.99L154.13,212.05L154.89,249.34L154.98,198.49L155.06,249.67L155.32,160.91L155.74,235.14L155.82,224.45L155.91,243.33L156.5,232.72L156.58,222.7L156.92,251.31L157.26,233.09L157.34,202.65L157.51,234.68L158.11,225.51L158.19,180.84L159.12,244.71L159.2,160.96L159.46,301.32L159.96,235.21L160.05,225.52L160.39,222.54L160.47,245.03L160.56,232.91L160.64,223.51L160.81,118.61L161.32,239.67L161.4,227.6L161.49,226.58L161.57,242.08L161.82,271.91L162.25,183.77L162.42,225.25L162.5,236.43L163.18,202.29L163.26,222.79L163.35,223.47L163.52,213.14L163.85,234.28L163.94,246.83L164.02,242.13L164.11,248.7L164.19,192.17L164.36,251.78L164.95,226.73L165.04,234.61L165.21,238.86L165.63,130.67L165.8,232.01L165.88,220.14L166.39,217.56L166.47,248.99L166.64,242.84L166.73,222.64L167.15,243.92L167.49,227.47L167.57,141.54L167.66,247.67L168.33,220.76L168.42,233.4L168.67,214.31L168.76,236.61L169.01,230.03L169.1,237.95L169.35,244.51L169.94,216.86L170.03,219.05L170.53,207.4L170.7,226.78L170.79,236.7L170.96,211.74L171.04,241.54L171.29,235.04L171.38,141.84L171.63,250.1L172.14,219.27L172.22,224.92L172.31,196.72L172.48,250.89L172.9,230.34L172.99,237.24L173.07,243.12L173.15,215.09L173.58,228.22L173.66,230.36L173.75,208.83L174.34,211.35L174.42,268.22L174.59,167.17L175.18,220.97L175.27,228.94L175.35,246.46L175.69,216.89L176.03,233.58L176.11,231.4L176.2,229.96L176.28,144.42L177.04,235.1L177.13,233.36L177.21,235.9L177.38,236.63L178.48,213.63L178.56,213.91L178.65,212.82L178.9,217.61L178.99,216.34L179.07,217.13L179.16,219.88L179.66,215.31L179.75,209.94L180.51,220.71L180.6,218.47L180.68,215.14L180.93,197.57L181.02,218.55L181.86,208.31L181.95,204.68L182.03,197.76L182.37,208.95L182.45,227.05L182.88,250.4L183.05,216.25L183.13,189.76L183.38,225.31L183.47,196.47L183.89,231.24L183.98,195.75L184.23,204.47L184.31,227.19L184.48,182.76L184.74,292.83L184.82,255.24L184.91,288.67L185.33,185.21L185.67,221.48L185.75,229.19L186.01,153.79L186.09,235.58L186.17,227.34L186.26,262.77L187.02,216.05L187.27,217.07L187.36,234.29L187.7,239.64L187.86,226.08L187.95,250.88L188.37,201.96L188.71,225.65L188.8,228.54L188.88,231.26L189.13,222.1L189.39,228.61L189.47,225.61L190.06,213.44L190.23,242.61L190.32,234.43L190.4,234.72L190.49,280.79L190.65,141.03L191.33,200.81L191.42,215.93L191.59,220.91L191.75,205.88L192.01,213.05L192.09,209.77L192.18,211.11L192.26,195.05L192.35,217.59L192.94,208.63L193.02,197.33L193.36,230.52L193.44,193.16L193.87,218.23L193.95,217.04L194.04,204.13L194.38,224.13L194.63,221.79L194.71,219.79L194.97,263.6L195.05,248.34L195.14,76.15L195.22,241.1L195.56,16.5L195.9,234.68L195.98,115.17L196.41,249.34L196.83,243.21L196.91,236.1L197,237.96L197.08,208.34L197.25,182.9L197.93,256.89L198.01,249.45L198.26,177.25L198.35,249.77L198.77,225.1L198.86,236.14L199.03,238.31L199.28,120.02L199.36,210.02L199.62,234.35L200.21,221.75L200.29,222.77L200.38,204.75L200.89,245.09L200.97,232.3L201.05,232.64L201.22,246.4L201.31,229.51L201.9,154.81L201.99,245.54L202.07,224.47L202.15,232.87L202.32,238.44L202.58,224.83L202.75,229.8L202.83,217.85L202.92,188.29L203.51,226.62L203.59,228.93L203.76,226.38L203.84,231.85L203.93,246.48L204.1,269.9L204.78,189.08L204.86,215.12L204.94,164.56L205.45,251.07L205.54,207.06L205.62,242.51L206.21,254.23L206.3,196.28L206.38,243.33L206.55,246.59L207.23,212.22L207.31,225.48L207.4,259.52L207.99,197.47L208.24,221.96L208.33,214.02L208.92,269.08L209.09,243.69L209.17,160.33L209.42,251.34L209.59,152.44L210.02,250.36L210.1,238.17L210.27,223.71L210.44,225.86L210.52,160.02L211.12,230.94L211.37,225.91L211.45,225.91L211.62,234.88L212.13,211.44L212.22,219.59L212.3,221.92L212.47,217.25L212.55,219.57L212.64,215.04L212.72,221.25L213.23,214.45L213.31,195L213.99,219.24L214.08,217.59L214.16,214.47L214.33,215.7L214.5,210.03L214.58,206.66L214.67,210.88L215.09,203.56L215.34,207.77L215.43,209.43L215.51,210.32L215.6,207.87L215.85,207.94L215.93,176.37L216.1,206.02L216.7,195.26L216.78,195.14L217.37,189.48L217.46,190.61L217.54,150.29L218.39,192.62L218.47,195.27L219.06,171.94L219.15,194.04L219.23,194.19L220.08,183.44L220.25,187.97L220.33,187.81L220.75,180.46L221.09,186.51L221.18,185.58L221.35,185.28L221.69,191.2L222.02,188.41L222.11,184.45L222.19,176.15L222.44,187.84L222.78,185.13L222.87,183.81L222.95,184.44L223.04,178.28L223.12,182.74L223.46,174.58L223.54,135.58L224.39,180.36L224.47,177.92L224.9,179.89L224.98,172.94L225.07,98.6L225.57,179.3L225.83,175.23L225.91,112.93L226.17,174.29L226.67,169.96L226.76,172.48L226.84,173.03L226.93,172.49L227.01,165.37L227.1,170.67L227.52,164.55L227.69,168.13L227.77,165.52L227.94,155.07L228.03,159.77L228.11,165.27L228.95,154.58L229.04,160.75L229.55,149.27L229.8,156.17L229.89,159.28L230.05,154.84L230.31,160L230.56,157.8L230.65,159.55L231.24,151.38L231.41,157.5L231.49,155.9L231.91,138.5L232.17,157.06L232.25,155.59L232.68,137.49L232.76,153.84L233.1,154.46L233.18,122.18L233.27,153.45L233.35,155.96L234.2,151.82L234.28,152.74L234.45,153.55L234.54,152.83L234.62,143.12L235.04,154.54L235.38,152.89L235.47,152.74L235.63,148.45L236.23,155.37L236.31,164.24L236.4,167.63L236.73,158.74L236.82,159L236.9,157.23L237.16,153.5L237.41,162.2L237.58,162.15L237.66,147.01L238.34,240.26L238.59,228.93L238.68,213.94L238.76,214.11L238.85,208.22L238.93,184.52L239.02,230.99L239.44,227.75L239.52,238.44L239.61,240.02L239.69,235.25L239.78,228.27L240.03,217.61L240.2,249.18L240.37,231.81L240.45,236.23L240.62,256.49L240.71,219.52L240.79,229.37L240.88,143.22L241.04,238.09L241.64,202.32L241.72,151.05L242.57,310.04L242.65,240.99L242.74,226.58L243.16,220.2L243.58,247.26L243.67,230.61L244.01,230.08L244.09,250.48L244.17,215.35L244.43,207.27L245.02,305.01L245.1,238.67L245.19,240.07L245.27,233.45L245.36,209.87L245.61,241.69L246.12,231.77L246.2,217.05L246.96,255.45L247.05,204.29L247.47,239.71L247.81,230.49L247.89,223.37L248.06,221.3L248.23,264.84L248.32,222.13L248.4,220.79L248.49,237.62L248.91,206.48L249.08,212.47L249.16,290.1L249.25,224.09L249.92,231.03L250.01,238.06L250.77,217.52L250.85,241.67L251.02,244.73L251.11,233.51L251.28,243.47L251.36,236.31L251.44,218.29L251.61,241.4L252.12,239.21L252.21,219.07L252.54,197.16L252.8,237.89L252.88,229.15L252.97,215.68L253.22,239.19L253.64,227.76L253.73,221.58L253.98,237.16L254.49,210.94L254.57,217.17L254.66,201.67L254.91,240.39L255.25,224.51L255.33,229.79L255.5,234.66L256.01,212.69L256.18,215L256.26,232.67L256.52,201.66L256.69,228.45L256.77,236.01L257.02,237.77L257.11,225.3L257.36,237.33L257.45,128.97L257.62,234.68L258.29,229.95L258.38,226.75L258.55,199.67L258.63,155.28L259.05,221.3L259.39,210.68L259.48,165.65L259.73,224.77L260.24,220.46L260.32,213.58L260.49,216.99L260.66,183.63L260.91,197.15L261,307.64L261.17,152.99L261.84,201.32L261.93,213.37L262.01,244.61L262.61,220.6L262.69,211.55L262.86,209.74L263.37,236.96L263.53,232.09L263.62,232.41L264.04,232.57L264.63,207.67L264.72,217.15L264.97,221.71L265.06,206.7L265.23,216.14L265.31,205.33L265.73,219.55L265.99,213.4L266.07,196.87L266.83,219.95L266.92,212.8L267,210.32L267.26,217.78L267.51,202.69L267.76,209.08L267.85,207.1L268.1,203.5L268.27,213.32L268.86,212.89L268.95,212.6L269.29,201.82L269.54,207.85L269.62,186.94L269.88,294.08L270.21,216.23L270.3,28.01L270.72,252.06L271.14,178.88L271.23,237.99L271.65,239.74L272.08,218.36L272.16,214.57L272.24,234.23L272.75,206.67L272.83,217.41L272.92,211.97L273,215.86L273.43,200.66L273.68,215.53L273.77,172.98L274.61,242.8L274.7,224.26L274.87,254.67L275.2,226.23L275.29,155.38L275.37,249.25L276.05,233.51L276.13,222.49L276.64,217.34L276.81,246.56L276.89,117.79L276.98,240.53L277.65,232.4L277.74,226.18L277.99,236.7L278.5,234.2L278.59,225.31L278.84,213.76L278.92,237.66L279.18,227.94L279.26,232.61L279.51,213.09L279.77,257.62L279.94,237.36L280.02,222.27L280.19,217.86L280.36,233.39L280.7,224L280.78,230.25L281.38,211.21L281.46,237.33L281.54,234.92L281.8,215.79L282.05,237.08L282.3,220.04L282.39,231.33L282.47,233.07L282.56,218.78L282.64,219.88L282.9,232.65L283.07,218.29L283.15,207.95L283.83,261.5L284.08,256.3L284.17,206.8L284.76,267.28L284.93,215.66L285.01,220.76L285.18,230.54L285.35,223.56L285.43,123.89L285.94,237.28L286.19,202.02L286.28,223.1L286.62,230.01L286.7,212.49L286.96,225.78L287.04,188.52L287.21,143.97L287.55,284.97L287.8,221.62L287.89,223.09L288.22,223.29L288.39,210.58L288.48,90.23L288.56,231.8L289.24,219.08L289.32,216.99L289.41,212.98L289.58,229.2L289.66,238.33L289.74,246.39L289.91,224.3L290.25,236.49L290.34,223.4L290.42,221.75L290.59,228.2L290.68,176.1L290.76,236.77L291.44,222.84L291.52,210.76L291.86,244.82L291.94,175.12L292.03,240.73L292.7,227.19L292.79,227.4L292.87,205.9L293.04,238.09L293.55,224.14L293.63,218.51L294.06,221.84L294.4,210.84L294.48,216.75L294.57,158.66L294.9,240.93L295.16,221.68L295.24,219.33L295.32,230.78L295.66,212.32L296,226.03L296.09,210.26L296.68,276.2L296.76,229.06L296.85,226.11L296.93,238.16L297.19,218.94L297.52,226.45L297.61,220.96L297.78,208.21L298.03,227.88L298.37,215.8L298.45,223.66L298.88,205.01L299.05,214.33L299.13,253.34L299.81,207.85L299.98,235.03L300.06,235.03L300.65,219.21L300.82,225.93L300.91,222.29L300.99,223.29L301.08,214.88L301.58,216.49L301.92,202.65L302,223.04L302.77,207.4L302.85,211.31L302.93,205.54L303.1,213.55L303.19,202.31L303.53,206.62L303.61,195.75L304.12,211.82L304.37,203.19L304.46,197.38L304.54,204.99L305.13,194.14L305.22,190.08L305.39,192.47L305.47,187.76L305.56,183.31L305.72,200.11L306.23,191.79L306.32,188.82L306.65,189.11L307.08,183.68L307.16,185.35L307.25,188.21L307.33,184.98L307.84,193.88L307.92,218.87L308.26,195.49L308.35,202.62L308.43,245.28L308.51,248.79L308.6,223.92L308.68,233.01L308.77,212.43L308.94,232.85L309.44,158.64L309.53,237.8L309.61,232.6L309.7,161.28L310.46,249.01L310.54,222.57L310.63,181.95L310.8,263.51L310.97,122.41L311.39,232.85L311.47,214.43L311.81,201.96L311.9,246.3L311.98,242.08L312.07,235.21L312.15,244.46L312.4,235.76L312.49,179.35L312.74,250.03L313.25,233.78L313.33,234.44L313.42,233.5L313.5,162.87L313.76,229.59L314.26,228.32L314.35,216.81L314.52,212.73L314.94,230.51L315.02,215.94L315.11,208.51L315.19,204.93L315.28,222.75L315.36,206.99L315.45,141.09L315.62,227.53L316.12,204.24L316.21,207.09L316.38,203.1L316.72,248.74L316.8,245.85L316.89,209.29L317.05,207.67L317.31,245.2L317.65,227.56L317.73,222.16L317.98,219.96L318.32,265.41L318.41,220.81L318.49,222.97L318.66,213.09L318.74,225L319,217.3L319.08,246.01L319.59,276.41L319.68,166.16L319.84,226.72L319.93,216.18L320.18,236.28L320.27,220.39L320.52,227.71L320.94,206.68L321.03,218.79L321.11,211.52L321.2,205.61L321.45,228.22L321.53,215.9L321.62,281.79L322.04,202.14L322.38,235.44L322.47,228.68L322.63,225.86L322.72,155.24L323.14,227.28L323.65,214.96L323.73,204.61L323.9,227.61L324.49,218.49L324.58,216.65L324.75,230.77L325.17,200.86L325.34,202.37L325.42,222.75L326.27,195.57L326.35,206.9L326.61,234.12L326.69,160.73L326.95,235.81L327.54,226.66L327.62,169.32L328.47,247.72L328.55,242.46L328.64,222.02L328.81,247.4L329.31,225.89L329.4,220.15L329.57,230.87L329.82,214.06L329.9,218.67L329.99,227.87L330.16,187.35L330.24,244.31L330.92,199.58L331,134.64L331.43,247.45L331.77,228.87L331.85,230.88L331.93,220.49L332.02,257.25L332.61,225.58L332.7,236.75L332.95,237.49L333.62,210.83L333.71,215.91L333.79,204.88L333.88,222.46L334.3,218.65L334.39,230.11L335.23,200.8L335.32,228.31L335.74,180.44L335.91,231.85L335.99,224.52L336.08,236.36L336.16,231.3L336.25,231.66L336.33,176.4L336.58,240.81L337.09,221.15L337.18,221.35L337.35,225.72L338.11,211.89L338.19,219.5L338.28,224.27L338.61,210.57L338.95,222.39L339.04,212.7L339.12,218.42L339.21,190.01L339.46,210.25L339.54,167.57L339.71,249.64L340.3,208.93L340.39,217.82L340.47,229.66L340.9,217.73L340.98,221.45L341.07,132.68L341.83,223.75L341.91,214.17L342,216.36L342.17,217.92L342.76,195.16L342.84,251.87L343.26,128.48L343.6,210.15L343.69,209.58L343.77,219.85L344.36,204.68L344.45,191.86L344.62,186.66L345.38,225.93L345.46,218.7L345.63,209.27L345.71,89.37L346.56,259.15L346.65,236.35L346.81,224.63L347.32,238.55L347.41,229.66L347.49,239.26L347.58,250.92L347.74,222.34L348.17,234.23L348.25,229.49L348.84,203.91L349.1,204.72L349.18,220.37L349.44,224.89L349.52,204.6L349.94,204.67L350.03,219.42L350.62,195.2L350.7,205.92L350.79,242.87L350.87,284.03L351.13,206.05L351.47,231.31L351.55,232.41L351.63,245.75L351.8,190.93L352.23,229.72L352.31,212.55L352.48,196.24L352.56,214.21L352.65,205.97L352.9,220.76L352.99,217.98L353.07,265.2L353.75,184.86L353.92,214.84L354,220.83L354.17,213.82L354.34,217.99L354.42,206.09L354.51,185.32L354.93,219.1L355.02,215.17L355.1,223.63L355.19,224.68L355.27,215.22L355.95,242.01L356.11,233.73L356.2,223.18L356.37,219.69L356.45,229.58L356.62,221.29L356.71,207.96L356.79,312.62L356.88,136.57L357.47,222.82L357.55,211.53L357.81,227.98L358.06,213.41L358.14,156.69L358.9,220.18L358.99,215.68L359.07,211.67L359.16,209.64L359.24,216.21L359.33,211.33L359.41,224.25L360.17,188.32L360.26,213.35L360.43,197.5L360.51,208.89L360.6,289.23L361.44,214.65L361.53,214.25L361.61,216.3L361.86,210.89L362.03,212.96L362.12,208.48L362.37,206.69L362.96,220.7L363.05,209.7L363.13,219.73L363.39,195.28L363.81,214.97L363.89,209.21L364.57,227.06L364.74,219.65L364.82,233.55L365.08,178.66L365.5,222.88L365.58,222.37L365.84,200.08L365.92,235.48L366.26,226.53L366.35,229L366.43,164.01L367.11,218.74L367.19,219.22L367.28,220.36L367.36,249.99L368.12,200.8L368.2,205.52L368.54,202.14L368.88,258.17L368.97,210.26L369.05,209.06L369.14,202.31L369.22,67.74L369.98,249.76L370.07,100.56L370.32,230.16L370.83,214.35L370.91,223.23L371.16,225L371.25,194.72L371.67,209.51L371.76,215.18L371.84,217.04L371.92,208.28L372.01,213.2L372.09,202.73L372.18,212.56L372.6,199.33L372.69,210.49L372.77,191.47L373.02,199.52L373.53,194.25L373.62,193.37L373.79,185.3L373.87,195.84L373.96,190.27L374.04,145.7L374.71,240.9L374.8,235.49L374.88,230.72L375.39,212.28L375.81,218.74L375.9,185.86L375.98,159.99L376.24,218.94L376.49,188.56L376.58,218.64L376.66,219.37L376.75,211.79L376.83,154.51L377,245.49L377.42,228.68L377.5,228.4L377.76,225.44L377.93,232.22L378.01,229.83L378.1,191.2L378.77,257.51L378.86,223.35L378.94,226.42L379.03,228.71L379.11,227.93L379.2,193.1L379.96,256.77L380.04,240.25L380.13,235.48L380.3,241.22L380.38,227.76L380.47,184.44L381.23,229.64L381.31,221.41L381.39,220.17L381.73,217.19L381.82,240.91L382.07,239.47L382.16,222.6L382.49,254.92L382.83,222.15L382.92,223.77L383.68,207.75L383.76,210.51L383.93,199.79L384.1,216.24L384.52,206.46L384.61,201.61L384.69,204.19L384.95,193.44L385.11,199.73L385.2,188.4L386.05,202.25L386.13,195.87L386.3,198.9L386.47,153.51L386.55,228.75L386.64,235.79L386.72,313.44L387.06,221.96L387.57,237.19L387.65,230.13L388.41,212.75L388.5,218.4L388.58,219.62L388.84,203.84L389.43,205.31L389.51,203.74L389.6,203.36L389.68,211.15L390.36,187.8L390.44,201.02L390.53,204.96L390.78,190.22L390.86,223.41L391.2,207.45L391.29,210.19L391.54,198.97L391.71,215.87L392.05,206.49L392.13,202.84L392.22,201.79L392.39,205.55L392.56,202.12L392.64,191.82L392.72,184.39L392.81,218.28L393.4,186.57L393.48,198.71L393.57,218.12L393.82,185.6L394.16,188.74L394.25,188.62L394.41,196.29L394.84,188.07L394.92,182.71L395.26,179.27L395.35,198.95L395.68,191.43L395.77,184.77L396.02,219.66L396.11,155.22L396.95,237.38L397.04,231.95L397.12,222.92L397.2,215.55L397.37,229L397.63,217.87L397.71,121.96L398.22,243.11L398.47,228.42L398.56,224.45L399.15,217.81L399.49,246.7L399.57,235.18L399.83,240.16L399.99,229.5L400.16,232.95L400.25,312.77L401.09,223.71L401.18,230.72L401.26,231.05L401.35,223.02L401.52,204.95L401.69,211.65L401.77,222.17L402.62,202.85L402.7,206.63L402.79,205.66L402.87,218.34L403.04,199.3L403.12,223.82L403.46,216.2L403.55,225.9L403.63,230.34L403.88,214.48L404.22,222.09L404.31,215.07L404.39,203.65L404.56,217.6L405.07,213.2L405.15,220.66L405.49,200.3L405.91,211.27L406,217.59L406.08,221.28L406.25,212.87L406.34,214.45L406.42,196.64L406.67,224.65L406.84,190.67L407.1,200.81L407.18,192.65L407.94,214.09L408.03,201.59L408.11,215.89L408.53,179.09L408.7,192.49L408.79,184.73L408.96,178.62L409.55,196.13L409.63,183.59L409.8,179.79L410.48,194.93L410.56,190.45L410.65,189.69L410.73,313.48L411.07,169.55L411.58,215L411.66,217.12L411.75,227.24L412.17,211.65L412.34,217.87L412.42,215.58L412.51,136.1L413.18,204.74L413.27,205.1L413.44,206.2L413.78,200.76L413.86,197.92L414.2,212.39L414.62,205.72L414.71,202.81L415.05,212.29L415.13,201.77L415.21,197.81L415.47,189.58L416.14,250.46L416.23,230.37L416.31,220.62L416.74,191.57L416.82,224L417.07,211L417.16,216.66L417.41,221.96L417.84,194.76L417.92,212.69L418,210.44L418.34,198.33L418.68,208.05L418.76,209.38L418.93,197.82L419.1,228.69L419.19,217.38L419.27,129.26L419.53,232.16L420.12,222.65L420.2,217.13L420.37,219.73L420.54,214.4L420.62,218.23L420.71,208.15L420.79,215.54L421.47,211.1L421.56,207.16L421.64,232L422.32,216.9L422.4,214.19L422.57,217.48L422.82,208.12L422.91,215.71L422.99,205.17L423.16,213.08L423.41,191.1L423.75,211.08L423.84,201.12L424.51,234.56L424.68,222.1L424.77,209.7L424.85,164.56L424.94,222.08L425.44,201.98L425.53,219.48L426.29,193.51L426.37,194.15L426.46,192.87L426.63,201L426.71,44.98L427.14,227.66L427.64,222.86L427.73,212.23L427.81,164.55L428.23,232.83L428.4,229.24L428.49,226.01L428.57,225.44L428.66,278.64L428.74,141.59L429.42,226.16L429.5,221.47L429.59,219.78L429.67,219.95L429.76,202.8L429.93,223.96L430.43,201.99L430.52,207.57L430.6,211.12L430.77,201.15L430.86,117.21L431.7,236.39L431.78,234.44L432.38,185.32L432.46,228.46L432.55,226.99L432.63,228.12L432.8,225.4L432.88,218.42L432.97,225.79L433.14,215.25L433.22,310.54L433.98,219.88L434.07,222.17L434.15,210.36L434.66,226.12L434.74,252.85L435.08,203.82L435.59,218.74L435.67,207.24L435.76,206.67L435.84,238.38L436.01,236.12L436.1,247.69L436.18,240.66L436.27,208.14L436.44,242.32L437.03,225.01L437.11,205.9L437.53,225.28L437.87,221.38L437.96,217.42L438.13,208.19L438.21,227.51L438.55,205.6L438.72,233.25L438.97,220.73L439.06,216.36L439.31,219.39L439.9,193.04L439.99,207.89L440.07,212.35L440.32,194.8L440.66,207.68L440.75,197.25L440.92,205.94L441.25,205.18L441.34,167.18L441.51,233.73L442.1,214.59L442.18,203.66L442.35,220.47L442.69,215.7L442.78,186.85L443.54,232.75L443.62,221.78L443.96,197.32L444.47,204.29L444.55,102.38L445.31,251.71L445.4,217.5L445.48,243.57L445.9,209.49L446.16,224.07L446.24,215.74L446.41,221.05L446.58,211.95L446.75,213.92L446.84,211.41L447,214.13L447.17,201.93L447.26,227.3L447.34,140.38L447.68,230.97L448.02,211.02L448.1,215.11L448.19,224.15L448.27,215.69L448.36,113.2L448.61,238.31L449.12,225.5L449.2,222.04L449.62,225.91L449.88,202.44L449.96,234.98L450.05,234.56L450.13,245.62L451.06,210.68L451.15,277.08L451.23,214.52L451.91,256.87L451.99,222.44L452.16,212.12L452.5,213.93L452.58,219.38L453.43,197.23L453.6,200.01L453.68,204.51L453.85,201.88L454.1,209.85L454.19,213.44L454.36,211.78L454.44,203.32L454.53,203.03L454.61,184.87L455.04,214.58L455.37,192.21L455.46,188.05L455.54,205.11L456.14,175.96L456.22,187.46L456.47,179.14L456.64,201.96L456.98,189.65L457.06,197.07L457.15,233.58L457.57,172.72L457.74,176.42L457.83,191.68L458.25,190.25L458.33,199.86L458.59,199.12L458.67,161.99L459.18,208.68L459.6,195.01L459.69,196.31L459.86,185.97L460.11,192.47L460.19,77.16L460.28,236.4L460.95,157.63L461.04,225.64L461.12,231.56L461.63,214.54L461.71,218.92L462.48,206.78L462.56,213.77L462.65,216.83L462.73,212.17L462.9,216.62L462.98,146.43L463.91,237.27L464,233.67L464.08,241.97L464.17,195.64L464.59,231.98L464.67,219.07L464.84,221L465.18,171.7L465.44,205.42L465.52,208.11L465.6,201.4L465.77,231.89L466.11,220L466.2,214.21L466.28,213.73L466.36,222.16L466.45,218.97L466.53,180.16L466.96,239.86L467.29,239.83L467.38,238.82L467.8,186.7L467.89,213.19L467.97,231.25L468.06,229.88L468.31,236.4L468.39,235.44L468.48,236.56L469.16,212.73L469.24,235.97L469.83,164.94L470.17,199.53L470.25,207.68L470.76,198.52L471.02,229.33L471.1,220.05L471.18,206.73L471.27,220.41L471.95,211.16L472.03,209.08L472.45,200.93L472.54,206.19L472.62,124.69L472.71,241.01L473.38,219.93L473.47,205.2L473.55,205.57L473.64,204.13L473.72,210.54L474.23,215.07L474.48,200.98L474.57,206.84L474.9,192.08L475.24,197L475.33,210.03L475.67,165.21L475.92,212.73L476,202.16L476.09,209.81L476.43,214.29L476.51,202.61L476.68,211.78L476.76,217.87L476.93,206.17L477.02,238.54L477.53,214.75L477.61,216.9L477.69,218.64L477.78,216.38L477.86,171L478.62,219.77L478.71,215.75L478.79,221.73L479.22,207.66L479.3,197.52L479.47,211.58L480.06,208.34L480.15,205.62L480.23,205.15L480.32,207.26L480.4,201.66L480.82,192.76L481.08,221.08L481.25,214.53L481.33,219.65L481.58,185.05L482.17,204.98L482.26,208.19L482.43,210.48L482.51,189.58L482.68,209.58L482.77,236.29L483.11,214.63L483.27,228.09L483.36,131.34L484.04,232.33L484.2,226.16L484.29,224.15L484.46,233.54L484.63,215.21L485.05,218.11L485.14,221.05L485.3,213.04L485.56,233.41L485.81,219.79L485.89,218.82L486.06,222.03L486.57,210.64L486.66,214.08L486.74,218.53L486.83,213.36L487.08,237.55L487.16,244.74L487.84,207.17L488.09,210.45L488.18,215.32L488.35,216.14L488.6,208.7L488.68,225.54L488.77,196.67L488.85,226.9L489.45,208.41L489.53,240.44L489.95,200.83L490.38,207.2L490.46,200.93L490.63,204.59L490.71,169.81L490.8,223.6L491.48,205.96L491.56,212.1L491.64,214.96L491.73,204.04L491.81,123.74L492.24,212.54L492.66,205.21L492.74,204.61L492.91,201.73L493,230.89L493.08,234.15L493.25,222.62L493.34,204.72L493.42,213.82L493.67,202.5L494.1,209.01L494.18,204.95L494.35,202.53L494.44,198.25L494.86,186.11L494.94,204.19L495.11,196.44L495.19,179.43L495.28,180.17L495.36,206.13L495.45,205.31L495.53,184.51L495.87,199.73L496.21,192.99L496.29,176.95L496.46,165.82L496.55,187.1L496.63,211.83L497.23,180.67L497.56,188.31L497.65,190.87L497.82,187.42L498.58,203.13L498.66,192.7L498.75,194.74L498.83,184.9L499.08,193.37L499.17,183.72L499.42,198.28L499.85,193.64L499.93,186.67L500.1,195.88L500.18,178.32L500.27,211.99L500.95,197.75L501.03,193.92L501.37,195.73L501.79,184.92L501.87,200.99L502.47,169.02L502.8,184.07L502.89,189.96L503.14,127.98L503.4,223.06L503.57,210.82L503.65,214.77L503.74,213.78L503.82,220.44L503.9,226.01L504.66,200.92L504.75,207.81L504.83,222.79L505.17,255.92L505.51,231.35L505.59,216.55L506.1,203.52L506.19,217.24L506.61,220.3L507.03,196.21L507.12,204.05L507.29,198.89L507.37,222.81L507.71,205.25L507.79,199.48L508.05,200.31L508.38,184.09L508.64,187.04L508.72,191.33L508.81,197.49L508.98,193.57L509.06,97.26L509.74,304.37L509.91,218.94L509.99,217.32L510.25,228.41L510.5,213.19L510.67,218.85L510.75,212.95L510.92,223.09L511.01,215.33L511.09,202.32L511.34,230.33L511.85,219.86L511.94,206.49L512.27,226.15L512.53,214.61L512.61,138.03L512.95,229.39L513.46,217.04L513.54,208.19L513.8,217.68L514.13,205.61L514.22,207.82L514.3,206.16L514.39,205.25L514.47,209.48L514.56,214.6L514.64,217.24L515.06,206.72L515.23,212.08L515.32,211.4L515.99,190.5L516.08,213.97L516.84,186.04L516.93,197.9L517.01,203.94L517.18,188.12L517.26,188.64L517.35,206.87L517.6,209.19L518.11,190.55L518.19,199.86L518.28,186.86L518.87,205.6L518.95,195.09L519.04,207.98L519.38,217.03L519.8,191.81L519.88,198.07L519.97,203.19L520.14,226.88L520.64,180.65L520.9,194.02L520.98,204.48L521.07,209.62L521.24,189.86L521.41,195.21L521.49,158.9L522.08,245.44L522.25,229.64L522.34,229.15L522.42,229.51L522.5,224.69L522.67,229.98L522.76,222.19L522.84,222.57L522.93,213.22L523.1,212.47L523.18,216.03L523.27,225.81L524.2,201.37L524.36,203.3L524.45,207L524.62,205.22L525.04,232.05L525.21,216.7L525.29,206.27L525.72,201.1L525.8,223.03L525.89,220.59L525.97,160.81L526.23,224.95L526.73,218.36L526.82,210.99L526.9,208.51L527.15,221.48L527.41,211.7L527.49,217.33L527.58,209.32L527.92,224.04L528,221.24" style="vector-effect: non-scaling-stroke; fill: none; stroke: rgb(31, 119, 180); stroke-opacity: 1; stroke-width: 2px; opacity: 1;"/></g><g class="points"/><g class="text"/></g><g class="trace scatter trace37f7af" style="stroke-miterlimit: 2; opacity: 1;"><g class="fills"/><g class="errorbars"/><g class="lines"><path class="js-line" d="M0,313.5L528,313.5" style="vector-effect: non-scaling-stroke; fill: none; stroke: rgb(255, 127, 14); stroke-opacity: 1; stroke-width: 2px; opacity: 1;"/></g><g class="points"/><g class="text"/></g><g class="trace scatter tracee6948c" style="stroke-miterlimit: 2; opacity: 1;"><g class="fills"/><g class="errorbars"/><g class="lines"><path class="js-line" d="M0,305.34L0.17,305.24L0.34,306.73L0.51,306.51L0.59,303.15L0.68,302.89L0.76,308.09L0.85,306.13L1.18,309.35L1.35,308.56L1.44,312.91L2.03,305.63L2.11,312.99L2.28,309.95L2.37,311.84L2.45,311.68L2.54,312.96L2.62,312.34L2.71,312.96L3.21,313.37L3.3,301.03L3.47,310.25L3.55,308.29L3.64,302.72L4.06,313.29L4.14,312.9L4.23,312.96L4.31,313.29L4.4,298.29L4.82,313.42L5.24,313.34L5.33,312.96L5.41,313.44L5.5,313.35L5.58,275.36L6.09,313.38L6.43,311.86L6.51,310.88L6.68,306.98L7.36,313.48L7.44,309.92L8.03,313.47L8.2,313.3L8.29,311.5L8.46,299.33L8.88,313.49L8.96,313.27L9.05,310.97L9.81,313.49L9.89,313.49L12.94,313.49L13.02,311.99L13.19,310.63L13.44,313.46L13.53,306.41L14.12,313.48L14.29,313.44L14.37,306.73L14.54,307.72L14.63,301.6L15.14,313.49L15.39,304.7L15.47,300.11L15.81,313.25L16.23,261.9L16.32,305.5L17.08,313.49L17.16,313.43L17.25,310.53L17.42,303.32L17.5,290.27L18.26,313.49L18.35,313.31L18.43,313.43L18.94,313.46L19.02,310.7L19.36,310.61L19.78,313.49L19.87,312.45L20.12,313.48L20.38,310.36L20.46,313.01L20.55,309.47L20.97,306.17L21.31,313.49L21.39,313.49L21.56,312.52L22.07,313.49L22.15,313.5L22.49,313.5L22.57,312.05L23.42,313.5L23.5,313.5L27.56,313.5L27.65,308.49L28.49,313.5L28.58,313.49L31.54,313.46L31.62,304.62L31.87,302.32L32.55,313.4L32.64,313.34L32.72,313.3L32.89,313.13L32.97,303.34L33.74,313.49L33.82,313.38L33.9,311.82L34.16,313.49L34.41,307.76L34.67,313.43L34.75,313.47L35.17,313.46L35.26,312.08L35.68,313.49L35.76,313.48L35.85,300.71L36.53,313.49L36.61,310.93L36.69,313.08L36.78,311.83L36.86,279.72L37.12,313.49L37.63,313.16L37.71,311.63L38.38,313.48L38.47,313.35L38.55,313.48L39.57,313.47L39.65,312.31L39.74,311.51L39.82,313.49L40.33,312.76L40.41,313.44L42.78,313.5L42.87,313.5L45.99,313.5L46.08,309.02L46.16,306.8L46.59,313.17L46.67,313.11L46.76,313.31L46.93,313.49L47.01,299.43L47.18,276.52L47.68,313.49L47.77,313.41L47.85,312.71L48.45,313.5L48.62,313.22L48.7,313.31L48.78,312.58L49.21,313.5L49.38,313.49L49.46,313.47L49.88,313.41L49.97,302.86L50.73,313.5L50.81,311.98L51.41,313.49L51.57,313.47L51.66,313.47L53.94,313.36L54.03,312.92L54.62,313.47L54.79,313.38L54.87,313.49L56.31,313.49L56.39,312.55L56.48,313.45L56.56,302.03L56.99,313.5L57.32,313.49L57.41,313.49L60.45,313.5L60.54,305.46L61.3,313.5L61.38,313.46L61.89,312.25L62.06,313.31L62.14,313.41L62.4,313.49L62.48,312.69L63.33,313.5L63.41,313.5L67.81,313.5L67.89,311.06L68.74,313.5L68.82,313.48L70.17,313.49L70.26,283.47L70.68,313.5L71.02,311.01L71.11,313.45L73.13,313.47L73.22,304.82L73.98,313.5L74.06,313.48L79.56,313.5L79.64,306.28L79.81,304.97L80.41,313.45L80.49,312.17L80.57,313.5L81.34,311.76L81.42,313.47L81.59,313.5L81.67,307.03L82.35,313.5L82.43,313.49L82.52,313.5L83.28,313.31L83.36,306.9L84.13,313.5L84.21,313.49L84.8,313.49L84.89,312.17L85.56,313.5L85.65,313.46L85.73,313.49L86.49,313.5L86.58,285.91L87.25,313.5L87.34,313.49L87.42,313.5L90.13,313.43L90.21,310.21L90.97,313.5L91.06,313.34L91.14,313.02L91.23,313.5L91.31,313.48L91.4,305.86L91.74,313.5L92.16,313.49L92.24,313.49L93.51,313.5L93.59,312.31L94.1,313.5L94.36,313.47L94.44,313.5L95.29,313.5L95.37,292.12L96.13,313.5L96.22,313.5L99.77,313.5L99.85,313.5L105.43,313.41L105.52,311.57L106.28,313.5L106.36,313.49L108.05,313.49L108.14,312.43L108.47,312.18L108.9,313.5L108.98,313.5L116.51,313.5L116.59,310.05L116.76,313.5L116.85,285.61L117.35,313.5L117.61,313.48L117.69,313.48L117.77,311.21L118.03,313.5L118.37,313.5L118.45,313.5L125.89,313.5L125.98,312.11L126.06,306.45L126.15,313.5L126.65,313.5L126.74,313.5L127.16,313.49L127.24,312.05L128.01,313.5L128.09,313.5L131.64,313.49L131.73,307.25L132.32,313.5L132.49,313.46L132.57,313.45L133.08,313.5L133.16,309.9L133.67,313.5L133.92,313.4L134.01,313.45L134.09,312.27L134.18,313.49L134.68,313.5L134.77,313.5L137.81,313.5L137.9,304.44L138.57,313.5L138.66,313.49L138.74,313.5L145.25,313.5L145.34,287.8L145.59,313.5L146.1,313.44L146.18,313.45L146.86,313.35L147.03,313.5L147.11,313.48L150.33,313.48L150.41,307.37L151.17,313.5L151.26,313.5L151.43,313.43L151.51,306.53L152.19,313.5L152.35,313.46L152.44,313.49L152.86,313.5L152.95,290.49L153.62,313.5L153.71,313.49L153.79,313.49L155.06,313.33L155.15,313.5L155.32,307.44L155.82,313.5L155.91,313.5L158.95,313.5L159.03,297.35L159.8,313.5L159.88,313.5L160.73,313.5L160.81,306.59L161.57,313.5L161.66,313.5L172.22,313.5L172.31,310.11L172.48,313.5L173.07,313.46L173.15,311.37L173.92,313.5L174,313.5L174.34,313.47L174.42,311.99L174.68,311.7L175.18,313.49L175.27,313.49L184.23,313.5L184.31,312.92L184.4,313.5L184.48,313.48L184.57,307.26L185.24,313.5L185.33,313.49L185.41,313.5L187.36,313.5L187.44,218.4L188.2,313.5L188.29,313.32L189.13,313.5L189.22,313.5L190.4,313.48L190.49,310.99L191.25,313.5L191.33,313.5L194.88,313.5L194.97,299.3L195.64,313.5L195.73,313.46L195.81,313.5L197.93,312.74L198.01,313.48L198.1,313.5L198.26,313.5L198.35,312.36L199.11,313.5L199.2,313.5L204.01,313.5L204.1,311.81L204.86,313.5L204.94,313.5L208.83,313.5L208.92,310.59L209.51,313.5L209.68,313.49L209.76,313.5L219.65,313.5L219.74,313.5L239.27,313.5L239.35,311.09L239.95,313.5L240.12,313.42L240.2,313.49L242.48,313.5L242.57,285.66L243.33,313.5L243.41,313.5L244.93,313.5L245.02,295.35L245.78,313.5L245.87,313.5L248.15,313.5L248.23,309.15L248.99,313.5L249.08,313.5L249.16,274.73L249.75,313.5L249.84,313.5L250.77,313.5L250.85,313.5L256.1,313.48L256.18,283.7L256.94,313.5L257.02,313.11L257.87,313.5L257.96,313.48L260.91,313.5L261,302.65L261.76,313.5L261.84,313.5L263.2,313.5L263.28,313.5L269.79,313.5L269.88,309.31L270.21,313.5L270.3,284.9L271.06,313.5L271.14,313.25L271.99,313.5L272.08,313.48L275.2,313.5L275.29,312.61L275.96,313.5L276.05,313.49L276.13,313.5L279.68,313.49L279.77,311.86L280.53,313.5L280.61,313.5L287.46,313.5L287.55,310.41L288.31,313.5L288.39,313.5L296.17,313.5L296.26,270.13L297.02,313.5L297.1,313.5L310.88,313.49L310.97,312.49L311.56,313.5L311.73,313.48L311.81,313.49L318.24,313.39L318.32,310.23L319.08,313.5L319.17,313.5L319.51,313.49L319.59,307.99L320.35,313.5L320.44,313.5L321.53,313.5L321.62,309.84L322.3,313.5L322.38,313.49L322.47,313.5L334.39,313.32L334.47,313.5L335.23,313.5L335.32,312.53L336.08,313.5L336.16,313.49L345.29,313.5L345.38,313.26L345.55,313.5L345.63,313.43L345.71,294.23L346.39,313.5L346.48,313.49L346.56,312.3L347.32,313.5L347.41,313.5L348.17,313.46L348.25,313.5L350.79,313.5L350.87,310.15L351.38,313.5L351.63,311.8L351.72,313.5L356.71,313.5L356.79,270.59L357.55,313.5L357.64,313.5L360.51,313.5L360.6,222.26L361.36,313.5L361.44,313.5L364.99,313.5L365.08,311.19L365.84,313.5L365.92,313.49L368.12,313.5L368.2,313.5L369.14,313.5L369.22,312.69L369.81,313.49L369.98,312.92L370.07,313.42L371.84,313.5L371.92,313.5L378.1,313.46L378.18,312.5L378.77,311.99L378.86,313.5L378.94,313.49L379.03,313.5L379.11,313.25L379.79,313.5L379.87,313.5L386.64,313.5L386.72,263.17L387.48,313.5L387.57,313.49L396.28,313.5L396.36,313.17L397.2,313.5L397.29,313.5L400.16,313.5L400.25,259.57L401.01,313.5L401.09,313.5L410.65,313.5L410.73,303.85L411.49,313.5L411.58,313.5L426.63,313.5L426.71,312.49L427.47,313.5L427.56,313.49L428.57,313.47L428.66,307.35L429.42,313.5L429.5,313.5L433.14,313.5L433.22,242.16L433.98,313.5L434.07,313.49L435.25,313.5L435.34,312.43L436.1,313.49L436.18,313.5L451.06,313.5L451.15,302.44L451.74,313.5L451.91,308.36L451.99,313.5L470.08,313.5L470.17,312.22L470.93,313.5L471.02,313.5L483.11,313.5L483.19,312.38L483.95,313.5L484.04,313.5L503.14,313.5L503.23,312.05L503.99,313.5L504.07,313.5L505.09,313.49L505.17,310.16L505.93,313.5L506.02,313.5L509.65,313.5L509.74,298.49L510.5,313.5L510.58,313.5L522,313.5L522.08,311.93L522.84,313.5L522.93,313.5L528,313.5" style="vector-effect: non-scaling-stroke; fill: none; stroke: rgb(44, 160, 44); stroke-opacity: 1; stroke-width: 2px; opacity: 1;"/></g><g class="points"/><g class="text"/></g><g class="trace scatter trace995794" style="stroke-miterlimit: 2; opacity: 1;"><g class="fills"/><g class="errorbars"/><g class="lines"><path class="js-line" d="M0,167.69L0.68,310.64L0.85,310.41L0.93,310.43L1.18,312.89L1.44,310.06L1.69,311.77L1.78,311.1L2.62,313.02L2.71,312.77L2.79,302.96L3.64,313.05L3.72,312.65L3.8,312.15L4.31,313.16L4.4,312.83L4.48,312.88L4.82,313.01L4.99,312.57L5.16,312.8L5.24,313.07L6.09,312.78L6.17,312.86L7.1,313.24L7.19,313.17L7.27,313.09L7.95,312.98L8.03,312.62L8.29,313.22L8.88,312.93L8.96,312.76L9.64,311.61L9.72,311.73L9.81,308.88L9.98,305.41L10.65,313.01L10.74,312.47L11.16,310.7L11.33,312.97L11.5,311.95L11.58,312.54L12.01,310.13L12.51,310.37L12.6,311.56L12.68,288.17L13.27,310.76L13.36,311.15L13.78,311.02L14.2,312.8L14.29,312.41L14.46,313.26L15.14,310.79L15.22,312.49L15.56,313.26L15.73,312.01L15.98,312.95L16.06,312.84L16.83,313.17L16.91,312.03L17.59,313.07L17.84,312.79L17.93,312.76L18.35,312.09L18.86,313.08L18.94,313.03L19.28,312.74L19.36,308.89L19.78,313.19L20.21,313.09L20.29,312.91L21.05,313.2L21.22,312.99L21.31,312.93L21.73,311.82L21.81,303.96L22.49,312.85L22.57,312.67L22.66,312.47L22.83,311.79L23.08,312.99L23.25,312.67L23.34,308.23L23.5,312.64L24.1,312.35L24.18,312.61L24.52,310.12L24.6,312.2L24.86,312.37L24.94,292.08L25.28,305.95L25.36,312.54L25.45,310.34L25.96,312.7L26.04,312.66L26.13,312.21L26.29,312.89L26.38,310.53L26.8,311.94L26.89,312.37L27.14,311.34L27.23,296.37L27.65,312.72L27.99,309.47L28.07,311.09L28.32,310.68L28.41,311.69L28.49,304.83L29,312.92L29.25,312.12L29.34,312.95L29.42,296.56L29.85,313.05L30.02,312.12L30.1,312.83L30.35,309.6L30.86,311.48L30.95,312.52L31.11,312.71L31.2,311.82L31.28,312.45L31.37,302.86L31.62,312.89L32.13,311.58L32.21,310.91L32.97,313L33.06,312.97L33.14,312.64L33.57,312.36L33.82,312.9L33.9,312.89L33.99,311.28L34.33,313.01L34.58,312.19L34.67,312.99L35.09,310.6L35.26,312.76L35.34,312.92L35.43,310.29L35.76,313.08L36.1,312.19L36.19,312.97L36.36,313.02L36.44,312.61L36.95,312.77L37.03,312.82L37.71,313.09L37.79,312.71L37.88,307.98L38.64,313.06L38.72,310.46L38.81,313.09L39.48,312.94L39.57,312.97L40.16,313.19L40.67,311.24L40.75,312.54L41.01,311.77L41.09,307.36L41.26,312.69L41.34,158.35L41.51,312.96L42.11,312.67L42.19,312.19L42.36,312.98L42.7,311.3L42.78,312.39L42.87,311.33L43.12,313.09L43.29,310.86L43.63,312.76L43.71,311.08L43.97,312.92L44.14,310.08L44.39,312.87L44.47,298.69L44.56,312.46L44.64,288.47L45.23,306.35L45.32,310.44L45.66,312.51L45.83,261.92L45.99,311.84L46.08,312.11L46.42,311.78L46.5,312.82L46.59,273.46L46.93,271.36L47.35,312.94L47.43,312.67L47.6,311.36L47.85,312.95L48.11,312.49L48.19,312.65L48.36,308.4L48.87,312.54L48.95,312.75L49.12,313.09L49.29,312.19L49.38,310.39L49.97,312.92L50.14,312.77L50.22,312.58L50.39,313.05L50.81,312.14L50.98,312.72L51.07,311.73L51.66,313.06L51.91,313L52,313.01L52.08,308.52L52.67,312.6L52.76,312.84L53.1,312.44L53.18,312.89L53.27,298.83L53.77,293.67L54.03,313.02L54.11,308.7L54.7,313.19L54.87,312.42L54.96,312.33L55.04,312.52L55.13,309.51L55.29,312.89L55.63,302.65L55.89,311.27L55.97,311.76L56.06,311.93L56.14,306.04L56.39,312.75L56.48,303.62L56.9,311.23L56.99,312.7L57.07,313.02L57.32,312.07L57.41,299.82L57.75,312.07L57.83,209.76L58.51,313.06L58.59,312.42L58.68,274.07L59.1,312.87L59.44,312.4L59.52,312.6L60.03,312.84L60.28,304.83L60.37,311.65L61.04,312.96L61.13,312.72L61.21,246.44L61.64,313.06L61.97,312.67L62.06,312.51L62.14,312.88L62.23,310.74L62.57,312.54L62.65,311.45L63.33,313.11L63.5,312.77L63.58,312.11L63.66,311.34L63.92,313.11L64.17,312.78L64.26,313.07L64.59,312.65L64.68,279.85L65.27,313.05L65.44,312.29L65.53,312.71L65.69,313.28L65.95,312.56L66.2,312.91L66.29,312.43L66.37,313.15L66.54,312.75L66.62,303.32L67.47,313.22L67.55,311.65L67.72,310.88L68.06,312.88L68.32,312.84L68.4,312.06L68.65,312.97L68.74,310.87L68.82,280.67L69.08,312.88L69.58,310.88L69.67,310.28L70.09,313.05L70.34,311.33L70.43,286.08L70.94,313.03L71.19,312.71L71.27,310.57L71.53,313.11L72.04,313.09L72.12,312.62L72.37,312.81L72.46,293L72.71,291.15L73.22,312.91L73.3,312.54L73.47,311.89L73.81,313.11L73.98,312.25L74.06,312.98L74.23,312.85L74.32,313.08L74.4,305.17L75.08,313.22L75.16,312.61L75.25,312.71L75.59,312.8L75.93,311.84L76.01,312.93L76.43,311.51L76.52,312.91L76.6,312.08L76.85,313.08L77.19,312.48L77.28,313.11L77.78,311.97L78.04,312.57L78.12,307.87L78.29,313.14L78.88,312.91L78.97,312.18L79.05,221.44L79.47,312.89L79.64,312.64L79.73,313.17L79.81,312.29L80.49,312.72L80.57,312.73L80.74,313.05L80.83,309.32L81.42,313.01L81.67,312.96L81.76,312.48L81.84,313.22L82.43,311.74L82.52,312.43L82.6,312.18L82.69,312.59L82.77,312.55L82.86,307.1L83.28,313.12L83.62,313.09L83.7,312.69L83.79,313L83.87,310.75L84.04,312.36L84.13,309.48L84.29,313.02L84.89,312.2L84.97,312.82L85.14,313.19L85.65,312.36L85.73,313.22L85.9,311.73L86.41,312.37L86.49,304.73L87,313.09L87.25,312.5L87.34,312.72L87.68,307.49L87.76,312.98L87.85,313.2L87.93,312.14L88.27,312.73L88.35,312.29L88.44,311.85L88.52,299.16L88.86,313.11L88.94,267.87L89.28,311.68L89.37,310.36L89.62,303.07L89.71,313.14L90.13,312.2L90.21,312.96L90.3,311.09L90.38,248.93L90.89,313.16L91.14,312.18L91.23,312.94L91.65,313.14L91.74,310.56L91.9,312.77L91.99,312.99L92.16,312.55L92.66,313.05L92.75,313.2L93.43,311.19L93.59,312.89L93.68,313.22L94.02,311.73L94.53,312.53L94.61,313.08L95.37,312.75L95.45,310.38L95.79,313.3L96.22,313.2L96.3,302.36L96.55,313.27L97.06,313.13L97.15,312.69L97.23,313.02L97.32,288.75L98.16,313.23L98.25,312.85L98.41,312.35L98.58,313.24L98.75,313.27L98.84,276.35L99.51,313.13L99.6,310.33L99.68,312.53L99.85,312.92L100.02,312.41L100.19,312.96L100.27,313.07L100.36,309.41L100.87,313.26L100.95,312.99L101.04,313.04L101.8,311.24L101.88,312.94L101.96,312.41L102.05,313.1L102.3,312.95L102.39,305.42L103.23,313.2L103.32,312.77L103.57,311.64L103.91,313.1L103.99,312.95L104.08,311.02L104.75,313.09L104.92,313.04L105.01,312.83L105.26,310.09L105.35,312.49L105.52,312.01L105.85,313.3L106.11,312.4L106.19,312.42L106.28,313.04L106.36,296.9L106.95,313.19L107.12,312.07L107.21,264.79L107.72,313.12L107.97,312.47L108.05,312.65L108.22,312.93L108.73,312.38L108.81,312.62L108.9,313.13L109.49,310.83L109.66,313.14L109.74,313.06L109.91,312.95L110.51,313.21L110.59,312.97L111.01,313.09L111.1,312.77L111.18,307.41L111.94,313.19L112.03,313.08L112.36,311.62L112.79,312.82L112.87,313.19L112.96,312.93L113.04,300.97L113.46,313.19L113.8,313.05L113.89,312.86L114.06,312.45L114.73,313.1L114.82,312.89L115.41,313.22L115.58,311.85L115.66,312.61L115.83,311.84L116,313.16L116.25,312.99L116.34,313.18L116.51,310.24L116.93,312.99L117.02,283.42L117.27,313.23L117.77,312.5L117.86,302.78L118.62,312.92L118.71,312.62L118.79,313.27L118.96,312.52L119.38,313.17L119.47,312.42L119.72,311.46L120.14,313.29L120.23,313.11L120.31,312.45L120.73,313.22L120.82,313.14L120.9,309.86L121.16,297.1L121.75,313.25L121.83,312.85L122,311.79L122.34,312.96L122.43,311.88L122.51,311.75L122.68,312.89L122.76,313.05L122.93,313.17L123.95,311.58L124.03,313.21L124.45,312.06L124.62,313.11L124.71,313.23L124.88,311.69L125.38,312.56L125.47,313L125.72,313.27L126.15,312.31L126.23,304.61L127.08,313.16L127.16,312.69L127.33,312.37L127.41,313.21L127.75,312.75L127.84,313.04L128.01,270.75L128.34,313.19L128.51,313.05L128.6,313.06L129.19,313.04L129.27,311.64L129.36,313.24L130.03,313.15L130.12,313.11L130.46,313.24L130.8,311.35L130.88,313.06L131.13,313.19L131.22,227.78L131.39,313.03L131.98,312.93L132.06,313.01L132.15,312.19L132.74,313.07L132.83,312.93L132.91,312.77L133.16,313.17L133.42,313.05L133.5,313.29L134.09,312.41L134.26,312.62L134.35,308.07L134.6,313.26L135.19,313.07L135.28,313.15L135.95,312.2L136.04,313.1L136.12,313.17L136.46,311.1L136.8,313.23L136.88,313L138.07,312.89L138.15,312.09L138.32,313.07L138.57,312.98L138.66,290.14L139.08,313.21L139.42,312.95L139.5,312.83L140.18,313.21L140.26,313.04L140.35,312.81L140.52,312.39L140.6,274.57L141.2,313.08L141.36,312.64L141.45,312.7L141.62,313.04L141.7,312.95L141.79,308.54L142.04,312.99L142.63,312.9L142.72,309.5L143.31,313.1L143.48,312.48L143.56,312.74L143.9,313.07L143.99,308.78L144.24,313.2L144.83,312.87L144.92,312.73L145.34,313.06L145.42,312.69L145.51,312.2L145.68,313.06L145.76,310.41L145.84,297.61L146.44,313.26L146.61,312.51L146.69,313.04L147.03,313.09L147.11,311.96L147.28,313.13L147.37,312.61L147.45,286.92L147.87,313.06L148.21,312.15L148.3,312.73L148.72,312.8L148.81,311.92L148.89,270.69L149.23,313.22L149.48,313.05L149.56,313.21L150.5,312.31L150.58,312.98L150.75,311.86L151.34,312.69L151.43,312.62L151.68,312.55L151.93,313.27L152.19,313.19L152.27,312.87L152.95,313.3L153.03,299.84L153.54,313.2L153.79,312.33L153.88,312.89L154.05,312.49L154.22,313.23L154.64,312.94L154.72,312.9L155.4,312.41L155.48,313.01L155.57,313.16L155.99,312.05L156.33,313.06L156.41,312.73L156.58,313.17L156.75,313.04L156.84,307.51L157.51,313.35L157.68,312.98L157.77,313.28L158.27,312.26L158.36,313.29L158.44,305.72L159.03,313.2L159.2,313.03L159.29,312.97L159.37,312.57L159.46,313.27L159.96,313.28L160.05,313.23L160.3,313.08L160.39,275.12L160.9,313.1L161.15,312.99L161.23,313.13L161.32,312.72L161.57,313.33L161.91,313L161.99,313.21L162.84,312.3L162.92,312.94L163.6,313.23L163.69,312.64L164.36,313.17L164.45,297.18L165.04,313.1L165.21,312.52L165.29,312.34L166.05,313.17L166.14,313.1L166.22,312.71L166.73,312.42L167.07,313.23L167.15,313.13L167.24,313.13L167.83,313.11L167.91,312.89L168,312.88L168.25,312.68L168.42,313.22L168.76,312.99L168.84,312.72L169.69,313.29L169.77,313.18L170.87,313.24L170.96,312.15L171.29,313.3L171.72,312.29L171.8,312.33L171.97,312.19L172.48,313.21L172.65,313.11L172.73,312.69L173.58,313.21L173.66,313.09L174.25,313.35L174.34,312.49L174.42,311.44L174.51,312.91L174.59,298L175.35,313.23L175.44,313.15L175.69,312.83L175.77,313.29L175.86,312.18L176.03,313.23L176.2,312.83L176.28,286.1L176.87,313.13L177.04,312.94L177.13,313.23L178.31,313.02L178.4,313.26L178.65,311.6L179.16,312.02L179.24,312.88L180.17,313.17L180.26,312.52L180.85,312.89L180.93,306.61L181.52,313.14L181.78,312.67L181.86,312.95L182.2,312.21L182.29,310.62L183.13,313.02L183.22,313.09L183.3,313.23L183.38,312.87L183.47,311.86L184.31,313.21L184.4,312.95L184.74,312.47L184.99,313.27L185.08,313.02L185.16,313.18L185.92,312.64L186.01,307.04L186.68,313.16L186.77,313.08L186.85,310.73L187.36,313.24L187.61,312.98L187.7,312.17L188.2,313.28L188.37,313.09L188.46,298.33L188.71,313.24L189.22,312.88L189.3,312.62L189.9,313.33L190.06,313.23L190.15,311.9L190.57,310.93L190.82,313.19L190.99,313.06L191.08,312.58L191.25,313.18L191.33,309.17L191.75,313.29L192.09,313.18L192.18,313.17L192.35,311.16L192.85,313.27L192.94,313.3L193.78,311.78L193.87,312.92L193.95,312.82L194.97,313.1L195.05,312.93L195.14,312.88L195.31,312.89L195.39,309.92L195.47,306.86L195.9,313.29L196.07,311.53L196.15,312.73L196.24,312.45L196.66,313.18L196.83,312.82L196.91,313.05L197.08,312.84L197.76,313.14L197.84,312.64L197.93,311.88L198.01,313.27L198.18,312.56L198.26,294.1L198.69,313.29L199.03,312.62L199.11,313.15L199.7,311.72L199.87,313.13L199.95,313.27L200.04,294.07L200.63,312.77L200.72,313.2L201.14,312.61L201.56,312.85L201.65,312.93L201.99,312.71L202.07,313.18L202.41,313.04L202.49,313.19L202.66,313.37L203.08,313.06L203.17,313.15L203.25,313.3L204.1,312.09L204.18,313.18L204.27,312.73L204.86,313.21L204.94,313.29L205.45,312.01L205.79,312.69L205.87,312.91L206.55,312.88L206.63,310.72L207.4,313.25L207.48,313.27L209.34,313.1L209.42,307.92L210.27,313.19L210.35,313.15L210.52,312.65L211.12,313.12L211.2,313.12L211.62,313.29L211.96,311.69L212.05,312.75L212.13,312.53L212.38,313.2L212.72,312.76L212.81,313.1L213.06,312.45L213.23,312.94L213.31,295.96L213.65,313.11L214.08,313L214.16,313.19L214.67,312.57L215.09,312.91L215.17,313.01L215.34,313.2L215.51,312.93L215.6,312.23L215.77,313.15L215.85,312.11L215.93,262.68L216.7,313.15L216.78,313.09L216.95,312.57L217.46,313.14L217.54,251.65L218.22,313.24L218.3,313.2L218.39,313.25L218.98,312.72L219.06,298.99L219.82,313.14L219.91,312.02L220.25,313.27L220.75,312.61L220.84,312.8L221.85,313.03L221.94,312.78L222.02,313.11L222.11,311.68L222.19,302.94L222.53,313.14L222.95,313.03L223.04,313.13L223.46,312.97L223.54,191.05L224.31,313.17L224.39,313.21L224.98,313.04L225.07,217.22L225.83,312.9L225.91,219.74L226.67,312.96L226.76,312.88L227.52,313.13L227.6,313.15L227.77,312.85L227.86,313.13L227.94,309.68L228.28,313.27L228.7,312.59L228.79,312.88L229.12,312.25L229.29,313.2L229.46,312.83L229.55,308.05L230.39,313.25L230.48,313.09L230.73,311.3L230.9,312.95L230.99,313.21L231.49,311.55L231.74,311.96L231.83,313.13L231.91,275.86L232.51,312.28L232.59,312.76L233.18,282.08L233.27,312.27L233.35,312.78L233.78,312.41L233.94,313.2L234.2,312.82L234.28,312.8L234.37,312.6L234.45,313.32L234.54,313.08L234.62,310.03L235.13,313.23L235.47,313.15L235.55,313.28L236.23,309.58L236.4,312.28L236.48,312.35L236.9,313.26L237.24,313L237.33,313.02L237.5,312.88L237.58,313.29L237.66,309.92L237.92,312.96L238.51,312.2L238.59,313.05L238.68,312.84L238.76,306.66L239.02,313.2L239.52,313.01L239.61,313.06L239.86,311.19L240.29,312.99L240.37,313.16L240.45,312.15L241.13,312.67L241.21,313L241.47,313.11L241.64,311.39L242.06,312.44L242.14,302.76L242.4,313.16L242.91,312.86L242.99,311.97L243.24,313.29L243.84,312.95L243.92,313.19L244.51,312.76L244.68,313.01L244.77,313.14L245.44,310.94L245.61,312.22L245.7,313L246.63,312.72L246.71,313.14L247.3,312.66L247.47,313.1L247.56,313.26L248.57,313.19L248.65,312.48L248.99,313.25L249.16,313.16L249.25,308.24L249.59,313.02L249.84,307.37L249.92,312.84L250.01,306.08L250.43,313.17L250.77,313.06L250.85,313.02L251.02,311.67L251.28,312.69L251.36,312.94L251.53,311.97L251.87,313.15L252.04,312.99L252.12,313.06L252.63,313.08L252.71,304.72L253.39,313.28L253.47,313.17L253.56,313.22L254.4,312.91L254.49,313.13L254.66,288.42L255.17,312.6L255.25,313.02L255.42,313.26L255.67,312.62L256.01,313.1L256.1,313.21L257.79,312.5L257.87,313.23L257.96,313.27L258.72,312.86L258.8,313.06L258.89,313.11L259.48,312.94L259.56,303.25L260.15,313.26L260.32,313.11L260.41,313.16L260.58,313.06L260.66,311.69L261,313.13L261.42,312.8L261.51,313.18L261.59,312.52L262.01,313.28L262.27,312.64L262.35,313.16L262.69,311.85L263.11,312.53L263.2,313.2L263.53,311.84L263.96,312.32L264.04,312.98L264.21,313.26L264.47,312.36L264.72,312.83L264.8,312.81L265.06,313.24L265.31,311.61L265.48,312.9L265.56,313.11L265.99,313.18L266.07,310.67L266.49,313.12L266.92,312.9L267,312.88L268.02,313.02L268.1,312.78L268.44,313.2L268.61,309.01L268.78,312.77L268.86,313.19L269.03,313.29L269.71,312.15L269.79,312.27L269.88,312.56L270.13,313.11L270.47,308.99L270.55,312.93L270.64,313.02L270.89,312.44L270.98,313.17L271.06,311.3L271.31,313.16L271.82,312.96L271.91,313.13L272.5,312.61L272.75,312.76L272.83,313.05L273.34,313.24L273.43,312.55L274.1,313.21L274.36,313.04L274.44,312.92L274.61,311.8L274.7,313.16L275.12,312.67L275.2,312.93L275.96,312.4L276.05,312.12L276.64,313.29L276.81,312.9L276.89,312.84L277.4,313.14L277.49,312.12L278.16,313.23L278.25,310.96L278.75,313.29L279.01,312.95L279.09,311.78L279.26,313.22L279.85,313.05L279.94,313.17L280.36,312.58L280.53,313.16L280.61,311.95L281.12,313.36L281.46,313.13L281.54,278.65L282.3,313.08L282.39,312.98L282.56,312.26L282.98,313.23L283.15,312.61L283.23,313.22L283.91,312.46L284,312.83L284.08,311.62L284.25,310.85L284.59,313.28L284.93,313.11L285.01,313.25L285.6,312.42L285.86,313.13L285.94,313.15L286.11,313.24L286.19,313L286.28,312.43L287.12,313.24L287.21,313.28L287.8,312.33L287.89,305.85L288.14,313.29L288.65,313.11L288.73,313.06L289.41,313.29L289.49,313.23L289.58,312.92L290.42,313.31L290.51,313.22L290.59,313.14L291.01,312.25L291.1,312.97L291.18,313.18L291.44,313.29L292.03,310.69L292.11,311.72L292.2,312.8L293.13,313.27L293.21,312.55L293.3,313.28L293.47,311.68L293.8,313.01L293.89,292.79L294.65,313.31L294.73,312.74L295.16,313.02L295.24,309.54L295.41,312.92L295.49,313.16L295.75,312.9L295.83,309.8L296.51,313.29L296.59,312.61L296.68,313.25L296.76,312.01L297.27,313.38L297.44,312.48L297.52,312.89L297.78,312.8L298.11,313.26L298.2,263.02L298.96,313.22L299.05,312.97L299.13,312.23L299.38,313.14L299.72,312.88L299.81,313.05L300.48,313.12L300.57,312.96L300.65,312.69L301.5,313.23L301.58,313.22L302.26,312.87L302.43,313.17L302.51,313.18L303.44,313.28L303.53,312.85L303.61,311.88L304.29,313.28L304.46,313.21L304.54,313.09L305.22,313.26L305.3,313.17L305.39,313.14L305.47,313.27L305.56,309.05L306.23,313.24L306.32,313.13L306.4,312.97L307.16,313.32L307.33,313.21L307.42,313.24L307.67,313.34L307.92,312.47L308.26,312.7L308.35,313.11L308.43,311.85L309.02,313.07L309.11,313.18L310.04,313.16L310.12,311.35L310.21,310.61L310.38,313.18L310.63,312.69L310.71,313L310.88,313.14L311.47,308.47L311.56,312.62L312.07,313.26L312.23,313.16L312.32,312.16L312.57,313.2L312.83,313.03L312.91,307.22L313.67,313.15L313.76,313.11L314.43,313.19L314.52,312.76L314.77,312.6L315.45,313.29L315.53,313.03L316.12,313.15L316.29,312.7L316.38,307.12L316.63,313.1L317.14,312.84L317.22,312.69L317.56,312.3L318.15,313.19L318.24,313.18L319.25,313.03L319.34,313.26L319.59,312.33L319.93,313.1L320.01,290.53L320.6,313.25L320.77,313.08L320.86,313.18L320.94,308.91L321.45,313.32L321.53,313.16L321.62,313.01L321.96,313.25L322.3,312.65L322.38,312.86L322.47,313.1L322.63,312.95L323.31,313.12L323.4,313.17L323.48,312.8L324.16,313.16L324.24,313.12L324.75,313.24L324.83,312.3L324.92,310.36L325.26,313.24L325.51,312.93L325.59,313.24L326.44,313L326.52,313.2L326.69,309.72L327.11,313.07L327.2,312.7L327.54,313.29L327.71,312.22L328.05,313.01L328.13,312.81L328.3,312.34L328.72,313.19L328.89,313.08L328.98,312.8L329.23,313.07L329.31,312.04L329.4,313.07L330.07,312.63L330.16,313.02L330.5,312.56L330.83,313.3L330.92,312.87L331.68,313.16L331.77,312.98L331.85,312.9L332.1,313.31L332.27,313.2L332.36,298.52L333.03,313.37L333.12,313.28L333.2,312.31L334.05,313.26L334.13,312.99L334.39,312.93L334.47,313.35L334.56,310.52L335.32,313.36L335.4,312.99L336.08,313.01L336.16,312.92L336.25,307.4L336.67,313.27L337.09,313.23L337.18,313.3L337.94,313.13L338.02,313.2L338.11,313.26L338.61,312.64L338.95,312.97L339.04,313.31L340.14,312.64L340.22,313.06L340.56,312.65L341.23,313.19L341.32,308.52L341.66,313.31L342.08,313.22L342.17,313.05L343.18,313.26L343.26,313.09L343.35,312.1L343.94,310.9L344.11,313.23L344.19,312.28L345.04,313.22L345.12,313.05L345.38,312.68L345.55,313.23L345.63,308.82L345.97,313.31L346.39,312.91L346.48,312.86L347.41,313.17L347.49,313.02L348.93,313.27L349.01,313.11L349.1,312.95L349.52,312.81L349.69,313.21L349.86,312.96L349.94,312.78L350.45,313.29L350.53,313.07L350.62,307.5L351.3,313.2L351.38,312.79L351.47,312.67L352.23,313.28L352.31,313.04L353.41,312.79L353.49,313.16L353.58,313.26L353.83,301.1L354.17,313.26L354.26,313.16L354.51,313.3L354.59,312.5L355.69,313.21L355.78,313.19L356.62,312.64L356.79,313.28L356.88,312.21L357.38,313.25L357.64,313.16L357.72,312.99L358.48,313.34L358.57,313.31L358.65,313.25L360.34,313.29L360.43,270.97L361.19,313.26L361.27,313.14L361.69,311.78L362.03,312.39L362.12,313.01L362.54,312.18L362.62,308.23L362.79,313.27L363.39,312.9L363.47,313.22L363.56,312.64L363.81,313.29L363.89,302.76L364.66,313.22L364.74,312.09L365.58,313.25L365.67,313.15L367.19,313.12L367.28,312.91L367.53,312.79L367.95,313.28L368.12,313.22L368.2,313.17L368.97,312.95L369.05,312.61L369.73,313.29L369.81,313.08L369.9,313.07L371.16,313.12L371.25,309.06L371.76,313.27L371.92,312.56L372.01,269.91L372.69,313.34L372.77,313.22L372.86,312.87L373.36,313.37L373.45,312.96L373.53,312.08L373.96,313.28L374.29,313.14L374.38,312.82L376.15,313.29L376.24,192.17L376.75,313.3L377,312.33L377.08,313.08L378.18,313.27L378.27,313.24L379.03,310.94L379.11,312.88L379.2,313.25L381.06,312.83L381.14,313.27L381.65,313.08L381.73,312.42L382.16,313.36L382.58,313.21L382.66,312.78L383.59,313.36L383.68,313.22L385.03,313.31L385.11,313.09L386.05,313.33L386.13,313.21L386.3,312.76L386.64,313.08L386.72,302.17L387.23,313.18L387.48,313.16L387.57,313.11L388.84,312.98L388.92,312.46L389.51,313.32L389.68,313.05L389.77,313.11L390.27,313.27L390.53,313.09L390.61,313.13L391.96,313.23L392.05,313.16L392.39,313.35L392.56,313.25L392.64,312.4L392.98,313.31L393.48,313.17L393.57,313.31L394.67,313.21L394.75,313.29L395.18,312.84L395.51,313.3L395.6,312.97L395.85,311L396.28,313.3L396.36,313.21L396.44,312.88L397.29,313.33L397.37,313.19L397.54,313.33L398.14,311.88L398.22,312.67L398.3,313.22L398.73,313.37L398.98,313.15L399.07,313.33L399.74,312.77L399.83,313.1L399.91,313.03L400.25,313.27L400.33,311.77L401.09,313.31L401.18,313.27L401.26,313.34L402.95,313.37L403.04,313.15L404.22,313.27L404.31,312.12L404.98,313.31L405.07,313.24L405.15,313.35L405.91,312.12L406,312.93L406.08,313.22L408.79,312.75L408.87,313.28L409.04,313.12L409.13,311.68L409.89,313.33L409.97,313.2L410.06,313.31L410.9,312.9L410.99,313.21L411.07,313.29L412.51,313.25L412.59,310.48L413.1,313.33L413.35,313.19L413.44,313.33L413.78,312.9L414.2,313.25L414.28,313.28L414.37,312.72L415.05,313.21L415.13,313.29L416.06,313L416.14,313.11L416.82,312.61L417.07,313.04L417.16,313.24L417.33,312.57L417.92,313.29L418,313.27L418.93,312.41L419.02,313.24L420.12,313.13L420.2,304.83L420.62,313.28L420.96,313.18L421.05,312.82L421.72,313.19L421.81,312.62L422.65,313.36L422.74,311.66L422.99,313.35L423.5,313.27L423.58,313.29L423.92,309.98L424.01,313.17L424.09,313.17L424.18,313.35L424.26,311.03L424.68,313.29L425.1,313.25L425.19,313.2L426.63,313.14L426.71,313.02L427.05,313.27L427.56,312.82L427.64,313.13L428.57,313.19L428.66,313.32L429.67,313.18L429.76,313.18L430.86,313.21L430.94,312.9L431.19,312.72L431.78,313.24L431.87,313.03L432.12,313.31L432.29,312.72L432.38,307.96L432.8,313.3L433.14,313.12L433.22,313.39L434.24,313.18L434.32,313.31L434.74,313.33L434.83,311.35L435.67,313.21L435.76,313.12L437.2,313.16L437.28,313.32L439.23,313.24L439.31,313.33L442.69,313.01L442.78,312.4L443.62,313.35L443.71,312.4L444.38,313.41L444.47,313.36L444.55,313.31L444.72,312.73L445.31,313.12L445.4,313.19L445.74,312.36L446.16,313.26L446.24,313.31L447.09,313.13L447.17,313.32L448.02,313.02L448.1,313.16L448.19,313.19L448.69,312.32L448.95,313.19L449.03,313.28L449.46,312.72L449.96,313.04L450.05,313.18L450.3,312.51L450.64,313.23L450.72,313.2L451.23,312.85L451.57,313.25L451.65,313.26L452.5,313.13L452.58,313.31L452.75,313.39L453.09,313.06L453.35,313.34L453.43,313.13L455.29,313.27L455.37,313.28L456.47,313.09L456.56,313.33L456.98,312.38L457.4,313.06L457.49,313.02L458.25,313.3L458.33,313.26L458.42,313.35L459.35,313.17L459.43,313.28L460.53,313.15L460.62,312.49L461.46,313.29L461.55,313.18L461.88,313.35L462.39,313.04L462.48,313.24L463.32,313.23L463.41,312.99L463.49,312.33L464,313.38L464.25,313.33L464.34,312.84L465.01,313.31L465.18,313.25L465.27,313.37L465.94,312.99L466.11,313.29L466.2,313.31L466.96,312.61L467.04,313.19L467.13,313.17L468.14,313.12L468.23,313.17L468.99,312.75L469.32,313.28L469.41,313.31L470,313.03L470.17,313.25L470.25,313.31L470.59,312.61L471.02,313.23L471.1,313.31L472.03,313.23L472.11,311.89L472.45,313.36L472.87,313.13L472.96,313.14L474.48,313.15L474.57,312.53L475.16,313.29L475.41,313.21L475.5,313.17L475.75,312.69L476.34,313.33L476.43,313.14L476.93,313.34L477.02,313.17L477.1,312.63L477.53,313.31L477.95,313.18L478.03,313.03L478.2,313.32L478.71,313.1L478.79,312.91L479.64,313.28L479.72,312.99L479.81,311.91L480.32,313.29L480.48,312.35L480.57,313.16L480.91,313.27L480.99,313.2L481.08,312.23L481.75,313.31L481.84,313.18L481.92,312.83L482.6,313.3L482.68,313.09L482.77,313.08L483.53,313.3L483.61,313.25L483.7,313.26L484.8,313.13L484.88,313.19L487.08,313.02L487.16,312.77L487.76,313.32L488.01,313.21L488.09,313.32L489.62,313.23L489.7,313.37L490.55,313.17L490.63,313.19L491.64,313.19L491.73,308.37L492.24,313.34L492.49,313.29L492.57,313.09L493.25,313.28L493.34,312.9L494.18,313.26L494.27,313.15L494.52,313.27L494.6,304.96L495.28,313.3L495.36,313.06L495.45,313.28L499.85,313.27L499.93,312.12L500.27,313.39L500.69,313.28L500.78,313.29L502.04,313.34L502.13,312.97L503.06,313.15L503.14,313.15L503.82,313.31L503.9,312.31L504.41,313.36L504.75,313.28L504.83,313.01L505.68,313.29L505.76,293.52L506.53,313.33L506.61,313.2L509.32,313.26L509.4,312.14L510.16,313.3L510.25,313.25L510.33,313.17L511.85,313.32L511.94,313.09L512.61,313.29L512.7,313.23L512.78,312.98L513.63,313.29L513.71,313.26L517.94,313.34L518.02,313.42L518.95,313.12L519.04,313.26L519.12,313.26L519.71,313.28L519.88,313.07L519.97,313.1L521.07,313.35L521.15,313.38L522,313.06L522.08,313.34L522.93,312.77L523.1,313.18L523.18,313.07L524.28,313.28L524.36,313.11L525.72,313.39L525.8,313.25L526.73,313.34L526.82,312.73L527.58,313.39L527.66,313.37L527.75,313.34L528,313.29" style="vector-effect: non-scaling-stroke; fill: none; stroke: rgb(148, 103, 189); stroke-opacity: 1; stroke-width: 2px; opacity: 1;"/></g><g class="points"/><g class="text"/></g></g></g><g class="overplot"/><path class="xlines-above crisp" d="M0,0" style="fill: none;"/><path class="ylines-above crisp" d="M0,0" style="fill: none;"/><g class="overlines-above"/><g class="xaxislayer-above"><g class="xtick"><text text-anchor="middle" x="0" y="403" transform="translate(215.35,0)" style="font-family: 'Open Sans', verdana, arial, sans-serif; font-size: 12px; fill: rgb(68, 68, 68); fill-opacity: 1; white-space: pre;">50</text></g><g class="xtick"><text text-anchor="middle" x="0" y="403" transform="translate(373.97,0)" style="font-family: 'Open Sans', verdana, arial, sans-serif; font-size: 12px; fill: rgb(68, 68, 68); fill-opacity: 1; white-space: pre;">100</text></g><g class="xtick"><text text-anchor="middle" x="0" y="403" transform="translate(532.5799999999999,0)" style="font-family: 'Open Sans', verdana, arial, sans-serif; font-size: 12px; fill: rgb(68, 68, 68); fill-opacity: 1; white-space: pre;">150</text></g></g><g class="yaxislayer-above"><g class="ytick"><text text-anchor="end" x="59" y="4.199999999999999" transform="translate(0,373.5)" style="font-family: 'Open Sans', verdana, arial, sans-serif; font-size: 12px; fill: rgb(68, 68, 68); fill-opacity: 1; white-space: pre;">0</text></g><g class="ytick"><text text-anchor="end" x="59" y="4.199999999999999" transform="translate(0,313.46000000000004)" style="font-family: 'Open Sans', verdana, arial, sans-serif; font-size: 12px; fill: rgb(68, 68, 68); fill-opacity: 1; white-space: pre;">5</text></g><g class="ytick"><text text-anchor="end" x="59" y="4.199999999999999" transform="translate(0,253.43)" style="font-family: 'Open Sans', verdana, arial, sans-serif; font-size: 12px; fill: rgb(68, 68, 68); fill-opacity: 1; white-space: pre;">10</text></g><g class="ytick"><text text-anchor="end" x="59" y="4.199999999999999" transform="translate(0,193.39)" style="font-family: 'Open Sans', verdana, arial, sans-serif; font-size: 12px; fill: rgb(68, 68, 68); fill-opacity: 1; white-space: pre;">15</text></g><g class="ytick"><text text-anchor="end" x="59" y="4.199999999999999" transform="translate(0,133.35)" style="font-family: 'Open Sans', verdana, arial, sans-serif; font-size: 12px; fill: rgb(68, 68, 68); fill-opacity: 1; white-space: pre;">20</text></g><g class="ytick"><text text-anchor="end" x="59" y="4.199999999999999" transform="translate(0,73.32)" style="font-family: 'Open Sans', verdana, arial, sans-serif; font-size: 12px; fill: rgb(68, 68, 68); fill-opacity: 1; white-space: pre;">25</text></g></g><g class="overaxes-above"/></g></g><g class="polarlayer"/><g class="ternarylayer"/><g class="geolayer"/><g class="pielayer"/><g class="glimages"/><defs id="topdefs-1bc8b3"><g class="clips"/><clipPath id="legend1bc8b3"><rect width="89" height="105" x="0" y="0"/></clipPath></defs><g class="layer-above"><g class="imagelayer"/><g class="shapelayer"/></g><g class="infolayer"><g class="legend" pointer-events="all" transform="translate(598.5600000000001, 60)"><rect class="bg" shape-rendering="crispEdges" width="89" height="105" x="0" y="0" style="stroke: rgb(68, 68, 68); stroke-opacity: 1; fill: rgb(255, 255, 255); fill-opacity: 1; stroke-width: 0px;"/><g class="scrollbox" transform="translate(0, 0)" clip-path="url(#legend1bc8b3)"><g class="groups"><g class="traces" transform="translate(0, 14.5)" style="opacity: 1;"><g class="layers" style="opacity: 1;"><g class="legendfill"/><g class="legendlines"><path class="js-line" d="M5,0h30" style="fill: none; stroke: rgb(31, 119, 180); stroke-opacity: 1; stroke-width: 2px;"/></g><g class="legendsymbols"><g class="legendpoints"/></g></g><text class="legendtext user-select-none" text-anchor="start" x="40" y="4.680000000000001" style="font-family: 'Open Sans', verdana, arial, sans-serif; font-size: 12px; fill: rgb(68, 68, 68); fill-opacity: 1; white-space: pre;">G_GAN</text><rect class="legendtoggle" pointer-events="all" x="0" y="-9.5" width="129" height="19" style="cursor: pointer; fill: rgb(0, 0, 0); fill-opacity: 0;"/></g><g class="traces" transform="translate(0, 33.5)" style="opacity: 1;"><g class="layers" style="opacity: 1;"><g class="legendfill"/><g class="legendlines"><path class="js-line" d="M5,0h30" style="fill: none; stroke: rgb(255, 127, 14); stroke-opacity: 1; stroke-width: 2px;"/></g><g class="legendsymbols"><g class="legendpoints"/></g></g><text class="legendtext user-select-none" text-anchor="start" x="40" y="4.680000000000001" style="font-family: 'Open Sans', verdana, arial, sans-serif; font-size: 12px; fill: rgb(68, 68, 68); fill-opacity: 1; white-space: pre;">G_L1</text><rect class="legendtoggle" pointer-events="all" x="0" y="-9.5" width="129" height="19" style="cursor: pointer; fill: rgb(0, 0, 0); fill-opacity: 0;"/></g><g class="traces" transform="translate(0, 52.5)" style="opacity: 1;"><g class="layers" style="opacity: 1;"><g class="legendfill"/><g class="legendlines"><path class="js-line" d="M5,0h30" style="fill: none; stroke: rgb(44, 160, 44); stroke-opacity: 1; stroke-width: 2px;"/></g><g class="legendsymbols"><g class="legendpoints"/></g></g><text class="legendtext user-select-none" text-anchor="start" x="40" y="4.680000000000001" style="font-family: 'Open Sans', verdana, arial, sans-serif; font-size: 12px; fill: rgb(68, 68, 68); fill-opacity: 1; white-space: pre;">D_real</text><rect class="legendtoggle" pointer-events="all" x="0" y="-9.5" width="129" height="19" style="cursor: pointer; fill: rgb(0, 0, 0); fill-opacity: 0;"/></g><g class="traces" transform="translate(0, 71.5)" style="opacity: 0.5;"><g class="layers" style="opacity: 1;"><g class="legendfill"/><g class="legendlines"><path class="js-line" d="M5,0h30" style="fill: none; stroke: rgb(214, 39, 40); stroke-opacity: 1; stroke-width: 2px;"/></g><g class="legendsymbols"><g class="legendpoints"/></g></g><text class="legendtext user-select-none" text-anchor="start" x="40" y="4.680000000000001" style="font-family: 'Open Sans', verdana, arial, sans-serif; font-size: 12px; fill: rgb(68, 68, 68); fill-opacity: 1; white-space: pre;">D_fake</text><rect class="legendtoggle" pointer-events="all" x="0" y="-9.5" width="129" height="19" style="cursor: pointer; fill: rgb(0, 0, 0); fill-opacity: 0;"/></g><g class="traces" transform="translate(0, 90.5)" style="opacity: 1;"><g class="layers" style="opacity: 1;"><g class="legendfill"/><g class="legendlines"><path class="js-line" d="M5,0h30" style="fill: none; stroke: rgb(148, 103, 189); stroke-opacity: 1; stroke-width: 2px;"/></g><g class="legendsymbols"><g class="legendpoints"/></g></g><text class="legendtext user-select-none" text-anchor="start" x="40" y="4.680000000000001" style="font-family: 'Open Sans', verdana, arial, sans-serif; font-size: 12px; fill: rgb(68, 68, 68); fill-opacity: 1; white-space: pre;">T_B</text><rect class="legendtoggle" pointer-events="all" x="0" y="-9.5" width="129" height="19" style="cursor: pointer; fill: rgb(0, 0, 0); fill-opacity: 0;"/></g></g></g><rect class="scrollbar" rx="20" ry="3" width="0" height="0" x="0" y="0" style="fill: rgb(128, 139, 164); fill-opacity: 1;"/></g><g class="g-gtitle"><text class="gtitle" x="350" y="30" text-anchor="middle" dy="0em" style="font-family: 'Open Sans', verdana, arial, sans-serif; font-size: 17px; fill: rgb(68, 68, 68); opacity: 1; font-weight: normal; white-space: pre;">rss_expr4.1 loss over time</text></g><g class="g-xtitle"><text class="xtitle" x="324" y="442" text-anchor="middle" style="font-family: 'Open Sans', verdana, arial, sans-serif; font-size: 14px; fill: rgb(68, 68, 68); opacity: 1; font-weight: normal; white-space: pre;">epoch</text></g><g class="g-ytitle"><text class="ytitle" transform="rotate(-90,22,225)" x="22" y="225" text-anchor="middle" style="font-family: 'Open Sans', verdana, arial, sans-serif; font-size: 14px; fill: rgb(68, 68, 68); opacity: 1; font-weight: normal; white-space: pre;">loss</text></g></g></svg>