<svg class="main-svg" xmlns="http://www.w3.org/2000/svg" xmlns:xlink="http://www.w3.org/1999/xlink" width="700" height="450" style="" viewBox="0 0 700 450"><rect x="0" y="0" width="700" height="450" style="fill: rgb(255, 255, 255); fill-opacity: 1;"/><defs id="defs-44b613"><g class="clips"><clipPath id="clip44b613xyplot" class="plotclip"><rect width="528" height="330"/></clipPath><clipPath class="axesclip" id="clip44b613x"><rect x="60" y="0" width="528" height="450"/></clipPath><clipPath class="axesclip" id="clip44b613y"><rect x="0" y="60" width="700" height="330"/></clipPath><clipPath class="axesclip" id="clip44b613xy"><rect x="60" y="60" width="528" height="330"/></clipPath></g><g class="gradients"/></defs><g class="bglayer"/><g class="layer-below"><g class="imagelayer"/><g class="shapelayer"/></g><g class="cartesianlayer"><g class="subplot xy"><g class="layer-subplot"><g class="shapelayer"/><g class="imagelayer"/></g><g class="gridlayer"><g class="x"><path class="xgrid crisp" transform="translate(189.25,0)" d="M0,60v330" style="stroke: rgb(238, 238, 238); stroke-opacity: 1; stroke-width: 1px;"/><path class="xgrid crisp" transform="translate(321.29,0)" d="M0,60v330" style="stroke: rgb(238, 238, 238); stroke-opacity: 1; stroke-width: 1px;"/><path class="xgrid crisp" transform="translate(453.32,0)" d="M0,60v330" style="stroke: rgb(238, 238, 238); stroke-opacity: 1; stroke-width: 1px;"/><path class="xgrid crisp" transform="translate(585.36,0)" d="M0,60v330" style="stroke: rgb(238, 238, 238); stroke-opacity: 1; stroke-width: 1px;"/></g><g class="y"><path class="ygrid crisp" transform="translate(0,308.61)" d="M60,0h528" style="stroke: rgb(238, 238, 238); stroke-opacity: 1; stroke-width: 1px;"/><path class="ygrid crisp" transform="translate(0,243.73)" d="M60,0h528" style="stroke: rgb(238, 238, 238); stroke-opacity: 1; stroke-width: 1px;"/><path class="ygrid crisp" transform="translate(0,178.84)" d="M60,0h528" style="stroke: rgb(238, 238, 238); stroke-opacity: 1; stroke-width: 1px;"/><path class="ygrid crisp" transform="translate(0,113.96000000000001)" d="M60,0h528" style="stroke: rgb(238, 238, 238); stroke-opacity: 1; stroke-width: 1px;"/></g></g><g class="zerolinelayer"><path class="yzl zl crisp" transform="translate(0,373.5)" d="M60,0h528" style="stroke: rgb(68, 68, 68); stroke-opacity: 1; stroke-width: 1px;"/></g><path class="xlines-below"/><path class="ylines-below"/><g class="overlines-below"/><g class="xaxislayer-below"/><g class="yaxislayer-below"/><g class="overaxes-below"/><g class="plot" transform="translate(60, 60)" clip-path="url(#clip44b613xyplot)"><g class="scatterlayer mlayer"><g class="trace scatter traceb8b1f7" style="stroke-miterlimit: 2; opacity: 1;"><g class="fills"/><g class="errorbars"/><g class="lines"><path class="js-line" d="M0,293.66L0.99,302.85L1.13,297.34L1.27,300.15L1.41,296.53L1.55,275.18L2.11,280.52L2.53,252.88L2.67,233.69L2.82,297.11L3.38,280.21L3.52,263.92L3.94,256.49L4.22,291.53L4.36,270.7L4.51,246.82L4.65,299.4L5.07,258.77L5.21,298.29L6.05,260.53L6.19,264.85L6.76,245.22L7.04,245.98L7.18,307.61L8.02,271.07L8.16,293.9L8.31,260.31L8.73,302.16L8.87,276.99L9.01,278.47L9.71,261L9.85,298.28L10.28,251.1L10.7,255.11L10.84,304.6L11.54,245.95L11.68,292.79L12.11,242.64L12.53,252.26L12.67,291.01L12.95,248.72L13.09,301.67L13.51,250.26L13.65,256.8L13.8,259.06L13.94,254.78L14.08,288.27L14.36,216.87L14.92,246.24L15.06,227.38L15.34,291.56L15.77,257.87L15.91,258.06L17.17,229.8L17.31,239.4L17.46,238.04L18.16,223.86L18.3,231.8L19,215.08L19.14,221.31L19.28,225.41L20.41,206.48L20.55,213.21L21.54,206.98L21.68,221.86L21.82,217.83L21.96,189.68L22.1,293.27L22.8,282.94L22.95,280.03L23.09,280.2L23.23,243.56L23.65,233.58L23.79,285.69L23.93,230.46L24.49,293L24.77,251.35L24.92,245.28L25.2,240.41L25.34,282.45L25.76,234.53L26.18,254.03L26.32,244.7L26.46,246.66L26.6,226.48L26.74,226.55L26.89,229.9L27.03,234.6L27.17,220.37L27.31,291.49L27.87,226.53L28.15,235.51L28.29,237.99L28.58,223.72L28.72,289.25L29,241.23L29.42,295.05L29.56,253.67L29.7,263.67L30.26,265L30.41,217.25L30.55,245.54L30.69,292.12L31.67,235.75L31.81,238.48L32.09,236.76L32.23,213.78L32.52,232.16L32.94,224.52L33.08,225.06L33.36,226.76L33.78,218.29L33.92,224.87L34.21,224.55L34.35,224.93L34.49,222.72L34.77,228.48L34.91,225.95L35.05,207.07L35.75,286.33L36.04,260.75L36.18,241.42L36.46,224.78L36.6,239.44L36.74,292.72L37.02,304.13L37.16,271.34L37.3,246.91L37.72,250.25L38.01,212.97L38.15,269.79L38.71,234.46L38.85,255.53L38.99,264.53L39.13,264.61L39.27,250.32L40.68,227.03L40.82,249.21L41.1,216.15L41.53,234.66L41.67,248.73L41.95,131.97L42.09,232.92L42.51,227.66L42.79,279.66L42.93,254.2L43.07,248.61L43.5,221.2L43.64,251.49L43.92,231.47L44.06,221.68L44.62,283.45L44.76,256.57L44.9,243.66L45.33,245.62L45.47,242.08L45.61,235.89L46.59,224.24L46.73,223.07L46.87,222.37L47.02,200.29L47.16,222.86L47.86,215.81L48,217.97L48.28,196.52L48.42,207.21L48.56,211.75L48.7,215.61L48.85,211.35L49.13,213.06L49.27,206.55L49.41,214.78L50.11,213.24L50.25,212.14L50.39,174.79L50.96,210.74L51.1,202.13L51.38,207.37L51.66,202.64L51.8,147.39L52.51,201.37L52.65,201.23L52.79,201.68L53.07,198.35L53.49,202.2L53.63,204L53.77,205.95L54.05,205.24L54.19,199.55L54.48,204.87L54.76,199.3L54.9,181.3L55.88,212.03L56.02,211.46L56.16,187.95L56.59,215.03L56.73,210.33L56.87,204.94L57.01,203.49L57.15,218.14L57.29,198.4L57.43,201.76L57.57,270.22L57.71,270.43L57.85,262.1L58.56,220.3L58.7,275.64L58.84,285.74L58.98,198.2L59.82,283.23L59.97,240.28L60.25,249.42L60.39,215.29L60.81,222.59L60.95,290.83L61.65,238.88L61.8,239.51L61.94,232.68L62.08,238.27L62.5,232.46L62.64,229.93L63.2,223.36L63.34,225.67L63.48,220.12L63.77,220.8L64.47,203.83L64.61,212.83L64.89,172.65L65.03,201.97L65.6,216.69L65.74,213.81L65.88,211.87L66.02,213.49L66.16,206.13L66.58,213.11L66.86,177.1L67,201.68L67.28,212.07L67.99,211.13L68.13,208.84L68.97,195.47L69.11,205.64L69.26,195.82L69.82,204.05L69.96,201.8L70.1,200.5L70.24,172.18L70.66,200.75L71.09,192.63L71.23,203.76L71.65,211.47L71.93,208.99L72.07,201.4L72.21,206.56L72.35,200.59L72.63,203.22L72.77,199.29L72.92,180.53L73.2,202.67L73.48,198.29L73.62,198.28L73.76,198.65L73.9,193.09L74.04,199.24L74.6,194.29L74.75,194.7L74.89,196.89L75.03,187.2L75.31,197.55L75.87,195.91L76.01,169.42L76.86,195.18L77,193.59L77.28,190.4L77.56,194.39L77.7,191.49L77.84,168.3L78.26,190.17L78.69,184.55L78.83,187.52L79.67,171.02L79.81,177.86L79.95,181.6L80.09,181.5L80.23,184.57L80.52,184.74L80.66,182.83L80.8,173.1L81.22,194L81.36,183.76L81.5,187.93L81.78,222.39L82.06,189.25L82.21,192.85L82.77,294.49L83.05,271.82L83.19,224.5L83.75,281.13L83.9,235.73L84.04,244.75L84.18,275.67L84.6,249.92L84.74,215.15L85.3,297.72L85.72,293.93L85.87,275.65L86.71,240.19L86.85,245.56L86.99,252.28L87.13,257.28L87.27,244.39L87.55,246.39L87.7,242.19L87.98,238.13L88.26,255.41L88.4,230.55L88.68,271.5L89.1,244.82L89.24,247.84L90.09,190.49L90.23,241.77L90.51,244.14L90.65,239.71L90.79,238.63L91.21,239.02L91.64,232.28L91.78,227.4L91.92,228.6L92.2,225.79L92.34,223.73L93.61,210.71L93.75,215.15L94.03,213.27L94.45,218.94L94.59,226.36L94.73,225.12L94.87,213.98L95.3,220.18L95.44,197.41L95.58,211.69L95.72,213.86L96.28,204.8L96.42,210.14L96.56,213.7L96.7,212.17L96.85,212.86L96.99,201.46L97.27,217.41L97.83,214.93L97.97,204.32L98.11,205.47L98.25,202.05L98.39,228.07L98.67,208.73L99.1,212.68L99.24,227.78L99.52,202L99.66,230.5L99.8,292.45L100.65,241.44L100.79,303.81L101.07,204.18L101.63,234.25L101.77,243.13L102.48,218.17L102.62,231.57L102.76,236.51L102.9,236.45L103.04,232.84L103.18,239.58L103.46,228.63L103.6,230.57L103.74,224.28L103.88,209.54L104.02,217.77L104.16,85.81L104.31,254.23L105.01,238.68L105.15,246.53L105.71,175.12L105.85,223.88L105.99,251.79L106.28,218.16L106.56,228.76L106.7,214.47L106.84,215.85L106.98,203.54L107.97,298.2L108.25,278L108.39,273.55L109.51,221.31L109.65,224.03L109.8,222.85L109.94,202.75L110.22,228.62L110.5,215.21L110.64,217.3L110.78,228.66L110.92,212.6L111.48,224.81L111.62,226.64L111.77,229.37L112.05,221.69L112.19,220.35L112.33,218.44L112.61,224.69L112.89,218.97L113.03,219.68L113.88,202.15L114.02,212.09L115,206.02L115.14,165.99L115.57,204.24L115.99,197.13L116.13,200.32L117.11,204.38L117.26,201.46L117.68,203.24L117.82,202.64L117.96,197.67L118.1,199.38L118.24,194.47L118.38,196.56L118.52,170.21L118.94,192.27L119.37,190.2L119.51,189.8L119.65,190L119.79,188.94L119.93,187.41L120.07,186.1L120.21,142.55L121.06,184.18L121.2,189.16L121.76,203.31L122.04,200.56L122.18,178.61L122.46,200.54L123.03,195.78L123.17,194.57L123.31,200.38L123.59,191.09L123.73,193.1L123.87,191.72L124.01,191.42L124.15,189.08L124.29,188.48L124.43,189.26L124.86,188.66L125,137.8L125.56,187.65L125.84,187.25L125.98,184.82L126.26,186.01L126.41,184.07L126.55,183.45L126.69,162.3L126.97,179.4L127.53,177.4L127.67,176.81L127.95,176.88L128.09,175.83L128.24,173.7L128.52,179.07L128.66,179.19L129.36,174.2L129.5,178.68L129.78,161.71L130.21,176.42L130.35,175.49L130.63,177.56L130.91,175.07L131.05,175.67L131.19,168.05L131.33,173.59L132.03,172.31L132.18,170.18L132.46,167.58L132.6,170.24L132.74,172.94L133.87,166.39L134.01,132.68L134.71,218.52L134.99,197.96L135.13,186.86L135.7,181.8L135.84,199.59L135.98,180.07L136.54,298.8L136.82,281.4L136.96,250.31L137.1,198.37L137.67,224.66L137.81,228.35L137.95,227.84L138.09,203.19L138.23,247.45L138.79,223.35L138.93,224.61L139.64,194.76L139.92,203.14L140.06,208.11L140.48,193.64L140.76,206.88L140.9,203.11L141.04,199.29L141.19,206.85L141.33,275.94L142.17,239.44L142.31,261.7L142.59,231.92L142.73,273.32L143.01,241.5L143.16,252.57L143.58,284.09L143.72,209.94L144,229.03L144.14,239.81L145.41,224.32L145.55,214.81L145.69,215.94L145.83,207.73L146.11,221.6L146.25,245.21L146.67,208.12L147.24,208.47L147.38,211.45L147.66,198.17L148.08,221.77L148.22,214.38L148.93,195.17L149.21,202.58L149.35,202.16L149.49,199.66L149.77,204.96L149.91,201.89L150.05,205.21L150.47,194.24L150.62,230.34L151.32,192.03L151.46,193.62L151.6,202.92L151.74,193.32L151.88,219.48L152.45,195.66L152.59,208.12L152.73,196.08L153.15,197.57L153.29,223.1L154.14,183.98L154.28,189.05L154.56,176.31L154.7,189.38L154.84,152.9L155.12,275.12L155.68,263.2L155.82,232.5L155.96,232.22L156.11,237.03L156.53,239.14L157.09,226.24L157.23,227.46L157.51,215.62L157.94,223.23L158.08,222.12L158.92,209.62L159.06,211.71L159.48,209.86L159.62,207.89L159.77,209.54L159.91,199.52L160.05,208.16L160.61,201.69L160.75,204.02L160.89,197.91L161.6,199.63L161.74,198.21L161.88,171.4L162.3,199.48L162.44,198.2L162.58,186.19L163,196.86L163.29,193.28L163.43,190.89L163.57,189.79L163.71,194.3L163.85,190.6L163.99,193.04L164.41,188.17L164.83,188.82L164.97,191.75L165.82,187.15L165.96,136.74L166.66,189.38L166.8,188.79L166.94,189.6L167.51,184.79L167.65,146.2L168.07,184.23L168.49,182.86L168.63,182.82L168.91,181.76L169.06,137.96L169.48,184.89L169.9,182.54L170.04,180.02L170.18,180.98L170.46,179.66L170.75,180.01L170.89,177.26L171.03,180.34L171.59,179.6L171.73,177.86L171.87,175.87L172.01,127.71L172.86,177.98L173,175.62L173.14,177.04L173.56,175.22L173.7,173.3L174.26,187.26L174.4,185.35L174.55,161.64L174.83,180.83L175.39,175.84L175.53,175.31L175.81,174.72L175.95,172.93L176.09,172.07L176.24,163.2L176.52,171.03L177.08,170.8L177.22,171.47L177.36,171.11L177.5,172.53L177.64,172.27L177.78,172.59L177.92,175.52L178.06,142.71L178.35,183.1L178.91,173.29L179.05,167.98L179.33,169.94L179.47,166.96L179.61,160.55L180.32,190.92L180.46,265.47L180.88,244.12L181.02,307.74L181.16,261.66L181.3,242.42L181.44,245.25L181.58,235.06L181.73,235.79L182.01,245.65L182.15,230.49L182.29,228.33L182.57,227.59L182.71,233.76L182.85,230.9L182.99,256.31L183.84,199.74L184.12,218.35L184.26,224.91L184.96,225.58L185.1,215.1L185.24,212.73L185.95,278.91L186.09,248.29L186.23,243.57L186.65,226.31L186.79,305.09L186.93,239.24L187.07,240.32L187.21,239.47L187.35,233.65L187.5,238.53L187.64,231.68L187.78,175.74L188.2,231.16L188.62,217L188.76,219.07L188.9,250.56L189.19,211.04L189.47,213.02L189.61,213.31L189.75,219.07L189.89,208.33L190.31,213.18L190.45,213.17L190.59,220.66L190.73,198.09L191.01,208.45L191.16,209.08L191.44,208.21L191.58,215.26L191.86,208.77L192,211.74L192.14,199.42L192.7,205.47L192.84,204.08L193.27,205.74L193.55,177.2L193.69,195.92L193.83,212.85L193.97,218.78L194.11,199.03L194.25,193.6L194.68,190.97L194.82,195.63L194.96,196L195.38,191.25L195.52,200.87L195.94,190.31L196.22,196.94L196.36,211.49L196.93,191.5L197.21,196.18L197.35,197.94L197.63,199.47L197.77,255.2L197.91,212.9L198.47,246.81L198.62,239.14L198.76,181.26L199.32,221.09L199.46,212.98L199.6,215.55L199.74,258.28L199.88,285.36L200.02,235.55L200.31,240.29L200.45,238.78L200.73,225.21L201.29,227.24L201.43,228.38L202.14,216.73L202.28,225.71L202.84,204.49L202.98,248.9L203.54,157.33L203.82,210.96L203.96,205.3L204.25,236.31L204.39,182.71L204.81,120.8L204.95,236.72L205.23,229.65L205.37,211.9L205.51,220.48L205.8,200.89L205.93,262.15L206.5,211.91L206.78,211.93L206.92,207.97L207.34,223.72L207.77,219.41L207.91,216.45L208.05,217.17L208.19,214.49L208.33,231.68L209.6,214.34L209.74,216.49L210.16,209.99L210.3,183.77L210.44,216.06L211,211.65L211.14,204.18L211.28,208.67L211.42,199.99L211.57,204.34L211.71,198.15L212.55,209.18L212.69,201.46L213.26,183.89L213.68,190.36L213.82,192.38L214.1,185.99L214.24,207.4L214.66,186.53L214.8,197.14L214.94,265.71L215.79,202.74L215.93,222.15L216.21,227.83L216.49,224.59L216.63,222.02L217.06,210.24L217.62,212.48L217.76,216.8L218.6,206.66L218.75,207.21L218.89,206.77L219.03,209.86L219.45,202.77L219.87,202.99L220.01,203.42L220.15,195.35L220.57,204.3L220.72,201.09L220.86,201.13L221,197.57L221.42,204.7L221.56,167.05L221.7,209.69L222.4,197.76L222.55,200.18L223.67,186.07L223.81,136.89L224.09,188.33L224.66,184.98L224.8,183.03L224.94,191.6L225.36,181.48L225.5,186.69L225.64,187.7L225.78,187.87L225.92,183.37L226.06,183.07L226.21,184.33L226.35,181.92L226.63,178.24L226.77,181.97L226.91,183.93L227.33,185.37L227.47,177.79L227.61,186.77L227.89,188L228.04,187.93L228.18,183.43L228.32,66.31L228.88,171.5L229.02,183.18L229.44,185.3L229.86,175.15L230.01,181.38L230.15,161.13L230.71,169.36L230.85,175.13L230.99,168.94L231.41,175.25L231.55,172.12L231.7,173.61L231.84,160.29L232.4,164.26L232.54,172.84L232.82,163.13L233.24,168.33L233.38,169.18L233.67,166.02L233.81,162.3L233.95,162.13L234.09,162.67L234.23,156.18L234.37,97.29L234.93,161.2L235.07,161.43L235.35,163.32L235.5,153.62L235.78,161.19L235.92,163.43L236.9,156.39L237.04,157.77L237.19,157.55L237.33,155.38L237.75,157.16L237.89,154.15L238.03,155.43L238.31,155.2L238.45,151.9L238.73,155.24L238.87,151.54L239.01,153.82L239.16,149.39L239.3,122.75L239.86,142.8L240,148.01L240.14,134.22L240.28,149.64L240.7,148.76L240.84,148.03L241.27,144.97L241.41,90.13L241.69,144.83L242.25,140.43L242.39,144.39L242.68,145.79L242.81,137.39L243.1,145.84L243.38,145.58L243.52,131.01L243.66,102.75L244.22,136.86L244.36,140.27L245.21,148.63L245.35,145.59L245.91,152.55L246.33,151.19L246.47,150.38L246.62,153.24L246.9,150.22L247.18,152.82L247.32,146.27L247.6,145.83L247.74,146.29L247.88,144.16L248.16,147.54L248.45,146.39L248.59,142.89L249.01,138.06L249.43,146.79L249.57,142.6L249.85,143.38L249.99,142.55L250.14,140.62L250.28,140.12L250.42,141L250.56,136.48L250.7,137.67L250.84,136.29L250.98,136.95L251.12,134.59L251.26,135.72L251.4,134.57L251.54,93.9L252.39,142.26L252.53,141.35L252.67,142.53L252.95,139.02L253.23,142.14L253.37,140.31L253.79,138.81L253.94,140.38L254.08,134.77L254.22,128.49L254.64,141.34L254.78,140.46L254.92,132.11L255.2,142.26L255.48,137.18L255.63,139.38L256.61,131.98L256.75,135.96L257.6,133.51L257.74,132.93L257.88,132.76L258.02,130.5L258.16,132.47L258.58,131.8L258.72,129.23L258.86,131.84L259,113.14L259.71,148.61L259.85,146.33L259.99,144.31L260.27,168.38L260.41,166.26L260.55,279.1L260.69,279.22L260.83,271.53L260.97,295.4L261.11,252.56L261.4,263.44L261.54,243.35L261.82,257.43L262.1,224.1L262.24,241.39L262.38,241.29L262.52,239L262.66,220.34L263.09,257.43L263.51,242.54L263.65,237.49L263.79,239.17L263.93,227.2L264.21,224.02L264.49,272.8L264.63,221.62L264.77,234.4L265.34,220.74L265.48,224.07L265.76,228.26L266.04,212.04L266.32,216.84L266.46,217.64L266.6,218.01L266.74,217.3L266.89,216.22L267.03,220.22L267.45,211.43L267.59,218.45L267.73,214.36L267.87,195.17L268.01,220.12L268.43,204.83L268.58,202.75L269,213.76L269.28,202.85L269.42,205.58L269.56,205.42L269.7,212.83L270.55,197.7L270.69,204.92L270.97,211.8L271.39,192.5L271.53,193.15L271.67,313.05L272.23,233.66L272.66,237.02L272.8,239.01L272.94,228.83L273.22,238.17L273.36,313.34L274.06,219.18L274.21,229.44L274.35,222.61L274.49,221.31L274.63,231.9L274.77,229.55L274.91,241.9L275.61,201.48L275.75,207.36L275.89,207.33L276.18,212.46L277.02,192.81L277.16,196.6L277.44,209.48L277.86,201.75L278.01,201.55L278.57,200.77L278.71,210.38L278.99,208.37L279.13,204.52L279.55,208.75L279.84,199.74L279.98,203.33L280.82,258.73L280.96,231.45L281.1,281.93L281.38,199.95L281.67,238.38L281.81,230.99L281.95,229.98L282.09,214.43L282.23,226.95L282.93,223.61L283.07,225.34L284.06,209.42L284.2,220.54L284.76,198.76L285.04,206.65L285.18,209.5L285.47,214.83L286.17,204.02L286.31,203.91L286.45,203.83L286.59,207.12L286.87,199.49L287.44,202.66L287.58,200.71L287.72,200.16L287.86,202.21L288,203.32L288.28,203.46L288.56,201.19L288.7,203.17L289.41,196.48L289.55,198.63L289.69,211.56L290.39,198.3L290.53,199.43L290.67,206.15L291.8,186.43L291.94,192.83L292.08,193.46L292.79,185.93L292.93,193.43L293.07,192.76L293.21,184.83L293.35,191.76L293.91,187.29L294.05,183.81L294.19,180.99L294.33,185.73L294.76,184.55L294.9,182.85L295.04,183.03L295.18,180.81L295.32,178.41L295.46,182.34L295.6,156.02L295.88,249.92L296.16,227.78L296.3,207.09L296.45,206.89L296.59,204.07L296.73,172.05L297.01,211.41L297.29,211.35L297.43,185.83L297.57,16.5L297.85,283.71L297.99,280.95L298.14,284.31L298.7,264.81L298.84,276.82L298.98,280.98L300.25,157.26L300.39,238.11L300.53,240.37L300.67,235.88L300.81,224.68L300.95,234.57L301.37,217.33L301.51,223.66L301.65,217.46L301.94,218.82L302.5,208.64L302.64,219.12L302.92,200.83L303.06,222.93L303.2,213.14L303.34,273.45L304.19,209.24L304.47,227.67L304.61,219L304.75,226.92L305.17,213.38L305.31,168.39L305.6,224.33L306.16,215.95L306.3,213.29L306.44,214.98L306.58,262.58L307.28,208.93L307.43,217.2L307.57,220.82L308.55,207.36L308.69,213.24L308.83,194.73L309.25,217.71L309.4,212.54L309.54,225.36L309.68,179L310.24,204.21L310.38,215.96L310.52,226.15L310.66,192.41L310.8,196.14L310.94,191.84L311.23,200.68L311.37,196.83L311.51,289.63L312.21,194.52L312.35,238.24L312.49,253.86L313.2,219.86L313.34,224.1L313.48,226.62L314.32,203.21L314.6,211.23L314.74,211.8L315.03,204.33L315.45,204.45L315.59,210.37L316.01,211.69L316.43,201.23L316.58,201.59L316.72,205.1L317.56,197.96L317.7,201.08L317.84,203.26L318.12,197.13L318.26,196.79L318.4,244.69L319.11,233.81L319.25,208.29L319.53,200.59L319.81,293.77L319.95,226.77L320.09,217.7L320.23,195.62L320.66,237.56L320.8,220.97L320.94,217.39L321.22,213.29L321.36,215.45L321.5,197.9L321.64,213.11L322.2,207.7L322.35,199.57L322.77,199.17L323.05,212.84L323.19,203.27L323.33,206L323.47,195.6L323.61,201.81L323.75,196.44L323.89,180.21L324.32,200.53L324.46,217.77L324.6,242.13L325.16,211.08L325.3,214.02L325.44,215.1L325.58,222.18L325.72,177.23L326.01,222.27L326.29,218.13L326.43,247.38L326.57,228.14L327.27,229.68L327.41,222.05L328.26,208.77L328.4,235.62L328.54,199.01L328.68,248.05L328.82,232.45L328.96,296.68L329.1,213.11L329.81,229.39L329.95,240.41L330.09,244.23L330.23,225.42L330.37,239.99L330.79,218.68L330.93,212.51L331.07,221.42L331.64,220.2L331.78,148.09L331.92,233.31L332.62,215.64L332.76,219.61L333.04,219.46L333.32,236.3L333.47,216.12L333.75,207.08L334.17,208.23L334.31,211.88L334.45,236.11L335.02,226.79L335.16,218.87L335.58,215.44L335.72,239.54L336,230.92L336.14,234.41L336.28,212L336.7,226.51L336.84,194.16L337.27,216.88L337.41,187.65L337.69,238.31L338.25,225.74L338.39,210.37L338.81,226.45L339.1,212.08L339.24,196.64L339.52,219.24L340.08,211.42L340.22,214.63L340.5,218.43L340.64,210.73L340.79,206.52L341.63,234.21L341.77,224.49L341.91,219.51L342.19,217.83L342.33,226.27L342.48,214.78L342.62,215.19L342.76,221.16L342.9,216.73L343.18,224.01L343.32,222.21L343.46,226.77L344.16,209.37L344.3,216.07L344.45,214.31L344.59,204.27L345.29,206.24L345.43,203.97L345.99,213.56L346.42,209.69L346.56,207.75L346.84,209.6L347.97,197.04L348.11,201.25L348.25,204.3L348.53,197.89L348.67,191.71L348.95,197.98L349.09,194.59L349.23,189.01L349.37,194.63L349.79,186.37L349.94,187.41L350.08,181.07L350.64,200.28L350.92,198.09L351.06,180.4L351.2,187.89L351.76,180.03L351.91,183.02L352.19,200.92L352.33,212.64L352.47,211.44L352.61,201.01L352.89,202.92L353.17,198.56L353.31,191.39L353.6,182.98L354.02,220.62L354.3,215.2L354.44,209.22L354.58,205.8L354.72,229.4L355.28,194.72L355.71,204.42L355.85,219.98L356.27,191.66L356.69,199.24L356.83,197.51L356.97,200.27L357.25,195.09L357.4,107.59L357.96,213L358.24,199.5L358.38,202.96L358.94,187.44L359.51,187.67L359.65,194.1L359.93,197.4L360.63,189.51L360.77,197.36L361.48,185.07L361.62,191.2L361.76,143.37L362.18,189.35L362.6,185.16L362.74,184.06L362.89,190.27L363.17,176.32L363.31,177.23L363.45,179.21L363.73,182.39L364.43,170.73L364.57,176.57L364.71,176.49L364.86,165.28L365.28,230.93L365.7,212.76L365.84,220.54L366.83,197.57L366.97,196.53L367.53,235.02L367.67,181.1L368.09,225.35L368.52,214.97L368.66,216.05L369.64,206.09L369.78,220.07L369.92,221.21L370.06,143.83L370.63,230.51L370.91,220.91L371.05,119.06L371.75,213.49L371.89,205.51L372.04,210.38L372.18,201.66L372.88,202.77L373.02,198.77L373.16,199.39L373.3,195.82L373.44,155.8L373.86,209.02L374.01,173.76L374.15,188.74L374.85,206L374.99,198.02L375.13,219.06L375.69,200.12L375.84,200.84L375.98,200.69L376.12,198.61L376.68,207.22L376.96,203.42L377.1,200.25L377.24,201.26L377.38,199L377.52,186.19L378.09,201.28L378.51,200.67L378.65,193.38L378.93,192.92L379.21,196.86L379.35,192.9L379.92,185.93L380.06,194.39L380.34,182.23L380.62,185.21L380.76,187.95L381.18,188.73L381.33,177.53L381.47,251.27L382.45,217.27L382.59,211.95L383.01,218.89L383.15,208.42L383.3,205.92L383.86,203.51L384,210.37L384.14,202.03L384.28,203.87L384.42,203.42L384.56,242.01L385.27,211.26L385.55,216.98L385.69,222.08L386.11,196.1L386.25,219.08L386.39,220.55L386.53,214.44L386.81,217.09L386.96,209.89L387.1,211.43L387.24,207.44L387.38,205.26L387.52,209.23L387.8,203.14L387.94,195.21L388.22,197.95L388.36,194.84L388.5,195.7L388.64,188.98L388.79,202.39L389.35,197.17L389.49,181.38L389.91,211.53L390.33,198.21L390.48,193.03L390.62,194.35L390.76,242.34L391.88,124.5L392.02,190.65L392.16,181.6L392.45,209.23L392.59,204.36L393.15,209.18L393.29,194.8L393.43,216.69L393.99,205.83L394.13,205.15L394.84,192.11L394.98,201.56L395.12,201.77L395.26,214.04L395.97,191.22L396.1,195.71L396.25,199.58L397.09,188.07L397.23,191.52L397.37,193.04L397.51,196.44L397.79,188.65L397.94,193.93L398.08,188.14L398.22,188.69L398.5,187.16L398.64,192.18L398.78,192.95L398.92,200.16L399.62,189.8L399.76,190.74L399.91,196.45L400.19,190.96L400.47,191.61L400.61,187.35L400.75,191.1L401.17,190.36L401.31,184.32L401.59,182.69L401.74,188.82L401.88,182.77L402.02,180.77L402.16,203.77L402.58,188.23L402.72,168.5L403,186.36L403.57,180.36L403.71,179.33L403.85,179.68L403.99,178.18L404.13,178.18L405.11,166.02L405.25,176.21L405.4,170.38L405.96,173.5L406.1,174.8L406.24,174.48L406.38,168.7L406.52,191.17L407.08,176.8L407.23,175.22L407.37,163.77L407.93,166.95L408.07,168.87L408.49,164.7L408.63,172.02L409.62,162.82L409.76,160.97L410.89,174.35L411.03,170.04L412.01,157.75L412.15,185.12L412.86,157.42L413.28,158.85L413.42,160.22L413.84,156.03L413.98,157.28L414.12,162.47L414.83,155.82L414.97,156.55L415.11,157.34L415.95,143.19L416.09,144.32L416.23,147.45L416.38,151.24L416.8,144.29L416.94,149.62L417.08,149.64L417.36,145.47L417.78,148.32L417.92,148.99L418.35,150.25L418.63,133.63L418.77,147.79L419.05,146.44L419.89,156.01L420.03,152.65L420.18,156.03L420.74,155.28L420.88,153.79L421.02,153.48L421.16,153.6L421.3,157.18L421.44,158.37L421.72,156.05L422.01,158.04L422.15,149.92L422.99,170.01L423.27,162.36L423.41,161.98L424.54,151.17L424.68,153.1L425.1,154.42L425.24,148.11L425.38,148.36L425.52,182.99L425.66,96.16L425.95,204.34L426.23,143.92L426.37,180.32L427.35,201.4L427.5,196.69L428.06,197.38L428.2,186.38L428.34,176.53L428.76,196.35L429.18,190.41L429.33,187.94L429.47,188.83L429.75,186.18L429.89,184.81L430.45,178.51L430.59,199.96L430.87,196.66L431.01,192.53L431.44,187.32L431.58,187.35L431.72,237.38L432.84,202.08L432.98,214.58L433.69,175.54L433.83,212.05L434.11,220.94L434.82,173.94L434.96,175.31L435.1,200.33L435.24,198.02L435.38,180.05L435.66,176.94L436.36,203.53L436.5,192.29L436.64,198.32L436.79,194.08L436.93,172.08L437.07,171.99L437.21,184.02L437.35,172.93L437.91,186.57L438.05,180.96L438.19,190.53L438.61,180.78L438.76,181.82L438.9,178.26L439.18,179.17L439.46,167.19L439.6,175.46L439.74,177.58L440.3,168.64L440.45,169.17L440.59,176.66L441.43,163.52L441.57,167.14L441.71,168.26L441.99,179.08L442.13,167.64L443.12,187.2L443.26,186.66L444.25,174.43L444.39,182.12L444.53,185.42L444.67,174.71L444.81,181.39L444.95,176.37L445.37,178.78L445.51,174.45L446.08,189.53L446.36,188.11L446.5,188.58L446.64,180L447.06,199.73L447.2,196.22L447.77,180.29L448.05,180.56L448.19,179.35L448.75,181.04L449.03,171.92L449.17,186.41L449.45,179.62L449.74,190.38L449.88,191.63L450.44,177.66L450.58,192.31L450.72,180.96L450.86,179.97L451.71,166.71L451.85,172.5L451.99,172.06L452.41,168.31L452.69,169.46L452.83,174.42L453.68,167.52L453.96,168.86L454.1,172.68L454.8,163.22L454.94,181.14L456.35,158.37L456.49,189.66L457.48,157.04L457.62,157.1L457.76,158.05L457.9,182.42L458.18,183.96L458.6,170L458.89,172.18L459.03,180.05L459.87,160.92L460.01,160.89L460.15,160.44L460.29,167.43L460.86,163.65L461,179.07L461.14,170.09L461.84,152.37L462.12,153.52L462.26,153.4L462.4,160.57L462.97,152.46L463.11,156.9L463.39,153.23L463.53,137.69L463.81,194.42L464.38,191.8L464.52,181.86L465.08,175.51L465.36,178.22L465.5,166.68L465.64,183.12L466.2,174.75L466.35,170.26L466.77,174.94L467.05,163.68L467.19,174.77L467.33,175.09L467.47,171.32L467.75,168.56L467.89,174.24L468.18,169.68L468.32,44.3L469.3,164.55L469.44,161.21L470.43,184.18L470.57,182.58L470.71,181.23L470.85,211.96L471.69,179.67L471.84,179.53L473.52,169.26L473.67,171.07L473.95,165.89L474.51,168.11L474.65,170.05L474.79,168.96L474.93,174.61L475.07,169.6L475.49,178.62L475.64,184.06L475.92,190.26L476.34,187.12L476.48,183.24L477.61,167.92L477.75,168.4L477.89,169.76L478.31,166.06L478.45,169.03L478.59,156.6L478.73,156.85L478.87,167.15L479.01,170.97L479.3,163.7L479.44,164.63L479.58,163.25L479.72,165.16L479.86,163.94L480,157.23L480.42,166.9L480.56,164.1L480.7,151.84L480.84,180.18L481.41,166.57L481.55,165.05L481.69,164.8L481.83,162.31L481.97,165.5L482.25,161.42L482.53,164.38L482.67,160.83L482.96,163.5L483.52,153.76L483.66,161.25L484.64,155.08L484.79,156.18L484.93,159.73L485.07,160.61L485.21,158.04L485.49,159.02L485.63,156.15L485.77,152.85L486.05,160.42L486.19,159.91L486.33,162.07L486.47,156.23L487.18,157.42L487.32,160.11L487.46,160.29L487.6,152.6L488.02,158.39L488.44,157.34L488.59,156.68L489.01,169.17L489.29,165.93L489.43,162.37L489.57,162.47L489.71,161.39L489.85,159.87L489.99,163.13L490.42,160.52L490.56,166.09L490.84,160.15L491.26,165.87L491.4,167.96L491.54,167.83L491.68,162.82L491.82,168.59L492.39,164.04L492.53,162.22L492.81,161.41L492.95,163.33L493.09,162.35L493.23,161.29L493.65,158.32L493.93,162.11L494.08,160.3L494.5,155.06L494.78,158.58L494.92,159.66L495.06,159.76L495.2,155.13L495.34,154.93L495.48,156.09L495.62,155.92L495.77,153.52L496.19,160.22L496.33,158.67L496.47,151.9L496.61,156.1L497.17,150.67L497.31,153.25L497.88,148.44L498.02,149.24L498.16,153.56L498.3,154.25L498.44,147.77L499.14,171.5L499.56,161.53L499.71,162.68L500.13,150.99L500.55,153.59L500.69,155.63L501.26,148.06L501.54,151.64L501.68,150.83L501.82,150.46L501.96,137.47L502.1,149.22L502.8,147.6L502.94,146.24L503.23,139.7L503.51,147.59L503.65,147.03L503.79,145.47L504.07,135.77L504.77,136.87L504.91,142.37L505.2,138.1L505.34,144.84L505.62,141.7L505.76,140.68L505.9,135.95L506.04,142.51L506.46,137.21L506.6,141.12L507.17,133.13L507.31,138.59L507.45,138.15L507.59,139.03L507.73,134.91L508.15,139.51L508.57,137.1L508.72,139.17L508.86,138.97L509,139.53L509.14,140.98L509.56,128.35L509.84,139.3L509.98,140.28L510.12,142.11L510.4,139.1L510.54,137.28L511.39,141.59L511.53,141.41L511.67,132.02L512.51,145.55L512.66,142.25L513.22,148.12L513.64,146.88L513.78,142.55L514.06,148.3L514.63,147.55L514.77,145.05L514.91,146.21L515.05,144.26L515.61,145.82L515.75,146.28L515.89,146.84L516.03,146.53L516.18,143.88L516.32,145.44L516.46,143.63L516.74,145.21L516.88,143.09L517.16,144.92L517.44,142.33L517.58,143.3L517.72,143.7L517.86,142.85L518.29,144.75L518.43,137.97L518.85,143.29L519.27,141.85L519.41,142.44L520.4,138.24L520.54,139.54L520.68,140.26L521.52,133.39L521.67,135.84L521.81,137.35L522.51,136.49L522.65,134.21L522.79,134.98L522.93,134.88L523.07,127.34L523.92,135.39L524.06,133.7L524.62,130.76L524.76,133.67L524.9,132.37L525.04,129.16L525.46,135.17L525.61,133.35L525.89,133.87L526.03,132.71L526.17,132.76L526.31,131.76L526.59,135.13L526.73,134.56L527.15,130.42L527.44,134.86L527.58,134.32L528,129.88" style="vector-effect: non-scaling-stroke; fill: none; stroke: rgb(31, 119, 180); stroke-opacity: 1; stroke-width: 2px; opacity: 1;"/></g><g class="points"/><g class="text"/></g><g class="trace scatter trace3f8f1c" style="stroke-miterlimit: 2; opacity: 1;"><g class="fills"/><g class="errorbars"/><g class="lines"><path class="js-line" d="M0,313.5L528,313.5" style="vector-effect: non-scaling-stroke; fill: none; stroke: rgb(255, 127, 14); stroke-opacity: 1; stroke-width: 2px; opacity: 1;"/></g><g class="points"/><g class="text"/></g><g class="trace scatter tracee493c9" style="stroke-miterlimit: 2; opacity: 1;"><g class="fills"/><g class="errorbars"/><g class="lines"><path class="js-line" d="M0,307.3L0.85,301.2L0.99,304.07L1.13,302.38L1.41,307.82L1.55,308.08L2.39,313.14L2.53,313.34L2.67,313.27L2.82,307.86L3.52,313.32L3.66,312.96L3.8,312.66L4.08,311.01L4.22,311.27L4.36,313.07L4.51,313.1L4.65,302.18L4.79,313.02L5.49,312.67L5.63,312.91L5.77,272.59L6.33,313.2L6.48,313.13L7.04,313.03L7.18,297.25L7.88,312.43L8.02,311.75L8.16,309.19L8.31,312.79L8.59,312.11L8.73,299.84L9.15,313.22L9.57,312.98L9.71,312.9L9.85,305.22L10,313.36L10.42,313.06L10.56,313.03L10.7,312.66L10.84,304.28L11.54,313.4L11.68,309.55L11.82,311.06L12.39,313.43L12.53,313.35L12.67,308.62L12.95,313.43L13.09,306.16L13.51,312.43L13.65,312.81L13.94,313.41L14.08,306.76L14.78,313.49L14.92,313.47L15.06,313.46L15.34,307.29L15.77,313.5L15.91,313.5L21.96,313.46L22.1,310.39L22.24,309.64L22.38,313.02L22.52,313.27L22.66,311.18L22.8,309.7L23.09,311.52L23.23,313.17L23.65,313.34L23.79,309.92L23.93,313.38L24.35,308.77L24.49,307.41L25.2,313.47L25.34,310.28L25.76,313.47L26.18,313.39L26.32,313.46L27.17,313.34L27.31,309.23L28.01,313.49L28.15,313.47L28.29,313.44L28.58,313.49L28.72,307.38L29,313.44L29.42,307.21L29.56,312.96L29.7,312.41L30.41,313.44L30.55,313.32L30.69,307.42L31.53,313.49L31.67,313.41L33.08,313.49L33.22,313.5L35.61,313.48L35.75,307.76L36.6,313.47L36.74,308.07L37.02,289.56L37.16,310.29L37.3,313.12L38.01,313.41L38.15,311.22L38.71,313.44L38.85,313L38.99,311.89L39.13,310.81L39.41,313.48L39.55,313.49L42.65,313.48L42.79,310.61L43.64,313.48L43.78,313.47L44.48,313.46L44.62,311.17L45.47,313.49L45.61,313.49L57.43,313.49L57.57,312.23L58.56,313.49L58.7,311.66L58.84,295.79L59.26,313.46L59.4,313.31L59.54,312.58L59.82,310.28L60.39,313.48L60.53,313.47L60.81,313.47L60.95,299.57L61.8,313.49L61.94,313.49L82.21,313.5L82.35,301.38L83.19,313.45L83.33,312.6L83.47,313.4L83.61,312.78L83.75,298.41L83.9,313.48L84.18,275.88L84.6,313.2L84.74,313.43L84.88,313.13L85.02,313.46L85.16,305.65L86.15,313.46L86.43,313.25L86.57,313.41L86.99,313.47L87.13,282.18L87.7,313.47L87.98,313.44L88.12,313.22L88.4,313.48L88.54,311.52L88.68,311.67L88.82,313.48L90.23,313.46L90.37,313.48L99.66,313.18L99.8,309.83L99.94,308.69L100.08,312.38L100.22,313.08L100.36,308.4L100.5,313.47L100.93,313.12L101.07,313.48L102.05,313.48L102.19,313.49L107.54,313.5L107.68,269.6L108.53,313.16L108.67,313.01L109.65,313.48L109.8,313.48L120.49,313.5L120.63,313.5L135.98,313.5L136.12,312.64L136.26,313.26L136.4,310.18L136.54,297.82L137.1,313.46L137.24,313.48L141.19,313.5L141.33,309.62L141.61,305.68L142.03,313.48L142.17,313.47L142.31,313.33L142.59,313.45L142.73,312.43L143.44,313.49L143.58,311.7L144.56,313.47L144.7,313.39L146.11,313.5L146.25,313.5L154.98,313.5L155.12,243.14L155.82,313.49L155.96,313.48L156.11,313.49L177.36,313.5L177.5,313.5L180.32,313.5L180.46,310.02L180.6,300.07L181.16,313.37L181.3,313.4L185.24,313.47L185.38,313.36L185.81,313.48L185.95,312.57L186.37,311.65L186.65,313.43L186.79,308.82L187.64,313.49L187.78,312.16L188.48,313.49L188.62,313.46L188.76,313.49L197.63,313.5L197.77,313.05L198.47,313.49L198.62,313.1L199.46,313.49L199.6,313.5L199.88,310.67L200.02,313.46L214.8,313.44L214.94,311.9L215.09,313.47L215.23,283.91L215.93,313.5L216.07,313.49L216.21,313.49L237.47,313.5L237.61,313.5L260.41,313.5L260.55,309.8L260.97,302.69L261.11,313.31L261.26,310.49L261.4,312.36L262.24,313.47L262.38,313.38L263.79,313.48L263.93,313.31L264.21,313.49L264.49,311.72L264.63,313.48L264.77,313.49L271.53,313.5L271.67,271.61L272.37,313.48L272.52,313.46L272.66,313.47L273.22,313.01L273.36,294.2L274.21,313.5L274.35,313.43L276.04,313.5L276.18,313.5L279.98,313.5L280.12,310.74L280.82,313.49L280.96,313.37L281.1,313.5L282.23,313.49L282.37,313.49L297.57,313.5L297.71,309.94L297.99,306.91L298.27,312.94L298.7,312.61L298.84,311.86L298.98,311.33L299.12,312.97L299.26,312.82L299.4,313.36L301.37,313.49L301.51,313.35L302.64,313.5L302.78,313.5L303.2,313.5L303.34,309.45L304.05,313.5L304.19,313.49L304.33,313.48L306.44,313.5L306.58,297.48L307.28,313.5L307.43,313.49L307.57,313.5L311.37,313.5L311.51,311.91L312.07,313.5L312.21,310.11L313.06,313.49L313.2,313.5L319.67,313.5L319.81,312.55L320.66,313.5L320.8,313.49L328.26,313.49L328.4,312.11L328.54,313.5L328.82,313.46L328.96,309.31L329.81,313.5L329.95,313.5L370.91,313.48L371.05,312.44L371.89,313.5L372.04,313.5L528,313.5" style="vector-effect: non-scaling-stroke; fill: none; stroke: rgb(44, 160, 44); stroke-opacity: 1; stroke-width: 2px; opacity: 1;"/></g><g class="points"/><g class="text"/></g><g class="trace scatter trace586925" style="stroke-miterlimit: 2; opacity: 1;"><g class="fills"/><g class="errorbars"/><g class="lines"><path class="js-line" d="M0,305.1L0.28,304.1L0.42,306.86L0.56,306.03L0.7,309.19L0.85,309.5L1.27,305.1L1.41,305.84L1.55,312.44L1.83,312.56L2.11,301.45L2.25,312.1L2.39,313.1L2.53,313.32L2.67,304.68L2.96,292.86L3.24,312.03L3.38,310.97L3.52,306.27L3.66,302.29L3.94,313.33L4.08,310.58L4.22,311.25L4.36,312.8L4.65,309.23L4.79,312.55L4.93,302.76L5.77,313.43L5.91,307.83L6.76,313.4L6.9,313.28L7.04,313.37L7.18,308.25L7.32,304.49L7.6,311.75L7.74,310.97L7.88,312.01L8.02,301.94L8.59,312.92L8.73,307.1L9.57,313.2L9.71,313.35L10.28,299.63L10.42,313.19L10.56,312L10.7,313.18L10.84,303.83L11.4,313.44L11.68,311.46L11.82,311.42L12.39,313.24L12.53,288.69L12.95,313.04L13.37,306.58L13.51,313.35L14.36,308.8L14.5,313.46L16.33,313.37L16.47,313.43L21.96,313.5L22.1,307.58L22.52,313.23L23.09,311.91L23.23,297.4L23.65,313.45L24.07,313.28L24.21,313.38L24.35,301.53L24.92,313.37L25.06,313.42L25.2,313.32L25.34,312.22L25.62,313.39L26.18,313.25L26.32,313.29L27.17,313.48L27.31,310.45L27.87,313.47L28.15,313.43L28.29,313.43L28.58,313.48L28.72,306.83L29,313.43L29.42,306.74L29.56,312.72L29.7,313.31L30.55,312.58L30.69,306.79L31.53,313.44L31.67,313.46L35.61,313.45L35.75,298.97L36.46,313.47L36.6,313.4L36.74,307.94L37.72,313.44L37.87,313.44L38.85,313.04L38.99,311.97L39.84,313.38L39.98,313.44L41.81,313.48L41.95,306.41L42.51,313.48L42.79,311.69L42.93,313.38L44.06,313.47L44.2,313.46L57.43,313.5L57.57,309.57L58.56,313.48L58.7,311.26L58.84,312.16L58.98,298.68L59.68,313.29L59.82,310.65L59.97,313.32L60.81,313.48L60.95,312.94L61.94,313.46L62.08,313.45L82.21,313.5L82.35,300.58L82.91,313.32L83.19,308.79L83.33,312.88L84.18,313.35L84.32,312.72L85.02,313.41L85.16,303.41L86.71,313.42L86.85,312.52L87.7,313.4L87.84,313.18L88.4,313.46L88.54,312.82L89.81,313.4L89.95,311.28L90.79,313.45L90.93,313.45L99.66,313.5L99.8,299.46L100.65,313.39L100.79,313.37L100.93,313.43L101.07,306.19L101.91,313.46L102.05,313.46L104.02,313.49L104.16,286.76L105.01,313.43L105.15,313.33L106.42,313.48L106.56,313.48L107.54,313.49L107.68,308.49L108.11,303.3L108.25,311.12L108.39,311.1L109.37,313.47L109.51,313.48L136.12,313.5L136.26,310.74L136.4,298.5L136.82,313.37L136.96,313.09L137.1,313.5L137.81,313.45L137.95,312.67L138.79,313.48L138.93,313.48L141.19,313.49L141.33,309.24L141.47,310.25L141.61,305.5L142.17,313.41L142.45,313.34L142.59,313.44L142.73,311.05L143.3,313.46L143.44,313.43L143.72,305.14L144,313.46L144.14,313.42L155.12,313.41L155.26,312.64L156.11,313.43L156.25,313.45L165.96,313.5L166.1,313.5L180.32,313.5L180.46,311.52L180.6,305.52L181.02,313.11L181.16,312.74L181.3,313.4L182.99,313.05L183.13,313.38L183.27,313.46L185.24,313.48L185.38,312.17L185.81,313.46L185.95,309.96L186.79,313.46L186.93,312.94L187.78,313.5L187.92,313.47L197.77,313.29L197.91,311.81L198.05,307.96L198.33,313.47L198.47,313.02L198.62,313.46L202.84,313.49L202.98,312.36L203.4,313.48L203.54,310.76L204.11,313.49L204.39,313.44L204.53,313.46L210.02,313.49L210.16,313.49L214.8,313.5L214.94,312.35L215.79,313.47L215.93,313.47L260.55,313.02L260.69,307.8L261.68,313.44L261.82,312.73L262.66,313.48L262.8,313.43L263.09,308.14L263.51,313.36L263.65,313.42L264.49,312.97L264.63,309.16L265.48,313.49L265.62,313.49L271.67,313.5L271.81,311.68L272.66,313.43L272.8,313.4L274.49,313.48L274.63,313.46L278.71,313.49L278.85,313.49L280.96,313.47L281.1,214.4L281.95,313.47L282.09,313.49L297.43,313.5L297.57,298.93L297.71,297.59L297.85,311.42L298.14,296.5L298.27,310.69L298.42,312.81L298.7,311.82L298.98,312.9L299.12,312.93L299.96,313.46L300.11,273.37L300.81,313.48L301.09,313.45L301.23,313.46L311.51,313.5L311.65,313.39L312.07,313.47L312.21,312.48L313.06,313.48L313.2,313.48L319.11,313.47L319.25,313.49L335.58,313.49L335.72,313.27L336.84,313.5L336.99,313.5L346.13,313.49L346.27,313.49L355.71,313.5L355.85,312.63L356.69,313.5L356.83,313.5L381.18,313.5L381.33,219.15L382.17,313.49L382.31,313.48L403.85,313.5L403.99,313.5L425.95,313.49L426.09,302.98L426.93,313.5L427.07,313.47L431.44,313.5L431.58,282.27L432.28,313.49L432.42,313.48L432.56,313.47L439.88,313.5L440.02,313.5L528,313.5" style="vector-effect: non-scaling-stroke; fill: none; stroke: rgb(214, 39, 40); stroke-opacity: 1; stroke-width: 2px; opacity: 1;"/></g><g class="points"/><g class="text"/></g><g class="trace scatter trace0e520a" style="stroke-miterlimit: 2; opacity: 1;"><g class="fills"/><g class="errorbars"/><g class="lines"><path class="js-line" d="M0,271.61L0.56,312.76L0.85,311.36L0.99,312.84L1.13,312.43L1.55,312.73L1.69,296.91L1.97,313.25L2.53,312.6L2.67,312.5L3.38,313.27L3.66,313.06L3.8,313.11L4.36,312.68L4.51,313.28L4.65,313.3L6.48,312.74L6.62,313.18L7.46,313.08L7.6,313.21L9.29,313.29L9.43,313.04L9.85,313.26L10,312.38L10.84,313.3L10.98,313.19L12.25,313.27L12.39,313.03L13.65,313.36L13.8,313.32L14.78,313.14L14.92,313.28L18.86,313.38L19,312.31L19.85,313.37L19.99,313.34L20.13,312.71L20.69,313.42L20.83,313.43L21.4,313.06L21.54,308.7L22.1,313.29L22.38,312.42L22.52,313.22L23.51,313.19L23.65,313.36L24.92,312.53L25.06,313.28L26.18,312.77L26.32,312.53L27.03,313.1L27.17,313.06L27.31,313.26L28.01,313.3L28.15,311.56L28.72,313.3L29,313.19L29.14,313.13L30.12,312.68L30.41,313.08L30.55,312.98L31.53,313.36L31.67,313.33L32.23,313.01L32.52,313.34L32.66,313.38L34.91,313.35L35.05,312.6L35.75,313.29L35.9,313.22L36.04,313.3L36.88,312.95L37.02,313.33L38.99,313.09L39.13,313.38L40.68,313.37L40.82,313.4L41.24,312.89L41.67,313.25L41.81,313.27L42.79,313.24L42.93,313.33L48.14,313.35L48.28,312.5L49.13,313.4L49.27,313.18L49.55,312.95L50.25,313.43L50.39,306.81L50.96,313.4L51.24,313.39L51.38,312.63L51.52,313.41L51.66,313.27L51.8,307.02L52.65,313.44L52.79,313.45L54.19,313.27L54.33,313.35L54.76,313.37L54.9,309.69L55.74,313.43L55.88,313.42L56.87,313.18L57.01,313.31L57.85,312.7L57.99,313.1L59.68,313.1L59.82,312.65L60.67,313.28L60.81,313.27L70.1,313.44L70.24,311.67L70.95,313.4L71.09,313.25L71.23,313.35L72.77,313.39L72.92,312.69L73.76,313.44L73.9,313.01L74.75,313.39L74.89,313.44L75.03,313.02L75.59,313.39L75.73,313.39L76.72,313.32L76.86,313.42L78.26,313.37L78.41,312.58L79.25,313.41L79.39,313.43L79.67,312.49L80.23,313.08L80.38,313.31L81.78,313.36L81.92,313.08L88.26,313.25L88.4,312.54L88.96,313.39L89.24,313.3L89.39,313.32L94.59,313.36L94.73,313.25L95.44,312.54L95.58,313.3L95.72,313.34L99.1,313.29L99.24,312.9L100.08,313.41L100.22,313.37L101.49,313.36L101.63,313.44L103.74,313.22L103.88,313.38L105.85,313.33L105.99,313.31L106.84,313.36L106.98,312.88L107.97,313.42L108.11,313.41L108.95,313.25L109.09,313.41L115,313.42L115.14,311.94L115.85,313.42L115.99,313.27L116.13,313.41L118.94,313.38L119.08,313.42L120.07,313.39L120.21,311.94L120.92,313.43L121.06,313.4L121.2,313.44L122.04,313.46L122.18,312.45L123.03,313.45L123.17,313.43L124.86,313.45L125,311.39L125.84,313.4L125.98,313.43L133.87,313.44L134.01,312.7L134.57,313.43L134.85,313.35L134.99,313.22L136.54,313.39L136.68,313.37L136.82,313.15L136.96,313.3L137.1,308.57L137.95,313.36L138.09,313.09L139.07,313.4L139.21,313.4L139.64,310.81L139.78,313.31L142.45,313.39L142.59,313.38L143.86,313.35L144,313.4L144.56,312.81L144.7,313.35L144.85,313.42L146.11,313.34L146.25,313.42L147.52,313.35L147.66,313.39L154.7,313.24L154.84,312.44L155.68,313.41L155.82,313.36L157.8,313.44L157.94,313.43L161.74,313.43L161.88,311.82L162.44,313.42L162.72,313.37L162.86,313.4L165.82,313.44L165.96,307.04L166.8,313.43L166.94,313.45L167.51,313.45L167.65,311.14L168.21,313.45L168.49,313.43L168.63,313.44L168.91,313.44L169.06,309.45L169.9,313.45L170.04,313.46L172.01,312.74L172.15,313.27L172.29,313.37L174.4,313.47L174.55,311.33L175.39,313.44L175.53,313.45L176.09,313.44L176.24,311.67L177.08,313.46L177.22,313.46L177.92,313.47L178.06,310.05L178.77,313.44L178.91,313.43L179.05,313.41L179.47,313.3L179.61,312.59L180.46,313.38L180.6,313.39L185.52,313.45L185.67,312.85L186.51,313.4L186.65,313.38L193.41,313.44L193.55,313.32L194.68,313.44L194.82,313.44L196.79,313.45L196.93,312.38L197.21,313.43L197.77,313.31L197.91,313.08L198.9,313.41L199.04,313.4L202.42,313.39L202.56,312.62L203.54,313.44L203.68,313.4L205.65,313.27L205.8,311.53L206.64,313.43L206.78,313.42L207.62,313.45L207.77,313.44L213.96,313.44L214.1,312.88L214.94,313.38L215.09,313.32L216.63,313.45L216.77,313.44L221.42,313.42L221.56,304.12L222.4,313.44L222.55,313.45L223.67,313.48L223.81,309.93L224.66,313.41L224.8,313.42L228.18,313.45L228.32,297.05L228.88,313.36L229.16,313.35L229.3,313.42L230.85,313.46L230.99,312.66L231.98,313.44L232.12,313.44L234.37,312.77L234.51,312.35L235.35,313.41L235.5,313.42L236.62,313.45L236.76,313.42L236.9,313.08L237.47,313.42L237.61,313.45L239.16,313.46L239.3,306.67L240,313.44L240.14,313.43L240.28,313.31L241.27,313.46L241.41,310.2L242.11,313.44L242.25,313.41L242.39,313.45L243.38,313.46L243.52,311.57L244.36,313.43L244.5,313.43L248.73,313.44L248.87,313.06L249.85,313.46L249.99,313.44L251.4,313.44L251.54,312.19L252.39,313.43L252.53,313.42L258.86,313.45L259,310.71L259.85,313.45L259.99,313.43L300.67,313.4L300.81,312.49L301.65,313.44L301.79,313.45L305.6,313.43L305.74,313.43L361.62,313.41L361.76,312.15L362.6,313.46L362.74,313.46L373.58,313.45L373.72,313.44L384.7,313.47L384.84,313.45L386.11,313.47L386.25,312.2L387.1,313.46L387.24,313.47L394.7,313.36L394.84,311.74L395.68,313.46L395.82,313.46L402.58,313.48L402.72,308.87L403.57,313.47L403.71,313.46L418.49,313.48L418.63,312.98L419.47,313.48L419.61,313.48L528,313.49" style="vector-effect: non-scaling-stroke; fill: none; stroke: rgb(148, 103, 189); stroke-opacity: 1; stroke-width: 2px; opacity: 1;"/></g><g class="points"/><g class="text"/></g><g class="trace scatter tracee80deb" style="stroke-miterlimit: 2; opacity: 1;"><g class="fills"/><g class="errorbars"/><g class="lines"><path class="js-line" d="M0,273.91L0.56,312.57L0.85,311.2L0.99,312.01L1.13,311.2L1.27,312.25L1.55,312.13L1.69,302.81L1.97,312.89L2.53,311.85L2.67,310.09L3.1,313.02L3.52,312.67L3.66,312.28L4.51,313.09L4.65,312.83L5.49,313.24L5.63,313.07L5.91,312.21L6.33,312.84L6.48,312.9L7.32,312.3L7.46,312.75L8.59,313.2L8.73,312.94L9.01,312.65L9.85,313.17L10,312.01L10.7,313.17L10.84,313.13L10.98,312.96L12.39,312.85L12.53,312.2L13.23,313.2L13.37,313.13L13.51,312.31L14.36,313.09L14.5,312.62L15.34,313.18L15.49,312.78L16.75,312.11L16.89,310.22L17.03,313.05L17.6,312.54L17.74,311.89L18.44,313.14L18.58,311.32L19.43,313.28L19.57,313.08L19.71,313.01L19.85,312L20.55,313.09L20.69,312.82L20.83,313.13L21.26,311.64L21.4,312.11L21.54,303.87L22.1,313.09L22.38,310.15L22.52,311.86L22.66,312.12L22.8,310.19L23.09,313.01L23.65,312.56L23.79,312.89L24.49,313.16L24.63,312.01L24.92,312.89L25.48,312.64L25.62,312.57L26.04,312.73L26.32,310.43L26.46,311.7L26.6,311.91L26.74,310.25L26.89,312.83L27.59,312.48L27.73,310.99L28.01,312.65L28.15,307.82L28.72,313.07L29,311.79L29.14,312.37L29.42,312.81L29.56,311.42L29.84,312.43L29.98,310.5L30.12,307.03L31.11,312.77L31.25,312.62L31.39,312.43L31.53,312.91L31.81,311.51L32.09,312.36L32.23,310.81L32.94,313.02L33.08,312.68L33.22,312.81L33.36,312.89L33.64,312.36L33.78,310.73L33.92,311.54L34.07,307.6L34.49,312.78L34.91,312.47L35.05,308.92L35.9,313.13L36.04,312.41L36.32,311.64L36.46,312.48L36.6,311.23L36.74,312.93L37.3,312.87L37.44,311.04L37.58,313.09L38.29,312.86L38.43,312.58L38.71,312.77L38.99,311.62L39.13,312.9L39.27,312.48L39.69,312.87L39.84,313.17L40.12,312.38L40.54,312.93L40.68,312.97L40.82,313.13L40.96,312.86L41.1,312.26L41.39,312.42L41.53,310.76L41.95,312.76L42.09,311.67L42.23,309.65L43.07,312.54L43.21,312.81L43.5,311.47L43.64,312.2L43.78,312.65L44.06,307.54L44.2,312.07L44.76,311.77L45.04,312.85L45.18,312.75L45.75,312.46L46.03,312.75L46.17,312.83L47.3,313.24L47.44,312.83L48.14,313.07L48.28,309.02L48.7,306.29L48.85,312.98L49.13,312.63L49.27,312L49.97,313.08L50.11,312.81L50.25,312.97L50.39,284.46L50.96,313.03L51.1,312.59L51.24,312.28L51.52,313L51.66,312.64L51.8,294.51L52.36,312.94L52.65,312.93L52.79,312.87L52.93,312.25L53.49,312.87L53.63,313.16L53.91,311.84L54.05,300.29L54.62,312.85L54.76,311.2L54.9,297.75L55.46,313.13L55.74,312.99L55.88,312.92L56.16,309.88L56.45,313.04L56.59,312.8L56.73,312.94L57.29,310.19L57.43,311.16L57.57,312.96L57.71,313.02L57.85,310.68L58.28,310.12L58.42,311.45L58.56,306.55L59.4,312.73L59.54,311.87L59.68,312.3L59.82,305.11L60.53,312.43L60.67,312.38L60.81,312.7L61.37,311.46L61.51,312.97L61.65,312.74L61.94,312.87L62.08,312.28L62.22,312.07L62.92,313.21L63.06,313.14L63.2,313.13L63.62,312.84L63.77,313.04L63.91,311.27L64.05,313.25L64.47,310.28L64.61,312.44L64.75,312.16L64.89,310.34L65.31,313.19L65.46,313.18L65.74,312.69L66.02,313.21L66.16,308.03L66.58,313.29L66.86,307.71L67,312.55L67.14,312.96L67.43,313.14L67.57,312.54L67.71,312.84L67.85,312.3L68.69,313.18L68.83,312.55L69.11,312.28L69.68,313.23L69.82,312.84L70.1,313.05L70.24,308.25L70.95,313.07L71.09,308.25L71.51,313.06L71.93,312.89L72.07,311.33L72.35,312.98L72.77,312.49L72.92,310.02L73.62,313.16L73.76,313.08L73.9,311.94L74.46,313.14L74.75,312.76L74.89,312.93L75.03,309.84L75.59,312.74L75.73,312.3L75.87,312.76L76.01,165.99L76.57,313.09L76.86,313.03L77,312.7L77.7,313.02L77.84,305.34L78.26,312.56L78.69,312.4L78.83,312.83L79.25,313.06L79.39,312.73L79.53,310.97L79.67,307.7L80.09,313L80.23,309.22L80.38,312.21L80.66,310.52L80.8,312.99L81.08,312.59L81.22,312L81.36,311.64L81.5,313.1L81.78,312.16L81.92,312.61L82.35,312.27L82.49,311.69L82.63,312.88L82.77,281.74L83.05,312.74L83.61,312.3L83.75,310.65L83.9,312.85L84.46,312.64L84.6,311.94L84.74,264.6L85.3,313.07L85.44,312.82L86.01,312.94L86.15,312.8L86.29,312.34L86.57,312.93L86.85,312.09L86.99,310.23L87.55,312.79L87.84,312.77L87.98,312.27L88.12,311.81L88.26,312.41L88.4,312.07L88.54,313.03L89.39,311.68L89.53,312.75L89.67,312.9L89.81,311.06L90.09,307.74L90.65,313.06L90.79,312.86L91.21,313.11L91.64,311.62L91.78,312.97L91.92,312.68L92.06,313.16L92.48,313.04L92.62,313.01L93.04,312.75L93.18,313.14L93.33,312.9L93.47,245.72L94.17,312.83L94.31,312.58L94.45,311.82L94.59,312.09L94.73,310.63L95.01,309.98L95.16,312.87L95.3,312.46L95.44,300.87L95.72,312.92L96.14,312.84L96.28,307.46L96.42,312.78L97.13,312.31L97.27,312.33L97.41,309.64L97.83,312.9L97.97,312.23L98.11,312.91L98.67,312.9L98.82,311.94L98.96,313.05L99.24,311.8L99.52,312.89L99.66,312.46L99.8,313.06L100.36,312.7L100.5,312.65L100.79,313.16L100.93,311.93L101.63,313.05L101.91,312.62L102.05,312.81L102.34,313.08L102.48,312.32L102.62,265.48L103.04,312.82L103.46,312.78L103.6,312.76L104.45,312.25L104.59,312.67L104.73,312.44L104.87,310.19L105.43,313.05L105.71,312.76L105.85,312.8L105.99,310.64L106.28,313.01L106.56,312.66L106.7,313.14L106.98,312L107.4,312.69L107.54,313.19L108.25,311.72L108.39,312.84L108.53,312.98L109.37,313.03L109.51,312.79L109.94,313.17L110.08,312.15L110.22,312L110.36,312.96L110.92,313.12L111.06,312.14L111.2,313.03L111.62,312.74L111.77,310.88L112.05,312.93L112.61,312.69L112.75,311.07L113.03,313.02L113.6,312.82L113.74,313.06L113.88,308.82L114.44,312.41L114.58,312.15L114.72,311.59L115,313.1L115.14,301.39L115.43,313.14L115.99,312.72L116.13,312.97L116.97,313.04L117.11,312.47L117.96,313.14L118.1,313.15L118.24,312.72L118.38,263.61L119.23,312.93L119.37,312.77L119.93,313.07L120.07,312.71L120.21,296.05L120.92,313.15L121.06,312.06L121.2,313.22L121.9,312.17L122.04,313.22L122.18,296.88L122.75,313.22L122.89,313.14L123.31,313.24L123.45,310.13L124.43,313.29L124.57,313.2L124.86,313.2L125,261.12L125.84,312.79L125.98,307.51L126.26,313.09L126.69,310.53L126.83,311.28L127.25,313.07L127.67,312.98L127.81,312.41L128.24,311.72L128.52,313.16L128.66,313.07L128.8,312.48L129.64,313.27L129.78,309.83L130.63,313.24L130.77,313.06L131.05,313.07L131.19,311.92L131.61,313.29L132.03,312.83L132.18,313.07L132.74,312.5L133.02,313.11L133.16,313.23L133.58,312.67L133.87,313.25L134.01,309.76L134.43,312.95L134.85,312.63L134.99,312.34L135.27,312.95L135.7,312.65L135.84,311.82L136.12,313.15L136.68,312.65L136.82,312.03L136.96,312.58L137.1,303.08L137.67,312.99L137.95,310.51L138.09,312.23L139.07,313.14L139.21,313.02L139.64,309.19L139.92,312.85L140.06,312.69L140.2,312.89L140.48,312.32L140.62,305.06L141.19,313.19L141.47,312.85L141.61,312.86L142.31,312.56L142.45,313L143.01,312.06L143.16,312.74L143.3,312.95L143.86,312.17L144,313.06L144.14,303.99L144.42,313.16L144.99,313.12L145.13,312.7L145.97,313.22L146.11,312.97L147.8,312.66L147.94,313.13L148.79,313.08L148.93,311.99L149.91,313.28L150.05,313.21L150.76,312.63L150.9,313.14L151.74,313.11L151.88,312.97L152.31,312.72L152.45,308.94L153.01,313.03L153.29,312.8L153.43,309.88L153.99,313.24L154.28,313.02L154.42,313.18L154.7,312.78L154.84,308.2L155.54,312.93L155.68,311.61L155.82,311.09L155.96,313.14L156.53,312.37L156.67,312.07L156.81,313.04L156.95,312.98L157.09,301.16L157.51,313.1L157.94,313.01L158.08,313.06L159.34,312.64L159.48,312.83L159.62,313.1L160.33,313.06L160.47,309.12L161.31,313.15L161.45,313.18L161.74,313.01L161.88,308.72L162.44,312.83L162.58,270.03L163.29,313.17L163.43,313.04L163.57,313.05L163.85,312.6L164.13,313.18L164.27,312.93L164.41,310.35L165.11,313.14L165.26,313.08L165.4,312.89L165.82,313.28L165.96,256.66L166.8,313.12L166.94,313.03L167.51,312.89L167.65,237.11L168.35,313.05L168.49,312.97L168.63,313.17L168.91,312.53L169.06,242.28L169.9,313.15L170.04,313.03L170.18,312.77L170.32,313.2L170.6,313.14L170.75,313.31L171.73,312.81L171.87,313.21L172.01,307.01L172.57,312.9L172.72,313L173.42,313.29L173.56,312.27L174.4,313.24L174.55,307.52L175.25,313.1L175.39,313.09L175.53,313.12L176.09,313.34L176.24,294.34L177.08,313.24L177.22,313.37L177.92,313.21L178.06,248.69L178.91,313.13L179.05,312.24L179.33,313.16L179.47,309.79L179.61,306.65L179.89,312.86L180.03,312.85L180.18,312.64L180.32,304.83L180.6,312.94L180.88,312.92L181.02,312.76L181.3,312.02L181.44,313.02L181.58,308.08L181.87,313.18L182.43,312.8L182.57,312.91L183.41,312.66L183.55,313.02L183.84,312.17L184.12,312.45L184.26,313.15L184.68,313.07L184.82,312.5L185.52,313.21L185.67,311.19L186.51,312.9L186.65,312.46L186.79,311.8L187.64,313.1L187.78,312.78L188.62,313.22L188.76,312.92L189.75,313.18L189.89,312.84L190.31,313.22L190.45,311.54L191.16,313.18L191.3,313.16L191.44,311.91L192.28,313.32L192.42,313.03L192.84,313.26L192.98,312.35L193.41,313.23L193.83,313.07L193.97,313.06L194.11,312.65L194.68,313.26L194.82,313.09L195.8,313.3L195.94,313.18L196.08,303.22L196.65,313.1L196.79,313.23L197.21,313.26L197.63,309.66L197.77,312.33L197.91,307.15L198.47,313.14L198.62,312.9L199.04,312.36L199.18,313.05L199.32,313.29L200.02,312.82L200.31,313.08L200.45,313.03L202.14,313.1L202.28,312.15L202.42,313.1L202.56,296.85L203.12,313.12L203.4,313.1L203.54,313.13L204.39,312.45L204.53,313.24L204.67,312.81L204.81,304.37L205.51,313.11L205.65,312.85L205.8,300.36L206.22,313.27L206.64,312.82L206.78,312.97L206.92,312.22L207.48,313.11L207.62,313.05L208.89,313.16L209.03,312.01L209.17,311.81L209.31,313.13L210.16,313.08L210.3,303.12L210.86,313.24L211.14,313.1L211.28,313.16L211.42,312.97L211.57,313.22L211.71,311.26L212.27,313.29L212.55,313.23L212.69,313.34L213.96,313.18L214.1,310.37L214.8,313.18L214.94,312.04L215.09,312.24L215.79,312.98L215.93,312.17L216.77,313.21L216.91,313.21L218.75,313.01L218.89,310.98L219.59,313.23L219.73,313.19L219.87,313.22L220.01,313.08L220.15,310.32L220.72,313.14L221,313L221.14,312.79L221.42,312.97L221.56,211.8L221.98,313.09L222.4,312.88L222.55,313.1L222.69,312.29L223.25,312.81L223.39,313.11L223.53,312.99L223.67,313.18L223.81,253.39L224.52,312.91L224.66,312.13L224.8,313.09L225.36,312.58L225.5,309.63L226.21,313.13L226.35,313.03L226.49,312.8L226.77,312.41L227.33,313.01L227.47,312.48L228.04,313.12L228.18,313.05L228.32,157.64L229.16,312.53L229.3,312.86L230.29,313.12L230.43,312.69L230.71,313L230.85,312.84L230.99,305.68L231.84,313.08L231.98,313.19L232.68,312.63L232.82,313.15L232.96,309.97L233.81,313.22L233.95,313.17L234.23,313.18L234.37,207.68L235.07,312.91L235.21,312.25L235.35,312.68L235.5,312.8L235.64,284.33L236.06,313.02L236.48,312.98L236.62,312.43L236.76,313.12L236.9,310.5L237.19,312.73L237.33,306.64L237.61,313.18L238.17,312.59L238.31,312.81L238.73,313.1L238.87,312.3L239.16,312.73L239.3,273.35L239.58,313.04L240.14,304.43L240.28,311.85L241.13,313.26L241.27,312.5L241.41,168.89L241.97,312.85L242.11,312.94L242.68,313.13L242.81,309.97L243.1,313.22L243.38,313.01L243.52,217.5L244.22,313.02L244.36,313L244.5,313.12L245.35,312.69L245.49,313.1L245.63,313.18L246.05,312.97L246.19,310.44L247.04,313.24L247.18,313.16L248.3,313.08L248.45,313.01L248.59,312.9L248.73,309.2L248.87,309.38L249.01,312.75L250.28,313.17L250.42,313.17L251.4,312.97L251.54,247.35L252.39,312.63L252.53,312.66L252.67,312.59L252.81,308.58L253.65,313.03L253.79,312.95L253.94,313.02L254.08,312.7L254.22,213.97L254.92,313.08L255.06,313.02L255.2,313.13L255.91,312.56L256.05,313.26L257.17,312.82L257.31,311.65L257.6,313.28L258.02,313.1L258.16,312.51L258.86,313.19L259,289.62L259.85,313.09L259.99,312.92L260.27,313.12L260.41,312.6L260.55,310.52L261.26,312.93L261.4,312.32L261.54,312.55L262.94,313.15L263.09,312.72L263.23,312.31L263.37,312.89L263.65,312.9L263.79,313.09L264.07,312.95L264.21,309.46L265.06,312.86L265.2,313.13L266.32,313.08L266.46,313.09L268.72,313.31L268.86,312.25L269.42,313.29L269.56,313.15L269.7,312.6L270.55,313.14L270.69,313.16L271.11,313.26L271.25,310.72L271.95,313.24L272.09,312.5L272.23,313.14L273.22,313.05L273.36,313.16L273.5,312.48L274.06,313.2L274.21,313.26L275.75,313.01L275.89,311.59L276.74,313.15L276.88,313.21L278.01,313.16L278.15,311.83L278.29,313.05L278.43,313.01L278.57,306.95L278.71,313.24L279.41,313.16L279.55,312.87L280.26,313.09L280.4,312.82L280.54,313.05L280.68,311.11L280.82,313.24L281.53,312.7L281.67,312.43L282.37,313.22L282.51,312.36L283.21,313.21L283.35,313L283.5,312.81L283.64,312.1L283.78,313.03L284.06,312.51L284.2,313.19L284.9,312.45L285.18,313.07L285.32,313.16L286.59,313.15L286.73,313.16L288.42,313L288.56,313.12L288.84,312.43L289.27,313.24L289.41,313.03L289.55,312.53L290.25,313.2L290.39,312.9L290.53,312.22L290.81,313.26L291.1,312.69L291.24,313.25L291.66,312.69L291.8,310.21L292.5,313.3L292.65,313.09L292.79,313.25L294.05,313.08L294.19,313.04L295.32,312.59L295.46,313.17L295.6,309.52L296.16,312.65L296.3,313.01L296.45,311.24L297.01,311.99L297.15,312.84L298.27,313L298.42,312.78L299.96,313.27L300.11,312.84L300.39,313.26L300.67,313.07L300.81,304.53L301.23,313.23L301.65,312.89L301.79,313.01L302.64,313.24L302.78,312.91L302.92,313.32L303.48,313.09L303.62,312.67L304.05,313.19L304.19,294.98L304.89,313.3L305.03,313.27L305.17,313.34L306.72,313L306.86,313.17L307.14,312.67L307.71,312.95L307.85,313.31L309.25,313.01L309.4,311.12L310.24,313.28L310.38,313.11L311.51,313.2L311.65,312.71L312.49,312.99L312.63,313.09L314.18,313.16L314.32,313.08L315.31,313.25L315.45,313.19L315.59,313.13L315.73,308.29L316.58,313.25L316.72,313.27L318.69,312.18L318.83,313.13L320.94,312.39L321.08,300.32L321.64,313.18L321.92,313L322.06,311.06L322.77,313.3L322.91,313.05L323.05,313.17L325.02,313.1L325.16,312.54L325.44,312.47L326.01,313.2L326.15,313.23L326.57,312.49L326.99,313.05L327.13,313.06L328.4,313.29L328.54,312.99L329.38,313.01L329.53,313.13L330.23,312.68L330.37,312.82L330.51,313.05L330.79,305.71L330.93,313.24L331.21,313.25L331.35,313.19L332.9,312.79L333.04,301.12L333.89,313.27L334.03,313.25L334.73,312.05L334.87,312.76L335.02,313.11L335.72,312.44L335.86,312.9L336,313.2L336.84,313.08L336.99,307.37L337.83,313.29L337.97,313.2L339.1,313.16L339.24,312.66L340.22,313.19L340.36,313.16L341.35,313.26L341.49,312.95L343.04,313.15L343.18,312.75L344.02,313.17L344.16,313.18L345.29,313.28L345.43,313.31L346.56,313.36L346.7,313.4L347.54,313.21L347.68,313.08L349.09,313.25L349.23,313.14L349.94,313.35L350.08,313.05L350.22,311.94L351.06,313.24L351.2,313.25L352.47,312.89L352.61,313.19L352.75,281.83L353.03,313.26L353.31,313.22L353.45,313.27L355.57,313.12L355.71,313.22L356.27,312.94L356.55,313.3L356.69,313.3L357.54,312.95L357.68,313.16L357.82,313.2L359.37,313.22L359.51,313.29L361.62,313.16L361.76,310.42L362.46,313.28L362.6,313.21L362.74,313.23L365.14,312.95L365.28,312.55L365.42,312.2L365.56,313.03L365.84,312.74L365.98,312.89L367.11,313.3L367.25,313.07L367.39,312.63L367.95,313.07L368.09,313.25L369.5,313.21L369.64,312.89L370.35,313.25L370.49,313.15L370.63,313.01L372.04,313.18L372.18,313.2L373.44,313.19L373.58,312.96L374.99,313.18L375.13,310.13L375.98,313.2L376.12,313.21L377.1,313.34L377.24,313.18L378.23,313.05L378.37,312.96L379.35,313.26L379.5,313L380.48,313.26L380.62,313.28L381.61,312.43L381.75,313.1L384.42,312.98L384.56,312.66L385.41,313.29L385.55,313.04L385.69,313.17L386.11,312.81L386.25,294L387.1,313.16L387.24,313.1L388.36,313.21L388.5,313.12L389.63,313.26L389.77,313.02L390.76,313.12L390.9,312.78L391.88,313.17L392.02,313.22L392.45,312.52L392.73,313L392.87,313.2L393.57,312.46L393.71,313.07L394.7,312.93L394.84,293.1L395.68,313.28L395.82,313.32L396.81,313.27L396.95,313.25L397.09,312.44L397.37,313.33L397.65,313.3L397.79,312.87L398.22,313.35L398.64,313.19L398.78,313.28L399.91,313.02L400.05,313.22L400.19,313.21L402.58,313.18L402.72,246.01L403.43,313.27L403.57,313.1L403.71,313.24L405.54,313.21L405.68,313.14L406.24,313.29L406.38,313.11L406.52,312.83L407.37,313.17L407.51,313.21L409.48,313.24L409.62,310.27L410.46,313.33L410.6,313.26L412.43,313.34L412.57,313.02L413.56,313.29L413.7,313.24L415.11,313.28L415.25,313.1L415.81,313.32L415.95,309.89L416.8,313.24L416.94,313.27L418.49,313.3L418.63,307.22L419.47,313.36L419.61,313.25L420.74,313.27L420.88,313.1L422.01,313.29L422.15,311.9L422.99,313.3L423.13,313.36L423.84,313.13L423.98,313.26L424.12,313.23L425.24,313.1L425.38,312.88L425.66,312.65L425.95,312.94L426.09,311.89L426.79,313.19L426.93,313.16L427.07,312.74L427.21,312.5L427.35,313.11L427.64,313.25L427.78,313.25L429.18,313.17L429.33,313.29L431.15,313L431.3,313.27L432.84,312.97L432.98,312.79L433.97,313.16L434.11,312.94L435.24,313.26L435.38,312.76L436.22,313.27L436.36,313.36L437.35,313.18L437.49,313.13L439.46,313.24L439.6,313.14L440.73,313.32L440.87,313.12L441.57,313.33L441.71,313.23L441.85,313.18L443.4,313.32L443.54,313.23L444.53,313.32L444.67,313.08L445.65,313.35L445.79,313.12L446.78,313.26L446.92,313.01L447.62,313.2L447.77,308.37L448.61,313.33L448.75,313.19L449.88,313.19L450.02,312.94L451,313.32L451.14,313.31L452.13,313.09L452.27,313.3L456.49,313.22L456.63,312.2L457.34,313.29L457.48,313.23L457.62,313.36L459.45,313.05L459.59,313.2L461.14,313.15L461.28,313.32L462.4,313.25L462.54,313.19L463.67,313.29L463.81,313.2L464.66,312.98L464.8,298.7L465.5,313.29L465.64,313.23L465.78,313.27L469.02,313.17L469.16,312.76L469.44,312.61L470,313.15L470.15,312.68L471.13,313.18L471.27,313.3L475.92,313.1L476.06,313.21L478.87,313.17L479.01,313.33L480.28,313.17L480.42,313.28L481.97,313.12L482.11,313.34L483.66,313.21L483.8,313.27L485.63,313.19L485.77,300.97L486.33,313.3L486.61,313.24L486.76,313.27L488.59,313.29L488.73,313.02L489.71,313.27L489.85,313.29L498.16,313.09L498.3,313.32L498.58,312.54L498.72,313.34L499.56,313.15L499.71,313.09L500.83,313.25L500.97,313.25L502.1,313.31L502.24,313.35L503.08,313.08L503.23,313.23L503.37,313.31L505.05,313.29L505.2,313.28L506.32,313.13L506.46,313.31L507.87,312.89L508.01,313.32L509.28,313.25L509.42,313.32L510.4,313.12L510.54,313.2L511.95,313.17L512.09,313.1L512.94,313.3L513.08,313.17L513.22,313.06L513.78,313.2L513.92,313.08L514.06,312.64L514.91,313.27L515.05,313.2L516.74,313.24L516.88,313.26L518.15,312.95L518.29,313.17L518.43,313.12L519.55,313.31L519.69,313.2L522.37,313.35L522.51,313.3L523.35,313.27L523.49,313.36L524.34,313.14L524.48,313.3L525.46,313.23L525.61,313.28L528,313.34" style="vector-effect: non-scaling-stroke; fill: none; stroke: rgb(140, 86, 75); stroke-opacity: 1; stroke-width: 2px; opacity: 1;"/></g><g class="points"/><g class="text"/></g></g></g><g class="overplot"/><path class="xlines-above crisp" d="M0,0" style="fill: none;"/><path class="ylines-above crisp" d="M0,0" style="fill: none;"/><g class="overlines-above"/><g class="xaxislayer-above"><g class="xtick"><text text-anchor="middle" x="0" y="403" transform="translate(189.25,0)" style="font-family: 'Open Sans', verdana, arial, sans-serif; font-size: 12px; fill: rgb(68, 68, 68); fill-opacity: 1; white-space: pre;">50</text></g><g class="xtick"><text text-anchor="middle" x="0" y="403" transform="translate(321.29,0)" style="font-family: 'Open Sans', verdana, arial, sans-serif; font-size: 12px; fill: rgb(68, 68, 68); fill-opacity: 1; white-space: pre;">100</text></g><g class="xtick"><text text-anchor="middle" x="0" y="403" transform="translate(453.32,0)" style="font-family: 'Open Sans', verdana, arial, sans-serif; font-size: 12px; fill: rgb(68, 68, 68); fill-opacity: 1; white-space: pre;">150</text></g><g class="xtick"><text text-anchor="middle" x="0" y="403" transform="translate(585.36,0)" style="font-family: 'Open Sans', verdana, arial, sans-serif; font-size: 12px; fill: rgb(68, 68, 68); fill-opacity: 1; white-space: pre;">200</text></g></g><g class="yaxislayer-above"><g class="ytick"><text text-anchor="end" x="59" y="4.199999999999999" transform="translate(0,373.5)" style="font-family: 'Open Sans', verdana, arial, sans-serif; font-size: 12px; fill: rgb(68, 68, 68); fill-opacity: 1; white-space: pre;">0</text></g><g class="ytick"><text text-anchor="end" x="59" y="4.199999999999999" transform="translate(0,308.61)" style="font-family: 'Open Sans', verdana, arial, sans-serif; font-size: 12px; fill: rgb(68, 68, 68); fill-opacity: 1; white-space: pre;">5</text></g><g class="ytick"><text text-anchor="end" x="59" y="4.199999999999999" transform="translate(0,243.73)" style="font-family: 'Open Sans', verdana, arial, sans-serif; font-size: 12px; fill: rgb(68, 68, 68); fill-opacity: 1; white-space: pre;">10</text></g><g class="ytick"><text text-anchor="end" x="59" y="4.199999999999999" transform="translate(0,178.84)" style="font-family: 'Open Sans', verdana, arial, sans-serif; font-size: 12px; fill: rgb(68, 68, 68); fill-opacity: 1; white-space: pre;">15</text></g><g class="ytick"><text text-anchor="end" x="59" y="4.199999999999999" transform="translate(0,113.96000000000001)" style="font-family: 'Open Sans', verdana, arial, sans-serif; font-size: 12px; fill: rgb(68, 68, 68); fill-opacity: 1; white-space: pre;">20</text></g></g><g class="overaxes-above"/></g></g><g class="polarlayer"/><g class="ternarylayer"/><g class="geolayer"/><g class="pielayer"/><g class="glimages"/><defs id="topdefs-44b613"><g class="clips"/><clipPath id="legend44b613"><rect width="89" height="124" x="0" y="0"/></clipPath></defs><g class="layer-above"><g class="imagelayer"/><g class="shapelayer"/></g><g class="infolayer"><g class="legend" pointer-events="all" transform="translate(598.5600000000001, 60)"><rect class="bg" shape-rendering="crispEdges" width="89" height="124" x="0" y="0" style="stroke: rgb(68, 68, 68); stroke-opacity: 1; fill: rgb(255, 255, 255); fill-opacity: 1; stroke-width: 0px;"/><g class="scrollbox" transform="translate(0, 0)" clip-path="url(#legend44b613)"><g class="groups"><g class="traces" transform="translate(0, 14.5)" style="opacity: 1;"><g class="layers" style="opacity: 1;"><g class="legendfill"/><g class="legendlines"><path class="js-line" d="M5,0h30" style="fill: none; stroke: rgb(31, 119, 180); stroke-opacity: 1; stroke-width: 2px;"/></g><g class="legendsymbols"><g class="legendpoints"/></g></g><text class="legendtext user-select-none" text-anchor="start" x="40" y="4.680000000000001" style="font-family: 'Open Sans', verdana, arial, sans-serif; font-size: 12px; fill: rgb(68, 68, 68); fill-opacity: 1; white-space: pre;">G_GAN</text><rect class="legendtoggle" pointer-events="all" x="0" y="-9.5" width="129" height="19" style="cursor: pointer; fill: rgb(0, 0, 0); fill-opacity: 0;"/></g><g class="traces" transform="translate(0, 33.5)" style="opacity: 1;"><g class="layers" style="opacity: 1;"><g class="legendfill"/><g class="legendlines"><path class="js-line" d="M5,0h30" style="fill: none; stroke: rgb(255, 127, 14); stroke-opacity: 1; stroke-width: 2px;"/></g><g class="legendsymbols"><g class="legendpoints"/></g></g><text class="legendtext user-select-none" text-anchor="start" x="40" y="4.680000000000001" style="font-family: 'Open Sans', verdana, arial, sans-serif; font-size: 12px; fill: rgb(68, 68, 68); fill-opacity: 1; white-space: pre;">G_L1</text><rect class="legendtoggle" pointer-events="all" x="0" y="-9.5" width="129" height="19" style="cursor: pointer; fill: rgb(0, 0, 0); fill-opacity: 0;"/></g><g class="traces" transform="translate(0, 52.5)" style="opacity: 1;"><g class="layers" style="opacity: 1;"><g class="legendfill"/><g class="legendlines"><path class="js-line" d="M5,0h30" style="fill: none; stroke: rgb(44, 160, 44); stroke-opacity: 1; stroke-width: 2px;"/></g><g class="legendsymbols"><g class="legendpoints"/></g></g><text class="legendtext user-select-none" text-anchor="start" x="40" y="4.680000000000001" style="font-family: 'Open Sans', verdana, arial, sans-serif; font-size: 12px; fill: rgb(68, 68, 68); fill-opacity: 1; white-space: pre;">D_real</text><rect class="legendtoggle" pointer-events="all" x="0" y="-9.5" width="129" height="19" style="cursor: pointer; fill: rgb(0, 0, 0); fill-opacity: 0;"/></g><g class="traces" transform="translate(0, 71.5)" style="opacity: 1;"><g class="layers" style="opacity: 1;"><g class="legendfill"/><g class="legendlines"><path class="js-line" d="M5,0h30" style="fill: none; stroke: rgb(214, 39, 40); stroke-opacity: 1; stroke-width: 2px;"/></g><g class="legendsymbols"><g class="legendpoints"/></g></g><text class="legendtext user-select-none" text-anchor="start" x="40" y="4.680000000000001" style="font-family: 'Open Sans', verdana, arial, sans-serif; font-size: 12px; fill: rgb(68, 68, 68); fill-opacity: 1; white-space: pre;">D_fake</text><rect class="legendtoggle" pointer-events="all" x="0" y="-9.5" width="129" height="19" style="cursor: pointer; fill: rgb(0, 0, 0); fill-opacity: 0;"/></g><g class="traces" transform="translate(0, 90.5)" style="opacity: 1;"><g class="layers" style="opacity: 1;"><g class="legendfill"/><g class="legendlines"><path class="js-line" d="M5,0h30" style="fill: none; stroke: rgb(148, 103, 189); stroke-opacity: 1; stroke-width: 2px;"/></g><g class="legendsymbols"><g class="legendpoints"/></g></g><text class="legendtext user-select-none" text-anchor="start" x="40" y="4.680000000000001" style="font-family: 'Open Sans', verdana, arial, sans-serif; font-size: 12px; fill: rgb(68, 68, 68); fill-opacity: 1; white-space: pre;">T_A</text><rect class="legendtoggle" pointer-events="all" x="0" y="-9.5" width="129" height="19" style="cursor: pointer; fill: rgb(0, 0, 0); fill-opacity: 0;"/></g><g class="traces" transform="translate(0, 109.5)" style="opacity: 1;"><g class="layers" style="opacity: 1;"><g class="legendfill"/><g class="legendlines"><path class="js-line" d="M5,0h30" style="fill: none; stroke: rgb(140, 86, 75); stroke-opacity: 1; stroke-width: 2px;"/></g><g class="legendsymbols"><g class="legendpoints"/></g></g><text class="legendtext user-select-none" text-anchor="start" x="40" y="4.680000000000001" style="font-family: 'Open Sans', verdana, arial, sans-serif; font-size: 12px; fill: rgb(68, 68, 68); fill-opacity: 1; white-space: pre;">T_B</text><rect class="legendtoggle" pointer-events="all" x="0" y="-9.5" width="129" height="19" style="cursor: pointer; fill: rgb(0, 0, 0); fill-opacity: 0;"/></g></g></g><rect class="scrollbar" rx="20" ry="3" width="0" height="0" x="0" y="0" style="fill: rgb(128, 139, 164); fill-opacity: 1;"/></g><g class="g-gtitle"><text class="gtitle" x="350" y="30" text-anchor="middle" dy="0em" style="font-family: 'Open Sans', verdana, arial, sans-serif; font-size: 17px; fill: rgb(68, 68, 68); opacity: 1; font-weight: normal; white-space: pre;">rss_expr4.3 loss over time</text></g><g class="g-xtitle"><text class="xtitle" x="324" y="442" text-anchor="middle" style="font-family: 'Open Sans', verdana, arial, sans-serif; font-size: 14px; fill: rgb(68, 68, 68); opacity: 1; font-weight: normal; white-space: pre;">epoch</text></g><g class="g-ytitle"><text class="ytitle" transform="rotate(-90,22,225)" x="22" y="225" text-anchor="middle" style="font-family: 'Open Sans', verdana, arial, sans-serif; font-size: 14px; fill: rgb(68, 68, 68); opacity: 1; font-weight: normal; white-space: pre;">loss</text></g></g></svg>