<svg class="main-svg" xmlns="http://www.w3.org/2000/svg" xmlns:xlink="http://www.w3.org/1999/xlink" width="700" height="450" style="" viewBox="0 0 700 450"><rect x="0" y="0" width="700" height="450" style="fill: rgb(255, 255, 255); fill-opacity: 1;"/><defs id="defs-379c67"><g class="clips"><clipPath id="clip379c67xyplot" class="plotclip"><rect width="528" height="330"/></clipPath><clipPath class="axesclip" id="clip379c67x"><rect x="60" y="0" width="528" height="450"/></clipPath><clipPath class="axesclip" id="clip379c67y"><rect x="0" y="60" width="700" height="330"/></clipPath><clipPath class="axesclip" id="clip379c67xy"><rect x="60" y="60" width="528" height="330"/></clipPath></g><g class="gradients"/></defs><g class="bglayer"/><g class="layer-below"><g class="imagelayer"/><g class="shapelayer"/></g><g class="cartesianlayer"><g class="subplot xy"><g class="layer-subplot"><g class="shapelayer"/><g class="imagelayer"/></g><g class="gridlayer"><g class="x"><path class="xgrid crisp" transform="translate(189.25,0)" d="M0,60v330" style="stroke: rgb(238, 238, 238); stroke-opacity: 1; stroke-width: 1px;"/><path class="xgrid crisp" transform="translate(321.29,0)" d="M0,60v330" style="stroke: rgb(238, 238, 238); stroke-opacity: 1; stroke-width: 1px;"/><path class="xgrid crisp" transform="translate(453.32,0)" d="M0,60v330" style="stroke: rgb(238, 238, 238); stroke-opacity: 1; stroke-width: 1px;"/><path class="xgrid crisp" transform="translate(585.36,0)" d="M0,60v330" style="stroke: rgb(238, 238, 238); stroke-opacity: 1; stroke-width: 1px;"/></g><g class="y"><path class="ygrid crisp" transform="translate(0,320.35)" d="M60,0h528" style="stroke: rgb(238, 238, 238); stroke-opacity: 1; stroke-width: 1px;"/><path class="ygrid crisp" transform="translate(0,267.21000000000004)" d="M60,0h528" style="stroke: rgb(238, 238, 238); stroke-opacity: 1; stroke-width: 1px;"/><path class="ygrid crisp" transform="translate(0,214.06)" d="M60,0h528" style="stroke: rgb(238, 238, 238); stroke-opacity: 1; stroke-width: 1px;"/><path class="ygrid crisp" transform="translate(0,160.92000000000002)" d="M60,0h528" style="stroke: rgb(238, 238, 238); stroke-opacity: 1; stroke-width: 1px;"/><path class="ygrid crisp" transform="translate(0,107.77000000000001)" d="M60,0h528" style="stroke: rgb(238, 238, 238); stroke-opacity: 1; stroke-width: 1px;"/></g></g><g class="zerolinelayer"><path class="yzl zl crisp" transform="translate(0,373.5)" d="M60,0h528" style="stroke: rgb(68, 68, 68); stroke-opacity: 1; stroke-width: 1px;"/></g><path class="xlines-below"/><path class="ylines-below"/><g class="overlines-below"/><g class="xaxislayer-below"/><g class="yaxislayer-below"/><g class="overaxes-below"/><g class="plot" transform="translate(60, 60)" clip-path="url(#clip379c67xyplot)"><g class="scatterlayer mlayer"><g class="trace scatter trace4d3b70" style="stroke-miterlimit: 2; opacity: 1;"><g class="fills"/><g class="errorbars"/><g class="lines"><path class="js-line" d="M0,298.45L0.85,300.26L0.99,299.85L1.69,288.27L1.83,290.93L1.97,288.58L2.11,291.26L2.39,287.61L2.67,288.05L2.82,289.63L3.1,287.27L3.24,302.09L4.08,287.09L4.22,287.29L4.51,289.46L4.65,287.46L4.79,294.89L5.35,287.09L5.63,287.44L5.77,288.92L5.91,287.63L6.05,295.77L6.76,287.07L7.18,287.27L7.32,286.97L7.6,287.44L7.74,293.49L7.88,287.86L8.45,288.5L8.59,289.49L8.87,287.13L9.01,293.68L9.43,287.7L9.85,287.73L10,287.38L10.28,287.01L10.98,292.97L11.12,287.24L11.26,287.15L11.4,288.12L11.54,287.03L11.68,288.94L11.82,292.43L12.11,286.94L12.67,286.99L12.81,286.98L14.08,287.7L14.22,287.94L14.5,286.95L14.92,287.38L15.06,287.9L15.63,288.02L15.91,286.95L16.05,287.03L17.74,286.96L17.88,287.42L18.72,286.95L18.86,286.97L20.69,287.13L20.83,288.16L21.82,286.93L21.96,286.93L91.64,286.93L91.78,310.82L92.06,299.61L92.62,301.82L92.76,300.97L92.9,303.59L93.18,299.07L93.33,292.68L93.89,287.74L94.03,296.32L94.87,286.98L95.01,287.05L95.72,287.9L95.86,288.6L96,287.32L96.14,304.81L96.42,287.25L96.99,291.17L97.13,287.74L97.55,294.57L97.83,288.29L97.97,287.5L98.11,288.89L98.25,288.02L98.39,305.69L98.53,287.03L99.24,287.89L99.38,287.93L99.52,286.96L100.08,287.4L100.22,288.42L100.65,288.49L100.79,286.94L101.07,286.97L101.21,287.13L101.35,288.13L101.91,287.22L102.05,287.22L112.19,286.94L112.33,287.71L113.74,286.93L113.88,286.93L123.17,286.94L123.31,303.25L123.45,304.99L123.73,301.83L123.87,295.31L124.01,295.15L124.15,309.83L125,286.98L125.14,286.94L126.12,288.55L126.26,304.45L126.69,287.51L127.11,288.03L127.25,287.85L127.95,287.18L128.09,287.74L128.24,288.11L128.38,288.54L128.8,287.5L128.94,287.28L129.64,287.02L129.78,287.45L129.92,287.74L130.77,286.93L130.91,286.93L141.47,287.11L141.61,289.39L141.75,287.15L142.03,287.21L142.17,303.94L142.73,286.94L143.01,289.33L143.16,286.93L147.24,287.1L147.38,287.96L147.66,307.45L147.8,287.82L148.08,289.24L148.22,287.78L148.79,286.94L148.93,287.38L149.07,287.92L149.21,307.78L149.77,287.43L149.91,287.49L151.74,287.01L151.88,287.07L153.29,288.02L153.43,286.93L153.85,287.47L154.14,286.98L154.28,287.2L155.4,287.31L155.54,302.92L156.39,286.94L156.53,287.51L156.81,287.83L156.95,287.15L157.09,287.29L157.23,287.16L158.22,286.93L158.36,286.93L208.89,286.93L209.03,294.84L209.17,305.5L209.6,287.37L209.74,298.43L209.88,290.75L210.44,286.95L210.72,287.37L210.86,287.24L211.71,286.99L211.85,287.1L212.13,287.94L212.27,286.99L212.55,287.56L212.69,287.21L213.11,288.19L213.26,287.24L213.54,287.66L213.68,291.98L213.96,287.59L214.1,309.06L214.24,287.23L214.94,287.29L215.09,287.48L215.51,287.87L216.07,287.12L216.21,287.82L216.49,288.71L217.2,287.2L217.34,287.3L217.62,287.51L218.04,286.95L218.18,287.39L220.57,286.95L220.72,287.61L221.28,287.02L221.56,287.42L221.7,287.55L221.98,288.02L222.4,287.28L222.55,287.92L223.39,287.13L223.53,287.04L239.44,286.94L239.58,298.26L239.86,287.34L240.28,287.59L240.42,301.33L241.27,286.94L241.41,287.01L242.11,287.49L242.25,287.33L242.39,287.01L243.52,286.96L243.66,286.95L252.53,287.01L252.67,291.91L253.09,286.93L253.51,287.29L253.65,287.06L254.64,287.42L254.78,287.48L257.03,286.94L257.17,287.06L257.74,287.29L258.02,286.95L258.16,286.97L259.57,286.93L259.71,286.93L269,286.96L269.14,289.8L269.42,287L269.98,287.36L270.12,287.18L270.4,287.32L270.55,313.23L271.39,286.98L271.53,287.53L271.67,286.97L272.23,287.2L272.37,287.5L272.66,287.74L273.22,286.97L273.36,287.01L274.63,287.27L274.77,287.03L274.91,287.46L275.47,287.05L275.61,287.03L278.57,286.93L278.71,286.93L283.78,286.94L283.92,312.66L284.2,286.93L284.62,287.14L284.76,299.87L285.04,286.99L285.61,287.82L285.75,287.16L286.73,287.02L286.87,287.39L287.72,286.97L287.86,286.95L374.15,286.95L374.29,294.61L375.13,286.93L375.27,286.94L377.24,286.94L377.38,313.5L378.23,286.95L378.37,286.97L378.51,287.69L378.93,287.09L379.07,301.92L379.78,286.96L379.92,289.96L380.06,286.93L383.72,287.37L383.86,302.77L384,303.11L384.14,286.93L394.7,287.18L394.84,288.95L395.68,287L395.82,287.15L395.97,287.5L396.53,286.93L396.67,286.95L396.95,287L397.09,308L397.65,309.43L397.79,286.94L397.94,286.96L398.08,286.97L400.33,286.99L400.47,286.96L401.59,287.14L401.74,287.15L403.43,286.93L403.57,286.94L424.68,286.93L424.82,286.94L446.08,286.93L446.22,286.93L528,286.93" style="vector-effect: non-scaling-stroke; fill: none; stroke: rgb(31, 119, 180); stroke-opacity: 1; stroke-width: 2px; opacity: 1;"/></g><g class="points"/><g class="text"/></g><g class="trace scatter trace8e2390" style="stroke-miterlimit: 2; opacity: 1;"><g class="fills"/><g class="errorbars"/><g class="lines"><path class="js-line" d="M0,313.5L528,313.5" style="vector-effect: non-scaling-stroke; fill: none; stroke: rgb(255, 127, 14); stroke-opacity: 1; stroke-width: 2px; opacity: 1;"/></g><g class="points"/><g class="text"/></g><g class="trace scatter trace0fd215" style="stroke-miterlimit: 2; opacity: 1;"><g class="fills"/><g class="errorbars"/><g class="lines"><path class="js-line" d="M0,306.36L0.14,303L0.56,307.69L0.7,305.21L0.85,308.44L0.99,308.3L1.13,311.95L1.27,312.3L1.41,308.61L2.25,313.43L2.39,312.59L3.1,313.49L3.24,306.62L3.38,303.11L3.66,313.49L3.8,313.48L4.65,313.49L4.79,310.18L5.63,313.49L5.77,311.58L5.91,313.49L6.05,300.33L6.76,313.5L6.9,313.47L7.04,313.49L7.6,313.5L7.74,298.68L8.59,313.49L8.73,313.35L9.57,313.41L9.71,291.37L10.14,313.5L10.56,313.46L10.7,302.85L11.54,313.5L11.68,313.49L11.82,312.59L12.39,313.5L12.53,313.5L91.64,313.5L91.78,309.52L92.34,303.65L92.48,307.74L92.62,310.63L92.76,306.63L93.33,311.2L93.47,312.96L93.89,313.43L94.03,307.12L94.17,313.29L95.58,313.47L95.72,313.39L95.86,313.45L96,294.94L96.42,313.5L96.85,311.82L96.99,296.71L97.41,313.46L97.83,313.42L97.97,313.41L98.11,313.15L98.25,313.23L98.39,301.81L98.67,313.5L99.24,313.49L99.38,313.5L104.16,313.5L104.31,313.5L123.17,313.5L123.31,303.93L124.72,313.49L124.86,311.92L125.56,313.5L125.7,313.45L125.84,313.49L126.26,307.68L126.41,313.42L126.55,313.33L127.67,313.49L127.81,313.5L142.03,313.49L142.17,310.89L142.87,313.5L143.01,313.36L143.16,313.5L147.38,313.45L147.52,306.87L147.66,307.28L147.8,313.37L148.08,312.82L148.5,313.5L148.65,313.49L149.21,312.87L149.35,312.49L150.19,313.49L150.34,313.49L155.4,313.47L155.54,312.02L156.53,313.5L156.67,313.5L208.89,313.5L209.03,304.31L209.6,313.49L209.88,310L210.02,313.38L210.16,313.49L210.3,311.94L211.14,313.49L211.28,313.5L213.96,313.48L214.1,311.66L214.94,313.48L215.09,313.5L221.28,313.5L221.42,309.13L222.26,313.49L222.4,313.49L239.44,313.5L239.58,311.78L239.72,307.7L240.14,313.49L240.28,313.5L240.42,309.32L240.99,313.5L241.13,313.5L252.53,313.5L252.67,311.02L253.65,313.5L253.79,313.5L268.86,313.5L269,312.46L269.14,302.33L269.42,313.5L269.7,313.46L269.84,313.48L280.54,313.5L280.68,313.5L280.96,312.87L281.38,313.5L281.53,313.5L284.62,313.48L284.76,309.06L285.47,313.49L285.61,313.39L285.75,313.5L374.15,313.5L374.29,312.29L375.13,313.5L375.27,313.5L375.84,313.5L375.98,312.49L376.82,313.5L376.96,313.5L377.38,313.5L377.52,300.06L378.37,313.5L378.51,313.5L379.78,313.49L379.92,311.35L380.76,313.5L380.9,313.5L383.86,313.14L384,299.44L384.84,313.5L384.99,313.5L394.7,313.5L394.84,304.8L395.26,313.5L395.68,313.49L395.82,313.5L396.95,313.5L397.09,310.5L397.94,313.5L398.08,313.5L528,313.5" style="vector-effect: non-scaling-stroke; fill: none; stroke: rgb(44, 160, 44); stroke-opacity: 1; stroke-width: 2px; opacity: 1;"/></g><g class="points"/><g class="text"/></g><g class="trace scatter trace41f1d9" style="stroke-miterlimit: 2; opacity: 1;"><g class="fills"/><g class="errorbars"/><g class="lines"><path class="js-line" d="M0,308.24L0.85,312.35L0.99,307.84L1.69,313.49L1.83,313.1L1.97,313.38L2.11,311.3L2.39,313.49L2.67,313.48L2.82,313.22L3.1,313.5L3.24,305.82L4.08,313.5L4.22,313.5L4.51,313.2L4.65,313.5L4.79,312.14L4.93,313.45L5.07,303.61L5.35,313.5L5.91,313.49L6.05,313.5L6.33,309.19L6.62,313.5L6.76,313.5L7.74,312.6L7.88,311.6L8.02,309.07L8.16,313.32L8.45,312.8L8.59,313.14L8.87,313.5L9.01,310.41L9.85,313.47L10,309.55L10.28,313.5L10.7,310.08L10.84,308.81L11.54,313.5L11.68,313.36L11.82,297.02L12.67,313.5L12.81,313.5L91.64,313.5L91.78,294.8L92.34,312.25L92.62,305.42L92.76,304.99L93.75,313.41L93.89,310.5L94.03,306.37L94.45,313.48L94.59,313.5L95.72,312.54L95.86,313.43L96,313.5L96.14,310.72L96.99,313.5L97.13,313.47L97.83,311.69L97.97,313.48L98.25,313.1L98.39,311.22L98.82,313.5L99.24,313.47L99.38,313.47L120.77,313.5L120.92,313.5L123.17,313.5L123.31,300.01L124.15,313.5L124.43,313.48L124.57,313.47L124.72,313.5L124.86,310.17L125,301.3L125.28,313.49L125.42,313.47L125.56,313.5L125.84,313.46L125.98,312.12L126.12,313.23L126.26,304.89L126.41,313.48L127.11,313.17L127.25,313.48L142.03,313.34L142.17,299.18L142.87,313.5L143.01,313.38L143.16,313.5L147.38,313.49L147.52,304.27L148.36,313.5L148.5,313.5L149.07,313.46L149.21,296.4L150.05,313.48L150.19,313.5L155.4,313.49L155.54,300.85L156.39,313.5L156.53,313.49L177.22,313.5L177.36,313.5L208.89,313.5L209.03,310L209.17,295.14L209.45,313.48L209.74,306.04L209.88,305.54L210.58,313.5L210.72,313.49L210.86,313.5L213.68,313.47L213.82,301.5L214.1,296.87L214.24,313.49L214.38,313.48L214.52,294.1L214.94,313.5L215.37,313.49L215.51,313.47L237.19,313.5L237.33,313.5L239.44,313.5L239.58,299.72L240.56,313.5L240.7,313.49L252.53,313.49L252.67,303.94L253.37,313.5L253.51,313.48L253.65,313.5L269,313.49L269.14,302.85L269.84,313.5L269.98,313.49L270.12,313.5L270.4,313.49L270.55,288.42L271.39,313.5L271.53,313.47L281.53,313.5L281.67,313L282.51,313.5L282.65,313.5L283.78,313.5L283.92,288.01L284.62,313.5L284.76,301.88L285.18,313.5L285.61,313.43L285.75,313.49L307,313.5L307.14,313.5L313.9,313.5L314.04,305.39L314.6,313.5L314.89,313.49L315.03,313.49L336.28,313.5L336.42,313.5L377.24,313.5L377.38,286.94L378.23,313.5L378.37,313.5L378.93,313.5L379.07,292.58L379.92,313.5L380.06,313.5L383.72,313.49L383.86,293.6L384.7,313.5L384.84,313.5L396.95,313.5L397.09,295.2L397.94,313.5L398.08,313.5L528,313.5" style="vector-effect: non-scaling-stroke; fill: none; stroke: rgb(214, 39, 40); stroke-opacity: 1; stroke-width: 2px; opacity: 1;"/></g><g class="points"/><g class="text"/></g><g class="trace scatter traceba9fb1" style="stroke-miterlimit: 2; opacity: 1;"><g class="fills"/><g class="errorbars"/><g class="lines"><path class="js-line" d="M0,310.5L0.85,313.46L0.99,313.46L20.97,313.46L21.11,313.43L24.07,313.47L24.21,313.47L45.33,313.48L45.47,313.47L66.16,313.47L66.3,313.46L77,313.48L77.14,313.47L528,313.46" style="vector-effect: non-scaling-stroke; fill: none; stroke: rgb(148, 103, 189); stroke-opacity: 1; stroke-width: 2px; opacity: 1;"/></g><g class="points"/><g class="text"/></g><g class="trace scatter trace9e5105" style="stroke-miterlimit: 2; opacity: 1;"><g class="fills"/><g class="errorbars"/><g class="lines"><path class="js-line" d="M0,16.5L0.42,310.47L0.85,308.46L0.99,309.53L2.25,312.74L2.39,312.25L3.1,313L3.24,312.59L3.38,311.36L3.52,310.62L3.8,312.8L3.94,312.1L4.08,312.28L4.22,313.27L4.65,313.19L4.79,311.69L5.63,313.03L5.77,310.61L6.62,312.87L6.76,312.96L7.18,312.17L7.6,312.9L7.74,312.99L8.45,311.33L8.59,312.85L9.43,312.09L9.57,312.46L10.28,313.13L10.42,312.94L10.56,312.9L10.7,311.54L10.84,313L11.26,312.71L11.4,313.09L11.97,313.02L12.11,308.73L12.95,312.98L13.09,312.83L14.08,313.1L14.22,313.05L14.5,313.27L14.64,312.2L15.06,312.73L15.2,313.29L15.63,312.21L15.91,313.31L16.05,313.3L19.57,313.18L19.71,312.93L20.55,313.31L20.69,311.35L21.54,313.4L21.68,313.31L25.62,313.31L25.76,313.43L27.45,313.41L27.59,313.42L29,313.31L29.14,313.46L32.09,313.27L32.23,313.43L36.32,313.29L36.46,312.71L37.02,313.38L37.3,313.16L37.44,313.41L38.71,313.3L38.85,313.39L40.54,313.36L40.68,313.28L42.09,313.45L42.23,313.31L43.36,313.42L43.5,313.46L45.18,313.42L45.33,313.42L50.25,312.99L50.39,313.46L51.94,313.3L52.08,313.42L53.07,313.24L53.21,313.44L53.49,313.4L53.63,312.57L54.19,313.45L54.48,313.38L54.62,313.33L55.88,313.37L56.02,313.14L57.15,313.37L57.29,313.34L58.13,313.42L58.28,312.74L58.98,313.4L59.12,313.05L59.97,313.42L60.11,313.45L70.24,313.45L70.38,313.4L74.75,313.44L74.89,313.24L75.87,313.46L76.01,313.47L82.77,313.33L82.91,313.48L84.46,313.43L84.6,313.46L86.29,313.28L86.43,313.44L86.99,313.33L87.13,311.92L87.84,313.49L87.98,313.46L88.12,313.48L89.67,313.48L89.81,313.48L91.64,313.42L91.78,312.62L92.34,310.85L92.48,311.02L92.62,312.5L92.76,312.7L92.9,311.26L94.03,313.19L94.17,312.95L94.31,312.77L96,313.35L96.14,312.81L97.41,313.33L97.55,312.9L98.11,312.51L98.39,313.28L98.53,313.33L99.52,313.32L99.66,313.39L100.36,313.14L100.5,313.34L123.17,313.44L123.31,309.21L123.87,313.2L124.29,313.13L124.43,313.07L124.72,313.33L124.86,312.04L125.7,313.35L125.84,312.79L126.69,313.36L126.83,313.27L128.09,313.24L128.24,313.37L129.22,313.18L129.36,313.39L130.35,313.34L130.49,313.4L134.99,313.45L135.13,313.44L139.36,313.17L139.5,313.46L141.33,313.22L141.47,308.91L141.75,313.22L142.31,313.19L142.45,313.21L146.11,312.92L146.25,312.08L146.96,313.41L147.1,313.14L147.24,313.36L147.94,312.94L148.08,305.54L148.93,313.39L149.07,313.38L149.21,312.99L149.77,313.25L149.91,313.31L150.9,313.17L151.04,313.34L152.31,313.01L152.45,313.39L153.43,312.88L153.57,313.34L154.28,313.12L154.42,313.22L154.56,313.33L155.54,313.03L155.68,313.04L155.96,311.77L156.11,313.22L156.25,312.9L156.39,313.31L157.94,313.28L158.08,313.31L159.91,313.4L160.05,313.45L164.27,313.43L164.41,313.44L181.58,313.39L181.73,313.3L182.99,313.46L183.13,313.47L184.54,313.43L184.68,313.38L188.2,313.43L188.34,313.22L189.19,313.4L189.33,313.45L209.03,313.46L209.17,312.35L209.6,313.26L209.74,311.87L210.58,313.41L210.72,313.24L211.99,313.36L212.13,313.31L213.11,313.33L213.26,312.96L213.54,313.34L213.82,313.05L213.96,313.34L215.65,313.17L215.79,313.3L217.62,313.33L217.76,313.33L218.89,313.28L219.03,313.27L220.15,313.45L220.29,313.43L221.98,313.35L222.12,312.71L222.55,313.24L222.69,313.14L222.83,312.27L223.67,313.34L223.81,313.18L224.52,313L224.66,313.41L224.8,313.37L226.91,313.46L227.05,313.46L239.44,313.34L239.58,309.27L240.28,313.33L240.42,313.06L240.56,312.34L241.41,313.37L241.55,313.19L242.39,313.36L242.53,313.23L242.68,313.34L243.52,313.37L243.66,313.46L244.65,313.46L244.79,313.46L246.76,313.39L246.9,313.46L251.54,313.23L251.68,312.95L252.53,313.24L252.67,312.63L253.51,313.41L253.65,313.36L254.64,312.42L254.78,313.33L255.34,312.53L255.48,313.23L255.63,313.34L257.6,313.3L257.74,313.12L258.72,313.41L258.86,313.35L272.8,313.4L272.94,312.18L273.78,313.42L273.92,313.33L281.95,313.37L282.09,313.4L282.93,313.29L283.07,313.39L284.2,313.35L284.34,313.45L284.76,313.02L284.9,313.34L285.04,311.53L285.89,313.43L286.03,313.39L287.72,313.28L287.86,313.32L289.13,313.38L289.27,313.43L290.67,313.43L290.81,313.44L292.65,313.47L292.79,313.46L294.19,313.37L294.33,313.41L294.48,312.77L295.04,313.28L295.18,313.32L296.3,313.42L296.45,313.4L312.21,313.09L312.35,312.13L313.2,313.32L313.34,313.32L314.6,313.34L314.74,313.39L324.32,313.41L324.46,313.15L325.44,313.41L325.58,313.41L330.09,313.47L330.23,313.42L334.45,313.47L334.59,313.42L335.44,313.42L335.58,313.44L338.39,313.47L338.53,313.48L351.48,313.45L351.62,313.47L528,313.5" style="vector-effect: non-scaling-stroke; fill: none; stroke: rgb(140, 86, 75); stroke-opacity: 1; stroke-width: 2px; opacity: 1;"/></g><g class="points"/><g class="text"/></g></g></g><g class="overplot"/><path class="xlines-above crisp" d="M0,0" style="fill: none;"/><path class="ylines-above crisp" d="M0,0" style="fill: none;"/><g class="overlines-above"/><g class="xaxislayer-above"><g class="xtick"><text text-anchor="middle" x="0" y="403" transform="translate(189.25,0)" style="font-family: 'Open Sans', verdana, arial, sans-serif; font-size: 12px; fill: rgb(68, 68, 68); fill-opacity: 1; white-space: pre;">50</text></g><g class="xtick"><text text-anchor="middle" x="0" y="403" transform="translate(321.29,0)" style="font-family: 'Open Sans', verdana, arial, sans-serif; font-size: 12px; fill: rgb(68, 68, 68); fill-opacity: 1; white-space: pre;">100</text></g><g class="xtick"><text text-anchor="middle" x="0" y="403" transform="translate(453.32,0)" style="font-family: 'Open Sans', verdana, arial, sans-serif; font-size: 12px; fill: rgb(68, 68, 68); fill-opacity: 1; white-space: pre;">150</text></g><g class="xtick"><text text-anchor="middle" x="0" y="403" transform="translate(585.36,0)" style="font-family: 'Open Sans', verdana, arial, sans-serif; font-size: 12px; fill: rgb(68, 68, 68); fill-opacity: 1; white-space: pre;">200</text></g></g><g class="yaxislayer-above"><g class="ytick"><text text-anchor="end" x="59" y="4.199999999999999" transform="translate(0,373.5)" style="font-family: 'Open Sans', verdana, arial, sans-serif; font-size: 12px; fill: rgb(68, 68, 68); fill-opacity: 1; white-space: pre;">0</text></g><g class="ytick"><text text-anchor="end" x="59" y="4.199999999999999" transform="translate(0,320.35)" style="font-family: 'Open Sans', verdana, arial, sans-serif; font-size: 12px; fill: rgb(68, 68, 68); fill-opacity: 1; white-space: pre;">2</text></g><g class="ytick"><text text-anchor="end" x="59" y="4.199999999999999" transform="translate(0,267.21000000000004)" style="font-family: 'Open Sans', verdana, arial, sans-serif; font-size: 12px; fill: rgb(68, 68, 68); fill-opacity: 1; white-space: pre;">4</text></g><g class="ytick"><text text-anchor="end" x="59" y="4.199999999999999" transform="translate(0,214.06)" style="font-family: 'Open Sans', verdana, arial, sans-serif; font-size: 12px; fill: rgb(68, 68, 68); fill-opacity: 1; white-space: pre;">6</text></g><g class="ytick"><text text-anchor="end" x="59" y="4.199999999999999" transform="translate(0,160.92000000000002)" style="font-family: 'Open Sans', verdana, arial, sans-serif; font-size: 12px; fill: rgb(68, 68, 68); fill-opacity: 1; white-space: pre;">8</text></g><g class="ytick"><text text-anchor="end" x="59" y="4.199999999999999" transform="translate(0,107.77000000000001)" style="font-family: 'Open Sans', verdana, arial, sans-serif; font-size: 12px; fill: rgb(68, 68, 68); fill-opacity: 1; white-space: pre;">10</text></g></g><g class="overaxes-above"/></g></g><g class="polarlayer"/><g class="ternarylayer"/><g class="geolayer"/><g class="pielayer"/><g class="glimages"/><defs id="topdefs-379c67"><g class="clips"/><clipPath id="legend379c67"><rect width="89" height="124" x="0" y="0"/></clipPath></defs><g class="layer-above"><g class="imagelayer"/><g class="shapelayer"/></g><g class="infolayer"><g class="legend" pointer-events="all" transform="translate(598.5600000000001, 60)"><rect class="bg" shape-rendering="crispEdges" width="89" height="124" x="0" y="0" style="stroke: rgb(68, 68, 68); stroke-opacity: 1; fill: rgb(255, 255, 255); fill-opacity: 1; stroke-width: 0px;"/><g class="scrollbox" transform="translate(0, 0)" clip-path="url(#legend379c67)"><g class="groups"><g class="traces" transform="translate(0, 14.5)" style="opacity: 1;"><g class="layers" style="opacity: 1;"><g class="legendfill"/><g class="legendlines"><path class="js-line" d="M5,0h30" style="fill: none; stroke: rgb(31, 119, 180); stroke-opacity: 1; stroke-width: 2px;"/></g><g class="legendsymbols"><g class="legendpoints"/></g></g><text class="legendtext user-select-none" text-anchor="start" x="40" y="4.680000000000001" style="font-family: 'Open Sans', verdana, arial, sans-serif; font-size: 12px; fill: rgb(68, 68, 68); fill-opacity: 1; white-space: pre;">G_GAN</text><rect class="legendtoggle" pointer-events="all" x="0" y="-9.5" width="129" height="19" style="cursor: pointer; fill: rgb(0, 0, 0); fill-opacity: 0;"/></g><g class="traces" transform="translate(0, 33.5)" style="opacity: 1;"><g class="layers" style="opacity: 1;"><g class="legendfill"/><g class="legendlines"><path class="js-line" d="M5,0h30" style="fill: none; stroke: rgb(255, 127, 14); stroke-opacity: 1; stroke-width: 2px;"/></g><g class="legendsymbols"><g class="legendpoints"/></g></g><text class="legendtext user-select-none" text-anchor="start" x="40" y="4.680000000000001" style="font-family: 'Open Sans', verdana, arial, sans-serif; font-size: 12px; fill: rgb(68, 68, 68); fill-opacity: 1; white-space: pre;">G_L1</text><rect class="legendtoggle" pointer-events="all" x="0" y="-9.5" width="129" height="19" style="cursor: pointer; fill: rgb(0, 0, 0); fill-opacity: 0;"/></g><g class="traces" transform="translate(0, 52.5)" style="opacity: 1;"><g class="layers" style="opacity: 1;"><g class="legendfill"/><g class="legendlines"><path class="js-line" d="M5,0h30" style="fill: none; stroke: rgb(44, 160, 44); stroke-opacity: 1; stroke-width: 2px;"/></g><g class="legendsymbols"><g class="legendpoints"/></g></g><text class="legendtext user-select-none" text-anchor="start" x="40" y="4.680000000000001" style="font-family: 'Open Sans', verdana, arial, sans-serif; font-size: 12px; fill: rgb(68, 68, 68); fill-opacity: 1; white-space: pre;">D_real</text><rect class="legendtoggle" pointer-events="all" x="0" y="-9.5" width="129" height="19" style="cursor: pointer; fill: rgb(0, 0, 0); fill-opacity: 0;"/></g><g class="traces" transform="translate(0, 71.5)" style="opacity: 1;"><g class="layers" style="opacity: 1;"><g class="legendfill"/><g class="legendlines"><path class="js-line" d="M5,0h30" style="fill: none; stroke: rgb(214, 39, 40); stroke-opacity: 1; stroke-width: 2px;"/></g><g class="legendsymbols"><g class="legendpoints"/></g></g><text class="legendtext user-select-none" text-anchor="start" x="40" y="4.680000000000001" style="font-family: 'Open Sans', verdana, arial, sans-serif; font-size: 12px; fill: rgb(68, 68, 68); fill-opacity: 1; white-space: pre;">D_fake</text><rect class="legendtoggle" pointer-events="all" x="0" y="-9.5" width="129" height="19" style="cursor: pointer; fill: rgb(0, 0, 0); fill-opacity: 0;"/></g><g class="traces" transform="translate(0, 90.5)" style="opacity: 1;"><g class="layers" style="opacity: 1;"><g class="legendfill"/><g class="legendlines"><path class="js-line" d="M5,0h30" style="fill: none; stroke: rgb(148, 103, 189); stroke-opacity: 1; stroke-width: 2px;"/></g><g class="legendsymbols"><g class="legendpoints"/></g></g><text class="legendtext user-select-none" text-anchor="start" x="40" y="4.680000000000001" style="font-family: 'Open Sans', verdana, arial, sans-serif; font-size: 12px; fill: rgb(68, 68, 68); fill-opacity: 1; white-space: pre;">T_A</text><rect class="legendtoggle" pointer-events="all" x="0" y="-9.5" width="129" height="19" style="cursor: pointer; fill: rgb(0, 0, 0); fill-opacity: 0;"/></g><g class="traces" transform="translate(0, 109.5)" style="opacity: 1;"><g class="layers" style="opacity: 1;"><g class="legendfill"/><g class="legendlines"><path class="js-line" d="M5,0h30" style="fill: none; stroke: rgb(140, 86, 75); stroke-opacity: 1; stroke-width: 2px;"/></g><g class="legendsymbols"><g class="legendpoints"/></g></g><text class="legendtext user-select-none" text-anchor="start" x="40" y="4.680000000000001" style="font-family: 'Open Sans', verdana, arial, sans-serif; font-size: 12px; fill: rgb(68, 68, 68); fill-opacity: 1; white-space: pre;">T_B</text><rect class="legendtoggle" pointer-events="all" x="0" y="-9.5" width="129" height="19" style="cursor: pointer; fill: rgb(0, 0, 0); fill-opacity: 0;"/></g></g></g><rect class="scrollbar" rx="20" ry="3" width="0" height="0" x="0" y="0" style="fill: rgb(128, 139, 164); fill-opacity: 1;"/></g><g class="g-gtitle"><text class="gtitle" x="350" y="30" text-anchor="middle" dy="0em" style="font-family: 'Open Sans', verdana, arial, sans-serif; font-size: 17px; fill: rgb(68, 68, 68); opacity: 1; font-weight: normal; white-space: pre;">rss_expr4.10 loss over time</text></g><g class="g-xtitle"><text class="xtitle" x="324" y="442" text-anchor="middle" style="font-family: 'Open Sans', verdana, arial, sans-serif; font-size: 14px; fill: rgb(68, 68, 68); opacity: 1; font-weight: normal; white-space: pre;">epoch</text></g><g class="g-ytitle"><text class="ytitle" transform="rotate(-90,22,225)" x="22" y="225" text-anchor="middle" style="font-family: 'Open Sans', verdana, arial, sans-serif; font-size: 14px; fill: rgb(68, 68, 68); opacity: 1; font-weight: normal; white-space: pre;">loss</text></g></g></svg>